<svg xmlns="http://www.w3.org/2000/svg" width="112.5" viewBox="0 0 112.5 112.5" height="112.5" version="1.0"><defs><clipPath id="a"><path d="M 0 0 L 112.003906 0 L 112.003906 112.003906 L 0 112.003906 Z M 0 0"/></clipPath><clipPath id="b"><path d="M 17.332031 25 L 49 25 L 49 71 L 17.332031 71 Z M 17.332031 25"/></clipPath><clipPath id="c"><path d="M 51 20.199219 L 83 20.199219 L 83 66 L 51 66 Z M 51 20.199219"/></clipPath><clipPath id="d"><path d="M 27 35 L 95.332031 35 L 95.332031 92.199219 L 27 92.199219 Z M 27 35"/></clipPath></defs><g clip-path="url(#a)"><path fill="#FFF" d="M 0 0 L 112.5 0 L 112.5 112.5 L 0 112.5 Z M 0 0"/><path d="M 0 0 L 112.5 0 L 112.5 112.5 L 0 112.5 Z M 0 0"/></g><g clip-path="url(#b)"><path fill="#EA3392" d="M 36.285156 51.910156 C 34.804688 50.867188 34.472656 49.828125 35.296875 48.785156 C 40.609375 47.625 44.585938 42.910156 44.585938 37.265625 C 44.585938 30.75 39.285156 25.472656 32.75 25.472656 C 26.210938 25.472656 20.910156 30.75 20.910156 37.265625 C 20.910156 42.910156 24.886719 47.625 30.199219 48.785156 C 31.023438 49.828125 30.691406 50.867188 29.210938 51.910156 C 22.4375 52.902344 17.394531 56.6875 17.394531 61.203125 C 17.394531 66.480469 24.269531 70.757812 32.75 70.757812 C 41.226562 70.757812 48.101562 66.480469 48.101562 61.203125 C 48.101562 56.6875 43.058594 52.902344 36.285156 51.910156"/></g><path fill="#FFF" d="M 27.132812 39.730469 C 27.402344 42.585938 29.8125 44.820312 32.75 44.820312 C 35.683594 44.820312 38.09375 42.585938 38.363281 39.730469 L 27.132812 39.730469"/><g clip-path="url(#c)"><path fill="#70C72D" d="M 70.347656 46.636719 C 68.867188 45.597656 68.535156 44.554688 69.359375 43.515625 C 74.667969 42.351562 78.648438 37.636719 78.648438 31.996094 C 78.648438 25.480469 73.347656 20.199219 66.808594 20.199219 C 60.273438 20.199219 54.972656 25.480469 54.972656 31.996094 C 54.972656 37.636719 58.949219 42.351562 64.261719 43.515625 C 65.082031 44.554688 64.753906 45.597656 63.273438 46.636719 C 56.5 47.632812 51.457031 51.414062 51.457031 55.933594 C 51.457031 61.210938 58.332031 65.488281 66.808594 65.488281 C 75.289062 65.488281 82.164062 61.210938 82.164062 55.933594 C 82.164062 51.414062 77.121094 47.632812 70.347656 46.636719"/></g><path fill="#FFF" d="M 61.195312 34.460938 C 61.464844 37.316406 63.875 39.546875 66.808594 39.546875 C 69.746094 39.546875 72.15625 37.316406 72.425781 34.460938 L 61.195312 34.460938"/><path fill="#8A43A6" d="M 52.414062 54.351562 C 50.933594 53.308594 50.605469 52.269531 51.425781 51.226562 C 56.738281 50.066406 60.714844 45.351562 60.714844 39.707031 C 60.714844 33.191406 55.414062 27.914062 48.878906 27.914062 C 42.34375 27.914062 37.042969 33.191406 37.042969 39.707031 C 37.042969 45.351562 41.019531 50.066406 46.332031 51.226562 C 47.152344 52.269531 46.824219 53.308594 45.34375 54.351562 C 38.566406 55.34375 33.523438 59.128906 33.523438 63.644531 C 33.523438 68.921875 40.398438 73.199219 48.878906 73.199219 C 57.359375 73.199219 64.234375 68.921875 64.234375 63.644531 C 64.234375 59.128906 59.1875 55.34375 52.414062 54.351562"/><path fill="#FFF" d="M 43.261719 42.171875 C 43.535156 45.027344 45.945312 47.261719 48.878906 47.261719 C 51.8125 47.261719 54.222656 45.027344 54.496094 42.171875 L 43.261719 42.171875"/><g clip-path="url(#d)"><path fill="#51ADE5" d="M 95.269531 46.105469 L 84.894531 35.765625 L 49.25 71.519531 L 37.503906 59.824219 L 27.128906 70.164062 L 38.875 81.859375 L 49.25 92.195312 L 59.625 81.859375 L 95.269531 46.105469"/></g></svg>