<svg xmlns="http://www.w3.org/2000/svg" width="112.5" viewBox="0 0 112.5 112.5" height="112.5" version="1.0"><defs><clipPath id="a"><path d="M 0 0 L 112.003906 0 L 112.003906 112.003906 L 0 112.003906 Z M 0 0"/></clipPath><clipPath id="b"><path d="M 21.414062 49 L 38 49 L 38 66 L 21.414062 66 Z M 21.414062 49"/></clipPath><clipPath id="c"><path d="M 21.414062 22.199219 L 69 22.199219 L 69 66 L 21.414062 66 Z M 21.414062 22.199219"/></clipPath><clipPath id="d"><path d="M 32 22.199219 L 34 22.199219 L 34 23 L 32 23 Z M 32 22.199219"/></clipPath><clipPath id="e"><path d="M 21.414062 22.199219 L 36 22.199219 L 36 34 L 21.414062 34 Z M 21.414062 22.199219"/></clipPath><clipPath id="f"><path d="M 56 22.199219 L 58 22.199219 L 58 23 L 56 23 Z M 56 22.199219"/></clipPath><clipPath id="g"><path d="M 45 22.199219 L 63 22.199219 L 63 34 L 45 34 Z M 45 22.199219"/></clipPath><clipPath id="h"><path d="M 32 48 L 91.164062 48 L 91.164062 90.449219 L 32 90.449219 Z M 32 48"/></clipPath></defs><g clip-path="url(#a)"><path fill="#FFF" d="M 0 0 L 112.5 0 L 112.5 112.5 L 0 112.5 Z M 0 0"/><path d="M 0 0 L 112.5 0 L 112.5 112.5 L 0 112.5 Z M 0 0"/></g><path fill="#BE5E3E" d="M 27.832031 58.921875 C 27.832031 58.921875 23.429688 55.65625 22.171875 58.804688 C 22.171875 58.804688 29.136719 62.957031 30.984375 64.621094 C 30.984375 64.621094 31.78125 64.785156 32.8125 64.441406 L 27.832031 58.921875"/><path fill="#CF7D57" d="M 63.296875 60.980469 C 63.296875 60.980469 57.0625 59.777344 55.453125 58.675781 C 55.453125 58.675781 53.84375 56.964844 51.714844 56.316406 C 51.714844 56.316406 48.3125 50.988281 45.136719 52.507812 C 45.136719 52.507812 44.035156 53.039062 44.765625 54.96875 C 44.765625 54.96875 45.109375 55.660156 48.367188 59.40625 C 48.367188 59.40625 52.917969 62.5 53.90625 64.675781 L 63.296875 60.980469"/><g clip-path="url(#b)"><path fill="#CF7D57" d="M 31.695312 56.902344 C 31.695312 56.902344 29.378906 55.582031 28.871094 55.699219 C 28.871094 55.699219 26.027344 47.179688 21.753906 50.367188 C 21.753906 50.367188 24.65625 54.234375 25.785156 57.265625 C 25.785156 57.265625 26.195312 58.359375 27.050781 58.992188 C 27.050781 58.992188 31.050781 63.222656 31.734375 64.558594 C 31.734375 64.558594 32.621094 65.566406 36.464844 65.15625 C 40.308594 64.75 31.695312 56.902344 31.695312 56.902344"/></g><g clip-path="url(#c)"><path fill="#E41D25" d="M 45.152344 34.078125 C 45.152344 27.515625 39.835938 22.199219 33.285156 22.199219 C 26.730469 22.199219 21.417969 27.515625 21.417969 34.078125 C 21.417969 34.269531 21.421875 34.464844 21.429688 34.65625 L 21.417969 34.65625 C 21.878906 50.570312 45.152344 65.679688 45.152344 65.679688 C 45.152344 65.679688 68.425781 50.570312 68.886719 34.65625 L 68.871094 34.65625 C 68.878906 34.464844 68.886719 34.269531 68.886719 34.078125 C 68.886719 27.515625 63.574219 22.199219 57.019531 22.199219 C 50.464844 22.199219 45.152344 27.515625 45.152344 34.078125"/></g><g clip-path="url(#d)"><path fill="#D9D9D7" d="M 32.140625 22.253906 L 32.140625 22.253906 M 32.148438 22.25 C 32.148438 22.25 32.152344 22.25 32.152344 22.25 C 32.152344 22.25 32.148438 22.25 32.148438 22.25 M 32.160156 22.25 L 32.160156 22.25 M 32.167969 22.25 L 32.167969 22.25 M 32.175781 22.25 L 32.179688 22.25 C 32.179688 22.25 32.175781 22.25 32.175781 22.25 M 32.1875 22.25 L 32.1875 22.25 M 32.195312 22.246094 L 32.195312 22.246094 M 32.203125 22.246094 C 32.203125 22.246094 32.203125 22.246094 32.207031 22.246094 L 32.203125 22.246094 M 32.214844 22.246094 L 32.214844 22.246094 M 32.222656 22.246094 L 32.222656 22.246094 M 32.234375 22.246094 L 32.234375 22.246094 M 32.367188 22.234375 L 32.367188 22.234375 M 32.40625 22.230469 L 32.40625 22.230469 M 32.414062 22.230469 C 32.414062 22.230469 32.414062 22.230469 32.417969 22.230469 C 32.414062 22.230469 32.414062 22.230469 32.414062 22.230469 M 32.421875 22.230469 C 32.425781 22.230469 32.425781 22.230469 32.425781 22.230469 C 32.425781 22.230469 32.425781 22.230469 32.421875 22.230469 M 32.433594 22.226562 L 32.433594 22.226562 M 32.441406 22.226562 C 32.441406 22.226562 32.441406 22.226562 32.445312 22.226562 C 32.441406 22.226562 32.441406 22.226562 32.441406 22.226562 M 32.449219 22.226562 C 32.449219 22.226562 32.453125 22.226562 32.453125 22.226562 C 32.453125 22.226562 32.453125 22.226562 32.449219 22.226562 M 32.460938 22.226562 L 32.460938 22.226562 M 32.46875 22.226562 C 32.46875 22.226562 32.46875 22.226562 32.472656 22.226562 C 32.46875 22.226562 32.46875 22.226562 32.46875 22.226562 M 32.476562 22.226562 C 32.480469 22.226562 32.480469 22.226562 32.480469 22.226562 C 32.480469 22.226562 32.480469 22.226562 32.476562 22.226562 M 32.488281 22.226562 C 32.488281 22.226562 32.488281 22.222656 32.488281 22.222656 C 32.488281 22.222656 32.488281 22.226562 32.488281 22.226562 M 32.496094 22.222656 C 32.496094 22.222656 32.5 22.222656 32.5 22.222656 C 32.5 22.222656 32.496094 22.222656 32.496094 22.222656 M 32.503906 22.222656 C 32.507812 22.222656 32.507812 22.222656 32.507812 22.222656 C 32.507812 22.222656 32.507812 22.222656 32.503906 22.222656 M 32.515625 22.222656 C 32.515625 22.222656 32.515625 22.222656 32.519531 22.222656 C 32.515625 22.222656 32.515625 22.222656 32.515625 22.222656 M 32.523438 22.222656 C 32.523438 22.222656 32.527344 22.222656 32.527344 22.222656 C 32.527344 22.222656 32.523438 22.222656 32.523438 22.222656 M 32.535156 22.222656 L 32.535156 22.222656 M 32.542969 22.222656 L 32.542969 22.222656 M 32.550781 22.21875 C 32.550781 22.21875 32.554688 22.21875 32.554688 22.21875 C 32.554688 22.21875 32.550781 22.21875 32.550781 22.21875 M 32.5625 22.21875 L 32.5625 22.21875 M 32.570312 22.21875 L 32.570312 22.21875 M 32.582031 22.21875 L 32.582031 22.21875 M 32.589844 22.21875 L 32.589844 22.21875 M 32.597656 22.21875 C 32.597656 22.21875 32.597656 22.21875 32.601562 22.21875 C 32.597656 22.21875 32.597656 22.21875 32.597656 22.21875 M 32.667969 22.214844 C 32.667969 22.214844 32.671875 22.214844 32.671875 22.214844 C 32.671875 22.214844 32.667969 22.214844 32.667969 22.214844 M 32.679688 22.214844 C 32.679688 22.214844 32.679688 22.214844 32.683594 22.214844 C 32.679688 22.214844 32.679688 22.214844 32.679688 22.214844 M 32.6875 22.210938 C 32.6875 22.210938 32.691406 22.210938 32.691406 22.210938 C 32.691406 22.210938 32.6875 22.210938 32.6875 22.210938 M 32.699219 22.210938 L 32.699219 22.210938 M 32.707031 22.210938 C 32.707031 22.210938 32.707031 22.210938 32.710938 22.210938 C 32.707031 22.210938 32.707031 22.210938 32.707031 22.210938 M 32.714844 22.210938 C 32.71875 22.210938 32.71875 22.210938 32.71875 22.210938 C 32.71875 22.210938 32.71875 22.210938 32.714844 22.210938 M 32.726562 22.210938 L 32.726562 22.210938 M 32.734375 22.210938 C 32.734375 22.210938 32.734375 22.210938 32.738281 22.210938 C 32.734375 22.210938 32.734375 22.210938 32.734375 22.210938 M 32.742188 22.210938 C 32.746094 22.210938 32.746094 22.210938 32.746094 22.210938 C 32.746094 22.210938 32.746094 22.210938 32.742188 22.210938 M 32.753906 22.210938 C 32.753906 22.210938 32.753906 22.210938 32.757812 22.210938 C 32.753906 22.210938 32.753906 22.210938 32.753906 22.210938 M 32.761719 22.210938 C 32.765625 22.210938 32.765625 22.210938 32.765625 22.207031 C 32.765625 22.210938 32.765625 22.210938 32.761719 22.210938 M 32.769531 22.207031 C 32.773438 22.207031 32.773438 22.207031 32.773438 22.207031 C 32.773438 22.207031 32.773438 22.207031 32.769531 22.207031 M 32.78125 22.207031 C 32.78125 22.207031 32.78125 22.207031 32.785156 22.207031 C 32.78125 22.207031 32.78125 22.207031 32.78125 22.207031 M 32.789062 22.207031 C 32.792969 22.207031 32.792969 22.207031 32.792969 22.207031 C 32.792969 22.207031 32.792969 22.207031 32.789062 22.207031 M 32.800781 22.207031 C 32.800781 22.207031 32.800781 22.207031 32.804688 22.207031 C 32.800781 22.207031 32.800781 22.207031 32.800781 22.207031 M 32.808594 22.207031 C 32.808594 22.207031 32.8125 22.207031 32.8125 22.207031 C 32.8125 22.207031 32.808594 22.207031 32.808594 22.207031 M 32.816406 22.207031 C 32.820312 22.207031 32.820312 22.207031 32.824219 22.207031 C 32.820312 22.207031 32.820312 22.207031 32.816406 22.207031 M 32.828125 22.207031 C 32.828125 22.207031 32.828125 22.207031 32.832031 22.207031 C 32.828125 22.207031 32.828125 22.207031 32.828125 22.207031 M 32.835938 22.207031 C 32.839844 22.207031 32.839844 22.207031 32.839844 22.207031 C 32.839844 22.207031 32.839844 22.207031 32.835938 22.207031 M 32.847656 22.207031 C 32.847656 22.207031 32.847656 22.207031 32.851562 22.207031 C 32.847656 22.207031 32.847656 22.207031 32.847656 22.207031 M 32.855469 22.207031 C 32.855469 22.207031 32.859375 22.207031 32.859375 22.207031 C 32.859375 22.207031 32.859375 22.207031 32.855469 22.207031 M 32.863281 22.207031 C 32.867188 22.207031 32.867188 22.207031 32.871094 22.207031 C 32.867188 22.207031 32.867188 22.207031 32.863281 22.207031 M 32.875 22.207031 C 32.875 22.203125 32.875 22.203125 32.878906 22.203125 C 32.875 22.203125 32.875 22.203125 32.875 22.207031 M 32.882812 22.203125 C 32.886719 22.203125 32.886719 22.203125 32.886719 22.203125 C 32.886719 22.203125 32.886719 22.203125 32.882812 22.203125 M 32.894531 22.203125 C 32.894531 22.203125 32.894531 22.203125 32.898438 22.203125 C 32.894531 22.203125 32.894531 22.203125 32.894531 22.203125 M 32.902344 22.203125 C 32.90625 22.203125 32.90625 22.203125 32.90625 22.203125 C 32.90625 22.203125 32.902344 22.203125 32.902344 22.203125 M 32.910156 22.203125 C 32.914062 22.203125 32.914062 22.203125 32.917969 22.203125 C 32.914062 22.203125 32.914062 22.203125 32.910156 22.203125 M 32.921875 22.203125 C 32.921875 22.203125 32.921875 22.203125 32.925781 22.203125 C 32.921875 22.203125 32.921875 22.203125 32.921875 22.203125 M 32.929688 22.203125 C 32.933594 22.203125 32.933594 22.203125 32.9375 22.203125 C 32.933594 22.203125 32.933594 22.203125 32.929688 22.203125 M 32.941406 22.203125 C 32.941406 22.203125 32.945312 22.203125 32.949219 22.203125 C 32.945312 22.203125 32.941406 22.203125 32.941406 22.203125 M 32.949219 22.203125 C 32.957031 22.203125 32.96875 22.203125 32.976562 22.203125 C 32.96875 22.203125 32.957031 22.203125 32.949219 22.203125 M 32.980469 22.203125 C 32.980469 22.203125 32.984375 22.203125 32.988281 22.203125 C 32.984375 22.203125 32.980469 22.203125 32.980469 22.203125 M 32.992188 22.203125 C 32.992188 22.203125 32.996094 22.203125 32.996094 22.203125 C 32.992188 22.203125 32.992188 22.203125 32.992188 22.203125 M 33 22.203125 C 33.003906 22.203125 33.003906 22.203125 33.003906 22.203125 C 33.003906 22.203125 33.003906 22.203125 33 22.203125 M 33.011719 22.203125 C 33.011719 22.203125 33.011719 22.203125 33.015625 22.203125 C 33.011719 22.203125 33.011719 22.203125 33.011719 22.203125 M 33.019531 22.203125 C 33.023438 22.203125 33.023438 22.203125 33.023438 22.203125 C 33.023438 22.203125 33.023438 22.203125 33.019531 22.203125 M 33.03125 22.199219 C 33.03125 22.199219 33.03125 22.199219 33.035156 22.199219 C 33.03125 22.199219 33.03125 22.199219 33.03125 22.199219 M 33.039062 22.199219 C 33.039062 22.199219 33.042969 22.199219 33.042969 22.199219 C 33.042969 22.199219 33.039062 22.199219 33.039062 22.199219 M 33.046875 22.199219 C 33.050781 22.199219 33.050781 22.199219 33.054688 22.199219 C 33.050781 22.199219 33.050781 22.199219 33.046875 22.199219 M 33.058594 22.199219 C 33.058594 22.199219 33.058594 22.199219 33.0625 22.199219 C 33.058594 22.199219 33.058594 22.199219 33.058594 22.199219 M 33.066406 22.199219 C 33.070312 22.199219 33.070312 22.199219 33.070312 22.199219 C 33.070312 22.199219 33.070312 22.199219 33.066406 22.199219 M 33.074219 22.199219 C 33.078125 22.199219 33.078125 22.199219 33.082031 22.199219 C 33.078125 22.199219 33.078125 22.199219 33.074219 22.199219 M 33.085938 22.199219 C 33.085938 22.199219 33.089844 22.199219 33.089844 22.199219 C 33.089844 22.199219 33.085938 22.199219 33.085938 22.199219 M 33.09375 22.199219 C 33.097656 22.199219 33.097656 22.199219 33.101562 22.199219 C 33.097656 22.199219 33.097656 22.199219 33.09375 22.199219 M 33.105469 22.199219 C 33.105469 22.199219 33.105469 22.199219 33.109375 22.199219 C 33.105469 22.199219 33.105469 22.199219 33.105469 22.199219 M 33.113281 22.199219 C 33.117188 22.199219 33.117188 22.199219 33.117188 22.199219 C 33.117188 22.199219 33.117188 22.199219 33.113281 22.199219 M 33.125 22.199219 C 33.125 22.199219 33.125 22.199219 33.128906 22.199219 C 33.125 22.199219 33.125 22.199219 33.125 22.199219 M 33.132812 22.199219 C 33.132812 22.199219 33.136719 22.199219 33.136719 22.199219 C 33.136719 22.199219 33.136719 22.199219 33.132812 22.199219 M 33.140625 22.199219 C 33.144531 22.199219 33.144531 22.199219 33.148438 22.199219 C 33.144531 22.199219 33.144531 22.199219 33.140625 22.199219 M 33.152344 22.199219 C 33.152344 22.199219 33.15625 22.199219 33.15625 22.199219 C 33.15625 22.199219 33.152344 22.199219 33.152344 22.199219 M 33.160156 22.199219 C 33.164062 22.199219 33.164062 22.199219 33.167969 22.199219 C 33.164062 22.199219 33.164062 22.199219 33.160156 22.199219 M 33.171875 22.199219 C 33.171875 22.199219 33.171875 22.199219 33.175781 22.199219 C 33.171875 22.199219 33.171875 22.199219 33.171875 22.199219 M 33.179688 22.199219 C 33.183594 22.199219 33.183594 22.199219 33.183594 22.199219 C 33.183594 22.199219 33.183594 22.199219 33.179688 22.199219 M 33.1875 22.199219 C 33.191406 22.199219 33.191406 22.199219 33.195312 22.199219 C 33.191406 22.199219 33.191406 22.199219 33.1875 22.199219 M 33.199219 22.199219 C 33.199219 22.199219 33.203125 22.199219 33.203125 22.199219 C 33.203125 22.199219 33.199219 22.199219 33.199219 22.199219 M 33.207031 22.199219 C 33.210938 22.199219 33.210938 22.199219 33.214844 22.199219 C 33.210938 22.199219 33.210938 22.199219 33.207031 22.199219 M 33.21875 22.199219 C 33.21875 22.199219 33.222656 22.199219 33.222656 22.199219 C 33.222656 22.199219 33.21875 22.199219 33.21875 22.199219 M 33.226562 22.199219 C 33.230469 22.199219 33.230469 22.199219 33.234375 22.199219 C 33.230469 22.199219 33.230469 22.199219 33.226562 22.199219 M 33.238281 22.199219 C 33.238281 22.199219 33.238281 22.199219 33.242188 22.199219 C 33.238281 22.199219 33.238281 22.199219 33.238281 22.199219 M 33.324219 22.199219 L 33.324219 22.199219 M 33.246094 22.199219 C 33.246094 22.199219 33.25 22.199219 33.253906 22.199219 C 33.25 22.199219 33.246094 22.199219 33.246094 22.199219 M 33.316406 22.199219 C 33.316406 22.199219 33.316406 22.199219 33.3125 22.199219 C 33.3125 22.199219 33.316406 22.199219 33.316406 22.199219 M 33.253906 22.199219 C 33.257812 22.199219 33.257812 22.199219 33.261719 22.199219 C 33.257812 22.199219 33.257812 22.199219 33.253906 22.199219 M 33.304688 22.199219 L 33.304688 22.199219 M 33.265625 22.199219 C 33.265625 22.199219 33.269531 22.199219 33.269531 22.199219 C 33.269531 22.199219 33.265625 22.199219 33.265625 22.199219 M 33.296875 22.199219 C 33.292969 22.199219 33.292969 22.199219 33.292969 22.199219 C 33.292969 22.199219 33.296875 22.199219 33.296875 22.199219 M 33.273438 22.199219 C 33.277344 22.199219 33.28125 22.199219 33.285156 22.199219 C 33.28125 22.199219 33.277344 22.199219 33.273438 22.199219"/></g><g clip-path="url(#e)"><path fill="#CA1F26" d="M 21.429688 33.515625 C 21.707031 27.601562 26.300781 22.816406 32.132812 22.253906 C 32.136719 22.253906 32.136719 22.253906 32.140625 22.253906 C 32.144531 22.253906 32.148438 22.25 32.148438 22.25 C 32.148438 22.25 32.152344 22.25 32.152344 22.25 C 32.152344 22.25 32.15625 22.25 32.160156 22.25 C 32.164062 22.25 32.164062 22.25 32.167969 22.25 C 32.171875 22.25 32.175781 22.25 32.175781 22.25 C 32.175781 22.25 32.179688 22.25 32.179688 22.25 C 32.179688 22.25 32.183594 22.25 32.1875 22.25 C 32.191406 22.25 32.191406 22.246094 32.195312 22.246094 C 32.199219 22.246094 32.203125 22.246094 32.203125 22.246094 L 32.207031 22.246094 C 32.207031 22.246094 32.210938 22.246094 32.214844 22.246094 C 32.21875 22.246094 32.21875 22.246094 32.222656 22.246094 C 32.226562 22.246094 32.230469 22.246094 32.234375 22.246094 C 32.234375 22.246094 32.238281 22.242188 32.242188 22.242188 C 32.285156 22.238281 32.324219 22.234375 32.367188 22.234375 C 32.371094 22.234375 32.375 22.234375 32.378906 22.230469 C 32.382812 22.230469 32.382812 22.230469 32.386719 22.230469 C 32.390625 22.230469 32.394531 22.230469 32.398438 22.230469 C 32.398438 22.230469 32.402344 22.230469 32.40625 22.230469 C 32.410156 22.230469 32.410156 22.230469 32.414062 22.230469 C 32.414062 22.230469 32.414062 22.230469 32.417969 22.230469 C 32.417969 22.230469 32.421875 22.230469 32.421875 22.230469 C 32.425781 22.230469 32.425781 22.230469 32.425781 22.230469 C 32.425781 22.230469 32.429688 22.226562 32.433594 22.226562 C 32.4375 22.226562 32.4375 22.226562 32.441406 22.226562 C 32.441406 22.226562 32.441406 22.226562 32.445312 22.226562 C 32.445312 22.226562 32.449219 22.226562 32.449219 22.226562 C 32.453125 22.226562 32.453125 22.226562 32.453125 22.226562 C 32.453125 22.226562 32.457031 22.226562 32.460938 22.226562 C 32.464844 22.226562 32.46875 22.226562 32.46875 22.226562 C 32.46875 22.226562 32.46875 22.226562 32.472656 22.226562 C 32.472656 22.226562 32.476562 22.226562 32.476562 22.226562 C 32.480469 22.226562 32.480469 22.226562 32.480469 22.226562 C 32.484375 22.226562 32.484375 22.226562 32.488281 22.226562 C 32.488281 22.226562 32.488281 22.222656 32.488281 22.222656 C 32.492188 22.222656 32.496094 22.222656 32.496094 22.222656 C 32.496094 22.222656 32.5 22.222656 32.5 22.222656 C 32.5 22.222656 32.503906 22.222656 32.503906 22.222656 C 32.507812 22.222656 32.507812 22.222656 32.507812 22.222656 C 32.511719 22.222656 32.511719 22.222656 32.515625 22.222656 C 32.515625 22.222656 32.515625 22.222656 32.519531 22.222656 C 32.519531 22.222656 32.523438 22.222656 32.523438 22.222656 C 32.523438 22.222656 32.527344 22.222656 32.527344 22.222656 C 32.527344 22.222656 32.53125 22.222656 32.535156 22.222656 C 32.539062 22.222656 32.539062 22.222656 32.542969 22.222656 C 32.546875 22.222656 32.550781 22.222656 32.550781 22.21875 C 32.550781 22.21875 32.554688 22.21875 32.554688 22.21875 C 32.558594 22.21875 32.558594 22.21875 32.5625 22.21875 C 32.566406 22.21875 32.566406 22.21875 32.570312 22.21875 C 32.574219 22.21875 32.578125 22.21875 32.582031 22.21875 C 32.582031 22.21875 32.585938 22.21875 32.589844 22.21875 C 32.59375 22.21875 32.59375 22.21875 32.597656 22.21875 C 32.597656 22.21875 32.597656 22.21875 32.601562 22.21875 C 32.625 22.214844 32.644531 22.214844 32.667969 22.214844 C 32.667969 22.214844 32.671875 22.214844 32.671875 22.214844 C 32.675781 22.214844 32.675781 22.214844 32.679688 22.214844 C 32.679688 22.214844 32.679688 22.214844 32.683594 22.214844 C 32.683594 22.210938 32.6875 22.210938 32.6875 22.210938 C 32.6875 22.210938 32.691406 22.210938 32.691406 22.210938 C 32.691406 22.210938 32.695312 22.210938 32.699219 22.210938 C 32.703125 22.210938 32.703125 22.210938 32.707031 22.210938 C 32.707031 22.210938 32.707031 22.210938 32.710938 22.210938 C 32.710938 22.210938 32.714844 22.210938 32.714844 22.210938 C 32.71875 22.210938 32.71875 22.210938 32.71875 22.210938 C 32.722656 22.210938 32.722656 22.210938 32.726562 22.210938 C 32.730469 22.210938 32.730469 22.210938 32.734375 22.210938 C 32.734375 22.210938 32.734375 22.210938 32.738281 22.210938 C 32.738281 22.210938 32.742188 22.210938 32.742188 22.210938 C 32.746094 22.210938 32.746094 22.210938 32.746094 22.210938 C 32.75 22.210938 32.75 22.210938 32.753906 22.210938 C 32.753906 22.210938 32.753906 22.210938 32.757812 22.210938 C 32.757812 22.210938 32.757812 22.210938 32.761719 22.210938 C 32.765625 22.210938 32.765625 22.210938 32.765625 22.207031 C 32.769531 22.207031 32.769531 22.207031 32.769531 22.207031 C 32.773438 22.207031 32.773438 22.207031 32.773438 22.207031 C 32.777344 22.207031 32.777344 22.207031 32.78125 22.207031 C 32.78125 22.207031 32.78125 22.207031 32.785156 22.207031 C 32.785156 22.207031 32.789062 22.207031 32.789062 22.207031 C 32.792969 22.207031 32.792969 22.207031 32.792969 22.207031 C 32.796875 22.207031 32.796875 22.207031 32.800781 22.207031 C 32.800781 22.207031 32.800781 22.207031 32.804688 22.207031 C 32.804688 22.207031 32.808594 22.207031 32.808594 22.207031 C 32.808594 22.207031 32.8125 22.207031 32.8125 22.207031 C 32.816406 22.207031 32.816406 22.207031 32.816406 22.207031 C 32.820312 22.207031 32.820312 22.207031 32.824219 22.207031 C 32.824219 22.207031 32.824219 22.207031 32.828125 22.207031 C 32.828125 22.207031 32.828125 22.207031 32.832031 22.207031 C 32.835938 22.207031 32.835938 22.207031 32.835938 22.207031 C 32.839844 22.207031 32.839844 22.207031 32.839844 22.207031 C 32.84375 22.207031 32.84375 22.207031 32.847656 22.207031 C 32.847656 22.207031 32.847656 22.207031 32.851562 22.207031 C 32.851562 22.207031 32.851562 22.207031 32.855469 22.207031 C 32.859375 22.207031 32.859375 22.207031 32.859375 22.207031 C 32.863281 22.207031 32.863281 22.207031 32.863281 22.207031 C 32.867188 22.207031 32.867188 22.207031 32.871094 22.207031 C 32.871094 22.207031 32.871094 22.207031 32.875 22.207031 C 32.875 22.203125 32.875 22.203125 32.878906 22.203125 C 32.878906 22.203125 32.882812 22.203125 32.882812 22.203125 C 32.886719 22.203125 32.886719 22.203125 32.886719 22.203125 C 32.890625 22.203125 32.890625 22.203125 32.894531 22.203125 C 32.894531 22.203125 32.894531 22.203125 32.898438 22.203125 C 32.898438 22.203125 32.902344 22.203125 32.902344 22.203125 C 32.902344 22.203125 32.90625 22.203125 32.90625 22.203125 C 32.910156 22.203125 32.910156 22.203125 32.910156 22.203125 C 32.914062 22.203125 32.914062 22.203125 32.917969 22.203125 C 32.917969 22.203125 32.917969 22.203125 32.921875 22.203125 C 32.921875 22.203125 32.921875 22.203125 32.925781 22.203125 C 32.929688 22.203125 32.929688 22.203125 32.929688 22.203125 C 32.933594 22.203125 32.933594 22.203125 32.9375 22.203125 C 32.9375 22.203125 32.9375 22.203125 32.941406 22.203125 C 32.941406 22.203125 32.945312 22.203125 32.949219 22.203125 C 32.957031 22.203125 32.96875 22.203125 32.976562 22.203125 C 32.976562 22.203125 32.976562 22.203125 32.980469 22.203125 C 32.980469 22.203125 32.984375 22.203125 32.988281 22.203125 C 32.988281 22.203125 32.988281 22.203125 32.992188 22.203125 C 32.992188 22.203125 32.992188 22.203125 32.996094 22.203125 C 33 22.203125 33 22.203125 33 22.203125 C 33.003906 22.203125 33.003906 22.203125 33.003906 22.203125 C 33.007812 22.203125 33.007812 22.203125 33.011719 22.203125 C 33.011719 22.203125 33.011719 22.203125 33.015625 22.203125 C 33.015625 22.203125 33.019531 22.203125 33.019531 22.203125 C 33.023438 22.203125 33.023438 22.203125 33.023438 22.203125 C 33.027344 22.203125 33.027344 22.199219 33.03125 22.199219 C 33.03125 22.199219 33.03125 22.199219 33.035156 22.199219 C 33.035156 22.199219 33.035156 22.199219 33.039062 22.199219 C 33.039062 22.199219 33.042969 22.199219 33.042969 22.199219 C 33.046875 22.199219 33.046875 22.199219 33.046875 22.199219 C 33.050781 22.199219 33.050781 22.199219 33.054688 22.199219 C 33.054688 22.199219 33.054688 22.199219 33.058594 22.199219 C 33.058594 22.199219 33.058594 22.199219 33.0625 22.199219 C 33.0625 22.199219 33.066406 22.199219 33.066406 22.199219 C 33.070312 22.199219 33.070312 22.199219 33.070312 22.199219 C 33.074219 22.199219 33.074219 22.199219 33.074219 22.199219 C 33.078125 22.199219 33.078125 22.199219 33.082031 22.199219 C 33.082031 22.199219 33.082031 22.199219 33.085938 22.199219 C 33.085938 22.199219 33.089844 22.199219 33.089844 22.199219 C 33.09375 22.199219 33.09375 22.199219 33.09375 22.199219 C 33.097656 22.199219 33.097656 22.199219 33.101562 22.199219 C 33.101562 22.199219 33.101562 22.199219 33.105469 22.199219 C 33.105469 22.199219 33.105469 22.199219 33.109375 22.199219 C 33.109375 22.199219 33.113281 22.199219 33.113281 22.199219 C 33.117188 22.199219 33.117188 22.199219 33.117188 22.199219 C 33.121094 22.199219 33.121094 22.199219 33.125 22.199219 C 33.125 22.199219 33.125 22.199219 33.128906 22.199219 C 33.128906 22.199219 33.128906 22.199219 33.132812 22.199219 C 33.136719 22.199219 33.136719 22.199219 33.136719 22.199219 C 33.140625 22.199219 33.140625 22.199219 33.140625 22.199219 C 33.144531 22.199219 33.144531 22.199219 33.148438 22.199219 C 33.148438 22.199219 33.148438 22.199219 33.152344 22.199219 C 33.152344 22.199219 33.15625 22.199219 33.15625 22.199219 C 33.15625 22.199219 33.160156 22.199219 33.160156 22.199219 C 33.164062 22.199219 33.164062 22.199219 33.167969 22.199219 C 33.167969 22.199219 33.167969 22.199219 33.171875 22.199219 C 33.171875 22.199219 33.171875 22.199219 33.175781 22.199219 C 33.175781 22.199219 33.179688 22.199219 33.179688 22.199219 C 33.183594 22.199219 33.183594 22.199219 33.183594 22.199219 C 33.1875 22.199219 33.1875 22.199219 33.1875 22.199219 C 33.191406 22.199219 33.191406 22.199219 33.195312 22.199219 C 33.195312 22.199219 33.195312 22.199219 33.199219 22.199219 C 33.199219 22.199219 33.203125 22.199219 33.203125 22.199219 C 33.207031 22.199219 33.207031 22.199219 33.207031 22.199219 C 33.210938 22.199219 33.210938 22.199219 33.214844 22.199219 C 33.214844 22.199219 33.214844 22.199219 33.21875 22.199219 C 33.21875 22.199219 33.222656 22.199219 33.222656 22.199219 C 33.222656 22.199219 33.226562 22.199219 33.226562 22.199219 C 33.230469 22.199219 33.230469 22.199219 33.234375 22.199219 C 33.234375 22.199219 33.234375 22.199219 33.238281 22.199219 C 33.238281 22.199219 33.238281 22.199219 33.242188 22.199219 C 33.242188 22.199219 33.246094 22.199219 33.246094 22.199219 C 33.246094 22.199219 33.25 22.199219 33.253906 22.199219 C 33.257812 22.199219 33.257812 22.199219 33.261719 22.199219 C 33.261719 22.199219 33.261719 22.199219 33.265625 22.199219 C 33.265625 22.199219 33.269531 22.199219 33.269531 22.199219 C 33.269531 22.199219 33.273438 22.199219 33.273438 22.199219 C 33.277344 22.199219 33.28125 22.199219 33.285156 22.199219 C 33.289062 22.199219 33.289062 22.199219 33.292969 22.199219 C 33.292969 22.199219 33.292969 22.199219 33.296875 22.199219 C 33.300781 22.199219 33.300781 22.199219 33.304688 22.199219 C 33.308594 22.199219 33.3125 22.199219 33.3125 22.199219 C 33.316406 22.199219 33.316406 22.199219 33.316406 22.199219 C 33.320312 22.199219 33.320312 22.199219 33.324219 22.199219 C 34.1875 22.203125 35.023438 22.296875 35.832031 22.472656 C 32.628906 23.378906 24.496094 26.324219 21.429688 33.515625"/></g><g clip-path="url(#f)"><path fill="#D9D9D7" d="M 56.515625 22.207031 L 56.519531 22.207031 C 56.515625 22.207031 56.515625 22.207031 56.515625 22.207031 M 56.527344 22.207031 L 56.527344 22.207031 M 56.535156 22.207031 L 56.535156 22.207031 M 56.542969 22.207031 C 56.542969 22.207031 56.542969 22.207031 56.546875 22.207031 C 56.542969 22.207031 56.542969 22.207031 56.542969 22.207031 M 56.554688 22.207031 L 56.554688 22.207031 M 56.5625 22.207031 C 56.5625 22.207031 56.5625 22.207031 56.566406 22.207031 C 56.5625 22.207031 56.5625 22.207031 56.5625 22.207031 M 56.574219 22.207031 L 56.574219 22.207031 M 56.582031 22.207031 L 56.582031 22.207031 M 56.589844 22.207031 C 56.589844 22.207031 56.589844 22.207031 56.59375 22.207031 C 56.589844 22.207031 56.589844 22.207031 56.589844 22.207031 M 56.601562 22.207031 L 56.601562 22.207031 M 56.609375 22.207031 C 56.609375 22.203125 56.609375 22.203125 56.609375 22.203125 C 56.609375 22.203125 56.609375 22.203125 56.609375 22.207031 M 56.617188 22.203125 C 56.621094 22.203125 56.621094 22.203125 56.621094 22.203125 C 56.621094 22.203125 56.621094 22.203125 56.617188 22.203125 M 56.628906 22.203125 L 56.628906 22.203125 M 56.636719 22.203125 L 56.636719 22.203125 M 56.65625 22.203125 L 56.65625 22.203125 M 56.707031 22.203125 C 56.710938 22.203125 56.710938 22.203125 56.710938 22.203125 C 56.710938 22.203125 56.710938 22.203125 56.707031 22.203125 M 56.71875 22.203125 C 56.71875 22.203125 56.71875 22.203125 56.722656 22.203125 L 56.71875 22.203125 M 56.726562 22.203125 C 56.730469 22.203125 56.730469 22.203125 56.730469 22.203125 C 56.730469 22.203125 56.726562 22.203125 56.726562 22.203125 M 56.738281 22.203125 L 56.738281 22.203125 M 56.746094 22.203125 C 56.746094 22.203125 56.75 22.203125 56.75 22.203125 C 56.75 22.203125 56.746094 22.203125 56.746094 22.203125 M 56.757812 22.203125 L 56.757812 22.203125 M 56.765625 22.199219 C 56.765625 22.199219 56.765625 22.199219 56.769531 22.199219 C 56.765625 22.199219 56.765625 22.199219 56.765625 22.199219 M 56.773438 22.199219 C 56.773438 22.199219 56.777344 22.199219 56.777344 22.199219 C 56.777344 22.199219 56.773438 22.199219 56.773438 22.199219 M 56.78125 22.199219 C 56.785156 22.199219 56.785156 22.199219 56.789062 22.199219 C 56.785156 22.199219 56.785156 22.199219 56.78125 22.199219 M 56.792969 22.199219 C 56.792969 22.199219 56.792969 22.199219 56.796875 22.199219 C 56.792969 22.199219 56.792969 22.199219 56.792969 22.199219 M 56.800781 22.199219 C 56.804688 22.199219 56.804688 22.199219 56.804688 22.199219 C 56.804688 22.199219 56.804688 22.199219 56.800781 22.199219 M 56.8125 22.199219 C 56.8125 22.199219 56.8125 22.199219 56.816406 22.199219 C 56.8125 22.199219 56.8125 22.199219 56.8125 22.199219 M 56.820312 22.199219 C 56.820312 22.199219 56.824219 22.199219 56.824219 22.199219 C 56.824219 22.199219 56.820312 22.199219 56.820312 22.199219 M 56.828125 22.199219 C 56.832031 22.199219 56.832031 22.199219 56.835938 22.199219 C 56.832031 22.199219 56.832031 22.199219 56.828125 22.199219 M 56.839844 22.199219 C 56.839844 22.199219 56.839844 22.199219 56.84375 22.199219 C 56.839844 22.199219 56.839844 22.199219 56.839844 22.199219 M 56.847656 22.199219 C 56.851562 22.199219 56.851562 22.199219 56.851562 22.199219 C 56.851562 22.199219 56.851562 22.199219 56.847656 22.199219 M 56.859375 22.199219 C 56.859375 22.199219 56.859375 22.199219 56.863281 22.199219 C 56.859375 22.199219 56.859375 22.199219 56.859375 22.199219 M 56.867188 22.199219 C 56.867188 22.199219 56.871094 22.199219 56.871094 22.199219 C 56.871094 22.199219 56.867188 22.199219 56.867188 22.199219 M 56.878906 22.199219 C 56.878906 22.199219 56.878906 22.199219 56.882812 22.199219 C 56.878906 22.199219 56.878906 22.199219 56.878906 22.199219 M 56.886719 22.199219 C 56.886719 22.199219 56.890625 22.199219 56.890625 22.199219 C 56.890625 22.199219 56.886719 22.199219 56.886719 22.199219 M 56.894531 22.199219 C 56.898438 22.199219 56.898438 22.199219 56.902344 22.199219 C 56.898438 22.199219 56.898438 22.199219 56.894531 22.199219 M 56.90625 22.199219 C 56.90625 22.199219 56.90625 22.199219 56.910156 22.199219 C 56.90625 22.199219 56.90625 22.199219 56.90625 22.199219 M 56.914062 22.199219 C 56.914062 22.199219 56.917969 22.199219 56.921875 22.199219 C 56.917969 22.199219 56.914062 22.199219 56.914062 22.199219 M 57.117188 22.199219 L 57.117188 22.199219 M 56.925781 22.199219 C 56.925781 22.199219 56.925781 22.199219 56.929688 22.199219 C 56.925781 22.199219 56.925781 22.199219 56.925781 22.199219 M 56.933594 22.199219 C 56.933594 22.199219 56.9375 22.199219 56.9375 22.199219 C 56.9375 22.199219 56.933594 22.199219 56.933594 22.199219 M 56.941406 22.199219 C 56.945312 22.199219 56.945312 22.199219 56.949219 22.199219 C 56.945312 22.199219 56.945312 22.199219 56.941406 22.199219 M 56.953125 22.199219 C 56.953125 22.199219 56.957031 22.199219 56.957031 22.199219 C 56.957031 22.199219 56.953125 22.199219 56.953125 22.199219 M 56.960938 22.199219 C 56.964844 22.199219 56.964844 22.199219 56.96875 22.199219 C 56.964844 22.199219 56.964844 22.199219 56.960938 22.199219 M 57.074219 22.199219 C 57.074219 22.199219 57.070312 22.199219 57.070312 22.199219 C 57.070312 22.199219 57.074219 22.199219 57.074219 22.199219 M 56.972656 22.199219 C 56.972656 22.199219 56.976562 22.199219 56.976562 22.199219 C 56.976562 22.199219 56.972656 22.199219 56.972656 22.199219 M 57.0625 22.199219 L 57.0625 22.199219 M 56.980469 22.199219 C 56.980469 22.199219 56.984375 22.199219 56.988281 22.199219 C 56.984375 22.199219 56.980469 22.199219 56.980469 22.199219 M 57.054688 22.199219 C 57.050781 22.199219 57.050781 22.199219 57.050781 22.199219 C 57.050781 22.199219 57.050781 22.199219 57.054688 22.199219 M 56.992188 22.199219 C 56.992188 22.199219 56.992188 22.199219 56.996094 22.199219 C 56.992188 22.199219 56.992188 22.199219 56.992188 22.199219 M 57.042969 22.199219 C 57.042969 22.199219 57.039062 22.199219 57.039062 22.199219 C 57.039062 22.199219 57.042969 22.199219 57.042969 22.199219 M 57 22.199219 C 57 22.199219 57.003906 22.199219 57.003906 22.199219 C 57.003906 22.199219 57 22.199219 57 22.199219 M 57.03125 22.199219 C 57.03125 22.199219 57.03125 22.199219 57.027344 22.199219 C 57.03125 22.199219 57.03125 22.199219 57.03125 22.199219 M 57.007812 22.199219 C 57.011719 22.199219 57.015625 22.199219 57.019531 22.199219 C 57.015625 22.199219 57.011719 22.199219 57.007812 22.199219"/></g><g clip-path="url(#g)"><path fill="#CA1F26" d="M 45.164062 33.515625 C 45.449219 27.394531 50.363281 22.484375 56.480469 22.210938 C 56.484375 22.210938 56.488281 22.210938 56.488281 22.210938 C 56.496094 22.210938 56.503906 22.207031 56.507812 22.207031 C 56.511719 22.207031 56.511719 22.207031 56.515625 22.207031 C 56.515625 22.207031 56.515625 22.207031 56.519531 22.207031 C 56.519531 22.207031 56.523438 22.207031 56.527344 22.207031 C 56.53125 22.207031 56.53125 22.207031 56.535156 22.207031 C 56.539062 22.207031 56.542969 22.207031 56.542969 22.207031 C 56.542969 22.207031 56.542969 22.207031 56.546875 22.207031 C 56.550781 22.207031 56.550781 22.207031 56.554688 22.207031 C 56.558594 22.207031 56.558594 22.207031 56.5625 22.207031 C 56.5625 22.207031 56.5625 22.207031 56.566406 22.207031 C 56.566406 22.207031 56.570312 22.207031 56.574219 22.207031 C 56.578125 22.207031 56.578125 22.207031 56.582031 22.207031 C 56.585938 22.207031 56.585938 22.207031 56.589844 22.207031 C 56.589844 22.207031 56.589844 22.207031 56.59375 22.207031 C 56.59375 22.207031 56.597656 22.207031 56.601562 22.207031 C 56.605469 22.207031 56.605469 22.207031 56.609375 22.207031 C 56.609375 22.203125 56.609375 22.203125 56.609375 22.203125 C 56.613281 22.203125 56.617188 22.203125 56.617188 22.203125 C 56.621094 22.203125 56.621094 22.203125 56.621094 22.203125 C 56.621094 22.203125 56.625 22.203125 56.628906 22.203125 C 56.632812 22.203125 56.632812 22.203125 56.636719 22.203125 C 56.640625 22.203125 56.644531 22.203125 56.648438 22.203125 C 56.648438 22.203125 56.652344 22.203125 56.65625 22.203125 C 56.675781 22.203125 56.691406 22.203125 56.707031 22.203125 C 56.710938 22.203125 56.710938 22.203125 56.710938 22.203125 C 56.714844 22.203125 56.71875 22.203125 56.71875 22.203125 L 56.722656 22.203125 C 56.722656 22.203125 56.726562 22.203125 56.726562 22.203125 C 56.726562 22.203125 56.730469 22.203125 56.730469 22.203125 C 56.734375 22.203125 56.734375 22.203125 56.738281 22.203125 C 56.742188 22.203125 56.742188 22.203125 56.746094 22.203125 C 56.746094 22.203125 56.75 22.203125 56.75 22.203125 C 56.75 22.203125 56.753906 22.203125 56.757812 22.203125 C 56.761719 22.203125 56.761719 22.199219 56.765625 22.199219 C 56.765625 22.199219 56.765625 22.199219 56.769531 22.199219 C 56.769531 22.199219 56.769531 22.199219 56.773438 22.199219 C 56.773438 22.199219 56.777344 22.199219 56.777344 22.199219 C 56.78125 22.199219 56.78125 22.199219 56.78125 22.199219 C 56.785156 22.199219 56.785156 22.199219 56.789062 22.199219 C 56.789062 22.199219 56.789062 22.199219 56.792969 22.199219 C 56.792969 22.199219 56.792969 22.199219 56.796875 22.199219 C 56.796875 22.199219 56.800781 22.199219 56.800781 22.199219 C 56.804688 22.199219 56.804688 22.199219 56.804688 22.199219 C 56.808594 22.199219 56.808594 22.199219 56.8125 22.199219 C 56.8125 22.199219 56.8125 22.199219 56.816406 22.199219 C 56.816406 22.199219 56.816406 22.199219 56.820312 22.199219 C 56.820312 22.199219 56.824219 22.199219 56.824219 22.199219 C 56.828125 22.199219 56.828125 22.199219 56.828125 22.199219 C 56.832031 22.199219 56.832031 22.199219 56.835938 22.199219 C 56.835938 22.199219 56.835938 22.199219 56.839844 22.199219 C 56.839844 22.199219 56.839844 22.199219 56.84375 22.199219 C 56.84375 22.199219 56.847656 22.199219 56.847656 22.199219 C 56.851562 22.199219 56.851562 22.199219 56.851562 22.199219 C 56.855469 22.199219 56.855469 22.199219 56.859375 22.199219 C 56.859375 22.199219 56.859375 22.199219 56.863281 22.199219 C 56.863281 22.199219 56.867188 22.199219 56.867188 22.199219 C 56.867188 22.199219 56.871094 22.199219 56.871094 22.199219 C 56.875 22.199219 56.875 22.199219 56.878906 22.199219 C 56.878906 22.199219 56.878906 22.199219 56.882812 22.199219 C 56.882812 22.199219 56.882812 22.199219 56.886719 22.199219 C 56.886719 22.199219 56.890625 22.199219 56.890625 22.199219 C 56.890625 22.199219 56.894531 22.199219 56.894531 22.199219 C 56.898438 22.199219 56.898438 22.199219 56.902344 22.199219 C 56.902344 22.199219 56.902344 22.199219 56.90625 22.199219 C 56.90625 22.199219 56.90625 22.199219 56.910156 22.199219 C 56.910156 22.199219 56.914062 22.199219 56.914062 22.199219 C 56.914062 22.199219 56.917969 22.199219 56.921875 22.199219 C 56.921875 22.199219 56.921875 22.199219 56.925781 22.199219 C 56.925781 22.199219 56.925781 22.199219 56.929688 22.199219 C 56.929688 22.199219 56.933594 22.199219 56.933594 22.199219 C 56.933594 22.199219 56.9375 22.199219 56.9375 22.199219 C 56.9375 22.199219 56.941406 22.199219 56.941406 22.199219 C 56.945312 22.199219 56.945312 22.199219 56.949219 22.199219 C 56.949219 22.199219 56.949219 22.199219 56.953125 22.199219 C 56.953125 22.199219 56.957031 22.199219 56.957031 22.199219 C 56.957031 22.199219 56.960938 22.199219 56.960938 22.199219 C 56.964844 22.199219 56.964844 22.199219 56.96875 22.199219 C 56.96875 22.199219 56.96875 22.199219 56.972656 22.199219 C 56.972656 22.199219 56.976562 22.199219 56.976562 22.199219 C 56.976562 22.199219 56.980469 22.199219 56.980469 22.199219 C 56.980469 22.199219 56.984375 22.199219 56.988281 22.199219 C 56.988281 22.199219 56.988281 22.199219 56.992188 22.199219 C 56.992188 22.199219 56.992188 22.199219 56.996094 22.199219 C 56.996094 22.199219 56.996094 22.199219 57 22.199219 C 57 22.199219 57.003906 22.199219 57.003906 22.199219 C 57.003906 22.199219 57.007812 22.199219 57.007812 22.199219 C 57.011719 22.199219 57.015625 22.199219 57.019531 22.199219 C 57.023438 22.199219 57.023438 22.199219 57.027344 22.199219 C 57.03125 22.199219 57.03125 22.199219 57.03125 22.199219 C 57.035156 22.199219 57.039062 22.199219 57.039062 22.199219 C 57.039062 22.199219 57.042969 22.199219 57.042969 22.199219 C 57.046875 22.199219 57.046875 22.199219 57.050781 22.199219 C 57.050781 22.199219 57.050781 22.199219 57.054688 22.199219 C 57.054688 22.199219 57.058594 22.199219 57.0625 22.199219 C 57.066406 22.199219 57.070312 22.199219 57.070312 22.199219 C 57.070312 22.199219 57.074219 22.199219 57.074219 22.199219 C 57.089844 22.199219 57.101562 22.199219 57.117188 22.199219 C 58.957031 22.214844 60.699219 22.648438 62.25 23.410156 C 61.601562 23.316406 60.871094 23.253906 60.082031 23.253906 C 55.863281 23.253906 49.917969 25.0625 45.164062 33.515625"/></g><path fill="#C36746" d="M 28.867188 55.683594 L 28.859375 55.660156 L 28.847656 55.628906 L 28.84375 55.617188 L 28.828125 55.574219 L 28.824219 55.5625 C 28.816406 55.542969 28.808594 55.523438 28.800781 55.496094 C 28.78125 55.445312 28.757812 55.386719 28.734375 55.320312 L 28.726562 55.308594 C 28.71875 55.277344 28.707031 55.246094 28.695312 55.214844 L 28.683594 55.195312 C 28.671875 55.164062 28.660156 55.132812 28.648438 55.097656 L 28.640625 55.078125 C 28.625 55.039062 28.609375 55.003906 28.59375 54.960938 L 28.589844 54.953125 C 28.550781 54.863281 28.511719 54.769531 28.46875 54.667969 L 28.464844 54.65625 C 28.445312 54.613281 28.425781 54.566406 28.40625 54.519531 L 28.390625 54.488281 C 28.375 54.445312 28.355469 54.40625 28.335938 54.363281 L 28.316406 54.324219 C 28.300781 54.28125 28.277344 54.238281 28.257812 54.195312 L 28.242188 54.160156 C 28.21875 54.105469 28.195312 54.054688 28.167969 54 L 28.164062 53.992188 C 28.378906 55.53125 29.101562 57.113281 29.207031 57.917969 C 29.265625 58.394531 31.066406 62.007812 32.601562 64.992188 C 33.074219 65.136719 33.777344 65.257812 34.804688 65.253906 L 34.695312 64.675781 L 31.558594 56.824219 C 31.527344 56.808594 31.492188 56.789062 31.453125 56.765625 L 31.449219 56.765625 C 31.367188 56.722656 31.273438 56.667969 31.164062 56.609375 L 31.160156 56.609375 C 31.109375 56.582031 31.058594 56.554688 31.003906 56.523438 L 30.972656 56.511719 C 30.921875 56.480469 30.863281 56.453125 30.808594 56.421875 L 30.785156 56.410156 C 30.726562 56.382812 30.671875 56.355469 30.613281 56.324219 L 30.597656 56.316406 C 30.539062 56.289062 30.480469 56.257812 30.417969 56.230469 L 30.382812 56.210938 C 30.324219 56.183594 30.265625 56.15625 30.207031 56.128906 L 30.167969 56.109375 C 30.105469 56.082031 30.046875 56.054688 29.984375 56.027344 L 29.96875 56.019531 C 29.910156 55.992188 29.855469 55.96875 29.804688 55.945312 L 29.769531 55.933594 C 29.710938 55.910156 29.65625 55.886719 29.605469 55.867188 L 29.566406 55.851562 C 29.515625 55.832031 29.460938 55.8125 29.410156 55.796875 L 29.386719 55.789062 C 29.339844 55.773438 29.292969 55.757812 29.25 55.746094 L 29.234375 55.738281 C 29.1875 55.726562 29.144531 55.71875 29.105469 55.710938 L 29.082031 55.707031 C 29.042969 55.699219 29.007812 55.695312 28.976562 55.691406 L 28.957031 55.691406 C 28.925781 55.691406 28.894531 55.691406 28.871094 55.699219 L 28.867188 55.691406 L 28.867188 55.683594"/><path fill="#CF7D57" d="M 35.496094 59.320312 C 35.496094 59.320312 33.722656 56.113281 32.867188 55.597656 C 32.867188 55.597656 32.066406 47.015625 28.320312 47.015625 C 28.320312 47.015625 27.890625 46.960938 27.261719 47.589844 C 27.261719 47.589844 28.8125 53.027344 29.097656 55.492188 C 29.097656 55.492188 29.148438 56.121094 29.433594 56.695312 C 29.433594 56.695312 32.523438 62.535156 32.636719 63.28125 C 32.636719 63.28125 32.636719 64.933594 33.496094 65.5625 C 33.496094 65.5625 44.859375 70.261719 46.480469 71.347656 C 48.105469 72.429688 42.703125 64.417969 42.703125 64.417969 L 35.496094 59.320312"/><g clip-path="url(#h)"><path fill="#E8A982" d="M 91.164062 73.925781 C 81.917969 69.832031 70.308594 64.417969 70.308594 64.417969 C 66.535156 57.804688 55.117188 62.773438 55.117188 62.773438 C 50.484375 63.230469 46.324219 63.128906 46.324219 63.128906 C 42.648438 61.117188 39.824219 60.867188 39.824219 60.867188 C 38.449219 56.632812 36.328125 54.875 36.328125 54.875 C 36.15625 46.207031 32.523438 48.785156 32.523438 48.785156 L 33.125 55.871094 C 33.925781 58.503906 35.496094 62.757812 35.496094 62.757812 C 35.898438 64.789062 37.441406 65.160156 37.441406 65.160156 C 40.359375 67.28125 45.265625 71.078125 45.265625 71.078125 C 47.824219 73.265625 53.316406 72.664062 53.316406 72.664062 C 61.539062 73.183594 68.335938 74.285156 68.335938 74.285156 L 91.164062 90.453125 L 91.164062 73.925781"/><path fill="#DA926B" d="M 91.164062 90.453125 L 68.335938 74.285156 C 68.335938 74.285156 61.539062 73.183594 53.316406 72.664062 C 53.316406 72.664062 52.625 72.738281 51.617188 72.738281 C 49.789062 72.738281 46.917969 72.488281 45.265625 71.078125 C 45.265625 71.078125 40.359375 67.28125 37.441406 65.160156 C 37.441406 65.160156 35.898438 64.789062 35.496094 62.757812 C 35.496094 62.757812 33.925781 58.503906 33.125 55.871094 L 32.523438 48.785156 C 32.523438 48.785156 32.699219 48.660156 32.976562 48.558594 C 33.246094 50.96875 33.761719 55.449219 34.011719 56.257812 C 34.011719 56.257812 36.242188 61.753906 37.269531 63.472656 C 37.269531 63.472656 46.367188 69.398438 47.566406 69.828125 C 47.566406 69.828125 50.003906 71.457031 52.394531 71.457031 C 52.503906 71.457031 52.609375 71.453125 52.714844 71.445312 C 52.714844 71.445312 57.246094 70.851562 61.671875 70.851562 C 65.113281 70.851562 68.492188 71.214844 69.617188 72.492188 C 69.617188 72.492188 82.121094 80.222656 91.164062 85.558594 L 91.164062 90.453125"/></g></svg>