<svg xmlns="http://www.w3.org/2000/svg" width="112.5" viewBox="0 0 112.5 112.5" height="112.5" version="1.0"><defs><clipPath id="a"><path d="M 0 0 L 112.003906 0 L 112.003906 112.003906 L 0 112.003906 Z M 0 0"/></clipPath><clipPath id="b"><path d="M 32 10.269531 L 80 10.269531 L 80 58 L 32 58 Z M 32 10.269531"/></clipPath><clipPath id="c"><path d="M 62 47 L 94.792969 47 L 94.792969 102.519531 L 62 102.519531 Z M 62 47"/></clipPath><clipPath id="d"><path d="M 17.542969 47 L 51 47 L 51 102.519531 L 17.542969 102.519531 Z M 17.542969 47"/></clipPath></defs><g clip-path="url(#a)"><path fill="#FFF" d="M 0 0 L 112.5 0 L 112.5 112.5 L 0 112.5 Z M 0 0"/><path d="M 0 0 L 112.5 0 L 112.5 112.5 L 0 112.5 Z M 0 0"/></g><g clip-path="url(#b)"><path fill="#FFF" d="M 79.339844 24.636719 L 65.171875 24.636719 L 65.171875 10.394531 L 47.140625 10.394531 L 47.140625 24.636719 L 32.96875 24.636719 L 32.96875 42.765625 L 47.140625 42.765625 L 47.140625 57.007812 L 65.171875 57.007812 L 65.171875 42.765625 L 79.339844 42.765625 Z M 79.339844 24.636719"/></g><g clip-path="url(#c)"><path fill="#FFF" d="M 86.710938 67.667969 L 86.710938 51.980469 C 86.710938 49.757812 88.523438 47.945312 90.75 47.945312 C 92.96875 47.945312 94.765625 49.757812 94.765625 51.980469 L 94.765625 73.464844 C 94.765625 76.433594 93.703125 79.300781 91.792969 81.542969 L 78.464844 95.769531 C 77.144531 97.019531 76.820312 98.125 76.820312 99.808594 L 76.820312 102.398438 L 62.316406 102.398438 L 62.296875 96.234375 C 62.296875 93.886719 62.105469 90.75 65.03125 87.675781 L 81.9375 70.609375 C 82.539062 70.023438 83.332031 69.703125 84.167969 69.703125 C 85.9375 69.703125 87.375 71.148438 87.375 72.921875 C 87.375 73.691406 87.105469 74.4375 86.613281 75.019531 L 78.457031 83.800781 C 77.929688 84.425781 77.035156 85.601562 76.589844 87.039062 C 76.347656 87.785156 76.28125 88.515625 76.269531 89.347656 L 78.894531 89.347656 C 78.902344 88.753906 78.945312 88.277344 79.089844 87.832031 C 79.34375 87.003906 79.859375 86.257812 80.242188 85.777344 L 88.523438 76.644531 C 89.5625 75.589844 90.132812 74.222656 90.132812 72.785156 C 90.132812 70.628906 88.84375 68.648438 86.710938 67.667969 Z M 86.710938 67.667969"/></g><g clip-path="url(#d)"><path fill="#FFF" d="M 25.597656 67.667969 L 25.597656 51.980469 C 25.597656 49.757812 23.785156 47.945312 21.558594 47.945312 C 19.339844 47.945312 17.542969 49.757812 17.542969 51.980469 L 17.542969 73.464844 C 17.542969 76.433594 18.605469 79.300781 20.515625 81.542969 L 33.84375 95.769531 C 35.164062 97.019531 35.488281 98.125 35.488281 99.808594 L 35.488281 102.398438 L 49.996094 102.398438 L 50.011719 96.234375 C 50.011719 93.886719 50.203125 90.75 47.28125 87.675781 L 30.371094 70.609375 C 29.765625 70.023438 28.976562 69.707031 28.140625 69.707031 C 26.371094 69.707031 24.929688 71.148438 24.929688 72.921875 C 24.929688 73.691406 25.199219 74.4375 25.695312 75.023438 L 33.851562 83.804688 C 34.378906 84.425781 35.273438 85.601562 35.71875 87.039062 C 35.957031 87.785156 36.027344 88.515625 36.042969 89.347656 L 33.414062 89.347656 C 33.40625 88.753906 33.359375 88.277344 33.21875 87.832031 C 32.964844 87 32.453125 86.257812 32.066406 85.78125 L 23.785156 76.644531 C 22.742188 75.585938 22.175781 74.222656 22.175781 72.785156 C 22.175781 70.628906 23.464844 68.648438 25.597656 67.667969 Z M 25.597656 67.667969"/></g></svg>