<svg xmlns="http://www.w3.org/2000/svg" width="375" viewBox="0 0 375 375" height="375" version="1.0"><defs><clipPath id="a"><path d="M 93 46.101562 L 291 46.101562 L 291 168 L 93 168 Z M 93 46.101562"/></clipPath><clipPath id="b"><path d="M 57.324219 133 L 150 133 L 150 228 L 57.324219 228 Z M 57.324219 133"/></clipPath><clipPath id="c"><path d="M 57.324219 163 L 326 163 L 326 337.851562 L 57.324219 337.851562 Z M 57.324219 163"/></clipPath><clipPath id="d"><path d="M 57.324219 198 L 326 198 L 326 337.851562 L 57.324219 337.851562 Z M 57.324219 198"/></clipPath></defs><g clip-path="url(#a)"><path fill="#74B7F4" d="M 286.394531 167.964844 C 283.9375 167.964844 281.949219 165.972656 281.949219 163.507812 L 281.949219 55.011719 L 101.929688 55.011719 L 101.929688 163.507812 C 101.929688 165.972656 99.941406 167.964844 97.484375 167.964844 C 95.027344 167.964844 93.039062 165.972656 93.039062 163.507812 L 93.039062 50.554688 C 93.039062 48.09375 95.027344 46.101562 97.484375 46.101562 L 286.394531 46.101562 C 288.847656 46.101562 290.835938 48.09375 290.835938 50.554688 L 290.835938 163.507812 C 290.835938 165.972656 288.847656 167.964844 286.394531 167.964844"/></g><g clip-path="url(#b)"><path fill="#74B7F4" d="M 145.285156 227.089844 C 144.441406 227.089844 143.589844 226.855469 142.835938 226.351562 L 59.945312 171.460938 C 58.042969 170.207031 57.402344 167.710938 58.453125 165.691406 L 74.148438 135.410156 C 75.285156 133.21875 77.992188 132.359375 80.136719 133.515625 C 82.316406 134.644531 83.167969 137.335938 82.03125 139.519531 L 68.183594 166.242188 L 147.730469 218.917969 C 149.78125 220.277344 150.34375 223.035156 148.988281 225.085938 C 148.140625 226.386719 146.726562 227.089844 145.285156 227.089844"/></g><path fill="#74B7F4" d="M 238.59375 227.089844 C 237.152344 227.089844 235.734375 226.386719 234.886719 225.085938 C 233.53125 223.035156 234.09375 220.277344 236.144531 218.917969 L 315.691406 166.242188 L 301.84375 139.519531 C 300.707031 137.335938 301.558594 134.644531 303.738281 133.515625 C 305.898438 132.359375 308.601562 133.21875 309.730469 135.410156 L 325.425781 165.691406 C 326.476562 167.710938 325.832031 170.207031 323.929688 171.460938 L 241.039062 226.351562 C 240.285156 226.855469 239.433594 227.089844 238.59375 227.089844"/><g clip-path="url(#c)"><path fill="#74B7F4" d="M 321.484375 337.414062 L 62.394531 337.414062 C 59.9375 337.414062 57.949219 335.421875 57.949219 332.960938 L 57.949219 167.746094 C 57.949219 165.28125 59.9375 163.292969 62.394531 163.292969 C 64.847656 163.292969 66.835938 165.28125 66.835938 167.746094 L 66.835938 328.503906 L 317.039062 328.503906 L 317.039062 167.746094 C 317.039062 165.28125 319.027344 163.292969 321.484375 163.292969 C 323.941406 163.292969 325.925781 165.28125 325.925781 167.746094 L 325.925781 332.960938 C 325.925781 335.421875 323.941406 337.414062 321.484375 337.414062"/></g><g clip-path="url(#d)"><path fill="#74B7F4" d="M 321.484375 337.414062 C 320.347656 337.414062 319.203125 336.980469 318.332031 336.101562 L 191.9375 209.007812 L 65.542969 336.101562 C 63.808594 337.859375 60.976562 337.839844 59.257812 336.117188 C 57.511719 334.378906 57.511719 331.558594 59.242188 329.820312 L 188.785156 199.558594 C 190.453125 197.871094 193.421875 197.871094 195.089844 199.558594 L 324.636719 329.820312 C 326.363281 331.558594 326.363281 334.378906 324.617188 336.117188 C 323.757812 336.980469 322.621094 337.414062 321.484375 337.414062"/></g></svg>