<svg xmlns="http://www.w3.org/2000/svg" xmlns:xlink="http://www.w3.org/1999/xlink" width="500" zoomAndPan="magnify" viewBox="0 0 375 374.999991" height="500" preserveAspectRatio="xMidYMid meet" version="1.0"><path fill="#74b7f4" d="M 185.824219 65.328125 C 158.988281 65.328125 137.78125 73.304688 123.511719 87.929688 C 109.238281 102.558594 102.242188 123.4375 102.242188 148.265625 C 102.242188 158.550781 106.804688 178.433594 110.550781 190.152344 C 108.992188 191.480469 107.414062 192.328125 105.898438 194.636719 C 103.34375 198.542969 101.476562 204.011719 102.242188 210.59375 C 104.484375 229.605469 116.410156 236.398438 120.355469 238.351562 C 121.867188 247.246094 126.457031 258.21875 133.980469 269.441406 C 142.039062 281.472656 153.171875 293.015625 166.714844 299.515625 C 166.964844 299.640625 167.128906 299.898438 167.378906 300.027344 C 172.261719 305.859375 179.15625 309.988281 187.320312 309.988281 C 195.480469 309.988281 202.378906 305.855469 207.257812 300.015625 C 207.507812 299.894531 207.671875 299.644531 207.921875 299.515625 C 221.425781 292.992188 232.328125 281.457031 240.324219 269.433594 C 247.757812 258.238281 252.269531 247.203125 253.785156 238.351562 C 257.6875 236.5 269.964844 229.898438 272.230469 210.761719 C 273 204.15625 270.988281 198.5625 268.410156 194.636719 C 266.871094 192.308594 265.3125 191.5 263.753906 190.152344 C 267.492188 178.289062 272.394531 159.921875 272.394531 139.789062 C 272.394531 130.546875 270.507812 117.894531 264.253906 106.878906 C 258.378906 96.535156 247.746094 87.972656 232.683594 86.933594 C 225.851562 76.566406 211.082031 65.328125 185.824219 65.328125 Z M 185.824219 75.964844 C 209.730469 75.964844 221.175781 87.035156 225.203125 94.414062 C 226.121094 96.136719 227.90625 97.21875 229.859375 97.238281 C 242.835938 97.238281 250.003906 103.511719 254.949219 112.199219 C 259.886719 120.878906 261.761719 132.125 261.761719 139.789062 C 261.761719 159.503906 256.40625 178.90625 252.789062 189.984375 C 252.058594 192.328125 253.015625 194.867188 255.113281 196.132812 C 256.03125 196.691406 258.125 198.355469 259.601562 200.621094 C 261.078125 202.886719 262.074219 205.617188 261.59375 209.609375 C 259.558594 226.75 247.636719 230.050781 247.636719 230.050781 C 245.644531 230.695312 244.210938 232.460938 243.980469 234.539062 C 243.359375 240.417969 238.914062 252.34375 231.519531 263.460938 C 224.121094 274.574219 213.964844 285.167969 202.773438 290.386719 C 201.898438 290.777344 201.148438 291.421875 200.613281 292.214844 C 197.746094 296.480469 192.886719 299.351562 187.320312 299.351562 C 181.75 299.351562 176.890625 296.484375 174.027344 292.203125 C 173.484375 291.417969 172.738281 290.769531 171.867188 290.375 C 160.628906 285.164062 150.414062 274.554688 142.953125 263.4375 C 135.492188 252.324219 130.925781 240.378906 130.324219 234.519531 C 130.074219 232.546875 128.722656 230.863281 126.835938 230.195312 C 126.835938 230.195312 114.890625 226.601562 112.875 209.421875 C 112.398438 205.410156 113.417969 202.652344 114.871094 200.445312 C 116.320312 198.242188 118.234375 196.730469 119.191406 196.125 C 121.371094 194.835938 122.355469 192.191406 121.527344 189.796875 C 118.304688 180.527344 112.875 155.078125 112.875 148.265625 C 112.875 125.433594 119.191406 107.503906 131.15625 95.246094 C 143.117188 82.984375 161.066406 75.964844 185.824219 75.964844 Z M 226.203125 116.519531 C 226.039062 116.5625 225.867188 116.628906 225.703125 116.6875 C 225.597656 116.726562 225.476562 116.792969 225.371094 116.851562 C 224.957031 116.972656 224.585938 117.144531 224.207031 117.351562 C 224.101562 117.394531 223.972656 117.457031 223.863281 117.515625 L 223.863281 117.683594 C 223.699219 117.789062 223.53125 117.886719 223.367188 118.015625 C 223.246094 118.121094 223.140625 118.21875 223.035156 118.347656 C 222.96875 118.453125 222.910156 118.574219 222.867188 118.679688 C 222.617188 118.996094 222.390625 119.332031 222.203125 119.6875 L 222.203125 119.855469 C 222.140625 119.960938 222.078125 120.082031 222.039062 120.1875 C 221.601562 121.015625 219.5 124.71875 213.894531 129.328125 C 207.625 134.472656 197.660156 139.789062 182 139.789062 C 172.03125 139.789062 159.523438 139.875 148.769531 143.777344 C 143.386719 145.730469 138.359375 148.742188 134.644531 153.417969 C 130.925781 158.09375 128.828125 164.304688 128.828125 171.703125 C 128.808594 173.609375 129.808594 175.398438 131.464844 176.375 C 133.128906 177.332031 135.160156 177.332031 136.824219 176.375 C 138.488281 175.398438 139.484375 173.609375 139.460938 171.703125 C 139.460938 166.238281 140.792969 162.789062 142.953125 160.066406 C 145.109375 157.34375 148.3125 155.238281 152.425781 153.742188 C 160.648438 150.773438 172.195312 150.425781 182 150.425781 C 200.113281 150.425781 212.847656 144.105469 220.71875 137.628906 C 223.355469 135.46875 225.347656 133.308594 227.03125 131.3125 C 232.183594 139.605469 240.492188 155.246094 240.492188 171.703125 C 240.472656 173.609375 241.472656 175.398438 243.128906 176.375 C 244.792969 177.332031 246.824219 177.332031 248.488281 176.375 C 250.152344 175.398438 251.148438 173.609375 251.128906 171.703125 C 251.128906 145.273438 235.132812 123.625 232.351562 120.011719 L 232.351562 119.84375 C 232.226562 119.679688 231.914062 119.070312 231.851562 119.011719 C 231.746094 118.890625 231.648438 118.785156 231.519531 118.679688 L 231.351562 118.515625 C 231.3125 118.40625 231.246094 118.289062 231.1875 118.183594 L 231.019531 118.183594 C 230.605469 117.703125 230.082031 117.3125 229.523438 117.019531 L 229.359375 116.851562 C 229.253906 116.789062 229.132812 116.726562 229.027344 116.6875 L 228.859375 116.6875 C 228.753906 116.621094 228.632812 116.5625 228.527344 116.519531 Z M 190.289062 166.382812 C 171.15625 166.382812 161.492188 178.128906 160.730469 192.832031 L 172.394531 192.832031 C 173.132812 183.109375 179.554688 176.957031 189.820312 176.957031 C 199.972656 176.957031 206.625 183.144531 206.625 191.585938 C 206.625 198.875 203.480469 203.234375 195.585938 208.082031 C 186.269531 213.664062 181.972656 219.785156 182.054688 228.773438 L 182.054688 234.996094 L 193.871094 234.996094 L 193.871094 230.644531 C 193.871094 223.484375 196.4375 219.558594 205.066406 214.457031 C 213.777344 209.214844 219.222656 201.640625 219.222656 190.960938 C 219.222656 176.941406 207.4375 166.382812 190.289062 166.382812 Z M 188.886719 247.605469 C 183.382812 247.605469 179.394531 251.515625 179.394531 257.101562 C 179.394531 262.605469 183.363281 266.597656 188.886719 266.597656 C 194.410156 266.597656 198.222656 262.605469 198.222656 257.101562 C 198.230469 251.515625 194.390625 247.605469 188.886719 247.605469 Z M 188.886719 247.605469 " fill-opacity="1" fill-rule="nonzero"/></svg>