<svg xmlns="http://www.w3.org/2000/svg" xmlns:xlink="http://www.w3.org/1999/xlink" width="150" zoomAndPan="magnify" viewBox="0 0 112.5 112.499997" height="150" preserveAspectRatio="xMidYMid meet" version="1.0"><defs><clipPath id="id1"><path d="M 16 22.050781 L 82 22.050781 L 82 51 L 16 51 Z M 16 22.050781 " clip-rule="nonzero"/></clipPath><clipPath id="id2"><path d="M 11.25 25 L 41 25 L 41 73 L 11.25 73 Z M 11.25 25 " clip-rule="nonzero"/></clipPath></defs><g clip-path="url(#id1)"><path fill="#333333" d="M 48.941406 50.632812 L 81.675781 23.023438 C 80.703125 22.4375 79.535156 22.050781 78.171875 22.050781 L 19.714844 22.050781 C 18.351562 22.050781 17.183594 22.4375 16.210938 23.023438 Z M 48.941406 50.632812 " fill-opacity="1" fill-rule="nonzero"/></g><g clip-path="url(#id2)"><path fill="#333333" d="M 40.175781 48.300781 L 13.285156 25.550781 C 12.507812 26.714844 11.921875 28.273438 11.921875 29.828125 L 11.921875 68.714844 C 11.921875 70.273438 12.3125 71.632812 13.09375 72.800781 Z M 40.175781 48.300781 " fill-opacity="1" fill-rule="nonzero"/></g><path fill="#333333" d="M 85.964844 54.910156 L 85.964844 29.828125 C 85.964844 28.273438 85.378906 26.714844 84.601562 25.550781 L 57.710938 48.300781 L 76.027344 64.828125 Z M 85.964844 54.910156 " fill-opacity="1" fill-rule="nonzero"/><path fill="#333333" d="M 50.308594 72.800781 C 50.308594 70.660156 51.085938 68.714844 52.644531 67.355469 L 55.375 64.632812 C 56.933594 63.078125 58.878906 62.300781 60.828125 62.300781 C 62.777344 62.300781 64.921875 63.078125 66.285156 64.632812 L 71.351562 69.6875 L 73.300781 67.746094 L 54.789062 50.828125 L 50.308594 54.714844 C 49.917969 54.910156 49.332031 55.105469 48.941406 55.105469 C 48.554688 55.105469 47.96875 54.910156 47.773438 54.714844 L 43.292969 50.828125 L 16.015625 75.523438 C 17.183594 76.105469 18.351562 76.496094 19.714844 76.496094 L 51.28125 76.496094 C 50.695312 75.328125 50.308594 74.160156 50.308594 72.800781 Z M 50.308594 72.800781 " fill-opacity="1" fill-rule="nonzero"/><path fill="#333333" d="M 68.621094 88.746094 L 55.375 75.523438 C 53.8125 73.964844 53.8125 71.632812 55.375 70.078125 L 58.101562 67.355469 C 59.660156 65.800781 61.996094 65.800781 63.558594 67.355469 L 68.621094 72.410156 C 70.179688 73.964844 72.519531 73.964844 74.078125 72.410156 L 90.835938 55.6875 C 92.394531 54.132812 94.730469 54.132812 96.289062 55.6875 L 99.019531 58.410156 C 100.578125 59.964844 100.578125 62.300781 99.019531 63.855469 L 74.078125 88.746094 C 72.519531 90.300781 70.179688 90.300781 68.621094 88.746094 Z M 68.621094 88.746094 " fill-opacity="1" fill-rule="nonzero"/></svg>