<svg xmlns="http://www.w3.org/2000/svg" width="112.5" viewBox="0 0 112.5 112.5" height="112.5" version="1.0"><defs><clipPath id="a"><path d="M 0 0 L 112.003906 0 L 112.003906 112.003906 L 0 112.003906 Z M 0 0"/></clipPath><clipPath id="b"><path d="M 60 18.113281 L 76 18.113281 L 76 33 L 60 33 Z M 60 18.113281"/></clipPath><clipPath id="c"><path d="M 81 27 L 102.75 27 L 102.75 46 L 81 46 Z M 81 27"/></clipPath><clipPath id="d"><path d="M 12 41 L 60 41 L 60 94.613281 L 12 94.613281 Z M 12 41"/></clipPath></defs><g clip-path="url(#a)"><path fill="#FFF" d="M 0 0 L 112.5 0 L 112.5 112.5 L 0 112.5 Z M 0 0"/><path d="M 0 0 L 112.5 0 L 112.5 112.5 L 0 112.5 Z M 0 0"/></g><path fill="#E1EBF4" d="M 33.304688 91.851562 C 32.949219 92.488281 32.3125 92.914062 31.601562 93.125 C 30.113281 93.480469 28.628906 92.558594 28.203125 91.144531 L 24.09375 76.054688 C 24.730469 75.914062 25.367188 75.699219 26.078125 75.488281 L 28.769531 85.261719 C 28.839844 85.546875 29.125 85.757812 29.476562 85.757812 C 29.546875 85.757812 29.617188 85.757812 29.691406 85.757812 C 30.042969 85.6875 30.257812 85.261719 30.1875 84.910156 L 27.492188 75.0625 C 27.777344 74.992188 28.132812 74.851562 28.414062 74.78125 C 28.769531 74.636719 29.125 74.566406 29.546875 74.425781 L 33.65625 89.867188 C 33.726562 90.503906 33.65625 91.285156 33.304688 91.851562 Z M 33.304688 91.851562"/><path fill="#FEACA4" d="M 95.929688 63.445312 L 90.828125 72.65625 L 80.625 72.65625 L 75.527344 63.445312 L 80.625 54.238281 L 90.828125 54.238281 Z M 95.929688 63.445312"/><path fill="#66D1DC" d="M 74.320312 25.195312 L 71.132812 30.863281 L 64.898438 30.863281 L 61.710938 25.195312 L 64.898438 19.53125 L 71.132812 19.53125 Z M 74.320312 25.195312"/><path fill="#FFDB80" d="M 71.0625 49.988281 L 67.804688 55.65625 L 61.144531 55.65625 L 57.886719 49.988281 L 61.144531 44.320312 L 67.804688 44.320312 Z M 71.0625 49.988281"/><path fill="#2D4356" d="M 66.671875 25.054688 L 67.378906 25.054688 L 67.378906 28.527344 C 67.378906 28.667969 67.449219 28.667969 67.589844 28.667969 L 68.582031 28.667969 C 68.722656 28.667969 68.796875 28.597656 68.796875 28.527344 L 68.796875 25.054688 L 69.503906 25.054688 C 69.644531 25.054688 69.644531 24.984375 69.644531 24.914062 L 69.644531 24.207031 C 69.644531 24.132812 69.574219 24.0625 69.503906 24.0625 L 68.796875 24.0625 L 68.796875 23.710938 C 68.796875 23.566406 68.796875 23.425781 68.796875 23.355469 C 68.796875 23.285156 68.867188 23.144531 68.867188 23.070312 C 68.9375 23 69.007812 22.929688 69.078125 22.929688 C 69.148438 22.859375 69.292969 22.859375 69.363281 22.859375 C 69.433594 22.859375 69.503906 22.859375 69.574219 22.789062 C 69.644531 22.789062 69.644531 22.71875 69.644531 22.648438 L 69.644531 21.9375 C 69.644531 21.867188 69.644531 21.796875 69.574219 21.796875 C 69.503906 21.796875 69.503906 21.726562 69.363281 21.726562 C 69.007812 21.726562 68.722656 21.796875 68.511719 21.867188 C 68.300781 21.9375 68.085938 22.082031 67.945312 22.292969 C 67.804688 22.503906 67.660156 22.648438 67.589844 22.859375 C 67.519531 23.070312 67.449219 23.285156 67.449219 23.566406 L 67.449219 24.0625 L 66.742188 24.0625 C 66.671875 24.0625 66.671875 24.0625 66.597656 24.132812 C 66.527344 24.207031 66.527344 24.207031 66.527344 24.277344 L 66.527344 24.984375 C 66.527344 25.054688 66.527344 25.054688 66.597656 25.125 C 66.671875 25.195312 66.597656 25.054688 66.671875 25.054688 Z M 66.671875 25.054688"/><path fill="#2D4356" d="M 90.6875 57.78125 L 80.769531 57.78125 C 80.414062 57.78125 80.058594 58.132812 80.058594 58.488281 L 80.058594 68.40625 C 80.058594 68.40625 80.058594 68.40625 80.058594 68.476562 C 80.058594 68.476562 80.058594 68.546875 80.058594 68.546875 C 80.128906 68.902344 80.414062 69.113281 80.769531 69.113281 L 90.6875 69.113281 C 91.039062 69.113281 91.394531 68.757812 91.394531 68.40625 L 91.394531 58.488281 C 91.394531 58.132812 91.039062 57.78125 90.6875 57.78125 Z M 82.183594 67.695312 L 84.875 64.085938 L 86.71875 67.695312 Z M 88.277344 67.695312 L 87.570312 66.351562 L 88.277344 65.429688 L 89.480469 67.625 Z M 89.976562 65.5 L 89.054688 63.800781 C 88.914062 63.589844 88.703125 63.445312 88.488281 63.445312 C 88.277344 63.445312 87.992188 63.519531 87.851562 63.730469 L 86.859375 64.933594 L 85.585938 62.457031 C 85.445312 62.242188 85.230469 62.101562 85.019531 62.101562 C 84.804688 62.101562 84.523438 62.171875 84.382812 62.382812 L 81.476562 66.210938 L 81.476562 59.195312 L 89.976562 59.195312 Z M 89.976562 65.5"/><path fill="#66D1DC" d="M 89.976562 59.195312 L 89.976562 65.5 L 89.054688 63.800781 C 88.914062 63.589844 88.703125 63.445312 88.488281 63.445312 C 88.277344 63.445312 87.992188 63.519531 87.851562 63.730469 L 86.859375 64.933594 L 85.585938 62.457031 C 85.445312 62.242188 85.230469 62.101562 85.019531 62.101562 C 84.804688 62.101562 84.523438 62.171875 84.382812 62.382812 L 81.476562 66.210938 L 81.476562 59.195312 Z M 89.976562 59.195312"/><path fill="#D68751" d="M 89.480469 67.625 L 88.277344 67.695312 L 87.570312 66.28125 L 88.277344 65.429688 Z M 89.480469 67.625"/><path fill="#D68751" d="M 86.71875 67.695312 L 82.183594 67.695312 L 84.804688 64.085938 Z M 86.71875 67.695312"/><path fill="#2D4356" d="M 30.964844 88.015625 C 30.96875 88.210938 30.898438 88.378906 30.761719 88.519531 C 30.625 88.660156 30.460938 88.730469 30.265625 88.730469 C 30.070312 88.734375 29.902344 88.667969 29.761719 88.53125 C 29.621094 88.394531 29.550781 88.226562 29.546875 88.03125 C 29.546875 87.835938 29.613281 87.667969 29.75 87.527344 C 29.886719 87.390625 30.050781 87.316406 30.246094 87.316406 C 30.445312 87.3125 30.613281 87.378906 30.75 87.515625 C 30.890625 87.652344 30.960938 87.820312 30.964844 88.015625 Z M 30.964844 88.015625"/><path fill="#2D4356" d="M 31.601562 90.496094 C 31.605469 90.691406 31.539062 90.859375 31.402344 90.996094 C 31.265625 91.136719 31.097656 91.210938 30.902344 91.210938 C 30.707031 91.214844 30.539062 91.144531 30.398438 91.011719 C 30.257812 90.875 30.1875 90.707031 30.1875 90.511719 C 30.183594 90.316406 30.25 90.148438 30.386719 90.007812 C 30.523438 89.867188 30.691406 89.796875 30.886719 89.792969 C 31.082031 89.792969 31.25 89.859375 31.390625 89.996094 C 31.527344 90.132812 31.601562 90.300781 31.601562 90.496094 Z M 31.601562 90.496094"/><path fill="#E1EBF4" d="M 50.023438 65.570312 C 49.242188 63.800781 48.535156 61.816406 47.824219 59.550781 C 47.117188 57.285156 46.621094 55.160156 46.265625 53.246094 C 47.824219 53.882812 49.171875 54.875 50.09375 56.292969 C 52.003906 59.125 51.933594 62.808594 50.023438 65.570312 Z M 50.023438 65.570312"/><path fill="#FC785E" d="M 57.105469 73.433594 C 56.894531 73.789062 56.679688 74 56.46875 74 C 56.328125 74.070312 56.113281 74.070312 55.972656 74 C 55.546875 73.859375 55.050781 73.503906 54.484375 72.9375 C 53.351562 71.804688 52.003906 69.820312 50.660156 66.988281 C 53.421875 63.730469 53.636719 58.984375 51.226562 55.441406 C 49.949219 53.601562 48.109375 52.253906 45.984375 51.617188 C 45.628906 48.925781 45.558594 46.660156 45.769531 45.171875 C 45.914062 44.464844 46.054688 43.898438 46.265625 43.542969 C 46.480469 43.1875 46.691406 42.976562 46.90625 42.90625 C 46.976562 42.90625 47.046875 42.90625 47.117188 42.90625 C 47.328125 42.90625 47.613281 42.976562 47.96875 43.1875 C 48.816406 43.683594 49.808594 44.886719 50.941406 46.660156 C 52.5 49.136719 54.128906 52.75 55.546875 57.355469 C 58.027344 65.289062 58.167969 71.449219 57.105469 73.433594 Z M 57.105469 73.433594"/><path fill="#FC785E" d="M 52.148438 72.371094 C 51.085938 72.160156 50.023438 71.875 49.03125 71.734375 C 49.03125 71.734375 49.03125 71.664062 48.960938 71.664062 C 47.1875 68.902344 45.558594 65.074219 44.210938 60.753906 C 42.796875 56.152344 42.085938 51.6875 42.160156 48.429688 C 42.160156 48.359375 42.160156 48.289062 42.160156 48.289062 C 42.867188 47.722656 43.574219 47.15625 44.285156 46.519531 C 44.140625 49.917969 44.851562 54.804688 46.480469 59.976562 C 47.96875 64.792969 50.023438 69.46875 52.148438 72.371094 Z M 52.148438 72.371094"/><path fill="#FC785E" d="M 24.449219 74.496094 C 23.457031 74.78125 22.394531 74.992188 21.332031 75.0625 C 18.636719 75.347656 14.601562 72.371094 13.75 69.46875 C 12.828125 66.066406 14.035156 61.464844 17.71875 60.117188 C 18.636719 59.761719 19.558594 59.480469 20.480469 59.195312 Z M 24.449219 74.496094"/><path fill="#E1EBF4" d="M 47.1875 71.449219 C 37.835938 70.035156 32.664062 71.804688 27.917969 73.433594 C 27.210938 73.648438 26.503906 73.929688 25.792969 74.144531 L 21.753906 58.773438 C 21.828125 58.773438 21.828125 58.773438 21.898438 58.699219 C 27.210938 57 33.089844 55.089844 40.742188 49.351562 C 40.8125 52.609375 41.589844 56.859375 42.867188 61.179688 C 44.070312 65.074219 45.558594 68.6875 47.1875 71.449219 Z M 47.1875 71.449219"/><path fill="#2D4356" d="M 97.34375 63.09375 L 91.820312 53.175781 C 91.675781 52.964844 91.464844 52.820312 91.183594 52.820312 L 80.273438 52.820312 C 79.988281 52.820312 79.777344 52.964844 79.632812 53.175781 L 74.109375 63.09375 C 73.96875 63.304688 73.96875 63.589844 74.109375 63.800781 L 79.632812 73.71875 C 79.777344 73.929688 79.988281 74.070312 80.273438 74.070312 L 91.253906 74.070312 C 91.535156 74.070312 91.75 73.929688 91.890625 73.71875 L 97.417969 63.800781 C 97.414062 63.589844 97.414062 63.304688 97.34375 63.09375 Z M 90.828125 72.65625 L 80.625 72.65625 L 75.527344 63.445312 L 80.625 54.238281 L 90.757812 54.238281 L 95.859375 63.445312 Z M 90.828125 72.65625"/><g clip-path="url(#b)"><path fill="#2D4356" d="M 75.738281 24.84375 L 72.195312 18.46875 C 72.054688 18.253906 71.839844 18.113281 71.558594 18.113281 L 64.472656 18.113281 C 64.191406 18.113281 63.976562 18.253906 63.835938 18.46875 L 60.292969 24.84375 C 60.152344 25.054688 60.152344 25.339844 60.292969 25.550781 L 63.835938 31.925781 C 63.976562 32.136719 64.191406 32.28125 64.472656 32.28125 L 71.558594 32.28125 C 71.839844 32.28125 72.054688 32.136719 72.195312 31.925781 L 75.738281 25.550781 C 75.808594 25.339844 75.808594 25.054688 75.738281 24.84375 Z M 71.132812 30.863281 L 64.898438 30.863281 L 61.710938 25.195312 L 64.898438 19.53125 L 71.132812 19.53125 L 74.320312 25.195312 Z M 71.132812 30.863281"/></g><path fill="#2D4356" d="M 72.550781 49.632812 L 68.796875 43.257812 C 68.652344 43.046875 68.441406 42.90625 68.15625 42.90625 L 60.789062 42.90625 C 60.507812 42.90625 60.292969 43.046875 60.152344 43.257812 L 56.398438 49.632812 C 56.257812 49.847656 56.257812 50.128906 56.398438 50.34375 L 60.152344 56.71875 C 60.292969 56.929688 60.507812 57.070312 60.789062 57.070312 L 68.230469 57.070312 C 68.511719 57.070312 68.722656 56.929688 68.867188 56.71875 L 72.621094 50.34375 C 72.621094 50.128906 72.621094 49.847656 72.550781 49.632812 Z M 67.804688 55.65625 L 61.144531 55.65625 L 57.816406 49.988281 L 61.144531 44.320312 L 67.804688 44.320312 L 71.132812 49.988281 Z M 67.804688 55.65625"/><g clip-path="url(#c)"><path fill="#2D4356" d="M 102.660156 36.175781 L 97.699219 27.675781 C 97.558594 27.464844 97.34375 27.320312 97.0625 27.320312 L 87.144531 27.320312 C 86.859375 27.320312 86.648438 27.464844 86.507812 27.675781 L 81.546875 36.175781 C 81.40625 36.386719 81.40625 36.671875 81.546875 36.882812 L 86.507812 45.382812 C 86.648438 45.597656 86.859375 45.738281 87.144531 45.738281 L 97.0625 45.738281 C 97.34375 45.738281 97.558594 45.597656 97.699219 45.382812 L 102.660156 36.882812 C 102.730469 36.671875 102.730469 36.386719 102.660156 36.175781 Z M 96.636719 44.320312 L 87.496094 44.320312 L 82.964844 36.53125 L 87.496094 28.738281 L 96.636719 28.738281 L 101.171875 36.53125 Z M 96.636719 44.320312"/></g><path fill="#98E07E" d="M 101.171875 36.53125 L 96.636719 44.320312 L 87.570312 44.320312 L 83.035156 36.53125 L 87.570312 28.738281 L 96.636719 28.738281 Z M 101.171875 36.53125"/><path fill="#2D4356" d="M 95.644531 32.988281 L 88.5625 32.988281 C 87.355469 32.988281 86.433594 33.910156 86.433594 35.113281 L 86.433594 37.945312 C 86.433594 39.082031 87.355469 40.070312 88.5625 40.070312 L 95.644531 40.070312 C 96.847656 40.070312 97.769531 39.082031 97.769531 37.945312 L 97.769531 35.113281 C 97.769531 33.910156 96.847656 32.988281 95.644531 32.988281 Z M 96.351562 37.945312 C 96.351562 38.300781 96 38.65625 95.644531 38.65625 L 88.5625 38.65625 C 88.207031 38.65625 87.851562 38.300781 87.851562 37.945312 L 87.851562 35.113281 C 87.851562 34.757812 88.207031 34.40625 88.5625 34.40625 L 95.644531 34.40625 C 96 34.40625 96.351562 34.757812 96.351562 35.113281 Z M 96.351562 37.945312"/><path fill="#FC785E" d="M 96.351562 35.113281 L 96.351562 37.945312 C 96.351562 38.300781 96 38.65625 95.644531 38.65625 L 88.5625 38.65625 C 88.207031 38.65625 87.851562 38.300781 87.851562 37.945312 L 87.851562 35.113281 C 87.851562 34.757812 88.207031 34.40625 88.5625 34.40625 L 95.644531 34.40625 C 96 34.40625 96.351562 34.757812 96.351562 35.113281 Z M 96.351562 35.113281"/><path fill="#F9DBD7" d="M 20.765625 60.472656 L 20.410156 60.613281 C 19.488281 60.898438 18.566406 61.25 17.648438 61.535156 C 15.027344 62.527344 13.679688 65.148438 13.46875 67.839844 C 13.253906 64.722656 14.601562 61.25 17.71875 60.117188 C 18.636719 59.761719 19.558594 59.480469 20.480469 59.195312 Z M 20.765625 60.472656" fill-opacity=".298"/><path fill="#9FA5AA" d="M 33.304688 91.851562 C 32.949219 92.488281 32.3125 92.914062 31.601562 93.125 C 31.53125 93.125 31.390625 93.195312 31.25 93.195312 C 31.105469 93.195312 31.035156 93.195312 30.894531 93.195312 C 30.824219 93.195312 30.683594 93.195312 30.609375 93.195312 C 29.476562 93.054688 28.484375 92.277344 28.132812 91.144531 L 27.847656 89.9375 C 28.273438 91.425781 30.042969 92.0625 31.53125 91.710938 C 32.242188 91.496094 32.808594 91.070312 33.230469 90.433594 C 33.375 90.222656 33.445312 90.007812 33.515625 89.796875 C 33.726562 90.503906 33.65625 91.285156 33.304688 91.851562 Z M 33.304688 91.851562" fill-opacity=".498"/><path fill="#9FA5AA" d="M 50.023438 65.570312 C 49.242188 63.800781 49.171875 65.5 50.023438 64.15625 C 50.871094 62.949219 51.367188 61.605469 51.4375 60.1875 C 51.652344 62.03125 51.15625 64.011719 50.023438 65.570312 Z M 50.023438 65.570312" fill-opacity=".498"/><path fill="#A54B3F" d="M 57.105469 73.433594 C 56.894531 73.789062 56.679688 74 56.46875 74 C 56.46875 74 56.398438 74 56.398438 74 C 56.398438 74 56.398438 74 56.328125 74 C 56.328125 74 56.257812 74 56.257812 74 C 56.183594 74 56.113281 74 56.113281 74 C 56.042969 74 55.972656 74 55.972656 74 C 55.546875 73.859375 55.050781 73.503906 54.484375 72.9375 C 53.351562 71.804688 52.003906 69.820312 50.660156 66.988281 C 50.800781 66.777344 50.941406 66.632812 51.085938 66.421875 C 52.289062 68.757812 53.492188 70.53125 54.484375 71.523438 C 55.050781 72.089844 55.546875 72.441406 55.972656 72.585938 C 56.183594 72.65625 56.328125 72.65625 56.46875 72.585938 C 56.679688 72.511719 56.894531 72.300781 57.105469 72.019531 C 57.460938 71.378906 57.671875 70.316406 57.742188 68.832031 C 57.816406 71.027344 57.53125 72.585938 57.105469 73.433594 Z M 57.105469 73.433594" fill-opacity=".498"/><path fill="#A54B3F" d="M 57.742188 70.246094 C 57.671875 67.34375 57.035156 63.375 55.617188 58.773438 C 54.203125 54.167969 52.574219 50.484375 51.015625 48.074219 C 49.878906 46.304688 48.816406 45.101562 48.039062 44.605469 C 47.753906 44.394531 47.472656 44.320312 47.1875 44.320312 C 47.117188 44.320312 47.046875 44.320312 46.976562 44.320312 C 46.761719 44.394531 46.550781 44.605469 46.339844 44.960938 C 46.125 45.3125 45.984375 45.878906 45.84375 46.589844 C 45.769531 47.011719 45.699219 47.507812 45.699219 48.074219 C 45.628906 46.941406 45.699219 45.949219 45.84375 45.171875 C 45.984375 44.464844 46.125 43.898438 46.339844 43.542969 C 46.550781 43.1875 46.761719 42.976562 46.976562 42.90625 C 47.046875 42.90625 47.046875 42.90625 47.046875 42.90625 C 47.046875 42.90625 47.117188 42.90625 47.1875 42.90625 C 47.402344 42.90625 47.683594 42.976562 47.96875 43.1875 C 48.816406 43.683594 49.808594 44.886719 50.941406 46.660156 C 52.5 49.136719 54.128906 52.75 55.546875 57.355469 C 57.246094 62.738281 57.816406 67.273438 57.742188 70.246094 Z M 57.742188 70.246094" fill-opacity=".498"/><path fill="#00F" d="M 44.285156 46.519531 C 43.574219 47.15625 42.867188 47.722656 42.160156 48.289062 C 42.160156 47.863281 42.160156 47.4375 42.160156 47.085938 C 42.160156 47.011719 42.160156 46.941406 42.160156 46.941406 C 42.867188 46.375 43.574219 45.808594 44.285156 45.171875 C 44.285156 45.527344 44.285156 46.023438 44.285156 46.519531 Z M 44.285156 46.519531"/><path fill="#A54B3F" d="M 52.148438 72.371094 C 51.085938 72.160156 50.023438 71.875 49.03125 71.734375 C 49.03125 71.734375 49.03125 71.664062 48.960938 71.664062 C 48.675781 71.238281 48.390625 70.742188 48.109375 70.246094 C 48.960938 70.386719 50.445312 70.671875 51.085938 70.8125 C 51.4375 71.378906 51.792969 71.875 52.148438 72.371094 Z M 52.148438 72.371094" fill-opacity=".498"/><path fill="#9FA5AA" d="M 47.1875 71.449219 C 46.339844 71.308594 36.914062 71.804688 36.703125 71.804688 C 33.304688 72.230469 30.46875 72.511719 27.917969 73.363281 C 27.210938 73.574219 26.503906 73.859375 25.792969 74.070312 L 25.4375 72.726562 L 25.792969 72.65625 C 26.503906 72.441406 27.210938 72.230469 27.917969 71.945312 C 32.523438 70.386719 37.554688 68.6875 46.339844 69.894531 C 46.621094 70.460938 46.90625 70.957031 47.1875 71.449219 Z M 47.1875 71.449219" fill-opacity=".498"/><path fill="#FFF" d="M 40.742188 49.351562 C 40.742188 49.777344 40.742188 50.273438 40.8125 50.695312 C 40.8125 50.695312 40.742188 50.769531 40.742188 50.769531 C 33.230469 56.433594 27.351562 58.347656 22.109375 60.046875 L 21.753906 58.773438 C 21.828125 58.773438 21.828125 58.773438 21.898438 58.699219 C 27.28125 56.929688 33.160156 55.089844 40.742188 49.351562 Z M 40.742188 49.351562" fill-opacity=".498"/><path fill="#A54B3F" d="M 24.449219 74.496094 C 23.457031 74.78125 22.394531 74.992188 21.332031 75.0625 C 21.1875 75.0625 21.117188 75.0625 20.976562 75.0625 C 20.90625 75.0625 20.765625 75.0625 20.691406 75.0625 C 18 74.921875 14.53125 72.160156 13.820312 69.46875 C 13.539062 68.476562 13.46875 67.414062 13.539062 66.351562 C 13.609375 66.917969 13.679688 67.484375 13.820312 68.050781 C 14.601562 70.957031 18.636719 73.929688 21.402344 73.648438 C 22.324219 73.574219 23.242188 73.363281 24.164062 73.152344 Z M 24.449219 74.496094" fill-opacity=".498"/><path fill="#F9DBD7" d="M 41.519531 50.34375 L 45.0625 47.652344 L 44.921875 45.382812 L 41.519531 47.722656 Z M 41.519531 50.34375" fill-opacity=".298"/><g clip-path="url(#d)"><path fill="#2D4356" d="M 56.964844 57 C 54.414062 48.570312 50.023438 40.566406 46.550781 41.558594 C 45.914062 41.699219 45.417969 42.195312 45.0625 42.835938 C 44.851562 43.257812 44.636719 43.753906 44.496094 44.394531 C 34.789062 53.035156 27.777344 55.300781 21.472656 57.355469 C 21.257812 57.425781 20.976562 57.496094 20.410156 57.710938 C 19.277344 58.0625 18.214844 58.417969 17.152344 58.84375 C 12.757812 60.472656 11.269531 65.785156 12.402344 69.894531 C 13.324219 73.292969 17.574219 76.550781 20.976562 76.550781 C 21.1875 76.550781 21.332031 76.550781 21.472656 76.550781 C 21.898438 76.480469 22.324219 76.480469 22.746094 76.339844 L 26.855469 91.496094 C 27.351562 93.339844 29.050781 94.613281 30.964844 94.613281 C 31.320312 94.613281 31.601562 94.542969 31.957031 94.472656 C 33.019531 94.1875 33.941406 93.550781 34.507812 92.558594 C 35.074219 91.636719 35.214844 90.503906 34.933594 89.441406 L 30.824219 73.929688 C 33.585938 73.082031 36.703125 72.371094 40.8125 72.371094 C 44.285156 72.371094 48.464844 72.867188 53.777344 74.285156 C 54.625 75.0625 55.476562 75.488281 56.257812 75.488281 C 56.46875 75.488281 56.609375 75.488281 56.824219 75.417969 C 57.460938 75.277344 57.957031 74.78125 58.3125 74.144531 C 58.878906 73.152344 59.089844 71.523438 59.089844 69.539062 C 59.160156 66.210938 58.382812 61.746094 56.964844 57 Z M 21.332031 75.132812 C 18.636719 75.417969 14.601562 72.441406 13.75 69.539062 C 12.828125 66.066406 14.035156 61.464844 17.71875 60.117188 C 18.636719 59.761719 19.558594 59.480469 20.480469 59.195312 L 24.449219 74.566406 C 23.457031 74.78125 22.394531 74.992188 21.332031 75.132812 Z M 33.585938 89.796875 C 33.800781 90.503906 33.65625 91.214844 33.304688 91.851562 C 32.949219 92.488281 32.3125 92.914062 31.601562 93.125 C 30.113281 93.480469 28.628906 92.558594 28.203125 91.144531 L 24.09375 76.054688 C 24.730469 75.914062 25.367188 75.699219 26.078125 75.488281 L 28.769531 85.261719 C 28.839844 85.546875 29.125 85.757812 29.476562 85.757812 C 29.546875 85.757812 29.617188 85.757812 29.691406 85.757812 C 30.042969 85.6875 30.257812 85.261719 30.1875 84.910156 L 27.492188 75.0625 C 27.777344 74.992188 28.132812 74.851562 28.414062 74.78125 C 28.769531 74.636719 29.125 74.566406 29.546875 74.425781 Z M 27.917969 73.433594 C 27.210938 73.648438 26.503906 73.929688 25.792969 74.144531 L 21.753906 58.773438 C 21.828125 58.773438 21.828125 58.773438 21.898438 58.699219 C 27.210938 57 33.089844 55.089844 40.742188 49.351562 C 40.8125 52.609375 41.589844 56.859375 42.867188 61.179688 C 44.070312 65.074219 45.558594 68.6875 47.1875 71.449219 C 37.835938 70.105469 32.664062 71.804688 27.917969 73.433594 Z M 49.03125 71.734375 C 49.03125 71.734375 49.03125 71.664062 48.960938 71.664062 C 47.1875 68.902344 45.558594 65.074219 44.210938 60.753906 C 42.796875 56.152344 42.085938 51.6875 42.160156 48.429688 C 42.160156 48.359375 42.160156 48.289062 42.160156 48.289062 C 42.867188 47.722656 43.574219 47.15625 44.285156 46.519531 C 44.140625 49.917969 44.851562 54.804688 46.480469 59.976562 C 47.96875 64.792969 50.023438 69.46875 52.148438 72.371094 C 51.085938 72.160156 50.023438 71.945312 49.03125 71.734375 Z M 46.265625 53.246094 C 47.824219 53.882812 49.171875 54.875 50.09375 56.292969 C 52.003906 59.125 51.933594 62.878906 50.023438 65.570312 C 49.242188 63.800781 48.535156 61.816406 47.824219 59.550781 C 47.117188 57.285156 46.621094 55.160156 46.265625 53.246094 Z M 57.105469 73.433594 C 56.894531 73.789062 56.679688 74 56.46875 74 C 56.328125 74.070312 56.113281 74.070312 55.972656 74 C 55.546875 73.859375 55.050781 73.503906 54.484375 72.9375 C 53.351562 71.804688 52.003906 69.820312 50.660156 66.988281 C 53.421875 63.730469 53.636719 58.984375 51.226562 55.441406 C 49.949219 53.601562 48.109375 52.253906 45.984375 51.617188 C 45.628906 48.925781 45.558594 46.660156 45.769531 45.171875 C 45.914062 44.464844 46.054688 43.898438 46.265625 43.542969 C 46.480469 43.1875 46.691406 42.976562 46.90625 42.90625 C 46.976562 42.90625 47.046875 42.90625 47.117188 42.90625 C 47.328125 42.90625 47.613281 42.976562 47.96875 43.1875 C 48.816406 43.683594 49.808594 44.886719 50.941406 46.660156 C 52.5 49.136719 54.128906 52.75 55.546875 57.355469 C 58.027344 65.289062 58.167969 71.449219 57.105469 73.433594 Z M 57.105469 73.433594"/></g><path fill="#AA7371" d="M 95.929688 63.445312 L 90.828125 72.65625 L 80.625 72.65625 L 75.527344 63.445312 L 75.949219 62.738281 L 80.625 71.238281 L 90.828125 71.238281 L 95.503906 62.738281 Z M 95.929688 63.445312" fill-opacity=".498"/><path fill="#FFDEDC" d="M 95.929688 63.445312 L 95.503906 64.15625 L 90.828125 55.65625 L 80.625 55.65625 L 75.949219 64.15625 L 75.527344 63.445312 L 80.625 54.238281 L 90.828125 54.238281 Z M 95.929688 63.445312" fill-opacity=".498"/><path fill="#528440" d="M 101.171875 36.53125 L 96.636719 44.320312 L 87.570312 44.320312 L 83.035156 36.53125 L 83.390625 35.820312 L 87.570312 42.90625 L 96.636719 42.90625 L 100.816406 35.820312 Z M 101.171875 36.53125" fill-opacity=".298"/><path fill="#CBE0C3" d="M 101.171875 36.53125 L 100.816406 37.238281 L 96.636719 30.15625 L 87.570312 30.15625 L 83.390625 37.238281 L 83.035156 36.53125 L 87.570312 28.738281 L 96.636719 28.738281 Z M 101.171875 36.53125" fill-opacity=".6"/><path fill="#0F423C" d="M 74.320312 25.195312 L 71.132812 30.863281 L 64.898438 30.863281 L 61.710938 25.195312 L 62.136719 24.488281 L 64.898438 29.445312 L 71.132812 29.445312 L 73.894531 24.488281 Z M 74.320312 25.195312" fill-opacity=".298"/><path fill="#CCF0F2" d="M 74.320312 25.195312 L 73.894531 25.90625 L 71.132812 20.945312 L 64.898438 20.945312 L 62.136719 25.90625 L 61.710938 25.195312 L 64.898438 19.53125 L 71.132812 19.53125 Z M 74.320312 25.195312" fill-opacity=".298"/><path fill="#937D4A" d="M 71.0625 49.988281 L 67.804688 55.65625 L 61.144531 55.65625 L 57.886719 49.988281 L 58.238281 49.28125 L 61.144531 54.238281 L 67.804688 54.238281 L 70.707031 49.28125 Z M 71.0625 49.988281" fill-opacity=".298"/><path fill="#F9EDD2" d="M 71.0625 49.988281 L 70.707031 50.695312 L 67.804688 45.738281 L 61.144531 45.738281 L 58.238281 50.695312 L 57.886719 49.988281 L 61.144531 44.320312 L 67.804688 44.320312 Z M 71.0625 49.988281" fill-opacity=".498"/><path fill="#2D4356" d="M 68.371094 47.507812 C 67.449219 46.589844 65.890625 46.589844 65.039062 47.507812 L 64.472656 48.074219 L 63.90625 47.507812 C 62.984375 46.589844 61.5 46.589844 60.507812 47.507812 C 59.585938 48.429688 59.585938 49.988281 60.507812 50.910156 L 63.90625 54.378906 C 64.050781 54.523438 64.261719 54.59375 64.402344 54.59375 C 64.617188 54.59375 64.757812 54.523438 64.898438 54.378906 L 68.371094 50.839844 C 68.796875 50.414062 69.007812 49.777344 69.007812 49.136719 C 69.007812 48.5 68.867188 47.933594 68.371094 47.507812 Z M 67.378906 49.847656 L 64.472656 52.894531 L 61.570312 49.988281 C 61.214844 49.632812 61.214844 48.925781 61.570312 48.570312 C 61.78125 48.359375 61.996094 48.289062 62.277344 48.289062 C 62.5625 48.289062 62.773438 48.429688 62.984375 48.570312 L 64.050781 49.632812 C 64.332031 49.917969 64.757812 49.917969 65.039062 49.632812 L 66.101562 48.570312 C 66.457031 48.21875 67.09375 48.21875 67.378906 48.570312 C 67.589844 48.785156 67.660156 48.996094 67.660156 49.28125 C 67.660156 49.5625 67.589844 49.707031 67.378906 49.847656 Z M 67.378906 49.847656"/><path fill="#FC785E" d="M 67.660156 49.210938 C 67.660156 49.492188 67.589844 49.707031 67.378906 49.917969 L 64.472656 52.894531 L 61.570312 49.988281 C 61.214844 49.632812 61.214844 48.925781 61.570312 48.570312 C 61.78125 48.359375 61.996094 48.289062 62.277344 48.289062 C 62.5625 48.289062 62.773438 48.429688 62.984375 48.570312 L 64.050781 49.632812 C 64.332031 49.917969 64.757812 49.917969 65.039062 49.632812 L 66.101562 48.570312 C 66.457031 48.21875 67.09375 48.21875 67.378906 48.570312 C 67.589844 48.644531 67.660156 48.925781 67.660156 49.210938 Z M 67.660156 49.210938"/><path fill="#A54B3F" d="M 67.660156 49.210938 C 67.660156 49.492188 67.589844 49.707031 67.378906 49.917969 L 64.472656 52.894531 L 61.570312 49.988281 C 61.214844 49.632812 61.214844 48.925781 61.570312 48.570312 L 64.472656 51.476562 L 67.378906 48.5 C 67.589844 48.644531 67.660156 48.925781 67.660156 49.210938 Z M 67.660156 49.210938" fill-opacity=".498"/><path fill="#E5D0C3" d="M 86.71875 67.695312 L 85.9375 67.695312 L 84.804688 65.5 L 83.246094 67.695312 L 82.183594 67.695312 L 84.804688 64.085938 Z M 86.71875 67.695312" fill-opacity=".298"/><path fill="#E5D0C3" d="M 89.480469 67.625 L 88.773438 67.625 L 88.277344 66.847656 L 87.992188 67.199219 L 87.570312 66.28125 L 88.277344 65.429688 Z M 89.480469 67.625" fill-opacity=".298"/><path fill="#CCF0F2" d="M 81.476562 59.195312 L 89.976562 59.195312 L 89.976562 60.613281 L 81.476562 60.613281 Z M 81.476562 59.195312" fill-opacity=".298"/><path fill="#2D4356" d="M 88.207031 61.246094 C 88.214844 61.386719 88.199219 61.523438 88.15625 61.65625 C 88.109375 61.789062 88.042969 61.910156 87.949219 62.015625 C 87.859375 62.125 87.75 62.207031 87.625 62.273438 C 87.5 62.335938 87.363281 62.371094 87.222656 62.382812 C 87.085938 62.394531 86.945312 62.375 86.8125 62.332031 C 86.679688 62.289062 86.558594 62.21875 86.453125 62.128906 C 86.34375 62.035156 86.261719 61.925781 86.195312 61.800781 C 86.132812 61.675781 86.097656 61.542969 86.085938 61.402344 C 86.074219 61.261719 86.09375 61.125 86.136719 60.992188 C 86.179688 60.855469 86.25 60.738281 86.339844 60.628906 C 86.433594 60.523438 86.542969 60.4375 86.667969 60.375 C 86.792969 60.3125 86.925781 60.273438 87.066406 60.265625 C 87.207031 60.253906 87.34375 60.269531 87.480469 60.3125 C 87.613281 60.359375 87.734375 60.425781 87.839844 60.519531 C 87.945312 60.609375 88.03125 60.71875 88.09375 60.84375 C 88.160156 60.972656 88.195312 61.105469 88.207031 61.246094 Z M 88.207031 61.246094"/><path fill="#A54B3F" d="M 96.351562 36.53125 L 96.351562 37.945312 C 96.351562 38.300781 96 38.65625 95.644531 38.65625 L 88.5625 38.65625 C 88.207031 38.65625 87.851562 38.300781 87.851562 37.945312 L 87.851562 36.53125 C 87.851562 36.882812 88.207031 37.238281 88.5625 37.238281 L 95.644531 37.238281 C 96 37.238281 96.351562 36.882812 96.351562 36.53125 Z M 96.351562 36.53125" fill-opacity=".498"/><path fill="#2D4356" d="M 90.96875 35.183594 L 90.96875 37.875 L 92.101562 37.167969 L 93.234375 36.53125 L 92.101562 35.894531 Z M 90.96875 35.183594"/></svg>