<svg xmlns="http://www.w3.org/2000/svg" width="112.5" viewBox="0 0 112.5 112.5" height="112.5" version="1.0"><defs><clipPath id="a"><path d="M 0 0 L 112.003906 0 L 112.003906 112.003906 L 0 112.003906 Z M 0 0"/></clipPath><clipPath id="b"><path d="M 30.453125 30.453125 L 82.203125 30.453125 L 82.203125 82.195312 L 30.453125 82.195312 Z M 30.453125 30.453125"/></clipPath></defs><g clip-path="url(#a)" fill="#FFF"><path d="M 0 0 L 112.5 0 L 112.5 112.5 L 0 112.5 Z M 0 0"/><path d="M 0 0 L 112.5 0 L 112.5 112.5 L 0 112.5 Z M 0 0"/></g><path fill="#51ADE5" d="M 56.210938 103.722656 C 43.527344 103.722656 31.582031 98.785156 22.621094 89.804688 C 13.636719 80.839844 8.703125 68.898438 8.703125 56.210938 C 8.703125 43.527344 13.636719 31.582031 22.621094 22.621094 C 31.582031 13.636719 43.527344 8.699219 56.210938 8.699219 C 68.898438 8.699219 80.839844 13.636719 89.804688 22.621094 C 98.785156 31.601562 103.722656 43.527344 103.722656 56.210938 C 103.722656 68.898438 98.785156 80.839844 89.804688 89.804688 C 80.839844 98.785156 68.898438 103.722656 56.210938 103.722656 Z M 56.210938 11.550781 C 44.285156 11.550781 33.0625 16.203125 24.632812 24.632812 C 16.203125 33.0625 11.550781 44.285156 11.550781 56.210938 C 11.550781 68.136719 16.203125 79.359375 24.632812 87.789062 C 33.0625 96.222656 44.285156 100.875 56.210938 100.875 C 68.136719 100.875 79.359375 96.222656 87.789062 87.789062 C 96.222656 79.359375 100.875 68.136719 100.875 56.210938 C 100.875 44.285156 96.222656 33.0625 87.789062 24.632812 C 79.359375 16.203125 68.136719 11.550781 56.210938 11.550781 Z M 56.210938 11.550781"/><path fill="#75B1F2" d="M 52.988281 66.339844 L 52.988281 59.835938 C 53.484375 59.71875 54.003906 59.660156 54.53125 59.660156 L 56.324219 59.660156 L 56.324219 65.503906 C 56.324219 65.964844 56.699219 66.339844 57.160156 66.339844 L 65.507812 66.339844 C 65.972656 66.339844 66.34375 65.964844 66.34375 65.503906 L 66.34375 59.660156 L 68.144531 59.660156 C 68.664062 59.660156 69.179688 59.71875 69.679688 59.835938 L 69.679688 81.363281 L 52.988281 81.363281 L 52.988281 66.339844"/><path fill="#E6E9ED" d="M 56.507812 60.011719 C 57.417969 61.84375 59.289062 63 61.332031 63 C 62.359375 63 63.34375 62.710938 64.179688 62.191406 C 65.015625 61.671875 65.714844 60.921875 66.164062 60.011719 L 66.34375 59.660156 L 66.34375 65.503906 C 66.34375 65.964844 65.972656 66.339844 65.507812 66.339844 L 57.160156 66.339844 C 56.699219 66.339844 56.324219 65.964844 56.324219 65.503906 L 56.324219 59.660156 L 56.507812 60.011719"/><path fill="#FF826E" d="M 65.515625 70.511719 C 66.046875 71.046875 66.34375 71.765625 66.34375 72.515625 C 66.34375 73.359375 65.972656 74.160156 65.324219 74.703125 L 61.332031 78.023438 L 57.351562 74.703125 C 56.699219 74.160156 56.324219 73.359375 56.324219 72.515625 C 56.324219 71.765625 56.625 71.046875 57.160156 70.511719 C 57.695312 69.980469 58.421875 69.675781 59.179688 69.675781 L 59.320312 69.675781 C 60.070312 69.675781 60.800781 69.980469 61.332031 70.511719 C 61.867188 69.980469 62.59375 69.675781 63.351562 69.675781 L 63.496094 69.675781 C 64.253906 69.675781 64.972656 69.980469 65.507812 70.511719 L 65.515625 70.511719"/><path fill="#DFB28B" d="M 44.640625 71.023438 C 44.640625 70.679688 44.597656 70.347656 44.507812 70.019531 L 44.058594 68.445312 C 44.148438 68.375 44.238281 68.300781 44.324219 68.210938 L 44.332031 68.214844 L 44.441406 68.257812 L 46.9375 69.253906 C 47.570312 69.511719 47.980469 70.121094 47.980469 70.804688 L 47.980469 71.730469 C 47.980469 72.441406 47.410156 73.015625 46.699219 73.015625 C 46.449219 73.015625 46.203125 72.941406 45.992188 72.800781 L 44.550781 71.84375 L 44.640625 71.023438"/><path fill="#DFB28B" d="M 44.324219 75.039062 C 44.53125 75.347656 44.640625 75.722656 44.640625 76.097656 C 44.640625 77.167969 43.78125 78.023438 42.71875 78.023438 L 41.96875 78.023438 C 41.09375 78.023438 40.316406 77.425781 40.109375 76.5625 L 39.632812 74.683594 L 40.984375 74.683594 C 41.9375 74.683594 42.804688 74.328125 43.445312 73.726562 L 44.324219 75.039062"/><path fill="#DFB28B" d="M 39.632812 74.683594 L 39.167969 76.5625 C 38.949219 77.425781 38.179688 78.023438 37.304688 78.023438 L 36.550781 78.023438 C 35.484375 78.023438 34.625 77.167969 34.625 76.097656 C 34.625 75.722656 34.742188 75.347656 34.949219 75.039062 L 35.816406 73.726562 C 36.460938 74.320312 37.335938 74.683594 38.289062 74.683594 L 39.632812 74.683594"/><path fill="#DFB28B" d="M 34.625 71.023438 C 34.625 71.308594 34.65625 71.574219 34.714844 71.84375 L 33.28125 72.800781 C 33.070312 72.941406 32.820312 73.015625 32.570312 73.015625 C 31.863281 73.015625 31.285156 72.441406 31.285156 71.730469 L 31.285156 70.804688 C 31.285156 70.121094 31.703125 69.511719 32.339844 69.253906 L 34.941406 68.214844 C 35.03125 68.300781 35.125 68.375 35.21875 68.445312 L 34.769531 70.019531 C 34.671875 70.347656 34.625 70.679688 34.625 71.023438"/><path fill="#D3A06C" d="M 44.507812 70.019531 C 44.597656 70.347656 44.640625 70.679688 44.640625 71.023438 L 44.550781 71.84375 C 43.78125 73.382812 43.679688 73.5 43.570312 73.609375 C 43.527344 73.652344 43.488281 73.695312 43.445312 73.726562 C 42.804688 74.328125 41.9375 74.683594 40.984375 74.683594 L 38.289062 74.683594 C 37.335938 74.683594 36.460938 74.320312 35.816406 73.726562 C 35.277344 73.226562 34.882812 72.574219 34.714844 71.84375 C 34.65625 71.574219 34.625 71.308594 34.625 71.023438 C 34.625 70.679688 34.671875 70.347656 34.769531 70.019531 L 35.21875 68.445312 C 36.207031 69.222656 37.453125 69.675781 38.796875 69.675781 L 40.46875 69.675781 C 41.820312 69.675781 43.070312 69.222656 44.058594 68.445312 L 44.507812 70.019531"/><path fill="#DFB28B" d="M 45.742188 61.324219 C 45.164062 60.113281 44.195312 59.136719 42.988281 58.570312 L 42.988281 58.5625 C 43.121094 57.300781 44.179688 56.324219 45.476562 56.324219 C 46.859375 56.324219 47.980469 57.445312 47.980469 58.828125 C 47.980469 60.113281 47 61.179688 45.75 61.3125 L 45.742188 61.324219"/><path fill="#DFB28B" d="M 36.285156 58.570312 C 35.683594 58.847656 35.132812 59.238281 34.667969 59.703125 C 34.195312 60.171875 33.816406 60.714844 33.53125 61.3125 C 32.269531 61.179688 31.285156 60.121094 31.285156 58.828125 C 31.285156 57.445312 32.410156 56.324219 33.789062 56.324219 C 35.082031 56.324219 36.148438 57.300781 36.285156 58.5625 L 36.285156 58.570312"/><path fill="#D3A06C" d="M 45.742188 61.324219 C 46.109375 62.082031 46.308594 62.933594 46.308594 63.835938 C 46.308594 65.375 45.714844 66.777344 44.640625 67.917969 C 44.589844 66.105469 43.121094 64.667969 41.300781 64.667969 L 41.269531 64.667969 C 41.292969 64.5625 41.300781 64.453125 41.300781 64.347656 C 41.300781 63.601562 40.703125 63 39.957031 63 L 39.316406 63 C 38.574219 63 37.964844 63.601562 37.964844 64.347656 C 37.964844 64.453125 37.980469 64.5625 37.996094 64.667969 L 37.964844 64.667969 C 36.148438 64.667969 34.671875 66.113281 34.632812 67.925781 C 33.597656 66.875 32.953125 65.429688 32.953125 63.835938 C 32.953125 62.933594 33.164062 62.074219 33.53125 61.3125 C 33.816406 60.714844 34.195312 60.171875 34.667969 59.703125 C 35.132812 59.238281 35.683594 58.847656 36.285156 58.570312 C 37.042969 58.195312 37.898438 57.992188 38.796875 57.992188 L 40.46875 57.992188 C 41.367188 57.992188 42.226562 58.195312 42.988281 58.570312 C 44.195312 59.136719 45.164062 60.113281 45.742188 61.324219"/><path fill="#CF9E76" d="M 41.300781 64.667969 C 43.121094 64.667969 44.589844 66.105469 44.640625 67.917969 L 44.640625 67.925781 C 44.625 67.941406 44.613281 67.953125 44.597656 67.96875 C 44.507812 68.050781 44.414062 68.140625 44.324219 68.210938 C 44.238281 68.300781 44.148438 68.375 44.058594 68.445312 C 43.070312 69.222656 41.820312 69.675781 40.46875 69.675781 L 38.796875 69.675781 C 37.453125 69.675781 36.207031 69.222656 35.21875 68.445312 C 35.125 68.375 35.03125 68.300781 34.941406 68.214844 C 34.832031 68.125 34.730469 68.027344 34.632812 67.925781 C 34.671875 66.113281 36.148438 64.667969 37.964844 64.667969 L 37.996094 64.667969 C 38.023438 64.765625 38.0625 64.863281 38.105469 64.957031 L 38.429688 65.589844 C 38.652344 66.046875 39.125 66.339844 39.632812 66.339844 C 40.152344 66.339844 40.617188 66.046875 40.84375 65.589844 L 41.15625 64.957031 C 41.210938 64.863281 41.242188 64.765625 41.269531 64.667969 L 41.300781 64.667969"/><path fill="#B27946" d="M 37.996094 64.667969 C 37.980469 64.5625 37.964844 64.453125 37.964844 64.347656 C 37.964844 63.601562 38.574219 63 39.316406 63 L 39.957031 63 C 40.703125 63 41.300781 63.601562 41.300781 64.347656 C 41.300781 64.453125 41.292969 64.5625 41.269531 64.667969 C 41.242188 64.765625 41.210938 64.863281 41.15625 64.957031 L 40.84375 65.589844 C 40.617188 66.046875 40.152344 66.339844 39.632812 66.339844 C 39.125 66.339844 38.652344 66.046875 38.429688 65.589844 L 38.105469 64.957031 C 38.0625 64.863281 38.023438 64.765625 37.996094 64.667969"/><path fill="#F0D0B4" d="M 81.367188 73.785156 L 81.367188 73.851562 C 81.367188 75.230469 80.246094 76.355469 78.871094 76.355469 C 78.175781 76.355469 77.550781 76.070312 77.089844 75.621094 C 76.640625 75.160156 76.359375 74.546875 76.359375 73.851562 L 76.359375 73.015625 L 69.679688 66.332031 L 69.679688 59.835938 C 71.117188 60.179688 72.417969 60.992188 73.363281 62.164062 L 80.363281 70.921875 C 81.015625 71.730469 81.367188 72.742188 81.367188 73.785156"/><path fill="#F0D0B4" d="M 52.988281 66.339844 L 47.980469 71.347656 L 47.980469 70.804688 C 47.980469 70.121094 47.570312 69.511719 46.9375 69.253906 L 44.441406 68.257812 L 49.3125 62.164062 C 50.257812 60.992188 51.550781 60.179688 52.988281 59.847656 L 52.988281 66.339844"/><path fill="#F0D0B4" d="M 56.507812 60.011719 L 56.324219 59.660156 L 66.34375 59.660156 L 66.164062 60.011719 C 65.714844 60.921875 65.015625 61.671875 64.179688 62.191406 C 63.34375 62.710938 62.359375 63 61.332031 63 C 59.289062 63 57.417969 61.84375 56.507812 60.011719"/><path fill="#F0D0B4" d="M 56.519531 42.476562 L 66.375 44.332031 C 67.46875 44.53125 68.570312 44.636719 69.679688 44.636719 C 70.605469 44.636719 71.441406 44.261719 72.042969 43.664062 C 72.644531 43.0625 73.019531 42.226562 73.019531 41.296875 L 73.019531 51.316406 C 73.019531 52.335938 72.835938 53.308594 72.5 54.214844 C 71.324219 57.390625 68.269531 59.660156 64.671875 59.660156 L 57.996094 59.660156 C 54.40625 59.660156 51.351562 57.402344 50.171875 54.21875 C 49.832031 53.308594 49.648438 52.335938 49.648438 51.316406 L 49.648438 45.640625 C 49.648438 43.144531 51.484375 41.035156 53.957031 40.683594 L 54.683594 40.574219 C 54.738281 40.992188 54.914062 41.375 55.179688 41.691406 C 55.515625 42.09375 55.984375 42.378906 56.519531 42.476562"/><path fill="#FCD770" d="M 54.683594 40.574219 L 53.957031 40.683594 C 51.484375 41.035156 49.648438 43.144531 49.648438 45.640625 L 49.648438 51.316406 C 49.648438 52.335938 49.832031 53.308594 50.171875 54.21875 L 46.109375 52.699219 C 45.222656 52.367188 44.640625 51.523438 44.640625 50.582031 C 44.640625 49.980469 44.882812 49.402344 45.308594 48.980469 L 45.773438 48.511719 C 46.117188 48.167969 46.308594 47.703125 46.308594 47.21875 C 46.308594 46.640625 46.042969 46.097656 45.582031 45.757812 L 43.871094 44.472656 C 43.304688 44.046875 42.972656 43.386719 42.972656 42.675781 C 42.972656 41.832031 43.453125 41.058594 44.214844 40.671875 L 45.417969 40.074219 C 45.96875 39.796875 46.308594 39.238281 46.308594 38.628906 C 46.308594 38.195312 46.144531 37.785156 45.84375 37.488281 L 45.132812 36.785156 C 44.824219 36.464844 44.640625 36.042969 44.640625 35.589844 C 44.640625 34.988281 44.964844 34.4375 45.492188 34.136719 L 46.753906 33.410156 C 49.199219 32.019531 51.96875 31.28125 54.789062 31.28125 C 55.808594 31.28125 56.835938 31.375 57.84375 31.574219 L 76.230469 35.105469 C 77.273438 35.304688 78.027344 36.226562 78.027344 37.285156 C 78.027344 37.726562 77.898438 38.152344 77.660156 38.519531 L 76.667969 40.007812 C 76.464844 40.308594 76.359375 40.648438 76.359375 41.007812 C 76.359375 41.699219 76.75 42.324219 77.359375 42.636719 L 78.710938 43.304688 C 79.3125 43.613281 79.695312 44.230469 79.695312 44.90625 C 79.695312 45.734375 79.136719 46.441406 78.34375 46.640625 L 77.417969 46.878906 C 76.800781 47.035156 76.359375 47.585938 76.359375 48.226562 C 76.359375 48.601562 76.507812 48.953125 76.765625 49.222656 L 77.425781 49.875 C 77.808594 50.265625 78.027344 50.78125 78.027344 51.335938 C 78.027344 52.292969 77.359375 53.128906 76.417969 53.347656 L 72.5 54.214844 C 72.835938 53.308594 73.019531 52.335938 73.019531 51.316406 L 73.019531 41.296875 C 73.019531 42.226562 72.644531 43.0625 72.042969 43.664062 C 71.441406 44.261719 70.605469 44.636719 69.679688 44.636719 C 68.570312 44.636719 67.46875 44.53125 66.375 44.332031 L 56.519531 42.476562 C 55.984375 42.378906 55.515625 42.09375 55.179688 41.691406 C 54.914062 41.375 54.738281 40.992188 54.683594 40.574219"/><path fill="#969FAA" d="M 66.34375 44.636719 C 67.269531 44.636719 68.011719 45.378906 68.011719 46.304688 C 68.011719 47.226562 67.269531 47.976562 66.34375 47.976562 C 65.421875 47.976562 64.671875 47.226562 64.671875 46.304688 C 64.671875 45.378906 65.421875 44.636719 66.34375 44.636719"/><path fill="#969FAA" d="M 56.324219 44.636719 C 57.25 44.636719 57.996094 45.378906 57.996094 46.304688 C 57.996094 47.226562 57.25 47.976562 56.324219 47.976562 C 55.40625 47.976562 54.65625 47.226562 54.65625 46.304688 C 54.65625 45.378906 55.40625 44.636719 56.324219 44.636719"/><path d="M 42.972656 62.164062 C 43.433594 62.164062 43.808594 61.789062 43.808594 61.332031 C 43.808594 60.867188 43.433594 60.496094 42.972656 60.496094 C 42.515625 60.496094 42.140625 60.867188 42.140625 61.332031 C 42.140625 61.789062 42.515625 62.164062 42.972656 62.164062"/><path d="M 36.296875 62.164062 C 36.757812 62.164062 37.132812 61.789062 37.132812 61.332031 C 37.132812 60.867188 36.757812 60.496094 36.296875 60.496094 C 35.835938 60.496094 35.460938 60.867188 35.460938 61.332031 C 35.460938 61.789062 35.835938 62.164062 36.296875 62.164062"/><g clip-path="url(#b)"><path d="M 78.867188 75.519531 C 78.417969 75.519531 78 75.34375 77.683594 75.03125 C 77.367188 74.714844 77.195312 74.292969 77.195312 73.847656 L 77.195312 72.667969 L 70.519531 65.992188 L 70.519531 61 C 71.359375 61.375 72.113281 61.945312 72.707031 62.6875 L 79.710938 71.441406 C 80.242188 72.101562 80.535156 72.9375 80.535156 73.851562 C 80.535156 74.769531 79.785156 75.519531 78.867188 75.519531 Z M 53.824219 80.523438 L 53.824219 60.539062 C 54.054688 60.507812 54.292969 60.492188 54.53125 60.492188 L 55.496094 60.492188 L 55.496094 65.5 C 55.496094 66.421875 56.246094 67.171875 57.164062 67.171875 L 65.511719 67.171875 C 66.429688 67.171875 67.179688 66.421875 67.179688 65.5 L 67.179688 60.492188 L 68.144531 60.492188 C 68.382812 60.492188 68.617188 60.507812 68.847656 60.539062 L 68.847656 80.523438 Z M 48.519531 69.628906 C 48.246094 69.121094 47.804688 68.707031 47.242188 68.480469 L 45.792969 67.902344 L 49.96875 62.6875 C 50.5625 61.945312 51.316406 61.375 52.15625 61 L 52.15625 65.988281 Z M 47.148438 71.730469 C 47.148438 72.066406 46.734375 72.292969 46.453125 72.101562 L 45.4375 71.429688 C 45.449219 71.292969 45.476562 71.160156 45.476562 71.023438 C 45.476562 70.605469 45.417969 70.1875 45.304688 69.789062 L 45.214844 69.46875 L 46.621094 70.03125 C 46.941406 70.160156 47.148438 70.464844 47.148438 70.804688 Z M 42.71875 77.1875 L 41.96875 77.1875 C 41.472656 77.1875 41.039062 76.851562 40.917969 76.363281 L 40.703125 75.515625 L 40.980469 75.515625 C 41.804688 75.515625 42.5625 75.28125 43.226562 74.898438 L 43.625 75.496094 C 43.746094 75.675781 43.808594 75.886719 43.808594 76.101562 C 43.808594 76.699219 43.320312 77.1875 42.71875 77.1875 Z M 37.300781 77.1875 L 36.546875 77.1875 C 35.953125 77.1875 35.460938 76.699219 35.460938 76.101562 C 35.460938 75.886719 35.523438 75.675781 35.644531 75.496094 L 36.046875 74.898438 C 36.707031 75.28125 37.46875 75.515625 38.289062 75.515625 L 38.566406 75.515625 L 38.355469 76.363281 C 38.234375 76.851562 37.800781 77.1875 37.300781 77.1875 Z M 32.816406 72.101562 C 32.539062 72.289062 32.125 72.066406 32.125 71.730469 L 32.125 70.804688 C 32.125 70.464844 32.328125 70.160156 32.648438 70.03125 L 34.058594 69.464844 L 33.964844 69.789062 C 33.851562 70.1875 33.792969 70.605469 33.792969 71.023438 C 33.792969 71.160156 33.820312 71.292969 33.835938 71.429688 Z M 32.125 58.824219 C 32.125 57.902344 32.875 57.152344 33.792969 57.152344 C 34.472656 57.152344 35.054688 57.5625 35.316406 58.148438 C 34.417969 58.699219 33.667969 59.453125 33.117188 60.347656 C 32.527344 60.085938 32.125 59.503906 32.125 58.824219 Z M 40.46875 58.824219 C 43.230469 58.824219 45.476562 61.074219 45.476562 63.835938 C 45.476562 64.621094 45.292969 65.363281 44.964844 66.027344 C 44.382812 64.941406 43.347656 64.144531 42.09375 63.910156 C 41.890625 62.914062 41.007812 62.160156 39.953125 62.160156 L 39.316406 62.160156 C 38.261719 62.160156 37.378906 62.914062 37.175781 63.910156 C 35.921875 64.144531 34.886719 64.941406 34.304688 66.027344 C 33.980469 65.359375 33.792969 64.621094 33.792969 63.832031 C 33.792969 61.070312 36.039062 58.824219 38.800781 58.824219 Z M 45.476562 57.152344 C 46.398438 57.152344 47.148438 57.902344 47.148438 58.824219 C 47.148438 59.5 46.742188 60.085938 46.152344 60.347656 C 45.605469 59.453125 44.847656 58.699219 43.957031 58.148438 C 44.214844 57.5625 44.800781 57.152344 45.476562 57.152344 Z M 38.800781 64.351562 C 38.800781 64.0625 39.03125 63.832031 39.316406 63.832031 L 39.953125 63.832031 C 40.238281 63.832031 40.46875 64.0625 40.46875 64.351562 C 40.46875 64.429688 40.449219 64.507812 40.414062 64.578125 L 40.09375 65.21875 C 39.921875 65.570312 39.347656 65.570312 39.175781 65.21875 L 38.855469 64.578125 C 38.820312 64.507812 38.800781 64.429688 38.800781 64.351562 Z M 37.476562 65.558594 L 37.679688 65.964844 C 38.054688 66.710938 38.804688 67.171875 39.636719 67.171875 C 40.46875 67.171875 41.21875 66.710938 41.589844 65.964844 L 41.796875 65.554688 C 42.800781 65.753906 43.589844 66.578125 43.761719 67.597656 C 42.882812 68.371094 41.730469 68.839844 40.46875 68.839844 L 38.800781 68.839844 C 37.539062 68.839844 36.386719 68.367188 35.507812 67.59375 C 35.675781 66.582031 36.460938 65.769531 37.476562 65.558594 Z M 43.703125 70.246094 C 43.773438 70.5 43.808594 70.761719 43.808594 71.023438 C 43.808594 72.582031 42.539062 73.847656 40.980469 73.847656 L 38.289062 73.847656 C 36.730469 73.847656 35.460938 72.582031 35.460938 71.023438 C 35.460938 70.761719 35.496094 70.5 35.570312 70.246094 L 35.714844 69.75 C 36.636719 70.230469 37.6875 70.507812 38.800781 70.507812 L 40.46875 70.507812 C 41.585938 70.507812 42.632812 70.230469 43.558594 69.75 Z M 50.488281 51.3125 L 50.488281 45.640625 C 50.488281 43.578125 52.023438 41.800781 54.070312 41.507812 L 54.105469 41.503906 C 54.511719 42.414062 55.335938 43.109375 56.363281 43.300781 L 64.355469 44.800781 C 64.035156 45.222656 63.839844 45.734375 63.839844 46.304688 C 63.839844 47.6875 64.960938 48.808594 66.34375 48.808594 C 67.726562 48.808594 68.847656 47.6875 68.847656 46.304688 C 68.847656 45.992188 68.785156 45.699219 68.679688 45.421875 C 69.015625 45.441406 69.347656 45.46875 69.683594 45.46875 C 70.625 45.46875 71.488281 45.140625 72.1875 44.613281 L 72.1875 51.3125 C 72.1875 55.457031 68.816406 58.824219 64.675781 58.824219 L 58 58.824219 C 53.859375 58.824219 50.488281 55.457031 50.488281 51.3125 Z M 66.34375 45.46875 C 66.804688 45.46875 67.179688 45.84375 67.179688 46.304688 C 67.179688 46.765625 66.804688 47.136719 66.34375 47.136719 C 65.886719 47.136719 65.511719 46.765625 65.511719 46.304688 C 65.511719 45.84375 65.886719 45.46875 66.34375 45.46875 Z M 46.402344 51.917969 C 45.851562 51.710938 45.476562 51.171875 45.476562 50.582031 C 45.476562 50.199219 45.625 49.839844 45.894531 49.570312 L 46.367188 49.101562 C 46.863281 48.605469 47.148438 47.917969 47.148438 47.21875 C 47.148438 46.382812 46.75 45.589844 46.082031 45.089844 L 44.371094 43.804688 C 44.019531 43.542969 43.808594 43.121094 43.808594 42.679688 C 43.808594 42.144531 44.105469 41.664062 44.585938 41.425781 L 45.792969 40.824219 C 46.628906 40.402344 47.148438 39.5625 47.148438 38.628906 C 47.148438 37.984375 46.886719 37.351562 46.429688 36.894531 L 45.726562 36.1875 C 45.566406 36.03125 45.476562 35.816406 45.476562 35.59375 C 45.476562 35.292969 45.640625 35.011719 45.902344 34.863281 L 47.167969 34.136719 C 50.328125 32.335938 54.109375 31.703125 57.683594 32.390625 L 76.074219 35.929688 C 76.722656 36.050781 77.195312 36.621094 77.195312 37.285156 C 77.195312 37.558594 77.113281 37.824219 76.964844 38.054688 L 75.96875 39.539062 C 75.679688 39.976562 75.527344 40.488281 75.527344 41.011719 C 75.527344 42.019531 76.085938 42.929688 76.992188 43.378906 L 78.335938 44.054688 C 78.664062 44.214844 78.867188 44.542969 78.867188 44.90625 C 78.867188 45.34375 78.570312 45.726562 78.140625 45.832031 L 77.214844 46.066406 C 76.222656 46.3125 75.527344 47.203125 75.527344 48.230469 C 75.527344 48.816406 75.765625 49.394531 76.179688 49.808594 L 76.835938 50.464844 C 77.066406 50.695312 77.195312 51.007812 77.195312 51.332031 C 77.195312 51.90625 76.800781 52.398438 76.238281 52.523438 L 73.679688 53.09375 C 73.796875 52.519531 73.855469 51.921875 73.855469 51.3125 L 73.855469 41.296875 C 73.855469 38.996094 71.984375 37.121094 69.683594 37.121094 C 68.300781 37.121094 67.179688 38.246094 67.179688 39.625 C 67.179688 41.007812 68.300781 42.128906 69.683594 42.128906 L 70.519531 42.128906 L 70.519531 40.460938 L 69.683594 40.460938 C 69.222656 40.460938 68.847656 40.089844 68.847656 39.625 C 68.847656 39.167969 69.222656 38.792969 69.683594 38.792969 C 71.066406 38.792969 72.1875 39.914062 72.1875 41.296875 C 72.1875 42.675781 71.066406 43.800781 69.683594 43.800781 C 68.628906 43.800781 67.566406 43.703125 66.527344 43.507812 L 56.675781 41.660156 C 55.988281 41.53125 55.496094 40.933594 55.496094 40.238281 C 55.496094 39.441406 56.144531 38.792969 56.9375 38.792969 L 57.164062 38.792969 L 57.164062 37.121094 L 56.9375 37.121094 C 55.355469 37.121094 54.054688 38.316406 53.863281 39.851562 L 53.835938 39.855469 C 50.972656 40.265625 48.816406 42.753906 48.816406 45.640625 L 48.816406 51.3125 C 48.816406 51.847656 48.871094 52.363281 48.960938 52.875 Z M 57.164062 62.222656 C 58.289062 63.238281 59.753906 63.832031 61.335938 63.832031 C 62.917969 63.832031 64.386719 63.238281 65.511719 62.222656 L 65.511719 65.5 L 57.164062 65.5 Z M 64.855469 60.492188 C 64 61.539062 62.730469 62.160156 61.335938 62.160156 C 59.945312 62.160156 58.671875 61.539062 57.816406 60.492188 Z M 81.015625 70.398438 L 74.011719 61.644531 C 72.90625 60.265625 71.382812 59.34375 69.695312 58.988281 C 71.195312 58.003906 72.394531 56.597656 73.109375 54.929688 L 76.597656 54.15625 C 77.933594 53.859375 78.867188 52.695312 78.867188 51.332031 C 78.867188 50.558594 78.566406 49.832031 78.019531 49.285156 L 77.359375 48.628906 C 77.253906 48.523438 77.195312 48.375 77.195312 48.230469 C 77.195312 47.972656 77.371094 47.746094 77.625 47.6875 L 78.546875 47.453125 C 79.714844 47.160156 80.535156 46.113281 80.535156 44.90625 C 80.535156 43.90625 79.980469 43.007812 79.082031 42.558594 L 77.738281 41.886719 C 77.402344 41.71875 77.195312 41.382812 77.195312 41.011719 C 77.195312 40.816406 77.25 40.628906 77.359375 40.46875 L 78.351562 38.980469 C 78.6875 38.476562 78.867188 37.890625 78.867188 37.285156 C 78.867188 35.824219 77.824219 34.566406 76.386719 34.289062 L 58 30.75 C 54.03125 29.988281 49.839844 30.6875 46.339844 32.691406 L 45.078125 33.410156 C 44.292969 33.859375 43.808594 34.691406 43.808594 35.59375 C 43.808594 36.265625 44.070312 36.898438 44.546875 37.371094 L 45.25 38.074219 C 45.394531 38.21875 45.476562 38.421875 45.476562 38.628906 C 45.476562 38.925781 45.3125 39.195312 45.042969 39.328125 L 43.839844 39.933594 C 42.792969 40.453125 42.140625 41.511719 42.140625 42.679688 C 42.140625 43.644531 42.597656 44.5625 43.367188 45.140625 L 45.082031 46.421875 C 45.332031 46.609375 45.476562 46.90625 45.476562 47.21875 C 45.476562 47.480469 45.371094 47.734375 45.1875 47.921875 L 44.714844 48.390625 C 44.132812 48.976562 43.808594 49.753906 43.808594 50.582031 C 43.808594 51.867188 44.617188 53.03125 45.816406 53.480469 L 49.539062 54.875 C 50.25 56.5625 51.460938 57.996094 52.976562 58.988281 C 51.292969 59.34375 49.769531 60.265625 48.664062 61.644531 L 47.132812 63.558594 C 47.109375 62.96875 47.015625 62.398438 46.851562 61.859375 C 48.015625 61.332031 48.816406 60.171875 48.816406 58.824219 C 48.816406 56.984375 47.320312 55.484375 45.476562 55.484375 C 44.132812 55.484375 42.96875 56.285156 42.441406 57.453125 C 41.820312 57.261719 41.15625 57.152344 40.46875 57.152344 L 38.800781 57.152344 C 38.113281 57.152344 37.449219 57.261719 36.828125 57.453125 C 36.300781 56.285156 35.140625 55.484375 33.792969 55.484375 C 31.949219 55.484375 30.453125 56.984375 30.453125 58.824219 C 30.453125 60.171875 31.253906 61.332031 32.421875 61.859375 C 32.226562 62.484375 32.125 63.148438 32.125 63.835938 C 32.125 65.359375 32.644531 66.761719 33.507812 67.886719 L 32.027344 68.480469 C 31.070312 68.863281 30.453125 69.773438 30.453125 70.804688 L 30.453125 71.730469 C 30.453125 72.898438 31.402344 73.847656 32.570312 73.847656 C 32.992188 73.847656 33.394531 73.726562 33.742188 73.492188 L 34.328125 73.105469 C 34.457031 73.347656 34.605469 73.578125 34.773438 73.792969 L 34.253906 74.570312 C 33.953125 75.023438 33.792969 75.554688 33.792969 76.101562 C 33.792969 77.621094 35.027344 78.855469 36.546875 78.855469 L 37.300781 78.855469 C 38.273438 78.855469 39.144531 78.351562 39.636719 77.558594 C 40.128906 78.351562 41 78.855469 41.96875 78.855469 L 42.71875 78.855469 C 44.242188 78.855469 45.476562 77.621094 45.476562 76.101562 C 45.476562 75.554688 45.320312 75.023438 45.015625 74.570312 L 44.496094 73.792969 C 44.667969 73.578125 44.8125 73.347656 44.945312 73.105469 L 45.527344 73.492188 C 45.875 73.726562 46.28125 73.847656 46.699219 73.847656 C 47.867188 73.847656 48.816406 72.898438 48.816406 71.730469 L 48.816406 71.6875 L 52.15625 68.351562 L 52.15625 82.195312 L 70.519531 82.195312 L 70.519531 68.355469 L 75.527344 73.359375 L 75.527344 73.847656 C 75.527344 74.742188 75.871094 75.578125 76.503906 76.210938 C 77.132812 76.839844 77.972656 77.191406 78.867188 77.191406 C 80.707031 77.191406 82.203125 75.691406 82.203125 73.789062 C 82.203125 72.558594 81.78125 71.355469 81.015625 70.398438"/></g><path d="M 65.511719 52.148438 L 63.839844 52.148438 C 63.839844 53.070312 63.089844 53.816406 62.171875 53.816406 L 57.164062 53.816406 L 57.164062 55.484375 L 62.171875 55.484375 C 64.015625 55.484375 65.511719 53.988281 65.511719 52.148438"/><path d="M 56.328125 47.136719 C 55.871094 47.136719 55.496094 46.765625 55.496094 46.304688 C 55.496094 45.84375 55.871094 45.46875 56.328125 45.46875 C 56.789062 45.46875 57.164062 45.84375 57.164062 46.304688 C 57.164062 46.765625 56.789062 47.136719 56.328125 47.136719 Z M 58.832031 46.304688 C 58.832031 44.925781 57.710938 43.800781 56.328125 43.800781 C 54.945312 43.800781 53.824219 44.925781 53.824219 46.304688 C 53.824219 47.6875 54.945312 48.808594 56.328125 48.808594 C 57.710938 48.808594 58.832031 47.6875 58.832031 46.304688"/><path d="M 64.789062 74.058594 L 61.335938 76.933594 L 57.882812 74.058594 C 57.429688 73.679688 57.164062 73.117188 57.164062 72.519531 C 57.164062 71.992188 57.378906 71.476562 57.753906 71.097656 C 58.136719 70.722656 58.640625 70.507812 59.179688 70.507812 L 59.320312 70.507812 C 59.859375 70.507812 60.367188 70.722656 60.746094 71.101562 L 61.335938 71.6875 L 61.925781 71.097656 C 62.308594 70.722656 62.8125 70.507812 63.351562 70.507812 L 63.496094 70.507812 C 64.035156 70.507812 64.539062 70.722656 64.921875 71.105469 C 65.296875 71.476562 65.511719 71.992188 65.511719 72.519531 C 65.511719 73.117188 65.246094 73.679688 64.789062 74.058594 Z M 63.496094 68.839844 L 63.351562 68.839844 C 62.625 68.839844 61.929688 69.050781 61.335938 69.4375 C 60.742188 69.050781 60.050781 68.839844 59.320312 68.839844 L 59.179688 68.839844 C 58.195312 68.839844 57.269531 69.222656 56.570312 69.925781 C 55.875 70.617188 55.496094 71.539062 55.496094 72.519531 C 55.496094 73.613281 55.976562 74.640625 56.816406 75.339844 L 61.335938 79.109375 L 65.859375 75.339844 C 66.699219 74.640625 67.179688 73.613281 67.179688 72.519531 C 67.179688 71.539062 66.796875 70.617188 66.101562 69.917969 C 65.402344 69.222656 64.480469 68.839844 63.496094 68.839844"/></svg>