<svg xmlns="http://www.w3.org/2000/svg" width="112.5" viewBox="0 0 112.5 112.5" height="112.5" version="1.0"><defs><clipPath id="a"><path d="M 0 0 L 112.003906 0 L 112.003906 112.003906 L 0 112.003906 Z M 0 0"/></clipPath><clipPath id="b"><path d="M 70 51 L 74.851562 51 L 74.851562 62 L 70 62 Z M 70 51"/></clipPath><clipPath id="c"><path d="M 65 44 L 74.851562 44 L 74.851562 53 L 65 53 Z M 65 44"/></clipPath><clipPath id="d"><path d="M 70 49 L 74.851562 49 L 74.851562 59 L 70 59 Z M 70 49"/></clipPath><clipPath id="e"><path d="M 58 56 L 71 56 L 71 81.949219 L 58 81.949219 Z M 58 56"/></clipPath><clipPath id="f"><path d="M 65 79 L 70 79 L 70 81.949219 L 65 81.949219 Z M 65 79"/></clipPath><clipPath id="g"><path d="M 59 79 L 64 79 L 64 81.949219 L 59 81.949219 Z M 59 79"/></clipPath><clipPath id="h"><path d="M 37.351562 41 L 47 41 L 47 53 L 37.351562 53 Z M 37.351562 41"/></clipPath><clipPath id="i"><path d="M 49 78 L 56 78 L 56 81.949219 L 49 81.949219 Z M 49 78"/></clipPath><clipPath id="j"><path d="M 42 78 L 48 78 L 48 81.949219 L 42 81.949219 Z M 42 78"/></clipPath><clipPath id="k"><path d="M 43 30.199219 L 55 30.199219 L 55 38 L 43 38 Z M 43 30.199219"/></clipPath><clipPath id="l"><path d="M 42 58 L 47 58 L 47 81.949219 L 42 81.949219 Z M 42 58"/></clipPath><clipPath id="m"><path d="M 37.351562 49 L 47 49 L 47 61 L 37.351562 61 Z M 37.351562 49"/></clipPath><clipPath id="n"><path d="M 37.351562 49 L 45 49 L 45 59 L 37.351562 59 Z M 37.351562 49"/></clipPath></defs><g clip-path="url(#a)" fill="#FFF"><path d="M 0 0 L 112.5 0 L 112.5 112.5 L 0 112.5 Z M 0 0"/><path d="M 0 0 L 112.5 0 L 112.5 112.5 L 0 112.5 Z M 0 0"/></g><path fill="#828A8E" d="M 69.9375 48.125 C 69.832031 47.597656 70.164062 47.1875 70.234375 46.699219 C 70.300781 46.222656 70.269531 45.421875 70.167969 44.945312 C 69.917969 43.773438 69.53125 42.789062 69.53125 42.308594 C 69.53125 41.710938 70.316406 40.242188 69.15625 38.039062 C 68.882812 37.519531 68.492188 39.195312 68.355469 38.671875 L 68.09375 38.671875 C 67.433594 38.671875 66.734375 38.683594 66.152344 39 C 65.199219 39.519531 64.789062 40.46875 64.582031 41.472656 C 64.371094 40.46875 63.960938 39.519531 63.011719 39 C 62.429688 38.683594 61.730469 38.671875 61.066406 38.671875 L 60.804688 38.671875 C 60.667969 39.195312 60.175781 37.253906 59.914062 37.78125 C 58.90625 39.808594 59.6875 40.863281 59.550781 41.929688 C 59.417969 42.992188 59.171875 44.4375 58.996094 44.945312 C 58.835938 45.40625 58.863281 46.222656 58.929688 46.699219 C 59 47.1875 59.328125 47.597656 59.226562 48.125 C 59.039062 49.074219 58.265625 50.019531 58.5625 51.046875 C 58.722656 51.597656 58.9375 51.894531 58.902344 52.476562 C 58.875 52.933594 58.800781 53.320312 58.996094 53.75 C 59.191406 54.175781 59.535156 54.632812 59.910156 54.914062 C 60.226562 55.148438 60.425781 55.082031 60.796875 55.140625 C 61.421875 55.230469 62.328125 56.019531 62.859375 55.449219 C 63.113281 55.167969 63.800781 55.65625 64.53125 55.652344 C 65.269531 55.652344 66.046875 55.167969 66.304688 55.449219 C 66.832031 56.019531 67.738281 55.230469 68.363281 55.140625 C 68.738281 55.082031 68.933594 55.148438 69.25 54.914062 C 69.625 54.632812 69.96875 54.175781 70.164062 53.75 C 70.359375 53.320312 70.285156 52.933594 70.257812 52.476562 C 70.226562 51.894531 70.4375 51.597656 70.597656 51.046875 C 70.894531 50.019531 70.125 49.074219 69.9375 48.125"/><g clip-path="url(#b)"><path fill="#F9AE8F" d="M 72.921875 59.902344 C 72.765625 60.695312 72.003906 61.214844 71.210938 61.0625 C 70.417969 60.910156 69.898438 60.148438 70.050781 59.355469 L 71.402344 52.28125 C 71.554688 51.488281 72.316406 50.96875 73.109375 51.121094 C 73.902344 51.273438 74.421875 52.039062 74.269531 52.832031 L 72.921875 59.902344"/></g><g clip-path="url(#c)"><path fill="#CF5D62" d="M 74.082031 50.070312 C 74.734375 50.632812 74.8125 51.617188 74.25 52.269531 C 73.6875 52.925781 72.699219 52.996094 72.050781 52.433594 L 66.234375 47.414062 C 65.582031 46.851562 65.507812 45.867188 66.070312 45.21875 C 66.632812 44.5625 67.621094 44.492188 68.269531 45.054688 L 74.082031 50.070312"/></g><g clip-path="url(#d)"><path fill="#CF5D62" d="M 73.351562 49.738281 C 72.507812 49.578125 71.691406 50.132812 71.53125 50.976562 L 70.304688 57.402344 L 73.261719 58.53125 L 74.59375 51.5625 C 74.753906 50.71875 74.199219 49.898438 73.351562 49.738281"/></g><path fill="#CF5D62" d="M 54.976562 50.070312 C 54.324219 50.632812 54.253906 51.617188 54.816406 52.269531 C 55.378906 52.925781 56.359375 52.996094 57.011719 52.433594 L 62.828125 47.414062 C 63.480469 46.851562 63.550781 45.867188 62.988281 45.21875 C 62.425781 44.5625 61.445312 44.492188 60.792969 45.054688 L 54.976562 50.070312"/><g clip-path="url(#e)"><path fill="#43435A" d="M 69.09375 57.09375 C 68.207031 54.90625 67.390625 57.539062 64.582031 57.539062 C 61.769531 57.539062 60.648438 54.75 59.992188 57.09375 C 59.65625 58.296875 58.878906 64.484375 58.902344 71.417969 C 58.925781 77.996094 59.738281 81.457031 59.738281 81.457031 L 63.78125 81.457031 L 63.496094 71.171875 L 64.527344 63.011719 L 65.484375 71.335938 L 65.277344 81.457031 L 69.316406 81.457031 C 69.328125 79.472656 70.09375 76.628906 70.160156 71.023438 C 70.242188 64.128906 69.585938 58.300781 69.09375 57.09375"/></g><path fill="#F9AE8F" d="M 69.019531 48.070312 C 68.925781 44.476562 67.007812 44.183594 64.648438 44.183594 L 64.394531 44.183594 C 62.035156 44.183594 60.121094 44.476562 60.023438 48.070312 L 69.019531 48.070312"/><path fill="#CF5D62" d="M 59.992188 57.09375 C 59.992188 57.09375 61.183594 58.277344 64.726562 58.277344 C 68.269531 58.277344 69.09375 57.09375 69.09375 57.09375 C 68.628906 54.894531 69.328125 48.34375 69.328125 48.34375 C 69.328125 45.1875 67.925781 44.410156 66.007812 44.230469 C 66.007812 44.230469 65.636719 45.585938 64.519531 45.585938 C 63.40625 45.585938 63.296875 44.210938 63.296875 44.210938 C 61.246094 44.34375 59.71875 45.042969 59.71875 48.34375 C 59.71875 48.34375 60.523438 54.101562 59.992188 57.09375"/><path fill="#6D2C34" d="M 66.246094 44.261719 C 64.65625 46.933594 67.289062 53.199219 65.804688 58.234375 C 68.4375 58.027344 69.09375 57.09375 69.09375 57.09375 C 68.628906 54.894531 69.328125 48.34375 69.328125 48.34375 C 69.328125 45.320312 68.039062 44.484375 66.246094 44.261719"/><path fill="#6D2C34" d="M 62.796875 44.261719 C 64.386719 46.933594 61.753906 53.199219 63.238281 58.234375 C 60.605469 58.027344 59.949219 57.09375 59.949219 57.09375 C 60.414062 54.894531 59.71875 48.34375 59.71875 48.34375 C 59.71875 45.320312 61 44.484375 62.796875 44.261719"/><g clip-path="url(#f)"><path fill="#131517" d="M 69.75 81.800781 C 69.765625 81.6875 69.777344 81.574219 69.777344 81.453125 C 69.777344 80.203125 68.765625 79.1875 67.511719 79.1875 C 66.261719 79.1875 65.25 80.203125 65.25 81.453125 C 65.25 81.574219 65.257812 81.6875 65.277344 81.800781 L 69.75 81.800781"/></g><g clip-path="url(#g)"><path fill="#131517" d="M 63.824219 81.800781 C 63.84375 81.6875 63.855469 81.574219 63.855469 81.453125 C 63.855469 80.203125 62.84375 79.1875 61.589844 79.1875 C 60.339844 79.1875 59.328125 80.203125 59.328125 81.453125 C 59.328125 81.574219 59.335938 81.6875 59.355469 81.800781 L 63.824219 81.800781"/></g><path fill="#E29779" d="M 61.359375 42.097656 C 61.359375 42.570312 60.976562 42.949219 60.507812 42.949219 C 60.035156 42.949219 59.65625 42.570312 59.65625 42.097656 L 59.65625 41.761719 C 59.65625 41.289062 60.035156 40.90625 60.507812 40.90625 C 60.976562 40.90625 61.359375 41.289062 61.359375 41.761719 L 61.359375 42.097656"/><path fill="#E29779" d="M 69.410156 42.097656 C 69.410156 42.570312 69.027344 42.949219 68.554688 42.949219 C 68.085938 42.949219 67.703125 42.570312 67.703125 42.097656 L 67.703125 41.761719 C 67.703125 41.289062 68.085938 40.90625 68.554688 40.90625 C 69.027344 40.90625 69.410156 41.289062 69.410156 41.761719 L 69.410156 42.097656"/><path fill="#F9AE8F" d="M 68.5625 41.660156 C 68.5625 43.890625 66.757812 45.695312 64.53125 45.695312 C 62.304688 45.695312 60.5 43.890625 60.5 41.660156 L 60.5 38.574219 C 60.5 36.34375 62.304688 34.535156 64.53125 34.535156 C 66.757812 34.535156 68.5625 36.34375 68.5625 38.574219 L 68.5625 41.660156"/><path fill="#828A8E" d="M 67.828125 35.453125 C 70.359375 36.953125 68.542969 42.046875 68.542969 42.046875 C 68.542969 42.046875 66.566406 39.992188 66.203125 37.421875 C 66.203125 37.421875 66.582031 39.476562 63.765625 40.140625 C 63.765625 40.140625 65.230469 38.152344 64.742188 37.421875 C 64.742188 37.421875 63.367188 39.433594 61.039062 39.925781 C 61.039062 39.925781 60.941406 41.117188 60.511719 42.027344 C 60.511719 42.027344 58.257812 37.789062 61.667969 35.089844 C 61.667969 35.089844 64.027344 33.199219 67.828125 35.453125"/><path fill="#828A8E" d="M 67.109375 41.023438 C 67.070312 41.023438 67.03125 41.011719 67 40.984375 C 66.355469 40.492188 65.761719 40.960938 65.738281 40.980469 C 65.664062 41.042969 65.546875 41.035156 65.484375 40.957031 C 65.421875 40.878906 65.433594 40.765625 65.511719 40.703125 C 65.800781 40.46875 66.523438 40.167969 67.21875 40.699219 C 67.296875 40.761719 67.3125 40.875 67.253906 40.953125 C 67.214844 41 67.164062 41.023438 67.109375 41.023438"/><path fill="#341314" d="M 66.785156 41.703125 C 66.785156 41.929688 66.597656 42.113281 66.367188 42.113281 C 66.136719 42.113281 65.949219 41.929688 65.949219 41.703125 C 65.949219 41.476562 66.136719 41.296875 66.367188 41.296875 C 66.597656 41.296875 66.785156 41.476562 66.785156 41.703125"/><path fill="#828A8E" d="M 61.601562 41.023438 C 61.636719 41.023438 61.675781 41.011719 61.707031 40.984375 C 62.355469 40.492188 62.945312 40.960938 62.972656 40.980469 C 63.046875 41.042969 63.160156 41.035156 63.222656 40.957031 C 63.285156 40.878906 63.273438 40.765625 63.195312 40.703125 C 62.910156 40.46875 62.183594 40.167969 61.488281 40.699219 C 61.410156 40.761719 61.394531 40.875 61.457031 40.953125 C 61.492188 41 61.542969 41.023438 61.601562 41.023438"/><path fill="#341314" d="M 61.996094 41.703125 C 61.996094 41.929688 62.183594 42.113281 62.414062 42.113281 C 62.644531 42.113281 62.832031 41.929688 62.832031 41.703125 C 62.832031 41.476562 62.644531 41.296875 62.414062 41.296875 C 62.183594 41.296875 61.996094 41.476562 61.996094 41.703125"/><path fill="#E29779" d="M 64.117188 42.433594 L 64.796875 42.433594 L 64.441406 42.789062 Z M 64.117188 42.433594"/><path fill="#231F1F" d="M 62.316406 40.847656 C 61.523438 40.847656 60.847656 41.242188 60.847656 41.703125 C 60.847656 42.167969 61.523438 42.558594 62.316406 42.558594 C 63.113281 42.558594 63.785156 42.167969 63.785156 41.703125 C 63.785156 41.242188 63.113281 40.847656 62.316406 40.847656 Z M 62.316406 42.886719 C 61.363281 42.886719 60.617188 42.367188 60.617188 41.703125 C 60.617188 41.039062 61.363281 40.523438 62.316406 40.523438 C 63.273438 40.523438 64.015625 41.039062 64.015625 41.703125 C 64.015625 42.367188 63.273438 42.886719 62.316406 42.886719"/><path fill="#231F1F" d="M 66.59375 40.847656 C 65.800781 40.847656 65.125 41.242188 65.125 41.703125 C 65.125 42.167969 65.800781 42.558594 66.59375 42.558594 C 67.390625 42.558594 68.066406 42.167969 68.066406 41.703125 C 68.066406 41.242188 67.390625 40.847656 66.59375 40.847656 Z M 66.59375 42.886719 C 65.640625 42.886719 64.894531 42.367188 64.894531 41.703125 C 64.894531 41.039062 65.640625 40.523438 66.59375 40.523438 C 67.546875 40.523438 68.292969 41.039062 68.292969 41.703125 C 68.292969 42.367188 67.546875 42.886719 66.59375 42.886719"/><path fill="#231F1F" d="M 63.886719 41.832031 C 63.898438 41.636719 64.160156 41.472656 64.46875 41.472656 C 64.777344 41.472656 65.039062 41.636719 65.050781 41.832031 L 65.140625 41.832031 C 65.132812 41.554688 64.84375 41.332031 64.46875 41.332031 C 64.097656 41.332031 63.800781 41.554688 63.796875 41.832031 L 63.886719 41.832031"/><path fill="#F9AE8F" d="M 59.589844 49.945312 C 60.15625 50.777344 59.941406 51.914062 59.109375 52.480469 C 58.273438 53.050781 57.136719 52.835938 56.570312 52 L 51.507812 44.566406 C 50.9375 43.730469 51.15625 42.59375 51.988281 42.023438 C 52.820312 41.457031 53.957031 41.671875 54.523438 42.507812 L 59.589844 49.945312"/><g clip-path="url(#h)"><path fill="#54C1BA" d="M 37.972656 49.945312 C 37.40625 50.777344 37.621094 51.914062 38.453125 52.480469 C 39.289062 53.050781 40.421875 52.835938 40.992188 52 L 46.054688 44.566406 C 46.621094 43.730469 46.40625 42.59375 45.574219 42.023438 C 44.742188 41.457031 43.605469 41.671875 43.039062 42.507812 L 37.972656 49.945312"/></g><path fill="#54C1BA" d="M 59.585938 49.945312 C 60.15625 50.777344 59.941406 51.914062 59.109375 52.480469 C 58.273438 53.050781 57.136719 52.835938 56.570312 52 L 51.507812 44.566406 C 50.9375 43.730469 51.15625 42.59375 51.988281 42.023438 C 52.820312 41.457031 53.957031 41.671875 54.523438 42.507812 L 59.585938 49.945312"/><path fill="#54C1BA" d="M 54.378906 51.828125 L 54.894531 44.941406 C 54.894531 41.890625 53.09375 41.140625 50.617188 40.964844 C 50.617188 40.964844 50.554688 42.335938 48.960938 42.335938 C 47.371094 42.335938 47.292969 40.941406 47.292969 40.941406 C 44.554688 41.046875 42.492188 41.679688 42.492188 44.941406 L 43.035156 51.75 C 42.785156 52.601562 42.644531 53.523438 42.644531 54.488281 C 42.644531 56.023438 42.992188 57.453125 43.582031 58.660156 L 43.585938 58.730469 L 43.613281 58.730469 C 43.648438 58.792969 43.675781 58.859375 43.710938 58.921875 L 53.679688 58.921875 C 53.714844 58.859375 53.742188 58.792969 53.773438 58.730469 L 53.859375 58.730469 L 53.875 58.527344 C 54.421875 57.347656 54.746094 55.96875 54.746094 54.488281 C 54.746094 53.554688 54.609375 52.660156 54.378906 51.828125"/><path fill="#FFF" d="M 49.359375 42.304688 C 49.234375 42.324219 49.109375 42.335938 48.960938 42.335938 C 48.84375 42.335938 48.730469 42.328125 48.628906 42.316406 L 48.628906 58.921875 L 49.359375 58.921875 L 49.359375 42.304688"/><path fill="#FFF" d="M 49.074219 58.835938 L 48.054688 58.835938 L 48.054688 41.023438 L 49.074219 41.023438 L 49.074219 58.835938"/><path fill="#4A6798" d="M 54.355469 57.296875 L 43.046875 57.296875 C 43.050781 57.433594 42.578125 80.636719 42.578125 80.636719 L 47.792969 80.636719 L 48.761719 63.027344 L 49.730469 80.636719 L 54.945312 80.636719 C 54.945312 80.636719 54.351562 57.433594 54.355469 57.296875"/><g clip-path="url(#i)"><path fill="#131517" d="M 55.132812 81.808594 C 55.152344 81.667969 55.167969 81.527344 55.167969 81.382812 C 55.167969 79.832031 53.910156 78.574219 52.359375 78.574219 C 50.808594 78.574219 49.550781 79.832031 49.550781 81.382812 C 49.550781 81.527344 49.5625 81.667969 49.585938 81.808594 L 55.132812 81.808594"/></g><g clip-path="url(#j)"><path fill="#131517" d="M 47.957031 81.808594 C 47.976562 81.667969 47.996094 81.527344 47.996094 81.382812 C 47.996094 79.832031 46.734375 78.574219 45.183594 78.574219 C 43.632812 78.574219 42.375 79.832031 42.375 81.382812 C 42.375 81.527344 42.390625 81.667969 42.410156 81.808594 L 47.957031 81.808594"/></g><path fill="#E29779" d="M 45.394531 38.714844 C 45.394531 39.195312 45.003906 39.589844 44.523438 39.589844 C 44.039062 39.589844 43.648438 39.195312 43.648438 38.714844 L 43.648438 38.371094 C 43.648438 37.886719 44.039062 37.492188 44.523438 37.492188 C 45.003906 37.492188 45.394531 37.886719 45.394531 38.371094 L 45.394531 38.714844"/><path fill="#E29779" d="M 53.863281 38.714844 C 53.863281 39.195312 53.472656 39.589844 52.988281 39.589844 C 52.507812 39.589844 52.117188 39.195312 52.117188 38.714844 L 52.117188 38.371094 C 52.117188 37.886719 52.507812 37.492188 52.988281 37.492188 C 53.472656 37.492188 53.863281 37.886719 53.863281 38.371094 L 53.863281 38.714844"/><path fill="#F9AE8F" d="M 52.988281 39.128906 C 52.988281 41.492188 51.078125 43.402344 48.71875 43.402344 C 46.363281 43.402344 44.449219 41.492188 44.449219 39.128906 L 44.449219 35.859375 C 44.449219 33.5 46.363281 31.585938 48.71875 31.585938 C 51.078125 31.585938 52.988281 33.5 52.988281 35.859375 L 52.988281 39.128906"/><path fill="#828A8E" d="M 48.71875 43.402344 C 51.113281 43.402344 53.050781 41.867188 53.050781 39.972656 L 52.988281 37.492188 L 52.046875 37.492188 L 52.09375 39.683594 C 52.09375 40.292969 51.832031 40.851562 51.398438 41.304688 C 51.09375 40.894531 50.011719 40.175781 48.71875 40.175781 C 47.425781 40.175781 46.34375 40.894531 46.039062 41.304688 C 45.609375 40.851562 45.347656 40.292969 45.347656 39.683594 L 45.394531 37.519531 L 44.421875 37.519531 L 44.386719 39.972656 C 44.386719 41.867188 46.328125 43.402344 48.71875 43.402344"/><path fill="#828A8E" d="M 51.628906 37.683594 C 51.589844 37.683594 51.550781 37.671875 51.511719 37.644531 C 50.835938 37.125 50.207031 37.621094 50.179688 37.644531 C 50.097656 37.707031 49.980469 37.695312 49.914062 37.613281 C 49.847656 37.53125 49.859375 37.414062 49.941406 37.347656 C 50.246094 37.101562 51.011719 36.785156 51.746094 37.34375 C 51.828125 37.40625 51.847656 37.527344 51.78125 37.609375 C 51.742188 37.660156 51.6875 37.683594 51.628906 37.683594"/><path fill="#341314" d="M 51.289062 38.402344 C 51.289062 38.640625 51.089844 38.832031 50.847656 38.832031 C 50.601562 38.832031 50.40625 38.640625 50.40625 38.402344 C 50.40625 38.164062 50.601562 37.972656 50.847656 37.972656 C 51.089844 37.972656 51.289062 38.164062 51.289062 38.402344"/><path fill="#828A8E" d="M 45.808594 37.683594 C 45.851562 37.683594 45.890625 37.671875 45.925781 37.644531 C 46.609375 37.125 47.234375 37.621094 47.257812 37.644531 C 47.339844 37.707031 47.460938 37.695312 47.523438 37.613281 C 47.589844 37.53125 47.578125 37.414062 47.5 37.347656 C 47.195312 37.101562 46.429688 36.785156 45.695312 37.34375 C 45.613281 37.40625 45.597656 37.527344 45.660156 37.609375 C 45.695312 37.660156 45.753906 37.683594 45.808594 37.683594"/><path fill="#341314" d="M 46.230469 38.402344 C 46.230469 38.640625 46.425781 38.832031 46.671875 38.832031 C 46.914062 38.832031 47.113281 38.640625 47.113281 38.402344 C 47.113281 38.164062 46.914062 37.972656 46.671875 37.972656 C 46.425781 37.972656 46.230469 38.164062 46.230469 38.402344"/><path fill="#E29779" d="M 48.46875 39.175781 L 49.183594 39.175781 L 48.8125 39.550781 Z M 48.46875 39.175781"/><g clip-path="url(#k)"><path fill="#828A8E" d="M 54.367188 35.824219 C 53.707031 35.835938 53.707031 35.203125 53.707031 35.203125 C 53.515625 33.992188 53.03125 33.257812 52.515625 32.8125 C 52.773438 32.941406 53.074219 33.222656 53.074219 33.222656 C 53.246094 31.835938 51.835938 31.289062 51.003906 31.082031 C 51.128906 30.636719 50.636719 30.203125 50.636719 30.203125 C 50.441406 30.835938 49.839844 30.640625 49.839844 30.640625 C 48.707031 30.460938 47.894531 30.65625 47.316406 30.972656 C 46.355469 31.019531 44.304688 31.710938 44.503906 33.222656 C 44.503906 33.222656 44.808594 32.941406 45.0625 32.8125 C 44.542969 33.257812 44.066406 33.992188 43.871094 35.203125 C 43.871094 35.203125 43.871094 35.835938 43.210938 35.824219 C 43.210938 35.824219 43.535156 36.566406 44.09375 36.429688 C 44.03125 36.734375 43.871094 37.332031 43.585938 37.257812 C 43.585938 37.257812 44.046875 37.710938 44.476562 37.566406 L 45.394531 37.566406 L 45.394531 35.644531 C 45.394531 34.886719 45.652344 34.1875 46.082031 33.625 C 46.382812 34.132812 47.449219 34.507812 48.722656 34.507812 C 49.996094 34.507812 51.0625 34.132812 51.363281 33.625 C 51.789062 34.1875 52.046875 34.886719 52.046875 35.644531 L 52.046875 37.566406 L 52.886719 37.566406 C 53.320312 37.710938 53.78125 37.257812 53.78125 37.257812 C 53.453125 37.339844 53.292969 36.550781 53.253906 36.320312 C 53.953125 36.777344 54.367188 35.824219 54.367188 35.824219"/></g><path fill="#F9AE8F" d="M 51.945312 57.949219 C 51.117188 58.523438 49.980469 58.324219 49.402344 57.496094 C 48.824219 56.667969 49.027344 55.527344 49.855469 54.953125 L 57.226562 49.800781 C 58.054688 49.222656 59.191406 49.425781 59.769531 50.253906 C 60.347656 51.082031 60.144531 52.21875 59.316406 52.796875 L 51.945312 57.949219"/><path fill="#54C1BA" d="M 51.441406 53.84375 L 57.226562 49.800781 C 58.054688 49.222656 59.191406 49.425781 59.769531 50.253906 C 60.347656 51.082031 60.144531 52.21875 59.316406 52.796875 L 53.363281 56.957031 L 51.441406 53.84375"/><g clip-path="url(#l)"><path fill="#501F23" d="M 46.046875 81.921875 L 46.039062 81.921875 C 45.796875 81.921875 45.582031 81.945312 45.585938 81.699219 L 45.777344 63.316406 C 45.925781 60.601562 45.542969 59.597656 45.195312 59.234375 C 44.941406 58.960938 44.621094 58.960938 44.285156 58.960938 L 44.277344 58.960938 C 43.921875 58.960938 43.652344 59.066406 43.445312 59.277344 C 42.9375 59.808594 42.964844 60.828125 42.964844 60.835938 C 42.972656 61.082031 42.785156 61.289062 42.539062 61.296875 C 42.285156 61.3125 42.089844 61.117188 42.078125 60.871094 C 42.078125 60.816406 42.03125 59.472656 42.808594 58.664062 C 43.183594 58.269531 43.679688 58.074219 44.277344 58.074219 L 44.285156 58.074219 C 44.699219 58.074219 45.324219 58.074219 45.839844 58.625 C 46.535156 59.359375 46.796875 60.859375 46.664062 63.347656 L 46.472656 81.710938 C 46.46875 81.953125 46.289062 81.921875 46.046875 81.921875"/></g><g clip-path="url(#m)"><path fill="#F9AE8F" d="M 42.894531 59.519531 C 43.449219 60.363281 44.582031 60.597656 45.425781 60.042969 C 46.265625 59.488281 46.5 58.355469 45.945312 57.507812 L 41.007812 49.992188 C 40.453125 49.148438 39.320312 48.914062 38.480469 49.46875 C 37.636719 50.023438 37.402344 51.15625 37.957031 51.996094 L 42.894531 59.519531"/></g><g clip-path="url(#n)"><path fill="#54C1BA" d="M 44.882812 55.890625 L 41.007812 49.992188 C 40.453125 49.148438 39.320312 48.914062 38.480469 49.46875 C 37.636719 50.023438 37.402344 51.15625 37.957031 51.996094 L 41.945312 58.074219 L 44.882812 55.890625"/></g><path fill="#F9AE8F" d="M 63.914062 54.511719 C 64.703125 54.679688 65.480469 54.179688 65.648438 53.390625 C 65.820312 52.601562 65.320312 51.824219 64.53125 51.652344 L 57.5 50.136719 C 56.710938 49.964844 55.933594 50.46875 55.765625 51.257812 C 55.59375 52.046875 56.097656 52.824219 56.882812 52.996094 L 63.914062 54.511719"/><path fill="#CF5D62" d="M 54.398438 50.941406 C 54.578125 50.097656 55.410156 49.566406 56.25 49.746094 L 62.636719 51.125 L 62.519531 54.289062 L 55.59375 52.796875 C 54.753906 52.613281 54.214844 51.785156 54.398438 50.941406"/><path fill="#51ADE5" d="M 56.210938 103.722656 C 43.527344 103.722656 31.582031 98.785156 22.621094 89.804688 C 13.636719 80.839844 8.703125 68.898438 8.703125 56.210938 C 8.703125 43.527344 13.636719 31.582031 22.621094 22.621094 C 31.582031 13.636719 43.527344 8.703125 56.210938 8.703125 C 68.898438 8.703125 80.839844 13.636719 89.804688 22.621094 C 98.785156 31.601562 103.722656 43.527344 103.722656 56.210938 C 103.722656 68.898438 98.785156 80.839844 89.804688 89.804688 C 80.839844 98.785156 68.898438 103.722656 56.210938 103.722656 Z M 56.210938 11.550781 C 44.285156 11.550781 33.0625 16.203125 24.632812 24.632812 C 16.203125 33.0625 11.550781 44.285156 11.550781 56.210938 C 11.550781 68.136719 16.203125 79.359375 24.632812 87.789062 C 33.0625 96.222656 44.285156 100.875 56.210938 100.875 C 68.136719 100.875 79.359375 96.222656 87.789062 87.789062 C 96.222656 79.359375 100.875 68.136719 100.875 56.210938 C 100.875 44.285156 96.222656 33.0625 87.789062 24.632812 C 79.359375 16.203125 68.136719 11.550781 56.210938 11.550781 Z M 56.210938 11.550781"/></svg>