<svg xmlns="http://www.w3.org/2000/svg" width="112.5" viewBox="0 0 112.5 112.5" height="112.5" version="1.0"><defs><clipPath id="a"><path d="M 0 0 L 112.003906 0 L 112.003906 112.003906 L 0 112.003906 Z M 0 0"/></clipPath><clipPath id="b"><path d="M 28.535156 28.535156 L 84 28.535156 L 84 84.035156 L 28.535156 84.035156 Z M 28.535156 28.535156"/></clipPath></defs><g clip-path="url(#a)"><path fill="#FFF" d="M 0 0 L 112.5 0 L 112.5 112.5 L 0 112.5 Z M 0 0"/><path d="M 0 0 L 112.5 0 L 112.5 112.5 L 0 112.5 Z M 0 0"/></g><g clip-path="url(#b)"><path fill="#FFF" d="M 32.160156 61.632812 C 30.261719 61.632812 28.714844 63.179688 28.714844 65.078125 C 28.714844 66.980469 30.261719 68.527344 32.160156 68.527344 L 41.039062 68.527344 L 38.992188 79.980469 C 38.832031 80.886719 39.03125 81.804688 39.558594 82.558594 C 40.085938 83.3125 40.875 83.820312 41.777344 83.980469 C 41.980469 84.015625 42.1875 84.035156 42.386719 84.035156 C 44.058594 84.035156 45.484375 82.839844 45.777344 81.195312 L 48.039062 68.527344 L 60.222656 68.527344 L 58.175781 79.980469 C 58.015625 80.886719 58.214844 81.804688 58.742188 82.558594 C 59.269531 83.3125 60.058594 83.820312 60.960938 83.980469 C 61.164062 84.015625 61.371094 84.035156 61.574219 84.035156 C 63.242188 84.035156 64.667969 82.839844 64.960938 81.195312 L 67.222656 68.527344 L 80.410156 68.527344 C 82.308594 68.527344 83.855469 66.980469 83.855469 65.078125 C 83.855469 63.179688 82.308594 61.632812 80.410156 61.632812 L 68.453125 61.632812 L 70.300781 51.292969 L 80.410156 51.292969 C 82.308594 51.292969 83.855469 49.746094 83.855469 47.847656 C 83.855469 45.945312 82.308594 44.402344 80.410156 44.402344 L 71.53125 44.402344 L 73.578125 32.945312 C 73.738281 32.039062 73.539062 31.125 73.011719 30.367188 C 72.484375 29.613281 71.695312 29.109375 70.789062 28.945312 C 68.921875 28.617188 67.128906 29.863281 66.792969 31.734375 L 64.53125 44.402344 L 52.347656 44.402344 L 54.394531 32.945312 C 54.554688 32.039062 54.355469 31.125 53.828125 30.367188 C 53.300781 29.613281 52.511719 29.109375 51.605469 28.945312 C 49.71875 28.605469 47.945312 29.863281 47.609375 31.734375 L 45.347656 44.402344 L 32.160156 44.402344 C 30.261719 44.402344 28.714844 45.945312 28.714844 47.847656 C 28.714844 49.746094 30.261719 51.292969 32.160156 51.292969 L 44.117188 51.292969 L 42.269531 61.632812 Z M 51.117188 51.292969 L 63.300781 51.292969 L 61.453125 61.632812 L 49.269531 61.632812 Z M 51.117188 51.292969"/></g></svg>