<svg xmlns="http://www.w3.org/2000/svg" width="112.5" viewBox="0 0 112.5 112.5" height="112.5" version="1.0"><defs><clipPath id="a"><path d="M 0 0 L 112.003906 0 L 112.003906 112.003906 L 0 112.003906 Z M 0 0"/></clipPath><clipPath id="b"><path d="M 50.585938 57.304688 L 66.292969 57.304688 L 66.292969 89.996094 L 50.585938 89.996094 Z M 50.585938 57.304688"/></clipPath><clipPath id="c"><path d="M 26.296875 37 L 54 37 L 54 64 L 26.296875 64 Z M 26.296875 37"/></clipPath><clipPath id="d"><path d="M 52 34 L 86.296875 34 L 86.296875 69 L 52 69 Z M 52 34"/></clipPath></defs><g clip-path="url(#a)"><path fill="#FFF" d="M 0 0 L 112.5 0 L 112.5 592.5 L 0 592.5 Z M 0 0"/><path fill="#FFF" d="M 0 0 L 112.5 0 L 112.5 112.5 L 0 112.5 Z M 0 0"/><path d="M 0 0 L 112.5 0 L 112.5 112.5 L 0 112.5 Z M 0 0"/></g><path fill="#F0D090" d="M 28.027344 74.230469 C 28.027344 74.230469 34.949219 71.386719 36.929688 70.21875 C 38.90625 69.046875 36.914062 68.664062 37.546875 66.195312 C 38.179688 63.730469 39.6875 63.019531 39.917969 60.90625 C 40.148438 58.792969 41.21875 58.65625 41.746094 60.484375 C 42.269531 62.316406 40.578125 64.800781 41.042969 64.917969 C 41.507812 65.039062 43.398438 63.492188 45.15625 62.453125 C 45.816406 62.0625 46.6875 61.589844 47.597656 61.03125 C 48.355469 60.566406 49.199219 60.089844 49.785156 59.742188 C 50.375 59.394531 50.933594 59.234375 51.179688 59.648438 C 51.425781 60.0625 51.109375 60.378906 50.554688 60.9375 C 49.328125 62.167969 46.941406 63.738281 46.941406 63.738281 C 46.941406 63.738281 48.417969 62.941406 50.054688 62.082031 C 50.792969 61.695312 51.605469 61.222656 52.25 60.914062 C 53.199219 60.460938 53.757812 60.101562 54.074219 60.636719 C 54.394531 61.171875 53.765625 61.632812 52.914062 62.28125 C 52.390625 62.675781 51.824219 63.019531 51.269531 63.433594 C 49.863281 64.480469 48.515625 65.503906 48.515625 65.503906 C 48.515625 65.503906 50.023438 64.789062 51.582031 64.097656 C 52.300781 63.777344 53.011719 63.429688 53.621094 63.210938 C 54.296875 62.96875 54.914062 62.777344 55.144531 63.164062 C 55.417969 63.621094 55.105469 63.96875 54.355469 64.527344 C 53.839844 64.910156 53.238281 65.28125 52.621094 65.691406 C 51.105469 66.699219 49.535156 67.667969 49.535156 67.667969 C 49.535156 67.667969 50.445312 67.523438 51.46875 67.238281 C 52.003906 67.089844 52.589844 66.871094 53.054688 66.691406 C 53.5625 66.496094 54.328125 66.273438 54.554688 66.65625 C 54.824219 67.109375 54.546875 67.265625 53.65625 67.792969 C 53.167969 68.078125 52.65625 68.375 52.074219 68.738281 C 51.464844 69.117188 50.867188 69.617188 50.222656 69.996094 C 47.757812 71.453125 45.414062 75.179688 42.160156 73.808594 C 38.90625 72.441406 32.558594 81.53125 32.558594 81.53125 C 32.558594 81.53125 28.5625 78.691406 28.027344 74.230469"/><path fill="#DCBC85" d="M 41.746094 60.484375 C 41.21875 58.65625 40.148438 58.792969 39.917969 60.90625 C 39.917969 60.917969 39.914062 60.929688 39.914062 60.941406 C 40.550781 61.164062 41.1875 61.410156 41.824219 61.65625 C 41.867188 61.257812 41.851562 60.859375 41.746094 60.484375"/><path fill="#DCBC85" d="M 51.179688 59.648438 C 50.933594 59.234375 50.375 59.394531 49.785156 59.742188 C 49.199219 60.089844 48.355469 60.566406 47.597656 61.03125 C 46.6875 61.589844 45.816406 62.0625 45.15625 62.453125 C 45 62.546875 44.84375 62.644531 44.683594 62.742188 C 45.542969 63.042969 46.40625 63.308594 47.285156 63.503906 C 47.988281 63.023438 49.613281 61.882812 50.554688 60.9375 C 51.109375 60.378906 51.425781 60.0625 51.179688 59.648438"/><path fill="#DCBC85" d="M 52.074219 68.738281 C 52.65625 68.375 53.167969 68.078125 53.65625 67.792969 C 54.546875 67.265625 54.824219 67.109375 54.554688 66.65625 C 54.328125 66.273438 53.5625 66.496094 53.054688 66.691406 C 52.589844 66.871094 52.003906 67.089844 51.46875 67.238281 C 51.460938 67.242188 51.453125 67.246094 51.441406 67.246094 C 51.566406 67.820312 51.660156 68.394531 51.714844 68.976562 C 51.835938 68.890625 51.953125 68.8125 52.074219 68.738281"/><path fill="#DCBC85" d="M 52.25 60.914062 C 51.613281 61.21875 50.8125 61.683594 50.082031 62.066406 C 50.476562 62.523438 50.667969 63.132812 51.058594 63.589844 C 51.128906 63.539062 51.199219 63.484375 51.269531 63.433594 C 51.757812 63.066406 52.253906 62.757812 52.71875 62.421875 C 52.664062 61.863281 52.652344 61.273438 52.648438 60.722656 C 52.523438 60.78125 52.390625 60.847656 52.25 60.914062"/><path fill="#DCBC85" d="M 55.144531 63.164062 C 54.914062 62.777344 54.296875 62.96875 53.621094 63.210938 C 53.011719 63.429688 52.300781 63.777344 51.582031 64.097656 C 51.285156 64.230469 50.988281 64.363281 50.703125 64.492188 C 50.902344 65.175781 51.109375 65.867188 51.28125 66.566406 C 51.703125 66.292969 52.164062 65.996094 52.621094 65.691406 C 53.238281 65.28125 53.839844 64.910156 54.355469 64.527344 C 55.105469 63.96875 55.417969 63.621094 55.144531 63.164062"/><path fill="#F2D7A2" d="M 43.007812 72.59375 C 42.773438 72.84375 42.46875 72.964844 42.070312 72.792969 C 43.140625 73.996094 45.417969 73.59375 46.085938 72.125 C 45.316406 73.003906 44.089844 72.886719 43.007812 72.59375"/><path fill="#F2D7A2" d="M 38.855469 65.707031 C 37.25 67.3125 38.320312 69.851562 39.394531 71.320312 C 38.992188 69.71875 40.464844 68.648438 40.867188 67.3125 C 41.125 66.703125 40.992188 66.09375 40.679688 65.558594 C 40.125 65.179688 39.449219 65.113281 38.855469 65.707031"/><path fill="#DCBC85" d="M 47.980469 65.675781 C 47.953125 65.703125 47.695312 65.394531 47.667969 65.425781 C 47.644531 65.449219 48.09375 66.226562 48.128906 66.21875 C 48.171875 66.210938 48.023438 65.800781 48.066406 65.792969 C 49.183594 65.546875 50.144531 65.105469 51.246094 64.246094 C 49.816406 64.890625 48.515625 65.503906 48.515625 65.503906 C 48.515625 65.503906 49.863281 64.480469 51.269531 63.433594 C 51.308594 63.402344 51.351562 63.375 51.390625 63.34375 C 50.089844 63.902344 49.074219 64.78125 47.980469 65.675781"/><path fill="#DCBC85" d="M 46.636719 64.347656 C 46.695312 64.34375 46.535156 63.914062 46.59375 63.90625 C 48.710938 63.726562 50.738281 62.574219 52.324219 60.878906 C 52.296875 60.890625 52.273438 60.902344 52.25 60.914062 C 51.605469 61.222656 50.792969 61.695312 50.054688 62.082031 C 48.417969 62.941406 46.941406 63.738281 46.941406 63.738281 C 46.941406 63.738281 49.328125 62.167969 50.554688 60.9375 C 50.984375 60.503906 51.269531 60.21875 51.261719 59.917969 C 49.816406 61.515625 48.246094 62.714844 46.507812 63.707031 C 46.457031 63.738281 46.167969 63.347656 46.113281 63.375 C 46.316406 63.78125 46.535156 64.171875 46.636719 64.347656"/><path fill="#DCBC85" d="M 49.195312 68.085938 C 49.242188 68.089844 49.15625 67.855469 49.207031 67.855469 C 50.386719 67.863281 51.472656 67.523438 52.460938 66.917969 C 52.136719 67.03125 51.792969 67.148438 51.46875 67.238281 C 50.445312 67.523438 49.535156 67.667969 49.535156 67.667969 C 49.535156 67.667969 51.105469 66.699219 52.621094 65.691406 C 52.804688 65.570312 52.988281 65.449219 53.164062 65.335938 C 51.453125 66.074219 50.429688 66.839844 49.148438 67.683594 C 49.117188 67.703125 49.015625 67.566406 48.984375 67.589844 C 48.960938 67.644531 49.15625 68.085938 49.195312 68.085938"/><path fill="#DCBC85" d="M 41.402344 67.445312 C 42.046875 66.585938 42.34375 65.472656 42.230469 64.375 C 41.757812 64.679688 41.375 64.890625 41.152344 64.921875 C 41.257812 65.761719 41.761719 66.605469 41.402344 67.445312"/><path fill="#A88C68" d="M 41.363281 67.742188 C 41.285156 67.710938 41.464844 67.074219 41.320312 66.277344 C 41.195312 65.484375 40.917969 64.871094 40.992188 64.832031 C 41.0625 64.789062 41.480469 65.371094 41.617188 66.230469 C 41.773438 67.101562 41.433594 67.785156 41.363281 67.742188"/><path fill="#E7465D" d="M 45.953125 67.179688 C 48.683594 66.910156 49.160156 69.328125 47.121094 70.179688 C 45.082031 71.027344 42.617188 69.269531 42.617188 69.269531 C 42.617188 69.269531 42.101562 66.289062 43.753906 64.824219 C 45.402344 63.355469 47.378906 64.835938 45.953125 67.179688"/><path fill="#EE7385" d="M 44.496094 69.234375 C 45.3125 70.082031 47.050781 69.738281 47.367188 69.117188 C 46.652344 69.65625 45.347656 69.492188 44.496094 69.234375"/><path fill="#D43452" d="M 45.40625 67.429688 C 45.488281 67.421875 45.773438 67.265625 45.96875 67.175781 C 45.964844 67.175781 45.957031 67.175781 45.953125 67.179688 C 46.285156 66.632812 46.429688 66.136719 46.441406 65.710938 C 46.433594 65.394531 46.371094 65.121094 46.273438 64.921875 C 46.265625 64.914062 46.261719 64.902344 46.257812 64.890625 C 46.386719 65.398438 46.140625 66.695312 45.40625 67.429688"/><path fill="#D43452" d="M 48.214844 68 C 48.363281 68.660156 47.964844 69.425781 46.988281 69.832031 C 45.1875 70.582031 43.054688 69.300781 42.578125 68.992188 C 42.597656 69.167969 42.617188 69.269531 42.617188 69.269531 C 42.617188 69.269531 45.082031 71.027344 47.121094 70.179688 C 48.277344 69.699219 48.625 68.714844 48.214844 68"/><path fill="#B4805D" d="M 85.652344 77.105469 C 85.652344 77.105469 78.589844 74.046875 76.449219 72.191406 C 74.308594 70.335938 75.632812 70.980469 75.410156 67.847656 C 75.191406 64.71875 73.515625 63.523438 73.703125 60.910156 C 73.890625 58.292969 72.621094 57.890625 71.578125 59.992188 C 70.539062 62.097656 72.042969 65.484375 71.449219 65.527344 C 70.859375 65.570312 68.910156 63.277344 67.007812 61.628906 C 66.292969 61.007812 65.339844 60.242188 64.359375 59.363281 C 63.542969 58.632812 62.621094 57.867188 61.992188 57.320312 C 61.351562 56.765625 60.710938 56.449219 60.320312 56.898438 C 59.929688 57.347656 60.242188 57.800781 60.792969 58.601562 C 62.007812 60.363281 64.558594 62.792969 64.558594 62.792969 C 64.558594 62.792969 62.941406 61.503906 61.144531 60.097656 C 60.335938 59.464844 59.457031 58.714844 58.742188 58.199219 C 57.691406 57.441406 57.09375 56.878906 56.589844 57.460938 C 56.082031 58.039062 56.742188 58.734375 57.636719 59.710938 C 58.179688 60.304688 58.792969 60.84375 59.375 61.46875 C 60.847656 63.050781 62.253906 64.589844 62.253906 64.589844 C 62.253906 64.589844 60.585938 63.390625 58.84375 62.207031 C 58.042969 61.660156 57.261719 61.082031 56.570312 60.679688 C 55.804688 60.238281 55.097656 59.867188 54.730469 60.289062 C 54.300781 60.785156 54.601562 61.273438 55.386719 62.113281 C 55.929688 62.691406 56.574219 63.273438 57.234375 63.914062 C 58.847656 65.46875 60.539062 66.988281 60.539062 66.988281 C 60.539062 66.988281 59.464844 66.613281 58.289062 66.042969 C 57.671875 65.746094 57.007812 65.351562 56.488281 65.03125 C 55.914062 64.679688 55.035156 64.242188 54.675781 64.65625 C 54.246094 65.148438 54.550781 65.394531 55.515625 66.230469 C 56.042969 66.6875 56.597656 67.15625 57.222656 67.726562 C 57.878906 68.320312 58.492188 69.058594 59.1875 69.660156 C 61.859375 71.976562 63.628906 77.78125 67.878906 76.835938 C 72.128906 75.894531 78.070312 87.550781 78.070312 87.550781 C 78.070312 87.550781 78.824219 82.617188 85.652344 77.105469"/><path fill="#9F6B50" d="M 74.722656 64.957031 C 74.195312 63.617188 73.585938 62.539062 73.703125 60.910156 C 73.863281 58.695312 72.976562 58.066406 72.066406 59.203125 C 72.125 61.28125 72.773438 64.554688 74.722656 64.957031"/><path fill="#9F6B50" d="M 67.007812 61.628906 C 66.726562 61.386719 66.410156 61.121094 66.070312 60.835938 C 66.03125 60.992188 65.980469 61.144531 65.902344 61.296875 C 64.699219 63.703125 62.289062 65.304688 61.886719 68.113281 C 60.949219 65.304688 62.378906 65.363281 65.089844 62.1875 C 65.589844 61.539062 65.628906 61.058594 65.636719 60.46875 C 65.226562 60.125 64.796875 59.757812 64.359375 59.363281 C 63.542969 58.632812 62.621094 57.867188 61.992188 57.320312 C 61.351562 56.765625 60.710938 56.449219 60.320312 56.898438 C 59.929688 57.347656 60.242188 57.800781 60.792969 58.601562 C 62.007812 60.363281 64.558594 62.792969 64.558594 62.792969 C 64.558594 62.792969 62.941406 61.503906 61.144531 60.097656 C 60.335938 59.464844 59.457031 58.714844 58.742188 58.199219 C 57.691406 57.441406 57.09375 56.878906 56.589844 57.460938 C 56.082031 58.039062 56.742188 58.734375 57.636719 59.710938 C 58.179688 60.304688 58.792969 60.84375 59.375 61.46875 C 60.847656 63.050781 62.253906 64.589844 62.253906 64.589844 C 62.253906 64.589844 60.585938 63.390625 58.84375 62.207031 C 58.042969 61.660156 57.261719 61.082031 56.570312 60.679688 C 55.804688 60.238281 55.097656 59.867188 54.730469 60.289062 C 54.300781 60.785156 54.601562 61.273438 55.386719 62.113281 C 55.929688 62.691406 56.574219 63.273438 57.234375 63.914062 C 58.847656 65.46875 60.539062 66.988281 60.539062 66.988281 C 60.539062 66.988281 59.464844 66.613281 58.289062 66.042969 C 57.671875 65.746094 57.007812 65.351562 56.488281 65.03125 C 55.914062 64.679688 55.035156 64.242188 54.675781 64.65625 C 54.246094 65.148438 54.550781 65.394531 55.515625 66.230469 C 56.042969 66.6875 56.597656 67.15625 57.222656 67.726562 C 57.878906 68.320312 58.492188 69.058594 59.1875 69.660156 C 60.558594 70.847656 61.691406 72.953125 63.042969 74.59375 C 63.601562 74.324219 64.0625 73.855469 64.164062 73.460938 C 64.898438 69.425781 66.304688 66.175781 69.203125 63.707031 C 68.519531 63.035156 67.761719 62.285156 67.007812 61.628906"/><path fill="#9F6B50" d="M 64.53125 71.914062 C 65.527344 71.660156 66.851562 71.292969 67.863281 71.292969 C 67.035156 70.625 65.011719 70.953125 64.53125 71.914062"/><path fill="#9F6B50" d="M 68.152344 66.460938 C 67.578125 67.933594 67.746094 69.695312 68.816406 70.742188 C 68.285156 69.355469 68.0625 67.914062 68.152344 66.460938"/><path fill="#9F6B50" d="M 72.429688 73.457031 C 73.316406 74.636719 73.984375 76.03125 75.277344 76.804688 C 75.132812 75.988281 73.808594 74.027344 72.429688 73.457031"/><path fill="#BA8A6F" d="M 72.980469 65.578125 C 71.199219 66.238281 71.472656 69.105469 70.992188 70.789062 C 70.859375 71.320312 70.320312 71.722656 69.652344 71.992188 C 71.527344 72.792969 73.535156 71.457031 74.339844 69.71875 C 75.097656 68.074219 74.769531 65.078125 72.980469 65.578125"/><path fill="#BA8A6F" d="M 64.921875 73.320312 C 64.59375 73.570312 64.363281 73.933594 64.296875 74.261719 C 64.164062 76 66.976562 76.132812 68.449219 75.734375 C 68.984375 75.601562 69.519531 75.199219 69.386719 74.53125 C 67.242188 75.53125 65.667969 75 64.921875 73.320312"/><path fill="#B4805D" d="M 70.320312 68.515625 C 70.320312 68.394531 70.316406 68.269531 70.308594 68.148438 C 70.304688 68.269531 70.308594 68.390625 70.320312 68.515625"/><path fill="#9F6B50" d="M 70.308594 68.148438 C 70.328125 67.179688 70.832031 66.304688 71.375 65.519531 C 71.167969 65.480469 70.839844 65.238281 70.429688 64.878906 C 69.859375 65.820312 69.941406 67.167969 70.308594 68.148438"/><path fill="#6D382F" d="M 70.433594 68.878906 C 70.359375 68.914062 70.117188 68.019531 70.496094 67.003906 C 70.851562 66 71.472656 65.378906 71.53125 65.433594 C 71.597656 65.484375 71.109375 66.160156 70.777344 67.101562 C 70.425781 68.042969 70.523438 68.867188 70.433594 68.878906"/><path fill="#6D382F" d="M 75.34375 76.804688 C 75.289062 76.894531 74.359375 76.265625 73.519531 75.21875 C 72.664062 74.195312 72.109375 73.261719 72.175781 73.214844 C 72.246094 73.167969 72.90625 74.015625 73.75 75.027344 C 74.578125 76.058594 75.375 76.746094 75.34375 76.804688"/><path fill="#6D382F" d="M 68.113281 71.277344 C 68.101562 71.355469 67.25 71.375 66.207031 71.613281 C 65.164062 71.835938 64.324219 72.070312 64.296875 71.992188 C 64.269531 71.914062 65.074219 71.546875 66.144531 71.320312 C 67.214844 71.070312 68.128906 71.1875 68.113281 71.277344"/><path fill="#6D382F" d="M 69.296875 71.65625 C 69.1875 71.757812 68.289062 70.363281 68.144531 68.433594 C 67.921875 66.535156 68.082031 64.988281 68.15625 64.996094 C 68.246094 64.996094 68.222656 66.53125 68.441406 68.398438 C 68.59375 70.296875 69.3125 71.632812 69.296875 71.65625"/><path fill="#E7465D" d="M 63.566406 66.871094 C 60.3125 65.945312 59.199219 68.777344 61.484375 70.257812 C 63.769531 71.734375 67.152344 70.148438 67.152344 70.148438 C 67.152344 70.148438 68.4375 66.644531 66.757812 64.5 C 65.078125 62.359375 62.351562 63.71875 63.566406 66.871094"/><path fill="#D43452" d="M 67.367188 65.65625 C 67.8125 67.605469 67.035156 69.730469 67.035156 69.730469 C 67.035156 69.730469 63.652344 71.316406 61.367188 69.839844 C 60.824219 69.484375 60.472656 69.058594 60.296875 68.621094 C 60.382812 69.195312 60.765625 69.792969 61.484375 70.257812 C 63.769531 71.734375 67.152344 70.148438 67.152344 70.148438 C 67.152344 70.148438 68.042969 67.707031 67.367188 65.65625"/><path fill="#D43452" d="M 64.378906 63.554688 C 64.015625 64.015625 63.644531 64.472656 63.304688 64.941406 C 63.214844 65.46875 63.277344 66.117188 63.566406 66.871094 C 63.09375 66.738281 62.664062 66.683594 62.285156 66.691406 C 62.097656 67.132812 61.960938 67.605469 61.886719 68.113281 C 61.710938 67.582031 61.617188 67.15625 61.601562 66.789062 C 59.972656 67.234375 59.75 69.132812 61.484375 70.257812 C 62.5 70.914062 63.726562 70.964844 64.78125 70.820312 C 65.359375 68.867188 66.175781 67.136719 67.355469 65.628906 C 67.222656 65.230469 67.027344 64.847656 66.757812 64.5 C 66.027344 63.566406 65.097656 63.300781 64.378906 63.554688"/><g clip-path="url(#b)"><path fill="#82442C" d="M 65.210938 87.78125 C 65.210938 87.78125 62.542969 79.296875 61.929688 77.085938 C 61.3125 74.875 62.320312 75.054688 63.574219 72.839844 C 64.828125 70.621094 64.230469 69.066406 65.53125 67.382812 C 66.828125 65.699219 66.152344 64.855469 64.503906 65.8125 C 62.855469 66.773438 62.355469 69.734375 61.9375 69.5 C 61.515625 69.261719 61.226562 66.84375 60.679688 64.875 C 60.472656 64.136719 60.171875 63.195312 59.902344 62.160156 C 59.679688 61.304688 59.398438 60.375 59.21875 59.722656 C 59.035156 59.0625 58.742188 58.558594 58.277344 58.6875 C 57.8125 58.820312 57.820312 59.265625 57.835938 60.050781 C 57.867188 61.789062 58.5 64.570312 58.5 64.570312 C 58.5 64.570312 57.984375 62.972656 57.402344 61.222656 C 57.136719 60.433594 56.878906 59.53125 56.625 58.863281 C 56.257812 57.878906 56.105469 57.234375 55.503906 57.402344 C 54.902344 57.566406 55.035156 58.332031 55.199219 59.390625 C 55.300781 60.035156 55.476562 60.671875 55.589844 61.359375 C 55.875 63.085938 56.136719 64.753906 56.136719 64.753906 C 56.136719 64.753906 55.546875 63.199219 54.898438 61.621094 C 54.601562 60.894531 54.332031 60.152344 54.046875 59.570312 C 53.726562 58.929688 53.414062 58.363281 52.976562 58.484375 C 52.464844 58.628906 52.449219 59.09375 52.601562 60.011719 C 52.710938 60.644531 52.886719 61.328125 53.046875 62.054688 C 53.441406 63.828125 53.902344 65.613281 53.902344 65.613281 C 53.902344 65.613281 53.34375 64.878906 52.804688 63.964844 C 52.519531 63.488281 52.25 62.925781 52.039062 62.476562 C 51.808594 61.984375 51.410156 61.292969 50.980469 61.410156 C 50.472656 61.554688 50.566406 61.859375 50.84375 62.851562 C 50.996094 63.398438 51.160156 63.964844 51.328125 64.628906 C 51.503906 65.324219 51.589844 66.097656 51.789062 66.816406 C 52.558594 69.574219 51.667969 73.878906 54.964844 75.140625 C 58.261719 76.402344 56.878906 89.917969 56.878906 89.917969 C 56.878906 89.917969 61.730469 90.628906 65.210938 87.78125"/></g><path fill="#82442C" d="M 54.53125 60.695312 C 54.367188 60.289062 54.210938 59.902344 54.046875 59.570312 C 53.726562 58.929688 53.414062 58.363281 52.976562 58.484375 C 52.464844 58.628906 52.449219 59.09375 52.601562 60.011719 C 52.699219 60.578125 52.847656 61.1875 52.996094 61.828125 C 53.425781 61.351562 54.011719 61.078125 54.53125 60.695312"/><path fill="#6E2C20" d="M 55.714844 63.667969 C 55.492188 63.09375 55.203125 62.359375 54.898438 61.621094 C 54.773438 61.308594 54.652344 60.996094 54.53125 60.695312 C 54.011719 61.078125 53.425781 61.351562 52.996094 61.828125 C 53.011719 61.902344 53.03125 61.976562 53.046875 62.054688 C 53.304688 63.207031 53.585938 64.363281 53.753906 65.03125 C 54.550781 64.90625 55.34375 64.398438 55.714844 63.667969"/><path fill="#82442C" d="M 55.503906 57.402344 C 54.933594 57.558594 55.023438 58.25 55.175781 59.21875 L 56.257812 57.90625 C 56.074219 57.503906 55.871094 57.296875 55.503906 57.402344"/><path fill="#6E2C20" d="M 64.503906 65.8125 C 63.636719 66.320312 63.085938 67.378906 62.699219 68.234375 C 63.460938 68.808594 64.402344 68.570312 65.113281 68.03125 C 65.226562 67.816406 65.363281 67.601562 65.53125 67.382812 C 66.828125 65.699219 66.152344 64.855469 64.503906 65.8125"/><path fill="#6E2C20" d="M 57.734375 67.578125 C 59.085938 67.867188 60.300781 67.394531 61.070312 66.503906 C 60.953125 65.964844 60.824219 65.402344 60.679688 64.875 C 60.472656 64.136719 60.171875 63.195312 59.902344 62.160156 C 59.679688 61.304688 59.398438 60.375 59.21875 59.722656 C 59.035156 59.0625 58.742188 58.558594 58.277344 58.6875 C 57.8125 58.820312 57.820312 59.265625 57.835938 60.050781 C 57.867188 61.789062 58.5 64.570312 58.5 64.570312 C 58.5 64.570312 57.984375 62.972656 57.402344 61.222656 C 57.222656 60.691406 57.050781 60.113281 56.878906 59.585938 L 55.546875 61.128906 C 55.558594 61.207031 55.574219 61.28125 55.589844 61.359375 C 55.875 63.085938 56.136719 64.753906 56.136719 64.753906 C 56.136719 64.753906 55.96875 64.316406 55.714844 63.667969 C 55.453125 64.183594 54.976562 64.589844 54.4375 64.828125 C 54.746094 66.253906 56.242188 67.207031 57.734375 67.578125"/><path fill="#6E2C20" d="M 56.625 58.863281 C 56.484375 58.488281 56.375 58.160156 56.257812 57.90625 L 55.175781 59.21875 C 55.183594 59.273438 55.191406 59.332031 55.199219 59.390625 C 55.289062 59.964844 55.433594 60.53125 55.546875 61.128906 L 56.878906 59.585938 C 56.792969 59.328125 56.710938 59.085938 56.625 58.863281"/><path fill="#8A523C" d="M 55.726562 71.457031 C 55.324219 70.789062 54.242188 70.265625 53.585938 70.921875 C 53.316406 71.1875 53.316406 71.722656 53.453125 71.992188 C 54.171875 73.546875 55.96875 74.566406 57.777344 74.472656 C 56.789062 73.9375 56.394531 72.59375 55.726562 71.457031"/><path fill="#8A523C" d="M 63.359375 70.652344 C 63.226562 70.253906 62.691406 69.71875 62.15625 69.984375 C 60.949219 70.519531 61.519531 71.691406 60.546875 73.195312 C 60.425781 73.3125 60.304688 73.460938 60.175781 73.585938 C 61.734375 73.109375 64.214844 72.601562 63.359375 70.652344"/><path fill="#6E2C20" d="M 53.894531 66.070312 C 53.941406 66.117188 53.507812 66.339844 53.558594 66.382812 C 53.628906 66.441406 54.800781 66.066406 54.796875 65.957031 C 54.792969 65.882812 54.238281 66.046875 54.234375 65.976562 C 54.136719 64.703125 53.710938 63.371094 53.097656 62.277344 C 53.480469 63.972656 53.902344 65.613281 53.902344 65.613281 C 53.902344 65.613281 53.34375 64.878906 52.804688 63.964844 C 52.742188 63.867188 52.6875 63.761719 52.628906 63.65625 C 52.75 64.589844 53.246094 65.457031 53.894531 66.070312"/><path fill="#6E2C20" d="M 60.011719 71.054688 C 60.527344 70.414062 61.164062 69.773438 61.921875 69.488281 C 61.773438 69.386719 61.644531 69.019531 61.511719 68.5 C 60.695312 69.035156 60.195312 70.046875 60.011719 71.054688"/><path fill="#511619" d="M 59.746094 71.3125 C 59.667969 71.296875 59.894531 70.570312 60.609375 70.046875 C 61.308594 69.523438 62.015625 69.390625 62.03125 69.472656 C 62.058594 69.550781 61.433594 69.800781 60.792969 70.285156 C 60.140625 70.761719 59.828125 71.347656 59.746094 71.3125"/><path fill="#E7465D" d="M 56.828125 67.734375 C 55.042969 65.652344 53.019531 67.070312 53.902344 69.09375 C 54.785156 71.113281 57.785156 71.550781 57.785156 71.550781 C 57.785156 71.550781 60.222656 69.753906 60.046875 67.554688 C 59.875 65.359375 57.417969 65.058594 56.828125 67.734375"/><path fill="#EE7385" d="M 57.347656 70.320312 C 58.789062 70.441406 59.367188 69.050781 59.277344 67.796875 C 58.988281 68.789062 58.445312 69.832031 57.347656 70.320312"/><path fill="#D43452" d="M 60.046875 67.554688 C 60.035156 67.367188 60 67.195312 59.957031 67.035156 C 59.960938 67.078125 59.964844 67.121094 59.96875 67.167969 C 60.144531 69.367188 57.707031 71.160156 57.707031 71.160156 C 57.707031 71.160156 54.707031 70.722656 53.824219 68.703125 C 53.773438 68.585938 53.734375 68.46875 53.699219 68.359375 C 53.726562 68.589844 53.789062 68.835938 53.902344 69.09375 C 54.785156 71.113281 57.785156 71.550781 57.785156 71.550781 C 57.785156 71.550781 60.222656 69.753906 60.046875 67.554688"/><path fill="#D43452" d="M 56.941406 67.324219 C 57.203125 67.425781 57.46875 67.511719 57.734375 67.578125 C 58.574219 67.757812 59.359375 67.644531 60.019531 67.316406 C 59.710938 65.453125 57.652344 65.1875 56.941406 67.324219"/><path fill="#ECBE92" d="M 52.214844 24.632812 C 52.214844 24.632812 53.484375 33.355469 53.484375 36.0625 C 53.484375 38.769531 51.894531 36.980469 49.769531 39.105469 C 47.644531 41.226562 47.828125 43.179688 45.820312 44.683594 C 43.8125 46.1875 44.3125 47.359375 46.488281 46.792969 C 48.664062 46.222656 50.171875 43.015625 50.574219 43.414062 C 50.972656 43.816406 50.539062 46.65625 50.539062 49.0625 C 50.539062 49.96875 50.582031 51.132812 50.5625 52.394531 C 50.542969 53.4375 50.566406 54.582031 50.566406 55.382812 C 50.566406 56.191406 50.742188 56.851562 51.308594 56.851562 C 51.878906 56.851562 52.011719 56.339844 52.242188 55.445312 C 52.757812 53.460938 52.917969 50.101562 52.917969 50.101562 C 52.917969 50.101562 52.996094 52.074219 53.105469 54.25 C 53.15625 55.230469 53.164062 56.335938 53.238281 57.171875 C 53.347656 58.40625 53.316406 59.191406 54.054688 59.191406 C 54.789062 59.191406 54.878906 58.28125 55.027344 57.027344 C 55.117188 56.257812 55.121094 55.480469 55.210938 54.667969 C 55.429688 52.613281 55.660156 50.632812 55.660156 50.632812 C 55.660156 50.632812 55.839844 52.589844 56.074219 54.585938 C 56.179688 55.507812 56.253906 56.433594 56.394531 57.183594 C 56.554688 58.011719 56.730469 58.753906 57.269531 58.753906 C 57.894531 58.753906 58.058594 58.230469 58.175781 57.136719 C 58.253906 56.386719 58.269531 55.554688 58.316406 54.679688 C 58.429688 52.539062 58.472656 50.367188 58.472656 50.367188 C 58.472656 50.367188 58.871094 51.375 59.199219 52.585938 C 59.367188 53.214844 59.5 53.9375 59.59375 54.515625 C 59.699219 55.148438 59.933594 56.058594 60.457031 56.058594 C 61.082031 56.058594 61.074219 55.683594 61.074219 54.464844 C 61.074219 53.796875 61.0625 53.101562 61.082031 52.292969 C 61.105469 51.453125 61.25 50.542969 61.25 49.664062 C 61.25 46.289062 63.628906 41.675781 60.28125 39.203125 C 56.933594 36.730469 62.355469 24.832031 62.355469 24.832031 C 62.355469 24.832031 57.066406 22.492188 52.214844 24.632812"/><path fill="#D9AA87" d="M 50.566406 55.382812 C 50.566406 56.191406 50.742188 56.851562 51.308594 56.851562 C 51.878906 56.851562 52.011719 56.339844 52.242188 55.445312 C 52.253906 55.402344 52.265625 55.359375 52.273438 55.3125 L 50.5625 54.5 C 50.566406 54.820312 50.566406 55.121094 50.566406 55.382812"/><path fill="#D9AA87" d="M 59.59375 54.515625 C 59.699219 55.148438 59.933594 56.058594 60.457031 56.058594 C 61.082031 56.058594 61.074219 55.683594 61.074219 54.464844 C 61.074219 53.796875 61.0625 53.101562 61.082031 52.292969 C 61.097656 51.730469 61.167969 51.132812 61.210938 50.539062 L 59.355469 53.234375 C 59.449219 53.679688 59.53125 54.132812 59.59375 54.515625"/><path fill="#EDC59C" d="M 58.058594 39.285156 C 57.695312 39.648438 57.792969 40.269531 58 40.578125 C 58.65625 41.578125 59.609375 42.445312 59.609375 43.78125 C 59.746094 44.316406 60.144531 44.71875 60.683594 44.316406 C 61.753906 43.515625 61.484375 42.046875 60.949219 40.976562 C 60.355469 39.847656 59.261719 38.59375 58.058594 39.285156"/><path fill="#EDC59C" d="M 50.238281 40.171875 C 49.703125 40.84375 49.96875 41.511719 50.507812 41.644531 C 51.441406 42.046875 52.515625 41.644531 53.316406 41.109375 C 54.359375 40.53125 55 39.054688 54.722656 37.800781 C 53.828125 39.253906 51.46875 38.699219 50.238281 40.171875"/><path fill="#D9AA87" d="M 53.015625 49.785156 C 53.003906 49.730469 53.609375 49.601562 53.59375 49.546875 C 52.898438 49.578125 52.726562 49.546875 52.203125 49.546875 C 52.195312 49.585938 52.832031 49.722656 52.820312 49.761719 C 52.261719 52.089844 52.71875 54.816406 51.296875 56.851562 C 51.300781 56.851562 51.304688 56.851562 51.308594 56.851562 C 51.878906 56.851562 52.011719 56.339844 52.242188 55.445312 C 52.757812 53.460938 52.917969 50.101562 52.917969 50.101562 C 52.917969 50.101562 52.996094 52.074219 53.105469 54.25 C 53.15625 55.230469 53.164062 56.335938 53.238281 57.171875 C 53.261719 57.425781 53.277344 57.65625 53.296875 57.871094 C 53.234375 55.152344 53.675781 52.402344 53.015625 49.785156"/><path fill="#D9AA87" d="M 55.796875 49.523438 C 55.789062 49.464844 56.332031 49.371094 56.324219 49.308594 C 56.023438 49.347656 55.488281 49.351562 55.175781 49.308594 C 55.164062 49.367188 55.640625 49.449219 55.628906 49.507812 C 55.195312 51.902344 55.070312 54.300781 55.058594 56.695312 C 55.117188 56.035156 55.132812 55.363281 55.210938 54.667969 C 55.429688 52.613281 55.660156 50.632812 55.660156 50.632812 C 55.660156 50.632812 55.839844 52.589844 56.074219 54.585938 C 56.148438 55.226562 56.207031 55.867188 56.28125 56.453125 C 56.355469 54.109375 56.089844 51.785156 55.796875 49.523438"/><path fill="#D9AA87" d="M 58.621094 50.070312 C 58.59375 49.992188 58.839844 49.914062 58.925781 49.804688 C 58.667969 49.867188 58.253906 49.898438 57.976562 49.828125 C 57.96875 49.886719 58.332031 50.003906 58.320312 50.0625 C 58.074219 51.8125 58.09375 53.5625 58.285156 55.3125 C 58.296875 55.101562 58.304688 54.894531 58.316406 54.679688 C 58.429688 52.539062 58.472656 50.367188 58.472656 50.367188 C 58.472656 50.367188 58.871094 51.375 59.199219 52.585938 C 59.367188 53.214844 59.5 53.9375 59.59375 54.515625 C 59.625 54.699219 59.667969 54.902344 59.722656 55.101562 C 59.757812 53.363281 59.246094 51.660156 58.621094 50.070312"/><path fill="#D9AA87" d="M 53.585938 42.179688 C 52.808594 42.953125 51.660156 43.105469 50.617188 43.476562 C 50.707031 43.632812 50.742188 43.953125 50.742188 44.382812 C 51.964844 44.234375 53.0625 43.328125 53.585938 42.179688"/><path fill="#A67A6A" d="M 53.636719 42.046875 C 53.710938 42.082031 53.214844 42.820312 52.242188 43.183594 C 51.292969 43.558594 50.449219 43.496094 50.457031 43.414062 C 50.453125 43.332031 51.242188 43.257812 52.132812 42.90625 C 53.03125 42.570312 53.566406 41.988281 53.636719 42.046875"/><path fill="#E7465D" d="M 55.820312 47.03125 C 57.1875 49.960938 59.933594 48.988281 59.574219 46.414062 C 59.210938 43.835938 55.941406 42.394531 55.941406 42.394531 C 55.941406 42.394531 52.601562 43.664062 52.101562 46.21875 C 51.605469 48.769531 54.300781 49.886719 55.820312 47.03125"/><path fill="#EE7385" d="M 56.015625 43.390625 C 57.472656 43.929688 58.140625 45.394531 58.539062 46.722656 C 58.664062 45.253906 57.542969 43.554688 56.015625 43.390625"/><path fill="#D43452" d="M 55.820312 46.628906 C 54.46875 49.164062 52.195312 48.570312 52.050781 46.613281 C 51.894531 48.878906 54.378906 49.730469 55.820312 47.03125 C 57.144531 49.867188 59.761719 49.046875 59.597656 46.65625 C 59.460938 48.726562 57.066406 49.300781 55.820312 46.628906"/><g clip-path="url(#c)"><path fill="#B4805D" d="M 30.488281 37.566406 C 30.488281 37.566406 34.839844 45.285156 36.882812 46.824219 C 38.925781 48.363281 38.65625 44.820312 41.367188 45.621094 C 44.078125 46.421875 45.050781 48.261719 47.929688 49.230469 C 50.808594 50.199219 47.441406 51.285156 45.148438 50.617188 C 43.796875 50.222656 43.894531 51.972656 47.441406 53.542969 C 48.960938 54.214844 51.671875 55.324219 52.691406 56.261719 C 53.339844 56.851562 53.039062 57.640625 51.644531 57.640625 C 51.644531 57.640625 54.277344 58.554688 53.964844 59.46875 C 53.652344 60.382812 51.042969 59.757812 51.042969 59.757812 C 51.042969 59.757812 52.46875 60.316406 52.292969 60.960938 C 52.113281 61.609375 48.074219 61.335938 46.378906 60.738281 C 46.378906 60.738281 49.101562 61.628906 49.402344 62.6875 C 49.578125 63.304688 48.652344 63.3125 47.871094 63.101562 C 47.15625 62.90625 46.207031 62.738281 45.015625 62.296875 C 42.574219 61.394531 35.609375 58.523438 35.175781 55.378906 C 34.738281 52.238281 35.644531 52.039062 32.765625 50.265625 C 29.886719 48.496094 26.304688 45.453125 26.304688 45.453125 C 26.304688 45.453125 29.71875 41.175781 30.488281 37.566406"/></g><path fill="#B4805D" d="M 46.390625 60.742188 C 46.382812 60.742188 46.378906 60.738281 46.378906 60.738281 C 46.382812 60.742188 46.386719 60.742188 46.390625 60.742188"/><path fill="#BA8A6F" d="M 36.976562 51.277344 C 36.585938 51.492188 36.121094 51.710938 35.75 51.980469 C 35.429688 54.308594 36.800781 56.878906 38.863281 58.023438 C 37.574219 56.070312 36.003906 53.726562 36.976562 51.277344"/><path fill="#B4805D" d="M 46.390625 60.742188 C 46.382812 60.742188 46.378906 60.738281 46.378906 60.738281 C 46.382812 60.742188 46.386719 60.742188 46.390625 60.742188"/><path fill="#BA8A6F" d="M 44.347656 48.460938 C 43.003906 46.113281 40.351562 47.414062 38.109375 48.289062 C 39.957031 48.898438 41.382812 50.304688 43.410156 49.800781 C 44.078125 49.664062 44.75 49.128906 44.347656 48.460938"/><path fill="#9F6B50" d="M 52.621094 57.039062 C 52.449219 57.160156 52.164062 57.265625 52.125 57.28125 C 50.683594 57.84375 49.128906 56.019531 47.058594 55.949219 C 48.441406 56.953125 50.164062 57.367188 51.796875 57.636719 C 52.769531 57.59375 53.144531 57.136719 52.976562 56.667969 C 52.945312 56.714844 52.835938 56.886719 52.621094 57.039062"/><path fill="#B4805D" d="M 46.390625 60.742188 C 46.382812 60.742188 46.378906 60.738281 46.378906 60.738281 C 46.382812 60.742188 46.386719 60.742188 46.390625 60.742188"/><path fill="#B4805D" d="M 46.390625 60.742188 C 46.382812 60.742188 46.378906 60.738281 46.378906 60.738281 C 46.382812 60.742188 46.386719 60.742188 46.390625 60.742188"/><path fill="#9F6B50" d="M 53.855469 58.949219 C 53.804688 59.332031 53.601562 59.632812 53.183594 59.691406 C 50.640625 59.957031 48.230469 58.289062 45.953125 57.820312 C 47.625 58.71875 49.421875 59.367188 51.335938 59.894531 C 51.167969 59.808594 51.042969 59.757812 51.042969 59.757812 C 51.042969 59.757812 53.652344 60.382812 53.964844 59.46875 C 54.023438 59.292969 53.976562 59.117188 53.855469 58.949219"/><path fill="#B4805D" d="M 46.390625 60.742188 C 46.382812 60.742188 46.378906 60.738281 46.378906 60.738281 C 46.382812 60.742188 46.386719 60.742188 46.390625 60.742188"/><path fill="#9F6B50" d="M 51.890625 60.773438 C 51.804688 60.980469 51.492188 61.054688 51.28125 61.054688 C 47.417969 61.15625 46.316406 60.375 43.539062 59.515625 C 44.566406 60.390625 45.9375 60.542969 46.9375 60.90625 C 48.828125 61.382812 52.128906 61.542969 52.292969 60.960938 C 52.367188 60.683594 52.148438 60.421875 51.871094 60.214844 C 51.851562 60.347656 51.976562 60.425781 51.890625 60.773438"/><path fill="#9F6B50" d="M 47.292969 62.632812 C 42.539062 61.171875 36.785156 59.597656 35.085938 54.585938 C 35.105469 54.828125 35.136719 55.089844 35.175781 55.378906 C 35.609375 58.523438 42.574219 61.394531 45.015625 62.296875 C 46.207031 62.738281 47.15625 62.90625 47.871094 63.101562 C 48.652344 63.3125 49.578125 63.304688 49.402344 62.6875 C 49.335938 62.460938 49.160156 62.242188 48.925781 62.039062 C 49.09375 62.824219 47.984375 62.863281 47.292969 62.632812"/><path fill="#B4805D" d="M 46.390625 60.742188 C 46.382812 60.742188 46.378906 60.738281 46.378906 60.738281 C 46.382812 60.742188 46.386719 60.742188 46.390625 60.742188"/><path fill="#B4805D" d="M 46.390625 60.742188 C 46.382812 60.742188 46.378906 60.738281 46.378906 60.738281 C 46.382812 60.742188 46.386719 60.742188 46.390625 60.742188"/><path fill="#9F6B50" d="M 40.867188 50.46875 C 41.796875 51.5 43.363281 52.054688 44.648438 51.636719 C 44.398438 51.308594 44.3125 51.027344 44.359375 50.839844 C 43.222656 51.265625 41.988281 51.214844 40.867188 50.46875"/><path fill="#6D382F" d="M 46.824219 55.816406 C 46.867188 55.734375 47.898438 56.257812 49.222656 56.765625 C 50.542969 57.28125 51.65625 57.566406 51.644531 57.640625 C 51.632812 57.730469 50.457031 57.570312 49.113281 57.046875 C 47.765625 56.527344 46.785156 55.878906 46.824219 55.816406"/><path fill="#6D382F" d="M 45.703125 57.621094 C 45.753906 57.5625 46.792969 58.324219 48.296875 58.851562 C 49.789062 59.402344 51.058594 59.675781 51.042969 59.757812 C 51.03125 59.839844 49.714844 59.695312 48.191406 59.132812 C 46.648438 58.589844 45.636719 57.679688 45.703125 57.621094"/><path fill="#6D382F" d="M 43.441406 59.457031 C 43.492188 59.390625 44.109375 59.742188 44.917969 60.074219 C 45.726562 60.414062 46.398438 60.660156 46.378906 60.738281 C 46.359375 60.820312 45.632812 60.703125 44.800781 60.351562 C 43.964844 60.007812 43.390625 59.523438 43.441406 59.457031"/><path fill="#6D382F" d="M 40.867188 50.449219 C 40.914062 50.359375 41.628906 50.796875 42.605469 50.90625 C 43.582031 51.023438 44.351562 50.710938 44.382812 50.777344 C 44.441406 50.851562 43.644531 51.332031 42.570312 51.203125 C 41.5 51.078125 40.820312 50.496094 40.867188 50.449219"/><path fill="#E7465D" d="M 41.792969 54.519531 C 39.40625 54.199219 38.914062 56.308594 40.675781 57.113281 C 42.4375 57.921875 44.652344 56.453125 44.652344 56.453125 C 44.652344 56.453125 45.195312 53.855469 43.792969 52.519531 C 42.390625 51.183594 40.609375 52.421875 41.792969 54.519531"/><path fill="#EE7385" d="M 44.132812 55.246094 C 44.464844 54.757812 44.289062 52.867188 42.890625 52.695312 C 43.761719 53.140625 44.238281 54.230469 44.132812 55.246094"/><path fill="#D43452" d="M 44.546875 53.78125 C 44.808594 54.953125 44.566406 56.121094 44.566406 56.121094 C 44.566406 56.121094 42.347656 57.585938 40.585938 56.78125 C 40.09375 56.554688 39.777344 56.226562 39.628906 55.878906 C 39.683594 56.34375 40.027344 56.816406 40.675781 57.113281 C 42.4375 57.921875 44.652344 56.453125 44.652344 56.453125 C 44.652344 56.453125 44.945312 55.054688 44.546875 53.78125"/><g clip-path="url(#d)"><path fill="#ECBE92" d="M 86.289062 38.703125 C 86.289062 38.703125 84.246094 34.648438 79.5625 34.648438 C 79.277344 34.648438 74.742188 40.441406 72.375 43.292969 C 70.011719 46.144531 68.847656 40.796875 64.117188 47.167969 C 62.253906 49.683594 61.253906 51.203125 60.535156 52.375 C 59.425781 54.179688 58.96875 55.160156 57.023438 57.640625 C 53.808594 61.742188 52.046875 63.722656 52.828125 64.503906 C 53.609375 65.285156 54.835938 64.324219 54.835938 64.324219 C 54.835938 64.324219 53.667969 66.058594 54.457031 66.84375 C 55.242188 67.628906 56.53125 66.277344 56.53125 66.277344 C 56.53125 66.277344 55.828125 67.546875 57.066406 68.011719 C 58.304688 68.480469 61.152344 65.808594 62.859375 63.601562 C 64.566406 61.394531 65.902344 58.386719 66.773438 59.257812 C 67.644531 60.125 65.132812 63.035156 64.0625 64.605469 C 62.992188 66.175781 61.921875 67.277344 62.589844 67.945312 C 63.257812 68.613281 65.46875 67.3125 67.242188 65.105469 C 69.015625 62.902344 72.257812 58.328125 72.261719 58.121094 C 72.261719 58.113281 72.261719 58.113281 72.261719 58.121094 C 72.257812 58.3125 72.238281 63.6875 74.371094 64.171875 C 76.582031 64.671875 74.574219 61.0625 75.609375 59.191406 C 76.648438 57.320312 78.992188 52.90625 77.386719 49.800781 C 75.777344 46.691406 83.410156 40.941406 86.289062 38.703125"/></g><path fill="#EDC59C" d="M 73.730469 47.507812 C 72.914062 47.042969 71.992188 47.1875 71.234375 47.589844 C 70.394531 48.578125 70.113281 50.175781 70.515625 51.386719 C 71.320312 53.523438 73.730469 54.863281 73.195312 57.535156 C 73.0625 57.9375 73.730469 58.203125 74 58.070312 C 75.335938 58.070312 76.007812 56.601562 76.140625 55.398438 C 76.542969 52.589844 76.410156 49.113281 73.730469 47.507812"/><path fill="#D9AA87" d="M 72.207031 58.246094 C 72.242188 58.183594 72.261719 58.136719 72.261719 58.121094 C 72.261719 58.113281 72.261719 58.113281 72.261719 58.121094 C 72.261719 58.296875 72.242188 62.777344 73.855469 63.933594 C 73.257812 63.023438 73.117188 62.410156 72.902344 61.316406 C 72.609375 59.992188 72.722656 58.5 72.152344 57.71875 C 72.089844 57.84375 72.234375 58.09375 72.207031 58.246094"/><path fill="#D9AA87" d="M 54.675781 64.59375 C 56.515625 63.117188 58.957031 59.191406 60.300781 57.332031 C 58.148438 59.480469 54.925781 64.617188 53.355469 64.789062 C 54.0625 64.925781 54.835938 64.324219 54.835938 64.324219 C 54.835938 64.324219 54.765625 64.429688 54.675781 64.59375"/><path fill="#D9AA87" d="M 63.003906 58.578125 C 60.09375 61.773438 55.839844 67.335938 54.375 66.746094 C 54.398438 66.78125 54.425781 66.8125 54.457031 66.84375 C 55.242188 67.628906 56.53125 66.277344 56.53125 66.277344 C 56.53125 66.277344 56.511719 66.308594 56.484375 66.371094 C 58.742188 64.144531 61.230469 61.429688 63.003906 58.578125"/><path fill="#D9AA87" d="M 57.734375 66.910156 C 57.199219 66.277344 58.417969 64.597656 59.085938 63.664062 C 58.015625 64.597656 56.664062 66.644531 55.460938 65.707031 C 54.390625 64.90625 56.089844 63.3125 56.84375 62.140625 C 55.863281 63.273438 54.078125 65.152344 53.117188 63.800781 C 52.933594 63.542969 53.066406 63.027344 53.15625 62.738281 C 52.628906 63.601562 52.488281 64.167969 52.828125 64.503906 C 53.609375 65.285156 54.835938 64.324219 54.835938 64.324219 C 54.835938 64.324219 53.667969 66.058594 54.457031 66.84375 C 55.242188 67.628906 56.53125 66.277344 56.53125 66.277344 C 56.53125 66.277344 55.828125 67.546875 57.066406 68.011719 C 57.824219 68.300781 59.1875 67.40625 60.519531 66.167969 C 59.632812 66.558594 58.707031 67.746094 57.734375 66.910156"/><path fill="#D9AA87" d="M 63.679688 66.777344 C 63.441406 66.511719 63.257812 66.234375 63.472656 65.839844 C 64.476562 64.464844 65.648438 63.144531 66.71875 60.625 C 66.171875 61.867188 64.789062 63.542969 64.0625 64.605469 C 63.902344 64.835938 63.746094 65.058594 63.59375 65.273438 C 63.390625 65.550781 63.199219 65.8125 63.03125 66.058594 C 63.023438 66.066406 63.019531 66.074219 63.011719 66.085938 C 62.980469 66.132812 62.945312 66.179688 62.914062 66.230469 C 62.90625 66.242188 62.894531 66.257812 62.886719 66.273438 C 62.855469 66.316406 62.828125 66.363281 62.800781 66.40625 C 62.789062 66.421875 62.78125 66.4375 62.769531 66.453125 C 62.742188 66.496094 62.71875 66.535156 62.695312 66.578125 C 62.6875 66.59375 62.675781 66.613281 62.667969 66.628906 C 62.644531 66.667969 62.625 66.707031 62.605469 66.742188 C 62.59375 66.761719 62.585938 66.777344 62.578125 66.796875 C 62.558594 66.832031 62.542969 66.867188 62.527344 66.90625 C 62.515625 66.921875 62.511719 66.9375 62.503906 66.953125 C 62.488281 66.988281 62.476562 67.023438 62.460938 67.058594 C 62.457031 67.074219 62.453125 67.089844 62.445312 67.105469 C 62.433594 67.140625 62.425781 67.171875 62.417969 67.207031 C 62.414062 67.222656 62.410156 67.234375 62.40625 67.25 C 62.402344 67.28125 62.394531 67.316406 62.390625 67.347656 C 62.390625 67.359375 62.386719 67.375 62.386719 67.386719 C 62.386719 67.417969 62.382812 67.449219 62.382812 67.480469 C 62.382812 67.484375 62.382812 67.484375 62.382812 67.488281 C 62.382812 67.488281 62.382812 67.484375 62.386719 67.484375 C 62.390625 67.65625 62.453125 67.8125 62.589844 67.945312 C 63.234375 68.589844 65.296875 67.410156 67.03125 65.359375 C 66.023438 66.1875 64.554688 67.488281 63.679688 66.777344"/><path fill="#D9AA87" d="M 71.550781 59.246094 C 71.894531 58.746094 72.140625 58.371094 72.226562 58.207031 C 71.953125 57.339844 72.035156 56.378906 71.796875 55.414062 C 71.3125 56.617188 71.265625 57.925781 71.550781 59.246094"/><path fill="#A67A6A" d="M 60.300781 57.332031 C 60.371094 57.363281 59.484375 59.179688 57.933594 61.109375 C 56.398438 63.054688 54.890625 64.390625 54.835938 64.324219 C 54.777344 64.265625 56.179688 62.851562 57.695312 60.925781 C 59.230469 59.011719 60.222656 57.289062 60.300781 57.332031"/><path fill="#A67A6A" d="M 63.003906 58.578125 C 63.078125 58.613281 61.976562 60.621094 60.132812 62.734375 C 58.3125 64.859375 56.585938 66.339844 56.53125 66.277344 C 56.476562 66.214844 58.097656 64.644531 59.902344 62.539062 C 61.730469 60.441406 62.929688 58.535156 63.003906 58.578125"/><path fill="#A67A6A" d="M 71.828125 55.078125 C 71.925781 55.09375 71.875 55.785156 71.984375 56.613281 C 72.078125 57.449219 72.332031 58.082031 72.261719 58.121094 C 72.191406 58.171875 71.785156 57.539062 71.683594 56.652344 C 71.570312 55.769531 71.761719 55.066406 71.828125 55.078125"/><path fill="#E7465D" d="M 66.171875 54.679688 C 65.734375 58.28125 68.929688 58.984375 70.117188 56.316406 C 71.300781 53.644531 69.042969 50.332031 69.042969 50.332031 C 69.042969 50.332031 65.101562 49.5625 63.113281 51.703125 C 61.121094 53.84375 63.027344 56.5 66.171875 54.679688"/><path fill="#EE7385" d="M 69.414062 56.03125 C 70.195312 55.105469 70.121094 53.320312 69.238281 52.09375 C 69.558594 53.273438 69.695312 54.800781 69.414062 56.03125"/><path fill="#D43452" d="M 66.40625 54.28125 C 63.65625 55.871094 61.851562 54.039062 62.777344 52.121094 C 61.371094 54.164062 63.226562 56.382812 66.171875 54.679688 C 65.742188 58.207031 68.800781 58.953125 70.039062 56.472656 C 68.6875 58.453125 66 57.601562 66.40625 54.28125"/></svg>