<svg xmlns="http://www.w3.org/2000/svg" xmlns:xlink="http://www.w3.org/1999/xlink" width="150" zoomAndPan="magnify" viewBox="0 0 112.5 112.499997" height="150" preserveAspectRatio="xMidYMid meet" version="1.0"><defs><clipPath id="id1"><path d="M 0 0 L 112.003906 0 L 112.003906 112.003906 L 0 112.003906 Z M 0 0 " clip-rule="nonzero"/></clipPath><clipPath id="id2"><path d="M 61 93 L 72 93 L 72 99.75 L 61 99.75 Z M 61 93 " clip-rule="nonzero"/></clipPath><clipPath id="id3"><path d="M 76 11.25 L 101.25 11.25 L 101.25 39 L 76 39 Z M 76 11.25 " clip-rule="nonzero"/></clipPath><clipPath id="id4"><path d="M 11.25 18 L 30 18 L 30 53 L 11.25 53 Z M 11.25 18 " clip-rule="nonzero"/></clipPath></defs><g clip-path="url(#id1)"><path fill="#ffffff" d="M 0 0 L 112.5 0 L 112.5 120 L 0 120 Z M 0 0 " fill-opacity="1" fill-rule="nonzero"/><path fill="#ffffff" d="M 0 0 L 112.5 0 L 112.5 112.5 L 0 112.5 Z M 0 0 " fill-opacity="1" fill-rule="nonzero"/><path fill="#ffffff" d="M 0 0 L 112.5 0 L 112.5 112.5 L 0 112.5 Z M 0 0 " fill-opacity="1" fill-rule="nonzero"/><path fill="#ffffff" d="M 0 0 L 112.5 0 L 112.5 112.5 L 0 112.5 Z M 0 0 " fill-opacity="1" fill-rule="nonzero"/></g><path fill="#100f0d" d="M 44.132812 90.945312 L 41.414062 89.128906 C 43.277344 86.328125 43.941406 82.964844 43.285156 79.660156 L 42.804688 77.261719 L 46.007812 76.625 L 46.488281 79.019531 C 47.316406 83.175781 46.480469 87.417969 44.132812 90.945312 Z M 83.164062 50.9375 C 81.917969 44.5 78.25 38.929688 72.828125 35.253906 C 68.730469 32.480469 63.996094 31.039062 59.160156 31.039062 C 57.597656 31.039062 56.019531 31.1875 54.457031 31.488281 C 41.191406 34.058594 32.488281 46.96875 35.054688 60.253906 L 37.425781 72.574219 C 39.011719 80.792969 38.261719 89.144531 35.269531 96.890625 L 59.511719 92.199219 L 72.339844 89.710938 L 95.246094 85.273438 C 90.578125 79.589844 87.375 72.792969 85.984375 65.546875 L 83.164062 50.9375 " fill-opacity="1" fill-rule="nonzero"/><g clip-path="url(#id2)"><path fill="#100f0d" d="M 61.738281 95.101562 C 62.246094 97.761719 64.824219 99.5 67.472656 98.988281 C 70.128906 98.476562 71.871094 95.894531 71.359375 93.234375 L 61.738281 95.101562 " fill-opacity="1" fill-rule="nonzero"/></g><path fill="#100f0d" d="M 47.566406 30.316406 C 49.539062 29.417969 51.625 28.707031 53.839844 28.277344 C 56.046875 27.851562 58.246094 27.726562 60.402344 27.832031 L 60.25 27.03125 C 59.582031 23.558594 56.238281 21.15625 52.582031 21.851562 C 50.878906 22.179688 49.398438 23.15625 48.421875 24.609375 C 47.445312 26.058594 47.085938 27.804688 47.417969 29.523438 L 47.566406 30.316406 " fill-opacity="1" fill-rule="nonzero"/><path fill="#100f0d" d="M 94.417969 37.59375 C 94.628906 36.527344 94.730469 35.453125 94.730469 34.382812 C 94.730469 25.355469 87.40625 18.015625 78.398438 18.015625 C 78.121094 18.015625 77.847656 18.035156 77.578125 18.054688 L 77.382812 18.066406 L 77.585938 21.335938 L 77.804688 21.320312 C 78 21.300781 78.199219 21.289062 78.398438 21.289062 C 85.605469 21.289062 91.464844 27.164062 91.464844 34.382812 C 91.464844 35.234375 91.378906 36.097656 91.207031 36.953125 L 94.417969 37.59375 " fill-opacity="1" fill-rule="nonzero"/><g clip-path="url(#id3)"><path fill="#100f0d" d="M 78.398438 11.46875 C 78.019531 11.46875 77.648438 11.492188 77.28125 11.519531 L 76.972656 11.539062 L 77.179688 14.804688 L 77.507812 14.785156 C 77.804688 14.769531 78.097656 14.742188 78.398438 14.742188 C 89.203125 14.742188 97.996094 23.554688 97.996094 34.382812 C 97.996094 35.664062 97.871094 36.960938 97.613281 38.234375 L 100.824219 38.875 C 101.117188 37.390625 101.265625 35.875 101.265625 34.382812 C 101.265625 21.75 91.011719 11.46875 78.398438 11.46875 " fill-opacity="1" fill-rule="nonzero"/></g><path fill="#100f0d" d="M 88.003906 36.308594 C 88.132812 35.664062 88.195312 35.015625 88.195312 34.382812 C 88.195312 28.96875 83.800781 24.5625 78.398438 24.5625 C 78.222656 24.5625 78.050781 24.582031 77.785156 24.613281 L 78 27.886719 C 78.109375 27.875 78.21875 27.863281 78.398438 27.835938 C 82 27.835938 84.929688 30.773438 84.929688 34.382812 C 84.929688 34.804688 84.886719 35.234375 84.800781 35.667969 L 88.003906 36.308594 " fill-opacity="1" fill-rule="nonzero"/><path fill="#100f0d" d="M 30.664062 28.527344 C 30.863281 28.464844 31.054688 28.414062 31.246094 28.363281 L 31.449219 28.308594 L 30.605469 25.144531 L 30.429688 25.195312 C 30.160156 25.261719 29.890625 25.332031 29.625 25.425781 C 21.085938 28.289062 16.460938 37.582031 19.328125 46.144531 C 19.65625 47.148438 20.105469 48.136719 20.640625 49.078125 L 23.480469 47.460938 C 23.046875 46.699219 22.6875 45.90625 22.421875 45.101562 C 20.128906 38.253906 23.832031 30.824219 30.664062 28.527344 " fill-opacity="1" fill-rule="nonzero"/><g clip-path="url(#id4)"><path fill="#100f0d" d="M 17.273438 32.183594 C 19.601562 27.484375 23.625 23.988281 28.589844 22.320312 C 28.882812 22.222656 29.179688 22.144531 29.476562 22.0625 L 29.765625 21.992188 L 28.929688 18.828125 L 28.65625 18.898438 C 28.285156 18.996094 27.921875 19.089844 27.550781 19.210938 C 21.757812 21.15625 17.066406 25.246094 14.34375 30.726562 C 11.617188 36.199219 11.191406 42.414062 13.132812 48.222656 C 13.601562 49.632812 14.222656 51.023438 14.976562 52.339844 L 17.808594 50.714844 C 17.164062 49.582031 16.628906 48.394531 16.226562 47.179688 C 14.566406 42.203125 14.9375 36.878906 17.273438 32.183594 " fill-opacity="1" fill-rule="nonzero"/></g><path fill="#100f0d" d="M 31.699219 31.636719 C 26.574219 33.347656 23.804688 38.929688 25.515625 44.058594 C 25.71875 44.667969 25.988281 45.261719 26.3125 45.824219 L 29.144531 44.199219 C 28.929688 43.816406 28.75 43.417969 28.617188 43.023438 C 27.472656 39.601562 29.324219 35.878906 32.808594 34.722656 C 32.917969 34.703125 33.03125 34.679688 33.140625 34.652344 L 32.203125 31.507812 C 32.035156 31.539062 31.863281 31.578125 31.699219 31.636719 " fill-opacity="1" fill-rule="nonzero"/></svg>