<svg xmlns="http://www.w3.org/2000/svg" width="112.5" viewBox="0 0 112.5 112.5" height="112.5" version="1.0"><defs><clipPath id="a"><path d="M 0 0 L 112.003906 0 L 112.003906 112.003906 L 0 112.003906 Z M 0 0"/></clipPath><clipPath id="b"><path d="M 16 24 L 72 24 L 72 95.839844 L 16 95.839844 Z M 16 24"/></clipPath><clipPath id="c"><path d="M 16 16.339844 L 72 16.339844 L 72 88 L 16 88 Z M 16 16.339844"/></clipPath><clipPath id="d"><path d="M 47 46 L 96.238281 46 L 96.238281 95.839844 L 47 95.839844 Z M 47 46"/></clipPath></defs><g clip-path="url(#a)"><path fill="#FFF" d="M 0 0 L 112.5 0 L 112.5 112.5 L 0 112.5 Z M 0 0"/><path d="M 0 0 L 112.5 0 L 112.5 112.5 L 0 112.5 Z M 0 0"/></g><path fill="#FFF" d="M 17.21875 25.246094 L 70.472656 25.246094 L 70.472656 94.90625 L 17.21875 94.90625 Z M 17.21875 25.246094"/><path fill="#93A3A2" d="M 70.476562 25.246094 L 70.476562 94.90625 L 17.21875 94.90625"/><g clip-path="url(#b)"><path stroke-linecap="round" transform="matrix(.62935 0 0 .62896 12.092 12.065)" fill="none" stroke-linejoin="round" d="M 8.146912 20.957744 L 92.764887 20.957744 L 92.764887 131.71303 L 8.146912 131.71303 Z M 8.146912 20.957744" stroke="#33363A" stroke-width="3" stroke-miterlimit="10"/></g><path fill="#FFF" d="M 17.21875 21.328125 L 70.472656 21.328125 L 70.472656 91 L 17.21875 91 Z M 17.21875 21.328125"/><path fill="#C0CCCC" d="M 70.476562 21.328125 L 70.476562 91 L 17.21875 91"/><path stroke-linecap="round" transform="matrix(.62935 0 0 .62896 12.092 12.065)" fill="none" stroke-linejoin="round" d="M 8.146912 14.728419 L 92.764887 14.728419 L 92.764887 125.502337 L 8.146912 125.502337 Z M 8.146912 14.728419" stroke="#33363A" stroke-width="3" stroke-miterlimit="10"/><path fill="#FFF" d="M 17.21875 17.273438 L 70.472656 17.273438 L 70.472656 86.941406 L 17.21875 86.941406 Z M 17.21875 17.273438"/><path fill="#EAEFEF" d="M 70.476562 17.273438 L 70.476562 86.941406 L 17.21875 86.941406"/><path stroke-linecap="round" transform="matrix(.62935 0 0 .62896 12.092 12.065)" fill="none" stroke-linejoin="round" d="M 24.775061 27.659082 L 76.142945 27.659082" stroke="#A7B4BC" stroke-width="3" stroke-miterlimit="10"/><path stroke-linecap="round" transform="matrix(.62935 0 0 .62896 12.092 12.065)" fill="none" stroke-linejoin="round" d="M 24.775061 39.664351 L 76.142945 39.664351" stroke="#676E75" stroke-width="3" stroke-miterlimit="10"/><path stroke-linecap="round" transform="matrix(.62935 0 0 .62896 12.092 12.065)" fill="none" stroke-linejoin="round" d="M 24.775061 51.66341 L 76.142945 51.66341" stroke="#A7B4BC" stroke-width="3" stroke-miterlimit="10"/><path stroke-linecap="round" transform="matrix(.62935 0 0 .62896 12.092 12.065)" fill="none" stroke-linejoin="round" d="M 24.775061 63.662468 L 76.142945 63.662468" stroke="#676E75" stroke-width="3" stroke-miterlimit="10"/><path stroke-linecap="round" transform="matrix(.62935 0 0 .62896 12.092 12.065)" fill="none" stroke-linejoin="round" d="M 24.775061 75.661527 L 76.142945 75.661527" stroke="#A7B4BC" stroke-width="3" stroke-miterlimit="10"/><path stroke-linecap="round" transform="matrix(.62935 0 0 .62896 12.092 12.065)" fill="none" stroke-linejoin="round" d="M 24.775061 87.660585 L 76.142945 87.660585" stroke="#676E75" stroke-width="3" stroke-miterlimit="10"/><path stroke-linecap="round" transform="matrix(.62935 0 0 .62896 12.092 12.065)" fill="none" stroke-linejoin="round" d="M 24.775061 99.659644 L 76.142945 99.659644" stroke="#A7B4BC" stroke-width="3" stroke-miterlimit="10"/><g clip-path="url(#c)"><path stroke-linecap="round" transform="matrix(.62935 0 0 .62896 12.092 12.065)" fill="none" stroke-linejoin="round" d="M 8.146912 8.28172 L 92.764887 8.28172 L 92.764887 119.049427 L 8.146912 119.049427 Z M 8.146912 8.28172" stroke="#33363A" stroke-width="3" stroke-miterlimit="10"/></g><path fill="#AAE000" d="M 95.070312 71.394531 C 95.070312 72.164062 95.03125 72.933594 94.957031 73.699219 C 94.882812 74.464844 94.769531 75.226562 94.617188 75.980469 C 94.46875 76.738281 94.28125 77.484375 94.058594 78.21875 C 93.832031 78.957031 93.574219 79.683594 93.277344 80.394531 C 92.984375 81.105469 92.65625 81.800781 92.292969 82.480469 C 91.929688 83.160156 91.53125 83.820312 91.105469 84.460938 C 90.675781 85.097656 90.21875 85.71875 89.730469 86.3125 C 89.238281 86.90625 88.722656 87.476562 88.179688 88.023438 C 87.632812 88.566406 87.0625 89.085938 86.46875 89.574219 C 85.871094 90.0625 85.253906 90.519531 84.613281 90.949219 C 83.972656 91.375 83.3125 91.769531 82.632812 92.132812 C 81.953125 92.496094 81.253906 92.824219 80.542969 93.121094 C 79.832031 93.414062 79.105469 93.675781 78.371094 93.898438 C 77.632812 94.121094 76.886719 94.308594 76.128906 94.457031 C 75.375 94.609375 74.613281 94.722656 73.84375 94.796875 C 73.078125 94.871094 72.308594 94.910156 71.539062 94.910156 C 70.769531 94.910156 70 94.871094 69.230469 94.796875 C 68.464844 94.722656 67.703125 94.609375 66.949219 94.457031 C 66.191406 94.308594 65.445312 94.121094 64.707031 93.898438 C 63.96875 93.675781 63.246094 93.414062 62.535156 93.121094 C 61.820312 92.824219 61.125 92.496094 60.445312 92.132812 C 59.765625 91.769531 59.105469 91.375 58.464844 90.949219 C 57.824219 90.519531 57.207031 90.0625 56.609375 89.574219 C 56.015625 89.085938 55.445312 88.566406 54.898438 88.023438 C 54.355469 87.476562 53.835938 86.90625 53.347656 86.3125 C 52.859375 85.71875 52.402344 85.097656 51.972656 84.460938 C 51.546875 83.820312 51.148438 83.160156 50.785156 82.480469 C 50.421875 81.800781 50.09375 81.105469 49.800781 80.394531 C 49.503906 79.683594 49.246094 78.957031 49.019531 78.21875 C 48.796875 77.484375 48.609375 76.738281 48.460938 75.980469 C 48.308594 75.226562 48.195312 74.464844 48.121094 73.699219 C 48.046875 72.933594 48.007812 72.164062 48.007812 71.394531 C 48.007812 70.625 48.046875 69.855469 48.121094 69.089844 C 48.195312 68.324219 48.308594 67.5625 48.460938 66.804688 C 48.609375 66.050781 48.796875 65.304688 49.019531 64.566406 C 49.246094 63.832031 49.503906 63.105469 49.800781 62.394531 C 50.09375 61.683594 50.421875 60.988281 50.785156 60.308594 C 51.148438 59.628906 51.546875 58.96875 51.972656 58.328125 C 52.402344 57.6875 52.859375 57.070312 53.347656 56.476562 C 53.835938 55.878906 54.355469 55.308594 54.898438 54.765625 C 55.445312 54.21875 56.015625 53.703125 56.609375 53.214844 C 57.207031 52.726562 57.824219 52.269531 58.464844 51.839844 C 59.105469 51.414062 59.765625 51.015625 60.445312 50.652344 C 61.125 50.292969 61.820312 49.960938 62.535156 49.667969 C 63.246094 49.371094 63.96875 49.113281 64.707031 48.890625 C 65.445312 48.667969 66.191406 48.480469 66.949219 48.328125 C 67.703125 48.179688 68.464844 48.066406 69.230469 47.992188 C 70 47.914062 70.769531 47.878906 71.539062 47.878906 C 72.308594 47.878906 73.078125 47.914062 73.84375 47.992188 C 74.613281 48.066406 75.375 48.179688 76.128906 48.328125 C 76.886719 48.480469 77.632812 48.667969 78.371094 48.890625 C 79.105469 49.113281 79.832031 49.371094 80.542969 49.667969 C 81.253906 49.960938 81.953125 50.292969 82.632812 50.652344 C 83.3125 51.015625 83.972656 51.414062 84.613281 51.839844 C 85.253906 52.269531 85.871094 52.726562 86.46875 53.214844 C 87.0625 53.703125 87.632812 54.21875 88.179688 54.765625 C 88.722656 55.308594 89.238281 55.878906 89.730469 56.476562 C 90.21875 57.070312 90.675781 57.6875 91.105469 58.328125 C 91.53125 58.96875 91.929688 59.628906 92.292969 60.308594 C 92.65625 60.988281 92.984375 61.683594 93.277344 62.394531 C 93.574219 63.105469 93.832031 63.832031 94.058594 64.566406 C 94.28125 65.304688 94.46875 66.050781 94.617188 66.804688 C 94.769531 67.5625 94.882812 68.324219 94.957031 69.089844 C 95.03125 69.855469 95.070312 70.625 95.070312 71.394531 Z M 95.070312 71.394531"/><path fill="#72CE06" d="M 48.007812 71.394531 C 48.007812 84.382812 58.542969 94.910156 71.539062 94.910156 L 71.539062 47.878906 C 58.542969 47.878906 48.007812 58.40625 48.007812 71.394531 Z M 48.007812 71.394531"/><g clip-path="url(#d)"><path stroke-linecap="round" transform="matrix(.62935 0 0 .62896 12.092 12.065)" fill="none" stroke-linejoin="round" d="M 131.849416 94.33087 C 131.849416 95.554376 131.787347 96.777883 131.669417 97.995178 C 131.551487 99.212474 131.371488 100.423559 131.129421 101.622223 C 130.893561 102.827097 130.595632 104.01334 130.241842 105.18095 C 129.881845 106.354771 129.472193 107.50996 129.000472 108.640306 C 128.534958 109.770652 128.013583 110.876155 127.436346 111.956816 C 126.859109 113.037476 126.226011 114.087084 125.549464 115.105637 C 124.866711 116.11798 124.140509 117.10548 123.364653 118.049506 C 122.58259 118.993531 121.763286 119.900292 120.900534 120.769789 C 120.031575 121.633075 119.125375 122.459098 118.181934 123.235434 C 117.232286 124.011771 116.251604 124.738422 115.233681 125.421598 C 114.215757 126.098564 113.1668 126.725844 112.086808 127.303438 C 111.006816 127.881032 109.89579 128.402731 108.766144 128.874743 C 107.636497 129.340545 106.482023 129.756662 105.315136 130.110671 C 104.142041 130.464681 102.956533 130.762794 101.752404 130.9988 C 100.554482 131.241017 99.344147 131.421127 98.121398 131.539131 C 96.904855 131.657134 95.682106 131.719241 94.459357 131.719241 C 93.236607 131.719241 92.013858 131.657134 90.791109 131.539131 C 89.574566 131.421127 88.364231 131.241017 87.166309 130.9988 C 85.96218 130.762794 84.776672 130.464681 83.603577 130.110671 C 82.430483 129.756662 81.282216 129.340545 80.152569 128.874743 C 79.016716 128.402731 77.911897 127.881032 76.831905 127.303438 C 75.751913 126.725844 74.702956 126.098564 73.685032 125.421598 C 72.667109 124.738422 71.686427 124.011771 70.736779 123.235434 C 69.793338 122.459098 68.887138 121.633075 68.018179 120.769789 C 67.155427 119.900292 66.329916 118.993531 65.55406 118.049506 C 64.778204 117.10548 64.052003 116.11798 63.369249 115.105637 C 62.692703 114.087084 62.059604 113.037476 61.482367 111.956816 C 60.90513 110.876155 60.383755 109.770652 59.918241 108.640306 C 59.44652 107.50996 59.036868 106.354771 58.676871 105.18095 C 58.323081 104.01334 58.025152 102.827097 57.789292 101.622223 C 57.547225 100.423559 57.367226 99.212474 57.249296 97.995178 C 57.131366 96.777883 57.069297 95.554376 57.069297 94.33087 C 57.069297 93.107363 57.131366 91.883857 57.249296 90.666561 C 57.367226 89.449265 57.547225 88.23818 57.789292 87.033305 C 58.025152 85.834642 58.323081 84.648399 58.676871 83.474578 C 59.036868 82.306968 59.44652 81.151779 59.918241 80.021433 C 60.383755 78.891087 60.90513 77.785584 61.482367 76.704923 C 62.059604 75.624263 62.692703 74.574656 63.369249 73.556102 C 64.052003 72.537548 64.778204 71.556259 65.55406 70.612233 C 66.329916 69.661997 67.155427 68.755236 68.018179 67.89195 C 68.887138 67.022453 69.793338 66.202642 70.736779 65.426305 C 71.686427 64.649968 72.667109 63.923317 73.685032 63.240141 C 74.702956 62.563176 75.751913 61.929685 76.831905 61.35209 C 77.911897 60.780707 79.016716 60.252798 80.152569 59.786996 C 81.282216 59.314983 82.430483 58.905077 83.603577 58.551068 C 84.776672 58.197058 85.96218 57.898945 87.166309 57.656728 C 88.364231 57.420722 89.574566 57.240612 90.791109 57.122609 C 92.013858 56.998395 93.236607 56.942499 94.459357 56.942499 C 95.682106 56.942499 96.904855 56.998395 98.121398 57.122609 C 99.344147 57.240612 100.554482 57.420722 101.752404 57.656728 C 102.956533 57.898945 104.142041 58.197058 105.315136 58.551068 C 106.482023 58.905077 107.636497 59.314983 108.766144 59.786996 C 109.89579 60.252798 111.006816 60.780707 112.086808 61.35209 C 113.1668 61.929685 114.215757 62.563176 115.233681 63.240141 C 116.251604 63.923317 117.232286 64.649968 118.181934 65.426305 C 119.125375 66.202642 120.031575 67.022453 120.900534 67.89195 C 121.763286 68.755236 122.58259 69.661997 123.364653 70.612233 C 124.140509 71.556259 124.866711 72.537548 125.549464 73.556102 C 126.226011 74.574656 126.859109 75.624263 127.436346 76.704923 C 128.013583 77.785584 128.534958 78.891087 129.000472 80.021433 C 129.472193 81.151779 129.881845 82.306968 130.241842 83.474578 C 130.595632 84.648399 130.893561 85.834642 131.129421 87.033305 C 131.371488 88.23818 131.551487 89.449265 131.669417 90.666561 C 131.787347 91.883857 131.849416 93.107363 131.849416 94.33087 Z M 131.849416 94.33087" stroke="#33363A" stroke-width="3" stroke-miterlimit="10"/></g><path fill="#72CE06" d="M 35.664062 71.394531 L 49.839844 64.6875 L 56.550781 71.394531 L 49.839844 78.101562 Z M 35.664062 71.394531"/><path stroke-linecap="round" transform="matrix(.62935 0 0 .62896 12.092 12.065)" fill="none" stroke-linejoin="round" d="M 59.980309 105.00084 L 37.455654 94.33708 L 59.980309 83.66711" stroke="#33363A" stroke-width="3" stroke-miterlimit="10"/><path fill="#F3FFC0" d="M 67.867188 84.117188 C 66.863281 84.117188 65.902344 83.71875 65.191406 83.007812 L 58.394531 76.214844 C 56.914062 74.738281 56.914062 72.34375 58.394531 70.867188 C 59.871094 69.390625 62.265625 69.390625 63.746094 70.867188 L 67.867188 74.988281 L 80.347656 62.511719 C 81.824219 61.035156 84.222656 61.035156 85.699219 62.511719 C 87.179688 63.992188 87.179688 66.386719 85.699219 67.863281 L 70.542969 83.007812 C 69.832031 83.71875 68.871094 84.117188 67.867188 84.117188 Z M 67.867188 84.117188"/><path fill="#FFF" d="M 80.351562 62.511719 L 67.871094 74.984375 L 63.746094 70.863281 C 62.269531 69.386719 59.875 69.386719 58.394531 70.863281 C 58.363281 70.898438 58.332031 70.933594 58.300781 70.96875 C 58.332031 71.003906 58.363281 71.039062 58.394531 71.074219 L 65.195312 77.867188 C 65.902344 78.578125 66.867188 78.976562 67.871094 78.976562 C 68.875 78.976562 69.835938 78.578125 70.546875 77.867188 L 85.703125 62.71875 C 85.734375 62.6875 85.765625 62.648438 85.796875 62.617188 C 85.765625 62.578125 85.734375 62.542969 85.703125 62.511719 C 84.222656 61.03125 81.828125 61.03125 80.351562 62.511719 Z M 80.351562 62.511719"/><path stroke-linecap="round" transform="matrix(.62935 0 0 .62896 12.092 12.065)" fill="none" stroke-linejoin="round" d="M 88.624918 114.559096 C 87.029758 114.559096 85.502873 113.925606 84.373227 112.795259 L 73.573309 101.994865 C 71.220913 99.647223 71.220913 95.840068 73.573309 93.492426 C 75.919498 91.144784 79.724297 91.144784 82.076692 93.492426 L 88.624918 100.044707 L 108.455801 80.207754 C 110.80199 77.860112 114.612996 77.860112 116.959185 80.207754 C 119.311581 82.561607 119.311581 86.368761 116.959185 88.716403 L 92.87661 112.795259 C 91.746963 113.925606 90.220079 114.559096 88.624918 114.559096 Z M 88.624918 114.559096" stroke="#33363A" stroke-width="3" stroke-miterlimit="10"/></svg>