<svg xmlns="http://www.w3.org/2000/svg" xmlns:xlink="http://www.w3.org/1999/xlink" width="150" zoomAndPan="magnify" viewBox="0 0 112.5 112.499997" height="150" preserveAspectRatio="xMidYMid meet" version="1.0"><defs><clipPath id="id1"><path d="M 37.226562 37.574219 L 101.132812 37.574219 L 101.132812 75.074219 L 37.226562 75.074219 Z M 37.226562 37.574219 " clip-rule="nonzero"/></clipPath><clipPath id="id2"><path d="M 11.25 42 L 33 42 L 33 46 L 11.25 46 Z M 11.25 42 " clip-rule="nonzero"/></clipPath></defs><g clip-path="url(#id1)"><path fill="#212121" d="M 42.144531 72.96875 C 41.75 72.96875 41.375 72.886719 41.039062 72.734375 L 60.617188 57.675781 L 66.175781 61.898438 C 67.066406 62.574219 68.128906 62.910156 69.191406 62.910156 C 70.261719 62.910156 71.335938 62.566406 72.230469 61.878906 L 77.636719 57.71875 L 97.398438 72.726562 C 97.054688 72.882812 96.671875 72.96875 96.269531 72.96875 Z M 39.570312 71.203125 C 39.449219 70.890625 39.382812 70.550781 39.382812 70.195312 L 39.382812 42.457031 C 39.382812 42.175781 39.425781 41.902344 39.503906 41.644531 L 58.875 56.351562 Z M 96.269531 39.6875 C 96.648438 39.6875 97.007812 39.761719 97.335938 39.902344 L 77.628906 55.066406 L 75.894531 56.398438 L 70.949219 60.203125 C 69.921875 60.996094 68.480469 61 67.445312 60.214844 L 62.347656 56.34375 L 60.609375 55.019531 L 40.84375 40.011719 C 41.230469 39.804688 41.675781 39.6875 42.144531 39.6875 Z M 99.03125 42.457031 L 99.03125 70.195312 C 99.03125 70.542969 98.964844 70.875 98.851562 71.179688 L 79.367188 56.386719 L 98.828125 41.417969 C 98.957031 41.738281 99.03125 42.089844 99.03125 42.457031 Z M 96.269531 37.574219 L 42.144531 37.574219 C 39.460938 37.574219 37.277344 39.765625 37.277344 42.457031 L 37.277344 70.195312 C 37.277344 72.890625 39.460938 75.082031 42.144531 75.082031 L 96.269531 75.082031 C 98.953125 75.082031 101.132812 72.890625 101.132812 70.195312 L 101.132812 42.457031 C 101.132812 39.765625 98.953125 37.574219 96.269531 37.574219 " fill-opacity="1" fill-rule="nonzero"/></g><g clip-path="url(#id2)"><path fill="#212121" d="M 31.558594 45.007812 L 12.460938 45.007812 C 11.855469 45.007812 11.367188 44.515625 11.367188 43.910156 C 11.367188 43.304688 11.855469 42.8125 12.460938 42.8125 L 31.558594 42.8125 C 32.160156 42.8125 32.652344 43.304688 32.652344 43.910156 C 32.652344 44.515625 32.160156 45.007812 31.558594 45.007812 " fill-opacity="1" fill-rule="nonzero"/></g><path fill="#212121" d="M 31.558594 50.328125 L 16.917969 50.328125 C 16.316406 50.328125 15.824219 49.835938 15.824219 49.230469 C 15.824219 48.625 16.316406 48.132812 16.917969 48.132812 L 31.558594 48.132812 C 32.160156 48.132812 32.652344 48.625 32.652344 49.230469 C 32.652344 49.835938 32.160156 50.328125 31.558594 50.328125 " fill-opacity="1" fill-rule="nonzero"/><path fill="#212121" d="M 31.558594 55.652344 L 22.386719 55.652344 C 21.785156 55.652344 21.292969 55.160156 21.292969 54.554688 C 21.292969 53.945312 21.785156 53.457031 22.386719 53.457031 L 31.558594 53.457031 C 32.160156 53.457031 32.652344 53.945312 32.652344 54.554688 C 32.652344 55.160156 32.160156 55.652344 31.558594 55.652344 " fill-opacity="1" fill-rule="nonzero"/></svg>