<svg xmlns="http://www.w3.org/2000/svg" xmlns:xlink="http://www.w3.org/1999/xlink" width="150" zoomAndPan="magnify" viewBox="0 0 112.5 112.499997" height="150" preserveAspectRatio="xMidYMid meet" version="1.0"><defs><clipPath id="id1"><path d="M 22 29.980469 L 25 29.980469 L 25 39 L 22 39 Z M 22 29.980469 " clip-rule="nonzero"/></clipPath><clipPath id="id2"><path d="M 11.25 41 L 20 41 L 20 44 L 11.25 44 Z M 11.25 41 " clip-rule="nonzero"/></clipPath><clipPath id="id3"><path d="M 85.605469 66.808594 L 101.21875 66.808594 L 101.21875 82.480469 L 85.605469 82.480469 Z M 85.605469 66.808594 " clip-rule="nonzero"/></clipPath></defs><path fill="#282828" d="M 87.6875 39.988281 L 28.859375 39.988281 C 24.691406 39.988281 21.300781 43.152344 21.300781 47.046875 L 21.300781 69.457031 C 21.300781 73.351562 24.691406 76.519531 28.859375 76.519531 L 86.292969 76.519531 L 85.796875 74.660156 L 28.859375 74.660156 C 25.714844 74.660156 23.15625 72.328125 23.15625 69.457031 L 23.15625 47.046875 C 23.15625 44.179688 25.714844 41.84375 28.859375 41.84375 L 87.6875 41.84375 C 90.832031 41.84375 93.390625 44.179688 93.390625 47.046875 L 93.390625 67.074219 L 95.246094 67.570312 L 95.246094 47.046875 C 95.246094 43.152344 91.855469 39.988281 87.6875 39.988281 " fill-opacity="1" fill-rule="nonzero"/><path fill="#282828" d="M 39.40625 52.910156 L 38.882812 54.566406 C 38.550781 54.453125 37.648438 53.910156 36.761719 53.910156 C 35.757812 53.910156 35.367188 54.648438 35.367188 55.109375 C 35.367188 57.09375 39.4375 57.128906 39.4375 60.164062 C 39.4375 62.199219 38.222656 63.414062 35.84375 63.414062 C 34.199219 63.414062 33.230469 62.742188 32.867188 62.609375 L 33.394531 60.953125 C 33.722656 61.066406 34.625 61.609375 35.511719 61.609375 C 36.300781 61.609375 37.121094 61.230469 37.121094 60.378906 C 37.121094 58.554688 33.050781 58.507812 33.050781 55.320312 C 33.050781 53.402344 34.332031 52.203125 36.515625 52.203125 C 38.160156 52.203125 39.046875 52.777344 39.40625 52.910156 " fill-opacity="1" fill-rule="nonzero"/><path fill="#282828" d="M 43.574219 63.203125 L 41.355469 63.203125 L 41.355469 54.929688 L 43.574219 54.601562 Z M 42.488281 53.515625 C 41.796875 53.515625 41.242188 52.972656 41.242188 52.1875 C 41.242188 51.398438 41.796875 50.839844 42.488281 50.839844 C 43.179688 50.839844 43.738281 51.398438 43.738281 52.1875 C 43.738281 52.972656 43.179688 53.515625 42.488281 53.515625 " fill-opacity="1" fill-rule="nonzero"/><path fill="#282828" d="M 50.433594 60.65625 L 50.433594 57.308594 C 49.84375 56.667969 49.511719 56.488281 49.039062 56.488281 C 48.003906 56.488281 47.820312 57.375 47.820312 59.066406 C 47.820312 60.921875 48.28125 61.527344 49.019531 61.527344 C 49.679688 61.527344 50.1875 61.035156 50.433594 60.65625 Z M 50.597656 55.914062 C 50.664062 55.535156 50.710938 55.140625 50.761719 54.761719 L 52.632812 54.761719 L 52.632812 63.890625 C 52.632812 66.074219 51.648438 67.160156 49.480469 67.160156 C 48.296875 67.160156 47.246094 66.828125 46.738281 66.648438 L 46.984375 65.140625 C 47.425781 65.285156 48.28125 65.5 49.085938 65.5 C 49.859375 65.5 50.449219 65.304688 50.449219 63.957031 L 50.449219 62.265625 L 50.433594 62.265625 C 50.007812 62.773438 49.203125 63.398438 48.167969 63.398438 C 46.6875 63.398438 45.523438 62.101562 45.523438 59.277344 C 45.523438 56.191406 46.902344 54.664062 48.460938 54.664062 C 49.414062 54.664062 49.988281 55.15625 50.597656 55.914062 " fill-opacity="1" fill-rule="nonzero"/><path fill="#282828" d="M 54.960938 54.761719 L 56.917969 54.761719 L 57.015625 55.847656 L 57.046875 55.847656 C 57.277344 55.632812 58.132812 54.582031 59.527344 54.582031 C 61.074219 54.582031 61.679688 55.535156 61.679688 57.523438 L 61.679688 63.203125 L 59.460938 63.203125 L 59.460938 58.0625 C 59.460938 56.847656 59.265625 56.503906 58.59375 56.503906 C 57.917969 56.503906 57.359375 57.191406 57.164062 57.421875 L 57.164062 63.203125 L 54.960938 63.203125 L 54.960938 54.761719 " fill-opacity="1" fill-rule="nonzero"/><path fill="#282828" d="M 66.945312 52.398438 L 69.230469 52.398438 L 69.230469 58.128906 C 69.230469 60.527344 69.34375 61.59375 70.609375 61.59375 C 71.890625 61.59375 71.972656 60.527344 71.972656 58.128906 L 71.972656 52.398438 L 74.222656 52.398438 L 74.222656 58.128906 C 74.222656 61.953125 73.269531 63.414062 70.609375 63.414062 C 67.964844 63.414062 66.945312 61.953125 66.945312 58.128906 L 66.945312 52.398438 " fill-opacity="1" fill-rule="nonzero"/><path fill="#282828" d="M 78.785156 57.390625 L 78.785156 61.59375 C 79.0625 61.722656 79.410156 61.808594 79.753906 61.808594 C 80.855469 61.808594 81.394531 61.035156 81.394531 59.046875 C 81.394531 57.09375 80.953125 56.453125 80.097656 56.453125 C 79.523438 56.453125 78.964844 57.078125 78.785156 57.390625 Z M 76.566406 54.761719 L 78.621094 54.761719 L 78.71875 55.878906 L 78.75 55.878906 C 79.046875 55.4375 79.851562 54.582031 81 54.582031 C 82.480469 54.582031 83.679688 55.914062 83.679688 58.867188 C 83.679688 61.96875 82.265625 63.398438 80.441406 63.398438 C 79.851562 63.398438 79.277344 63.285156 78.765625 63.070312 L 78.765625 66.960938 L 76.566406 66.960938 L 76.566406 54.761719 " fill-opacity="1" fill-rule="nonzero"/><g clip-path="url(#id1)"><path fill="#282828" d="M 23.644531 38.429688 C 23.140625 38.429688 22.730469 38.019531 22.730469 37.515625 L 22.730469 30.894531 C 22.730469 30.390625 23.140625 29.980469 23.644531 29.980469 L 23.671875 29.980469 C 24.175781 29.980469 24.585938 30.390625 24.585938 30.894531 L 24.585938 37.515625 C 24.585938 38.019531 24.175781 38.429688 23.671875 38.429688 L 23.644531 38.429688 " fill-opacity="1" fill-rule="nonzero"/></g><path fill="#282828" d="M 18.648438 38.269531 C 18.402344 38.269531 18.175781 38.175781 18.003906 38.003906 L 13.316406 33.320312 C 13.144531 33.148438 13.050781 32.917969 13.050781 32.675781 C 13.050781 32.429688 13.144531 32.203125 13.316406 32.027344 L 13.335938 32.007812 C 13.507812 31.835938 13.738281 31.742188 13.980469 31.742188 C 14.226562 31.742188 14.457031 31.835938 14.628906 32.007812 L 19.3125 36.691406 C 19.484375 36.863281 19.582031 37.09375 19.582031 37.335938 C 19.582031 37.582031 19.484375 37.808594 19.3125 37.984375 L 19.292969 38.003906 C 19.121094 38.175781 18.890625 38.269531 18.648438 38.269531 " fill-opacity="1" fill-rule="nonzero"/><g clip-path="url(#id2)"><path fill="#282828" d="M 12.199219 43.269531 C 11.695312 43.269531 11.285156 42.863281 11.285156 42.359375 L 11.285156 42.328125 C 11.285156 41.828125 11.695312 41.417969 12.199219 41.417969 L 18.824219 41.417969 C 19.328125 41.417969 19.738281 41.828125 19.738281 42.328125 L 19.738281 42.359375 C 19.738281 42.863281 19.328125 43.269531 18.824219 43.269531 L 12.199219 43.269531 " fill-opacity="1" fill-rule="nonzero"/></g><g clip-path="url(#id3)"><path fill="#282828" d="M 95.878906 73.558594 L 100.246094 70.832031 L 85.644531 66.921875 L 89.558594 81.515625 L 92.285156 77.152344 L 97.621094 82.484375 L 101.214844 78.890625 L 95.878906 73.558594 " fill-opacity="1" fill-rule="nonzero"/></g></svg>