<svg xmlns="http://www.w3.org/2000/svg" width="112.5" viewBox="0 0 112.5 112.5" height="112.5" version="1.0"><defs><clipPath id="a"><path d="M 0 0 L 112.003906 0 L 112.003906 112.003906 L 0 112.003906 Z M 0 0"/></clipPath><clipPath id="b"><path d="M 26.753906 34 L 86 34 L 86 86.003906 L 26.753906 86.003906 Z M 26.753906 34"/></clipPath><clipPath id="c"><path d="M 70 26.753906 L 83 26.753906 L 83 41 L 70 41 Z M 70 26.753906"/></clipPath><clipPath id="d"><path d="M 30 26.753906 L 43 26.753906 L 43 41 L 30 41 Z M 30 26.753906"/></clipPath></defs><g clip-path="url(#a)"><path fill="#FFF" d="M 0 0 L 112.5 0 L 112.5 112.5 L 0 112.5 Z M 0 0"/><path d="M 0 0 L 112.5 0 L 112.5 112.5 L 0 112.5 Z M 0 0"/></g><g clip-path="url(#b)"><path fill="#FFF" d="M 85 76.460938 L 84.046875 76.460938 L 84.046875 46.882812 C 84.046875 44.253906 81.90625 42.113281 79.277344 42.113281 L 68.78125 42.113281 L 68.78125 35.433594 C 68.78125 34.90625 68.351562 34.480469 67.828125 34.480469 L 44.929688 34.480469 C 44.402344 34.480469 43.972656 34.90625 43.972656 35.433594 L 43.972656 42.113281 L 33.480469 42.113281 C 30.847656 42.113281 28.707031 44.253906 28.707031 46.882812 L 28.707031 76.460938 L 27.753906 76.460938 C 27.226562 76.460938 26.800781 76.886719 26.800781 77.414062 L 26.800781 81.230469 C 26.800781 83.863281 28.941406 86.003906 31.570312 86.003906 L 81.183594 86.003906 C 83.8125 86.003906 85.953125 83.863281 85.953125 81.230469 L 85.953125 77.414062 C 85.953125 76.886719 85.527344 76.460938 85 76.460938 Z M 71.644531 54.277344 L 71.644531 66.921875 L 41.113281 66.921875 L 41.113281 54.277344 L 55.894531 62.972656 C 56.042969 63.058594 56.210938 63.105469 56.378906 63.105469 C 56.542969 63.105469 56.710938 63.058594 56.859375 62.972656 Z M 68.78125 53.746094 L 68.78125 49.589844 L 71.136719 52.363281 Z M 41.617188 52.363281 L 43.972656 49.589844 L 43.972656 53.746094 Z M 39.429688 51.992188 C 39.285156 52.164062 39.203125 52.382812 39.203125 52.609375 L 39.203125 67.875 C 39.203125 68.402344 39.628906 68.828125 40.15625 68.828125 L 72.597656 68.828125 C 73.125 68.828125 73.550781 68.402344 73.550781 67.875 L 73.550781 52.609375 C 73.550781 52.382812 73.472656 52.164062 73.324219 51.992188 L 69.792969 47.839844 L 78.320312 47.839844 L 78.320312 72.644531 L 34.433594 72.644531 L 34.433594 47.839844 L 42.960938 47.839844 Z M 66.871094 36.386719 L 66.871094 54.867188 L 56.378906 61.042969 L 45.882812 54.867188 L 45.882812 36.386719 Z M 30.617188 46.882812 C 30.617188 45.304688 31.902344 44.023438 33.480469 44.023438 L 43.972656 44.023438 L 43.972656 45.929688 L 33.480469 45.929688 C 32.953125 45.929688 32.523438 46.355469 32.523438 46.882812 L 32.523438 73.597656 C 32.523438 74.125 32.953125 74.554688 33.480469 74.554688 L 79.277344 74.554688 C 79.800781 74.554688 80.230469 74.125 80.230469 73.597656 L 80.230469 46.882812 C 80.230469 46.355469 79.800781 45.929688 79.277344 45.929688 L 68.78125 45.929688 L 68.78125 44.023438 L 79.277344 44.023438 C 80.855469 44.023438 82.136719 45.304688 82.136719 46.882812 L 82.136719 76.460938 L 66.871094 76.460938 C 66.621094 76.460938 66.375 76.5625 66.199219 76.742188 L 63.613281 79.324219 L 49.140625 79.324219 L 46.554688 76.742188 C 46.378906 76.5625 46.136719 76.460938 45.882812 76.460938 L 30.617188 76.460938 Z M 84.046875 81.230469 C 84.046875 82.808594 82.761719 84.09375 81.183594 84.09375 L 31.570312 84.09375 C 29.992188 84.09375 28.707031 82.808594 28.707031 81.230469 L 28.707031 78.371094 L 45.488281 78.371094 L 48.070312 80.953125 C 48.25 81.132812 48.492188 81.230469 48.746094 81.230469 L 64.011719 81.230469 C 64.261719 81.230469 64.507812 81.132812 64.683594 80.953125 L 67.265625 78.371094 L 84.046875 78.371094 Z M 84.046875 81.230469"/></g><path fill="#FFF" d="M 80.230469 80.277344 L 82.136719 80.277344 L 82.136719 82.1875 L 80.230469 82.1875 Z M 80.230469 80.277344"/><path fill="#FFF" d="M 76.414062 80.277344 L 78.320312 80.277344 L 78.320312 82.1875 L 76.414062 82.1875 Z M 76.414062 80.277344"/><g clip-path="url(#c)"><path fill="#FFF" d="M 71.644531 33.527344 L 73.550781 33.527344 L 73.550781 39.25 C 73.550781 39.777344 73.980469 40.203125 74.503906 40.203125 L 78.320312 40.203125 C 78.847656 40.203125 79.277344 39.777344 79.277344 39.25 L 79.277344 33.527344 L 81.183594 33.527344 C 81.570312 33.527344 81.917969 33.292969 82.066406 32.9375 C 82.214844 32.582031 82.132812 32.171875 81.859375 31.898438 L 77.089844 27.128906 C 76.714844 26.753906 76.113281 26.753906 75.738281 27.128906 L 70.96875 31.898438 C 70.695312 32.171875 70.613281 32.582031 70.761719 32.9375 C 70.910156 33.292969 71.257812 33.527344 71.644531 33.527344 Z M 76.414062 29.152344 L 78.878906 31.617188 L 78.320312 31.617188 C 77.796875 31.617188 77.367188 32.046875 77.367188 32.570312 L 77.367188 38.296875 L 75.460938 38.296875 L 75.460938 32.570312 C 75.460938 32.046875 75.03125 31.617188 74.503906 31.617188 L 73.945312 31.617188 Z M 76.414062 29.152344"/></g><g clip-path="url(#d)"><path fill="#FFF" d="M 31.570312 33.527344 L 33.480469 33.527344 L 33.480469 39.25 C 33.480469 39.777344 33.90625 40.203125 34.433594 40.203125 L 38.25 40.203125 C 38.777344 40.203125 39.203125 39.777344 39.203125 39.25 L 39.203125 33.527344 L 41.113281 33.527344 C 41.496094 33.527344 41.84375 33.292969 41.992188 32.9375 C 42.140625 32.582031 42.058594 32.171875 41.785156 31.898438 L 37.015625 27.128906 C 36.640625 26.753906 36.039062 26.753906 35.667969 27.128906 L 30.894531 31.898438 C 30.621094 32.171875 30.539062 32.582031 30.6875 32.9375 C 30.835938 33.292969 31.183594 33.527344 31.570312 33.527344 Z M 36.339844 29.152344 L 38.808594 31.617188 L 38.25 31.617188 C 37.722656 31.617188 37.296875 32.046875 37.296875 32.570312 L 37.296875 38.296875 L 35.386719 38.296875 L 35.386719 32.570312 C 35.386719 32.046875 34.960938 31.617188 34.433594 31.617188 L 33.875 31.617188 Z M 36.339844 29.152344"/></g><path fill="#FFF" d="M 56.378906 55.472656 L 58.285156 55.472656 L 58.285156 53.5625 L 56.378906 53.5625 C 53.746094 53.5625 51.605469 51.421875 51.605469 48.792969 L 51.605469 46.882812 C 51.605469 44.253906 53.746094 42.113281 56.378906 42.113281 C 59.007812 42.113281 61.148438 44.253906 61.148438 46.882812 L 61.148438 48.792969 C 61.148438 49.316406 60.71875 49.746094 60.195312 49.746094 C 59.667969 49.746094 59.238281 49.316406 59.238281 48.792969 L 59.238281 46.882812 C 59.238281 45.304688 57.957031 44.023438 56.378906 44.023438 C 54.800781 44.023438 53.515625 45.304688 53.515625 46.882812 L 53.515625 48.792969 C 53.515625 50.371094 54.800781 51.65625 56.378906 51.65625 C 57.113281 51.65625 57.777344 51.367188 58.285156 50.910156 C 58.792969 51.367188 59.457031 51.65625 60.195312 51.65625 C 61.773438 51.65625 63.054688 50.371094 63.054688 48.792969 L 63.054688 46.882812 C 63.054688 43.199219 60.058594 40.203125 56.378906 40.203125 C 52.695312 40.203125 49.699219 43.199219 49.699219 46.882812 L 49.699219 48.792969 C 49.699219 52.476562 52.695312 55.472656 56.378906 55.472656 Z M 56.378906 49.746094 C 55.851562 49.746094 55.421875 49.316406 55.421875 48.792969 L 55.421875 46.882812 C 55.421875 46.359375 55.851562 45.929688 56.378906 45.929688 C 56.902344 45.929688 57.332031 46.359375 57.332031 46.882812 L 57.332031 48.792969 C 57.332031 49.316406 56.902344 49.746094 56.378906 49.746094 Z M 56.378906 49.746094"/></svg>