<svg xmlns="http://www.w3.org/2000/svg" width="112.5" viewBox="0 0 112.5 112.5" height="112.5" version="1.0"><defs><clipPath id="a"><path d="M 0 0 L 112.003906 0 L 112.003906 112.003906 L 0 112.003906 Z M 0 0"/></clipPath><clipPath id="b"><path d="M 14.0625 72 L 50 72 L 50 98.8125 L 14.0625 98.8125 Z M 14.0625 72"/></clipPath><clipPath id="c"><path d="M 79 72 L 98.8125 72 L 98.8125 98.8125 L 79 98.8125 Z M 79 72"/></clipPath><clipPath id="d"><path d="M 16 14.0625 L 97 14.0625 L 97 58 L 16 58 Z M 16 14.0625"/></clipPath></defs><g clip-path="url(#a)"><path fill="#FFF" d="M 0 0 L 112.5 0 L 112.5 112.5 L 0 112.5 Z M 0 0"/><path d="M 0 0 L 112.5 0 L 112.5 112.5 L 0 112.5 Z M 0 0"/></g><g clip-path="url(#b)"><path fill="#52AEE8" d="M 15.429688 98.8125 L 48.234375 98.8125 C 48.417969 98.8125 48.589844 98.777344 48.757812 98.707031 C 48.925781 98.640625 49.074219 98.539062 49.203125 98.414062 C 49.332031 98.285156 49.429688 98.136719 49.5 97.96875 C 49.566406 97.800781 49.601562 97.625 49.601562 97.445312 L 49.601562 89.242188 C 49.601562 88.523438 49.484375 87.820312 49.261719 87.132812 C 49.035156 86.449219 48.707031 85.816406 48.28125 85.234375 C 47.855469 84.652344 47.347656 84.148438 46.761719 83.730469 C 46.175781 83.308594 45.539062 82.988281 44.851562 82.769531 C 45.734375 81.664062 46.179688 80.40625 46.183594 78.992188 C 46.183594 78.589844 46.144531 78.1875 46.066406 77.792969 C 45.988281 77.394531 45.871094 77.011719 45.71875 76.636719 C 45.5625 76.265625 45.375 75.910156 45.148438 75.574219 C 44.925781 75.238281 44.667969 74.929688 44.382812 74.640625 C 44.097656 74.355469 43.789062 74.101562 43.453125 73.878906 C 43.117188 73.652344 42.761719 73.464844 42.386719 73.308594 C 42.015625 73.15625 41.628906 73.039062 41.234375 72.957031 C 40.839844 72.878906 40.4375 72.839844 40.035156 72.839844 C 39.628906 72.839844 39.230469 72.878906 38.835938 72.957031 C 38.4375 73.039062 38.054688 73.15625 37.679688 73.308594 C 37.308594 73.464844 36.953125 73.652344 36.617188 73.878906 C 36.28125 74.101562 35.96875 74.355469 35.683594 74.640625 C 35.398438 74.929688 35.144531 75.238281 34.917969 75.574219 C 34.695312 75.910156 34.503906 76.265625 34.351562 76.636719 C 34.195312 77.011719 34.078125 77.394531 34 77.792969 C 33.921875 78.1875 33.882812 78.589844 33.882812 78.992188 C 33.890625 80.40625 34.332031 81.664062 35.214844 82.769531 C 33.832031 83.214844 32.703125 84.019531 31.832031 85.183594 C 30.960938 84.019531 29.835938 83.214844 28.449219 82.769531 C 29.332031 81.664062 29.777344 80.40625 29.78125 78.992188 C 29.78125 78.589844 29.742188 78.1875 29.664062 77.792969 C 29.585938 77.394531 29.46875 77.011719 29.3125 76.636719 C 29.160156 76.265625 28.96875 75.910156 28.746094 75.574219 C 28.519531 75.238281 28.265625 74.929688 27.980469 74.640625 C 27.695312 74.355469 27.382812 74.101562 27.046875 73.878906 C 26.710938 73.652344 26.359375 73.464844 25.984375 73.308594 C 25.613281 73.15625 25.226562 73.039062 24.832031 72.957031 C 24.433594 72.878906 24.035156 72.839844 23.632812 72.839844 C 23.226562 72.839844 22.828125 72.878906 22.429688 72.957031 C 22.035156 73.039062 21.648438 73.15625 21.277344 73.308594 C 20.902344 73.464844 20.550781 73.652344 20.214844 73.878906 C 19.878906 74.101562 19.566406 74.355469 19.28125 74.640625 C 18.996094 74.929688 18.742188 75.238281 18.515625 75.574219 C 18.292969 75.910156 18.101562 76.265625 17.949219 76.636719 C 17.792969 77.011719 17.675781 77.394531 17.597656 77.792969 C 17.519531 78.1875 17.480469 78.589844 17.480469 78.992188 C 17.484375 80.40625 17.929688 81.664062 18.8125 82.769531 C 18.125 82.988281 17.488281 83.308594 16.902344 83.730469 C 16.316406 84.148438 15.808594 84.652344 15.382812 85.234375 C 14.957031 85.816406 14.628906 86.449219 14.40625 87.132812 C 14.179688 87.820312 14.066406 88.523438 14.0625 89.242188 L 14.0625 97.445312 C 14.0625 97.625 14.097656 97.800781 14.167969 97.96875 C 14.234375 98.136719 14.335938 98.285156 14.460938 98.414062 C 14.589844 98.539062 14.738281 98.640625 14.90625 98.707031 C 15.074219 98.777344 15.25 98.8125 15.429688 98.8125 Z M 40.035156 75.574219 C 40.488281 75.574219 40.921875 75.660156 41.34375 75.835938 C 41.761719 76.007812 42.128906 76.253906 42.449219 76.574219 C 42.769531 76.894531 43.019531 77.265625 43.191406 77.683594 C 43.363281 78.101562 43.453125 78.539062 43.453125 78.992188 C 43.453125 79.445312 43.363281 79.882812 43.191406 80.300781 C 43.019531 80.71875 42.769531 81.089844 42.449219 81.410156 C 42.128906 81.730469 41.761719 81.976562 41.34375 82.148438 C 40.921875 82.324219 40.488281 82.410156 40.035156 82.410156 C 39.582031 82.410156 39.144531 82.324219 38.726562 82.148438 C 38.308594 81.976562 37.9375 81.730469 37.617188 81.410156 C 37.296875 81.089844 37.050781 80.71875 36.878906 80.300781 C 36.703125 79.882812 36.617188 79.445312 36.617188 78.992188 C 36.617188 78.539062 36.703125 78.101562 36.878906 77.683594 C 37.050781 77.265625 37.296875 76.898438 37.617188 76.578125 C 37.9375 76.257812 38.308594 76.007812 38.726562 75.835938 C 39.144531 75.660156 39.582031 75.574219 40.035156 75.574219 Z M 33.199219 89.242188 C 33.199219 88.976562 33.226562 88.707031 33.277344 88.445312 C 33.332031 88.179688 33.410156 87.925781 33.511719 87.675781 C 33.617188 87.425781 33.742188 87.191406 33.890625 86.964844 C 34.042969 86.742188 34.210938 86.535156 34.402344 86.34375 C 34.59375 86.15625 34.800781 85.984375 35.023438 85.835938 C 35.246094 85.6875 35.484375 85.558594 35.730469 85.457031 C 35.980469 85.351562 36.238281 85.277344 36.5 85.222656 C 36.765625 85.171875 37.03125 85.144531 37.300781 85.144531 L 42.769531 85.144531 C 43.039062 85.144531 43.304688 85.171875 43.566406 85.222656 C 43.832031 85.277344 44.089844 85.351562 44.335938 85.457031 C 44.585938 85.558594 44.820312 85.6875 45.046875 85.835938 C 45.269531 85.984375 45.476562 86.15625 45.667969 86.34375 C 45.855469 86.535156 46.027344 86.742188 46.175781 86.964844 C 46.324219 87.191406 46.453125 87.425781 46.554688 87.675781 C 46.660156 87.925781 46.738281 88.179688 46.789062 88.445312 C 46.84375 88.707031 46.867188 88.976562 46.867188 89.242188 L 46.867188 96.078125 L 33.199219 96.078125 Z M 23.632812 75.574219 C 24.085938 75.574219 24.519531 75.660156 24.9375 75.835938 C 25.359375 76.007812 25.726562 76.253906 26.046875 76.574219 C 26.367188 76.894531 26.613281 77.265625 26.789062 77.683594 C 26.960938 78.101562 27.046875 78.539062 27.046875 78.992188 C 27.046875 79.445312 26.960938 79.882812 26.789062 80.300781 C 26.613281 80.71875 26.367188 81.089844 26.046875 81.410156 C 25.726562 81.730469 25.359375 81.976562 24.9375 82.148438 C 24.519531 82.324219 24.085938 82.410156 23.632812 82.410156 C 23.179688 82.410156 22.742188 82.324219 22.324219 82.148438 C 21.90625 81.976562 21.535156 81.730469 21.214844 81.410156 C 20.894531 81.089844 20.648438 80.71875 20.472656 80.300781 C 20.300781 79.882812 20.214844 79.445312 20.214844 78.992188 C 20.214844 78.539062 20.300781 78.101562 20.476562 77.683594 C 20.648438 77.265625 20.894531 76.898438 21.214844 76.578125 C 21.535156 76.257812 21.90625 76.007812 22.324219 75.835938 C 22.742188 75.660156 23.179688 75.574219 23.632812 75.574219 Z M 16.796875 89.242188 C 16.796875 88.976562 16.824219 88.707031 16.875 88.445312 C 16.929688 88.179688 17.007812 87.925781 17.109375 87.675781 C 17.210938 87.425781 17.339844 87.191406 17.488281 86.964844 C 17.636719 86.742188 17.808594 86.535156 18 86.34375 C 18.1875 86.15625 18.394531 85.984375 18.621094 85.835938 C 18.84375 85.6875 19.078125 85.558594 19.328125 85.457031 C 19.578125 85.351562 19.832031 85.277344 20.097656 85.222656 C 20.363281 85.171875 20.628906 85.144531 20.898438 85.144531 L 26.363281 85.144531 C 26.632812 85.144531 26.902344 85.171875 27.164062 85.222656 C 27.429688 85.277344 27.683594 85.351562 27.933594 85.457031 C 28.183594 85.558594 28.417969 85.6875 28.640625 85.835938 C 28.867188 85.984375 29.074219 86.15625 29.261719 86.34375 C 29.453125 86.535156 29.625 86.742188 29.773438 86.964844 C 29.921875 87.191406 30.050781 87.425781 30.152344 87.675781 C 30.253906 87.925781 30.332031 88.179688 30.386719 88.445312 C 30.4375 88.707031 30.464844 88.976562 30.464844 89.242188 L 30.464844 96.078125 L 16.796875 96.078125 Z M 16.796875 89.242188"/></g><g clip-path="url(#c)"><path fill="#52AEE8" d="M 94.0625 82.769531 C 94.945312 81.664062 95.390625 80.40625 95.394531 78.992188 C 95.394531 78.589844 95.355469 78.1875 95.277344 77.792969 C 95.199219 77.394531 95.082031 77.011719 94.925781 76.636719 C 94.773438 76.265625 94.582031 75.910156 94.359375 75.574219 C 94.132812 75.238281 93.878906 74.929688 93.59375 74.640625 C 93.308594 74.355469 92.996094 74.101562 92.660156 73.878906 C 92.324219 73.652344 91.972656 73.464844 91.597656 73.308594 C 91.226562 73.15625 90.839844 73.039062 90.445312 72.957031 C 90.046875 72.878906 89.648438 72.839844 89.242188 72.839844 C 88.839844 72.839844 88.441406 72.878906 88.042969 72.957031 C 87.648438 73.039062 87.261719 73.15625 86.890625 73.308594 C 86.515625 73.464844 86.164062 73.652344 85.828125 73.878906 C 85.492188 74.101562 85.179688 74.355469 84.894531 74.640625 C 84.609375 74.929688 84.355469 75.238281 84.128906 75.574219 C 83.90625 75.910156 83.714844 76.265625 83.5625 76.636719 C 83.40625 77.011719 83.289062 77.394531 83.210938 77.792969 C 83.132812 78.1875 83.09375 78.589844 83.09375 78.992188 C 83.097656 80.40625 83.542969 81.664062 84.425781 82.769531 C 83.738281 82.988281 83.101562 83.308594 82.515625 83.730469 C 81.929688 84.148438 81.421875 84.652344 80.996094 85.234375 C 80.570312 85.816406 80.242188 86.449219 80.019531 87.132812 C 79.792969 87.820312 79.679688 88.523438 79.675781 89.242188 L 79.675781 97.445312 C 79.675781 97.625 79.710938 97.800781 79.777344 97.96875 C 79.847656 98.136719 79.949219 98.285156 80.074219 98.414062 C 80.203125 98.539062 80.351562 98.640625 80.519531 98.707031 C 80.6875 98.777344 80.859375 98.8125 81.042969 98.8125 L 97.445312 98.8125 C 97.625 98.8125 97.800781 98.777344 97.96875 98.707031 C 98.136719 98.640625 98.285156 98.539062 98.414062 98.414062 C 98.539062 98.285156 98.640625 98.136719 98.707031 97.96875 C 98.777344 97.800781 98.8125 97.625 98.8125 97.445312 L 98.8125 89.242188 C 98.808594 88.523438 98.695312 87.820312 98.46875 87.132812 C 98.246094 86.449219 97.917969 85.816406 97.492188 85.234375 C 97.066406 84.652344 96.558594 84.148438 95.972656 83.730469 C 95.386719 83.308594 94.75 82.988281 94.0625 82.769531 Z M 89.242188 75.574219 C 89.695312 75.574219 90.132812 75.660156 90.550781 75.835938 C 90.96875 76.007812 91.339844 76.253906 91.660156 76.574219 C 91.980469 76.894531 92.226562 77.265625 92.402344 77.683594 C 92.574219 78.101562 92.660156 78.539062 92.660156 78.992188 C 92.660156 79.445312 92.574219 79.882812 92.402344 80.300781 C 92.226562 80.71875 91.980469 81.089844 91.660156 81.410156 C 91.339844 81.730469 90.96875 81.976562 90.550781 82.148438 C 90.132812 82.324219 89.695312 82.410156 89.242188 82.410156 C 88.789062 82.410156 88.355469 82.324219 87.9375 82.148438 C 87.515625 81.976562 87.148438 81.730469 86.828125 81.410156 C 86.507812 81.089844 86.261719 80.71875 86.085938 80.300781 C 85.914062 79.882812 85.828125 79.445312 85.828125 78.992188 C 85.828125 78.539062 85.914062 78.101562 86.085938 77.683594 C 86.261719 77.265625 86.507812 76.898438 86.828125 76.578125 C 87.148438 76.257812 87.519531 76.007812 87.9375 75.835938 C 88.355469 75.660156 88.789062 75.574219 89.242188 75.574219 Z M 96.078125 96.078125 L 82.410156 96.078125 L 82.410156 89.242188 C 82.410156 88.976562 82.4375 88.707031 82.488281 88.445312 C 82.542969 88.179688 82.621094 87.925781 82.722656 87.675781 C 82.824219 87.425781 82.953125 87.191406 83.101562 86.964844 C 83.25 86.742188 83.421875 86.535156 83.613281 86.34375 C 83.800781 86.15625 84.007812 85.984375 84.234375 85.835938 C 84.457031 85.6875 84.691406 85.558594 84.941406 85.457031 C 85.191406 85.351562 85.445312 85.277344 85.710938 85.222656 C 85.972656 85.171875 86.242188 85.144531 86.511719 85.144531 L 91.976562 85.144531 C 92.246094 85.144531 92.511719 85.171875 92.777344 85.222656 C 93.042969 85.273438 93.296875 85.351562 93.546875 85.457031 C 93.796875 85.558594 94.03125 85.6875 94.253906 85.835938 C 94.480469 85.984375 94.6875 86.15625 94.875 86.34375 C 95.066406 86.535156 95.238281 86.742188 95.386719 86.964844 C 95.535156 87.191406 95.664062 87.425781 95.765625 87.675781 C 95.867188 87.925781 95.945312 88.179688 96 88.445312 C 96.050781 88.707031 96.078125 88.976562 96.078125 89.242188 Z M 96.078125 96.078125"/></g><g clip-path="url(#d)"><path fill="#52AEE8" d="M 96.078125 56.4375 L 96.078125 15.429688 C 96.078125 15.25 96.042969 15.074219 95.976562 14.90625 C 95.90625 14.738281 95.808594 14.589844 95.679688 14.460938 C 95.550781 14.335938 95.402344 14.234375 95.234375 14.167969 C 95.066406 14.097656 94.894531 14.0625 94.710938 14.0625 L 18.164062 14.0625 C 17.980469 14.0625 17.808594 14.097656 17.640625 14.167969 C 17.472656 14.234375 17.324219 14.335938 17.195312 14.460938 C 17.066406 14.589844 16.96875 14.738281 16.898438 14.90625 C 16.832031 15.074219 16.796875 15.25 16.796875 15.429688 L 16.796875 56.4375 C 16.796875 56.617188 16.832031 56.792969 16.898438 56.960938 C 16.96875 57.128906 17.066406 57.277344 17.195312 57.402344 C 17.324219 57.53125 17.472656 57.632812 17.640625 57.699219 C 17.808594 57.769531 17.980469 57.804688 18.164062 57.804688 L 94.710938 57.804688 C 94.894531 57.804688 95.066406 57.769531 95.234375 57.699219 C 95.402344 57.632812 95.550781 57.53125 95.679688 57.402344 C 95.808594 57.277344 95.90625 57.128906 95.976562 56.960938 C 96.042969 56.792969 96.078125 56.617188 96.078125 56.4375 Z M 93.34375 55.070312 L 19.53125 55.070312 L 19.53125 16.796875 L 93.34375 16.796875 Z M 93.34375 55.070312"/></g><path fill="#52AEE8" d="M 82.410156 71.472656 L 82.410156 63.273438 C 82.410156 62.910156 82.339844 62.5625 82.199219 62.226562 C 82.0625 61.890625 81.863281 61.597656 81.609375 61.339844 C 81.351562 61.082031 81.054688 60.886719 80.722656 60.746094 C 80.386719 60.609375 80.039062 60.539062 79.675781 60.539062 L 68.738281 60.539062 C 68.378906 60.539062 68.027344 60.609375 67.695312 60.746094 C 67.359375 60.886719 67.0625 61.082031 66.808594 61.339844 C 66.550781 61.597656 66.355469 61.890625 66.214844 62.226562 C 66.078125 62.5625 66.007812 62.910156 66.007812 63.273438 L 66.007812 71.472656 C 66.007812 71.835938 66.078125 72.183594 66.214844 72.519531 C 66.355469 72.855469 66.550781 73.148438 66.808594 73.40625 C 67.0625 73.664062 67.359375 73.859375 67.695312 74 C 68.027344 74.136719 68.378906 74.207031 68.738281 74.207031 L 70.996094 74.207031 L 77.453125 79.375 C 77.683594 79.558594 77.945312 79.660156 78.238281 79.675781 C 78.53125 79.6875 78.800781 79.617188 79.046875 79.460938 C 79.292969 79.300781 79.46875 79.085938 79.578125 78.8125 C 79.6875 78.539062 79.707031 78.261719 79.632812 77.976562 L 78.691406 74.207031 L 79.675781 74.207031 C 80.039062 74.207031 80.386719 74.136719 80.722656 74 C 81.054688 73.859375 81.351562 73.664062 81.609375 73.40625 C 81.863281 73.148438 82.0625 72.855469 82.199219 72.519531 C 82.339844 72.183594 82.410156 71.835938 82.410156 71.472656 Z M 76.941406 71.472656 C 76.730469 71.472656 76.53125 71.519531 76.34375 71.613281 C 76.152344 71.703125 75.992188 71.832031 75.863281 72 C 75.734375 72.164062 75.648438 72.351562 75.605469 72.558594 C 75.5625 72.761719 75.566406 72.96875 75.617188 73.171875 L 76 74.710938 L 72.328125 71.773438 C 72.078125 71.574219 71.792969 71.472656 71.472656 71.472656 L 68.738281 71.472656 L 68.738281 63.273438 L 79.675781 63.273438 L 79.679688 71.472656 Z M 76.941406 71.472656"/><path fill="#52AEE8" d="M 50.230469 79.460938 C 50.476562 79.617188 50.75 79.6875 51.042969 79.671875 C 51.332031 79.660156 51.59375 79.558594 51.824219 79.375 L 58.285156 74.207031 L 60.539062 74.207031 C 60.902344 74.207031 61.25 74.136719 61.582031 74 C 61.917969 73.859375 62.214844 73.664062 62.46875 73.40625 C 62.726562 73.148438 62.925781 72.855469 63.0625 72.519531 C 63.203125 72.183594 63.273438 71.835938 63.273438 71.472656 L 63.273438 63.273438 C 63.273438 62.910156 63.203125 62.5625 63.0625 62.226562 C 62.925781 61.890625 62.726562 61.597656 62.46875 61.339844 C 62.214844 61.082031 61.917969 60.886719 61.582031 60.746094 C 61.25 60.609375 60.902344 60.539062 60.539062 60.539062 L 49.601562 60.539062 C 49.242188 60.539062 48.890625 60.609375 48.558594 60.746094 C 48.222656 60.886719 47.925781 61.082031 47.671875 61.339844 C 47.414062 61.597656 47.21875 61.890625 47.078125 62.226562 C 46.9375 62.5625 46.871094 62.910156 46.867188 63.273438 L 46.867188 71.472656 C 46.871094 71.835938 46.9375 72.183594 47.078125 72.519531 C 47.21875 72.855469 47.414062 73.148438 47.671875 73.40625 C 47.925781 73.664062 48.222656 73.859375 48.558594 74 C 48.890625 74.136719 49.242188 74.207031 49.601562 74.207031 L 50.585938 74.207031 L 49.644531 77.976562 C 49.574219 78.261719 49.589844 78.539062 49.699219 78.8125 C 49.808594 79.085938 49.984375 79.300781 50.230469 79.460938 Z M 49.601562 71.472656 L 49.601562 63.273438 L 60.539062 63.273438 L 60.539062 71.472656 L 57.804688 71.472656 C 57.484375 71.472656 57.199219 71.574219 56.949219 71.773438 L 53.277344 74.710938 L 53.664062 73.171875 C 53.714844 72.96875 53.71875 72.761719 53.671875 72.558594 C 53.628906 72.351562 53.542969 72.164062 53.414062 72 C 53.285156 71.832031 53.125 71.703125 52.9375 71.613281 C 52.746094 71.519531 52.546875 71.472656 52.335938 71.472656 Z M 49.601562 71.472656"/><path fill="#52AEE8" d="M 70.269531 30.175781 C 70.109375 30.953125 70.0625 31.730469 70.128906 32.519531 C 70.195312 33.308594 70.375 34.070312 70.664062 34.804688 C 70.953125 35.539062 71.339844 36.21875 71.828125 36.839844 C 72.3125 37.464844 72.878906 38.003906 73.523438 38.460938 L 73.523438 41.402344 C 73.523438 41.671875 73.550781 41.9375 73.605469 42.199219 C 73.65625 42.464844 73.734375 42.722656 73.835938 42.96875 C 73.941406 43.21875 74.066406 43.453125 74.214844 43.679688 C 74.367188 43.902344 74.535156 44.109375 74.726562 44.300781 C 74.917969 44.488281 75.125 44.660156 75.347656 44.808594 C 75.570312 44.960938 75.808594 45.085938 76.054688 45.1875 C 76.304688 45.292969 76.5625 45.371094 76.824219 45.421875 C 77.089844 45.476562 77.355469 45.5 77.625 45.503906 L 78.992188 45.503906 C 79.261719 45.5 79.527344 45.476562 79.792969 45.421875 C 80.054688 45.371094 80.3125 45.292969 80.558594 45.1875 C 80.808594 45.085938 81.046875 44.960938 81.269531 44.808594 C 81.492188 44.660156 81.699219 44.488281 81.890625 44.300781 C 82.082031 44.109375 82.25 43.902344 82.398438 43.679688 C 82.550781 43.453125 82.675781 43.21875 82.78125 42.96875 C 82.882812 42.722656 82.960938 42.464844 83.011719 42.199219 C 83.066406 41.9375 83.09375 41.671875 83.09375 41.402344 L 83.09375 38.460938 C 83.363281 38.265625 83.617188 38.054688 83.863281 37.828125 C 84.105469 37.605469 84.335938 37.363281 84.546875 37.109375 C 84.761719 36.859375 84.960938 36.59375 85.144531 36.316406 C 85.324219 36.039062 85.492188 35.75 85.636719 35.453125 C 85.785156 35.15625 85.914062 34.847656 86.023438 34.535156 C 86.132812 34.222656 86.226562 33.90625 86.296875 33.582031 C 86.367188 33.257812 86.417969 32.929688 86.449219 32.597656 C 86.480469 32.269531 86.492188 31.9375 86.484375 31.605469 C 86.476562 31.273438 86.449219 30.941406 86.398438 30.613281 C 86.351562 30.285156 86.28125 29.960938 86.195312 29.640625 C 86.105469 29.320312 85.996094 29.007812 85.871094 28.703125 C 85.746094 28.394531 85.601562 28.097656 85.4375 27.808594 C 85.277344 27.519531 85.097656 27.238281 84.898438 26.972656 C 84.703125 26.703125 84.492188 26.449219 84.265625 26.207031 C 84.035156 25.964844 83.796875 25.738281 83.539062 25.527344 C 83.285156 25.3125 83.019531 25.117188 82.738281 24.9375 C 82.460938 24.757812 82.171875 24.59375 81.875 24.449219 C 81.574219 24.304688 81.269531 24.179688 80.957031 24.070312 C 80.640625 23.960938 80.320312 23.875 79.996094 23.804688 C 79.671875 23.734375 79.34375 23.6875 79.015625 23.65625 C 78.683594 23.628906 78.351562 23.621094 78.019531 23.632812 C 77.6875 23.640625 77.359375 23.671875 77.03125 23.726562 C 76.703125 23.777344 76.378906 23.847656 76.058594 23.9375 C 75.742188 24.027344 75.429688 24.136719 75.121094 24.265625 C 74.816406 24.394531 74.519531 24.542969 74.230469 24.707031 C 73.941406 24.871094 73.664062 25.050781 73.398438 25.25 C 73.132812 25.449219 72.878906 25.664062 72.640625 25.890625 C 72.398438 26.121094 72.175781 26.363281 71.964844 26.621094 C 71.753906 26.878906 71.558594 27.144531 71.378906 27.425781 C 71.203125 27.707031 71.042969 27.996094 70.898438 28.296875 C 70.757812 28.59375 70.632812 28.902344 70.527344 29.21875 C 70.421875 29.53125 70.335938 29.851562 70.269531 30.175781 Z M 78.992188 42.769531 L 77.625 42.769531 C 77.445312 42.769531 77.269531 42.734375 77.101562 42.664062 C 76.933594 42.59375 76.785156 42.496094 76.660156 42.367188 C 76.53125 42.238281 76.433594 42.089844 76.363281 41.925781 C 76.292969 41.757812 76.257812 41.582031 76.257812 41.402344 L 80.359375 41.402344 C 80.359375 41.582031 80.324219 41.757812 80.253906 41.925781 C 80.183594 42.089844 80.085938 42.238281 79.957031 42.367188 C 79.832031 42.496094 79.683594 42.59375 79.515625 42.664062 C 79.347656 42.734375 79.171875 42.769531 78.992188 42.769531 Z M 72.953125 30.710938 C 73.058594 30.195312 73.234375 29.707031 73.480469 29.242188 C 73.726562 28.777344 74.035156 28.359375 74.40625 27.984375 C 74.773438 27.609375 75.1875 27.296875 75.648438 27.042969 C 76.109375 26.789062 76.59375 26.601562 77.109375 26.492188 C 77.507812 26.40625 77.910156 26.363281 78.320312 26.363281 C 79.609375 26.359375 80.753906 26.765625 81.753906 27.585938 C 82.097656 27.863281 82.402344 28.179688 82.671875 28.53125 C 82.9375 28.882812 83.160156 29.261719 83.332031 29.667969 C 83.507812 30.074219 83.632812 30.496094 83.703125 30.933594 C 83.777344 31.371094 83.792969 31.808594 83.757812 32.25 C 83.722656 32.691406 83.636719 33.121094 83.496094 33.542969 C 83.355469 33.960938 83.167969 34.359375 82.929688 34.730469 C 82.691406 35.105469 82.414062 35.445312 82.09375 35.75 C 81.773438 36.054688 81.421875 36.320312 81.039062 36.539062 C 80.585938 36.800781 80.359375 37.195312 80.359375 37.71875 L 80.359375 38.667969 L 76.257812 38.667969 L 76.257812 37.71875 C 76.257812 37.195312 76.03125 36.800781 75.578125 36.539062 C 75.078125 36.253906 74.636719 35.898438 74.25 35.472656 C 73.867188 35.046875 73.554688 34.574219 73.320312 34.050781 C 73.082031 33.527344 72.933594 32.980469 72.871094 32.410156 C 72.808594 31.839844 72.835938 31.273438 72.953125 30.710938 Z M 72.953125 30.710938"/><path fill="#52AEE8" d="M 76.941406 19.53125 L 79.675781 19.53125 L 79.675781 22.265625 L 76.941406 22.265625 Z M 76.941406 19.53125"/><path fill="#52AEE8" d="M 87.878906 29.097656 L 90.609375 29.097656 L 90.609375 31.832031 L 87.878906 31.832031 Z M 87.878906 29.097656"/><path fill="#52AEE8" d="M 66.007812 29.097656 L 68.738281 29.097656 L 68.738281 31.832031 L 66.007812 31.832031 Z M 66.007812 29.097656"/><path fill="#52AEE8" d="M 68.640625 23.230469 L 70.574219 21.296875 L 72.507812 23.230469 L 70.574219 25.164062 Z M 68.640625 23.230469"/><path fill="#52AEE8" d="M 84.109375 23.230469 L 86.042969 21.296875 L 87.972656 23.230469 L 86.042969 25.164062 Z M 84.109375 23.230469"/><path fill="#52AEE8" d="M 34.730469 44.082031 L 34.804688 44.082031 C 35.34375 44.074219 35.875 43.988281 36.390625 43.824219 C 36.90625 43.660156 37.386719 43.425781 37.835938 43.117188 C 38.28125 42.8125 38.671875 42.449219 39.011719 42.023438 C 39.351562 41.601562 39.621094 41.136719 39.820312 40.636719 C 40.019531 40.132812 40.144531 39.609375 40.191406 39.070312 C 40.238281 38.53125 40.203125 37.996094 40.089844 37.464844 C 39.980469 36.9375 39.792969 36.433594 39.53125 35.960938 C 39.269531 35.484375 38.945312 35.058594 38.554688 34.679688 C 38.035156 34.175781 37.4375 33.789062 36.765625 33.519531 C 36.089844 33.25 35.390625 33.117188 34.664062 33.125 C 34.304688 33.128906 33.953125 33.167969 33.601562 33.242188 C 33.25 33.316406 32.910156 33.425781 32.582031 33.566406 C 32.25 33.707031 31.9375 33.878906 31.644531 34.078125 C 31.347656 34.28125 31.074219 34.511719 30.824219 34.765625 C 30.574219 35.023438 30.347656 35.300781 30.152344 35.597656 C 29.957031 35.898438 29.789062 36.214844 29.65625 36.546875 C 29.519531 36.878906 29.421875 37.21875 29.351562 37.570312 C 29.285156 37.921875 29.253906 38.277344 29.253906 38.636719 C 29.257812 38.996094 29.292969 39.347656 29.367188 39.699219 C 29.4375 40.050781 29.542969 40.390625 29.679688 40.722656 C 29.820312 41.050781 29.988281 41.367188 30.1875 41.664062 C 30.390625 41.960938 30.617188 42.234375 30.871094 42.488281 C 31.125 42.738281 31.402344 42.964844 31.699219 43.164062 C 31.996094 43.363281 32.3125 43.53125 32.644531 43.667969 C 32.972656 43.804688 33.316406 43.90625 33.667969 43.976562 C 34.019531 44.046875 34.371094 44.082031 34.730469 44.082031 Z M 32.769531 36.6875 C 33.296875 36.144531 33.941406 35.867188 34.699219 35.859375 L 34.734375 35.859375 C 35.097656 35.859375 35.445312 35.929688 35.78125 36.070312 C 36.117188 36.207031 36.410156 36.402344 36.667969 36.660156 C 36.925781 36.914062 37.121094 37.210938 37.261719 37.542969 C 37.402344 37.878906 37.472656 38.226562 37.476562 38.585938 C 37.476562 38.949219 37.410156 39.296875 37.273438 39.632812 C 37.140625 39.96875 36.945312 40.265625 36.691406 40.523438 C 36.4375 40.785156 36.144531 40.984375 35.8125 41.125 C 35.476562 41.269531 35.128906 41.34375 34.769531 41.347656 C 34.019531 41.335938 33.371094 41.078125 32.820312 40.566406 C 32.558594 40.3125 32.355469 40.019531 32.210938 39.6875 C 32.070312 39.351562 31.996094 39.003906 31.988281 38.640625 C 31.984375 38.277344 32.050781 37.925781 32.183594 37.585938 C 32.320312 37.25 32.515625 36.949219 32.769531 36.6875 Z M 32.769531 36.6875"/><path fill="#52AEE8" d="M 22.507812 41.414062 C 22.410156 41.777344 22.453125 42.125 22.644531 42.449219 L 25.378906 47.1875 C 25.566406 47.511719 25.84375 47.726562 26.207031 47.824219 C 26.570312 47.917969 26.917969 47.871094 27.246094 47.6875 L 29.191406 46.511719 C 29.625 46.8125 30.082031 47.078125 30.566406 47.300781 L 30.566406 49.601562 C 30.5625 49.785156 30.597656 49.957031 30.667969 50.125 C 30.738281 50.292969 30.835938 50.441406 30.964844 50.570312 C 31.09375 50.699219 31.242188 50.796875 31.410156 50.867188 C 31.574219 50.933594 31.75 50.96875 31.929688 50.96875 L 37.398438 50.96875 C 37.582031 50.96875 37.753906 50.933594 37.921875 50.867188 C 38.089844 50.796875 38.238281 50.699219 38.367188 50.570312 C 38.496094 50.441406 38.59375 50.292969 38.664062 50.125 C 38.730469 49.957031 38.765625 49.785156 38.765625 49.601562 L 38.710938 47.328125 C 39.195312 47.105469 39.65625 46.839844 40.09375 46.535156 L 42.085938 47.6875 C 42.410156 47.871094 42.757812 47.917969 43.121094 47.824219 C 43.488281 47.726562 43.761719 47.511719 43.953125 47.1875 L 46.6875 42.449219 C 46.777344 42.292969 46.832031 42.125 46.855469 41.945312 C 46.878906 41.765625 46.867188 41.589844 46.820312 41.414062 C 46.773438 41.238281 46.695312 41.078125 46.585938 40.933594 C 46.476562 40.789062 46.34375 40.671875 46.183594 40.582031 L 44.199219 39.4375 C 44.222656 39.179688 44.234375 38.921875 44.234375 38.667969 C 44.234375 38.414062 44.222656 38.15625 44.199219 37.898438 L 46.183594 36.75 C 46.34375 36.660156 46.476562 36.542969 46.585938 36.398438 C 46.695312 36.257812 46.773438 36.097656 46.820312 35.921875 C 46.867188 35.746094 46.878906 35.570312 46.855469 35.390625 C 46.832031 35.210938 46.777344 35.042969 46.6875 34.882812 L 43.953125 30.148438 C 43.863281 29.992188 43.746094 29.859375 43.601562 29.746094 C 43.457031 29.636719 43.296875 29.558594 43.121094 29.511719 C 42.945312 29.464844 42.769531 29.453125 42.589844 29.476562 C 42.410156 29.5 42.242188 29.558594 42.085938 29.648438 L 40.136719 30.824219 C 39.703125 30.519531 39.246094 30.257812 38.765625 30.03125 L 38.765625 27.730469 C 38.765625 27.550781 38.730469 27.375 38.664062 27.207031 C 38.59375 27.042969 38.496094 26.894531 38.367188 26.765625 C 38.238281 26.636719 38.089844 26.539062 37.921875 26.46875 C 37.753906 26.398438 37.582031 26.363281 37.398438 26.363281 L 31.929688 26.363281 C 31.75 26.363281 31.574219 26.398438 31.410156 26.46875 C 31.242188 26.539062 31.09375 26.636719 30.964844 26.765625 C 30.835938 26.894531 30.738281 27.042969 30.667969 27.207031 C 30.597656 27.375 30.5625 27.550781 30.566406 27.730469 L 30.617188 30.003906 C 30.132812 30.230469 29.671875 30.492188 29.234375 30.796875 L 27.246094 29.648438 C 27.085938 29.558594 26.917969 29.5 26.738281 29.476562 C 26.558594 29.453125 26.382812 29.464844 26.207031 29.511719 C 26.03125 29.558594 25.871094 29.636719 25.730469 29.746094 C 25.585938 29.859375 25.46875 29.992188 25.378906 30.148438 L 22.644531 34.882812 C 22.554688 35.042969 22.496094 35.210938 22.472656 35.390625 C 22.449219 35.570312 22.460938 35.746094 22.507812 35.921875 C 22.554688 36.097656 22.632812 36.257812 22.742188 36.398438 C 22.851562 36.542969 22.988281 36.660156 23.144531 36.75 L 25.128906 37.898438 C 25.109375 38.15625 25.097656 38.414062 25.097656 38.667969 C 25.097656 38.917969 25.109375 39.175781 25.128906 39.4375 L 23.144531 40.582031 C 22.816406 40.773438 22.605469 41.046875 22.507812 41.414062 Z M 27.949219 39.917969 C 27.789062 39.082031 27.789062 38.25 27.949219 37.417969 C 28 37.132812 27.96875 36.859375 27.847656 36.597656 C 27.726562 36.335938 27.539062 36.132812 27.289062 35.988281 L 25.695312 35.066406 L 27.0625 32.699219 L 27.871094 33.167969 C 28.320312 33.429688 28.804688 33.550781 29.324219 33.535156 C 29.84375 33.515625 30.320312 33.363281 30.75 33.070312 C 31.074219 32.84375 31.414062 32.648438 31.769531 32.484375 C 32.242188 32.257812 32.613281 31.921875 32.890625 31.480469 C 33.164062 31.035156 33.300781 30.554688 33.296875 30.03125 L 33.296875 29.097656 L 36.03125 29.097656 L 36.03125 30.03125 C 36.027344 30.554688 36.164062 31.039062 36.441406 31.480469 C 36.71875 31.925781 37.089844 32.257812 37.5625 32.484375 C 37.917969 32.652344 38.253906 32.84375 38.574219 33.070312 C 39.007812 33.363281 39.484375 33.515625 40.003906 33.535156 C 40.523438 33.550781 41.011719 33.429688 41.460938 33.167969 L 42.265625 32.699219 L 43.632812 35.066406 L 42.039062 35.988281 C 41.789062 36.132812 41.605469 36.335938 41.484375 36.597656 C 41.363281 36.859375 41.328125 37.132812 41.378906 37.417969 C 41.542969 38.25 41.542969 39.082031 41.378906 39.917969 C 41.328125 40.203125 41.363281 40.476562 41.484375 40.738281 C 41.605469 41 41.789062 41.203125 42.039062 41.347656 L 43.632812 42.265625 L 42.265625 44.636719 L 41.460938 44.167969 C 41.011719 43.90625 40.527344 43.78125 40.003906 43.800781 C 39.484375 43.816406 39.007812 43.972656 38.578125 44.265625 C 38.253906 44.488281 37.914062 44.683594 37.558594 44.851562 C 37.089844 45.078125 36.714844 45.414062 36.441406 45.855469 C 36.164062 46.296875 36.027344 46.78125 36.03125 47.300781 L 36.03125 48.234375 L 33.296875 48.234375 L 33.296875 47.300781 C 33.300781 46.777344 33.164062 46.296875 32.886719 45.851562 C 32.613281 45.410156 32.238281 45.074219 31.765625 44.847656 C 31.414062 44.683594 31.074219 44.488281 30.753906 44.265625 C 30.324219 43.972656 29.847656 43.816406 29.324219 43.800781 C 28.804688 43.78125 28.320312 43.90625 27.871094 44.167969 L 27.0625 44.636719 L 25.695312 42.265625 L 27.289062 41.347656 C 27.539062 41.203125 27.726562 41 27.847656 40.738281 C 27.96875 40.476562 28 40.199219 27.949219 39.917969 Z M 27.949219 39.917969"/><path fill="#52AEE8" d="M 76.941406 48.234375 L 79.675781 48.234375 L 79.675781 50.96875 L 76.941406 50.96875 Z M 76.941406 48.234375"/><path fill="#52AEE8" d="M 71.472656 48.234375 L 74.207031 48.234375 L 74.207031 50.96875 L 71.472656 50.96875 Z M 71.472656 48.234375"/><path fill="#52AEE8" d="M 66.007812 48.234375 L 68.738281 48.234375 L 68.738281 50.96875 L 66.007812 50.96875 Z M 66.007812 48.234375"/><path fill="#52AEE8" d="M 60.539062 48.234375 L 63.273438 48.234375 L 63.273438 50.96875 L 60.539062 50.96875 Z M 60.539062 48.234375"/><path fill="#52AEE8" d="M 60.539062 42.769531 L 63.273438 42.769531 L 63.273438 45.503906 L 60.539062 45.503906 Z M 60.539062 42.769531"/><path fill="#52AEE8" d="M 60.539062 37.300781 L 63.273438 37.300781 L 63.273438 40.035156 L 60.539062 40.035156 Z M 60.539062 37.300781"/><path fill="#52AEE8" d="M 55.070312 37.300781 L 57.804688 37.300781 L 57.804688 40.035156 L 55.070312 40.035156 Z M 55.070312 37.300781"/><path fill="#52AEE8" d="M 49.601562 37.300781 L 52.335938 37.300781 L 52.335938 40.035156 L 49.601562 40.035156 Z M 49.601562 37.300781"/></svg>