<svg xmlns="http://www.w3.org/2000/svg" width="112.5" viewBox="0 0 112.5 112.5" height="112.5" version="1.0"><defs><clipPath id="a"><path d="M 0 0 L 112.003906 0 L 112.003906 112.003906 L 0 112.003906 Z M 0 0"/></clipPath><clipPath id="b"><path d="M 29.25 29.25 L 83.25 29.25 L 83.25 83.25 L 29.25 83.25 Z M 29.25 29.25"/></clipPath></defs><g clip-path="url(#a)"><path fill="#FFF" d="M 0 0 L 112.5 0 L 112.5 112.5 L 0 112.5 Z M 0 0"/><path d="M 0 0 L 112.5 0 L 112.5 112.5 L 0 112.5 Z M 0 0"/></g><g clip-path="url(#b)"><path fill="#F44336" d="M 83.25 75.75 C 83.25 79.890625 79.890625 83.25 75.75 83.25 L 36.75 83.25 C 32.605469 83.25 29.25 79.890625 29.25 75.75 L 29.25 36.75 C 29.25 32.605469 32.605469 29.25 36.75 29.25 L 75.75 29.25 C 79.890625 29.25 83.25 32.605469 83.25 36.75 Z M 83.25 75.75"/></g><path fill="#FFF" d="M 74.996094 58.496094 C 74.582031 57.019531 73.363281 55.859375 71.8125 55.464844 C 69.007812 54.75 56.25 54.75 56.25 54.75 C 56.25 54.75 43.488281 54.75 40.683594 55.464844 C 39.132812 55.859375 37.914062 57.019531 37.5 58.496094 C 36.75 61.167969 36.75 66.75 36.75 66.75 C 36.75 66.75 36.75 72.328125 37.5 75 C 37.914062 76.476562 39.132812 77.636719 40.683594 78.03125 C 43.488281 78.75 56.25 78.75 56.25 78.75 C 56.25 78.75 69.003906 78.75 71.8125 78.03125 C 73.363281 77.636719 74.582031 76.476562 74.996094 75 C 75.75 72.328125 75.75 66.75 75.75 66.75 C 75.75 66.75 75.75 61.167969 74.996094 58.496094 Z M 74.996094 58.496094"/><path fill="#F44336" d="M 44.746094 75.75 L 42.25 75.75 L 42.25 60.230469 L 39.75 60.230469 L 39.75 57.75 L 47.25 57.75 L 47.25 60.230469 L 44.746094 60.230469 Z M 54.75 75.75 L 52.5 75.75 L 52.246094 74.050781 C 51.261719 75.117188 50.085938 75.75 49.171875 75.75 C 48.375 75.75 47.8125 75.402344 47.535156 74.769531 C 47.371094 74.371094 47.25 73.777344 47.25 72.886719 L 47.25 61.5 L 49.75 61.5 L 49.75 73.132812 C 49.8125 73.492188 50.074219 73.628906 50.398438 73.628906 C 50.898438 73.628906 51.699219 73.085938 52.246094 72.363281 L 52.246094 61.5 L 54.75 61.5 Z M 72.75 69.242188 L 72.75 65.191406 C 72.75 64.027344 72.460938 63.183594 71.949219 62.636719 C 71.261719 61.894531 70.273438 61.5 69.035156 61.5 C 67.773438 61.5 66.796875 61.894531 66.085938 62.636719 C 65.546875 63.183594 65.25 64.074219 65.25 65.242188 L 65.25 72.128906 C 65.25 73.28125 65.585938 74.101562 66.109375 74.632812 C 66.824219 75.375 67.796875 75.75 69.097656 75.75 C 70.386719 75.75 71.398438 75.363281 72.074219 74.570312 C 72.375 74.222656 72.574219 73.828125 72.660156 73.394531 C 72.671875 73.195312 72.75 72.664062 72.75 72.03125 L 70.246094 72.03125 L 70.246094 73.023438 C 70.246094 73.59375 69.683594 74.0625 69 74.0625 C 68.3125 74.0625 67.75 73.59375 67.75 73.023438 L 67.75 69.242188 Z M 67.75 64.335938 C 67.75 63.753906 68.3125 63.296875 69 63.296875 C 69.683594 63.296875 70.246094 63.753906 70.246094 64.335938 L 70.246094 67.519531 L 67.746094 67.519531 L 67.746094 64.335938 Z M 63.421875 62.984375 C 63.109375 62.015625 62.347656 61.484375 61.398438 61.472656 C 60.1875 61.460938 59.683594 62.09375 58.746094 63.183594 L 58.746094 57.75 L 56.25 57.75 L 56.25 75.75 L 58.5 75.75 L 58.75 74.195312 C 59.535156 75.164062 60.5625 75.75 61.398438 75.75 C 62.347656 75.75 63.160156 75.25 63.472656 74.28125 C 63.621094 73.761719 63.734375 73.277344 63.746094 72.183594 L 63.746094 65.667969 C 63.75 64.441406 63.585938 63.507812 63.421875 62.984375 Z M 61.246094 71.863281 C 61.246094 73.167969 60.949219 73.613281 60.273438 73.613281 C 59.886719 73.613281 59.148438 73.351562 58.746094 72.957031 L 58.746094 64.425781 C 59.148438 64.027344 59.882812 63.644531 60.273438 63.644531 C 60.949219 63.644531 61.246094 64.054688 61.246094 65.359375 Z M 61.246094 71.863281"/><path fill="#FFF" d="M 42.75 33.75 L 45.5 33.75 L 47.28125 42.316406 L 47.453125 42.316406 L 49.144531 33.75 L 51.929688 33.75 L 48.75 45.585938 L 48.75 51.75 L 46.015625 51.75 L 46.007812 45.921875 Z M 51.957031 41.371094 C 51.957031 40.363281 52.285156 39.558594 52.941406 38.960938 C 53.597656 38.363281 54.476562 38.0625 55.589844 38.0625 C 56.601562 38.0625 57.425781 38.375 58.070312 39.003906 C 58.714844 39.632812 59.039062 40.445312 59.039062 41.4375 L 59.042969 48.167969 C 59.042969 49.277344 58.730469 50.15625 58.097656 50.792969 C 57.464844 51.429688 56.597656 51.75 55.488281 51.75 C 54.417969 51.75 53.566406 51.417969 52.917969 50.765625 C 52.277344 50.113281 51.960938 49.230469 51.957031 48.125 L 51.953125 41.371094 Z M 54.472656 48.367188 C 54.472656 48.722656 54.554688 49 54.738281 49.195312 C 54.910156 49.390625 55.15625 49.484375 55.480469 49.484375 C 55.8125 49.484375 56.070312 49.386719 56.265625 49.183594 C 56.460938 48.992188 56.558594 48.714844 56.558594 48.363281 L 56.554688 41.269531 C 56.554688 40.984375 56.453125 40.753906 56.253906 40.578125 C 56.058594 40.40625 55.796875 40.316406 55.476562 40.316406 C 55.175781 40.316406 54.933594 40.40625 54.746094 40.582031 C 54.5625 40.757812 54.46875 40.988281 54.46875 41.269531 Z M 68.25 38.25 L 68.25 51.75 L 66.109375 51.75 L 65.769531 50.097656 C 65.3125 50.636719 64.835938 51.042969 64.339844 51.320312 C 63.847656 51.601562 63.367188 51.75 62.902344 51.75 C 62.328125 51.75 61.898438 51.550781 61.605469 51.15625 C 61.3125 50.769531 61.167969 50.183594 61.167969 49.394531 L 61.164062 38.25 L 63.640625 38.25 L 63.648438 48.484375 C 63.648438 48.792969 63.703125 49.019531 63.808594 49.160156 C 63.90625 49.292969 64.082031 49.371094 64.308594 49.371094 C 64.496094 49.371094 64.726562 49.277344 65 49.089844 C 65.28125 48.90625 65.535156 48.667969 65.765625 48.382812 L 65.765625 38.25 Z M 68.25 38.25"/></svg>