<svg xmlns="http://www.w3.org/2000/svg" width="375" viewBox="0 0 375 375" height="375" version="1.0"><defs><clipPath id="a"><path d="M 189 56.25 L 282 56.25 L 282 150 L 189 150 Z M 189 56.25"/></clipPath><clipPath id="b"><path d="M 37.5 202 L 336 202 L 336 318 L 37.5 318 Z M 37.5 202"/></clipPath></defs><g clip-path="url(#a)"><path fill="#74B7F4" d="M 219.816406 124.203125 C 220.386719 122.714844 220.910156 121.1875 221.449219 119.570312 C 221.925781 119.824219 222.292969 120.042969 222.6875 120.238281 C 226.160156 122.09375 229.875 123.167969 233.8125 123.015625 C 235.292969 122.964844 236.832031 122.667969 238.195312 122.125 C 244.132812 119.695312 245.023438 112.363281 239.925781 108.3125 C 237.867188 106.648438 235.46875 105.632812 233.066406 104.664062 C 230.039062 103.425781 227.148438 101.992188 224.59375 99.914062 C 218.605469 95.007812 219.226562 85.597656 225.214844 80.964844 C 227.175781 79.433594 229.402344 78.4375 231.828125 77.867188 C 232.179688 77.800781 232.496094 77.722656 232.914062 77.625 L 232.914062 72.101562 L 237.945312 72.101562 L 237.945312 77.230469 C 239.945312 77.578125 241.859375 77.773438 243.691406 78.246094 C 245.199219 78.660156 246.640625 79.40625 248.070312 80.027344 C 248.246094 80.121094 248.449219 80.546875 248.390625 80.722656 C 247.773438 82.355469 247.105469 83.992188 246.4375 85.675781 C 244.453125 84.484375 242.375 83.738281 240.148438 83.371094 C 237.527344 82.925781 234.875 82.722656 232.273438 83.613281 C 229.671875 84.503906 227.910156 86.292969 227.46875 89.042969 C 227.050781 91.757812 227.894531 94.167969 230.273438 95.675781 C 232.246094 96.945312 234.402344 97.980469 236.558594 98.917969 C 239.382812 100.136719 242.152344 101.347656 244.675781 103.136719 C 249.183594 106.347656 251.070312 110.757812 250.324219 116.183594 C 249.609375 121.378906 246.515625 124.871094 241.734375 126.902344 C 240.402344 127.472656 238.960938 127.792969 237.449219 128.265625 L 237.449219 133.9375 L 232.070312 133.9375 L 232.070312 128.566406 C 230.214844 128.285156 228.414062 128.09375 226.65625 127.746094 C 224.371094 127.300781 222.222656 126.488281 220.191406 125.296875 C 219.71875 124.996094 219.621094 124.746094 219.816406 124.203125 Z M 234.101562 149.191406 C 261.34375 149.734375 281.550781 126.757812 281.203125 103.25 C 281.453125 78.214844 261.449219 57.390625 236.085938 56.847656 C 209.640625 56.304688 189.410156 77.773438 189.015625 101.992188 C 188.558594 128.191406 209.464844 148.667969 234.101562 149.191406"/></g><path fill="#74B7F4" d="M 169.96875 198.660156 C 185.4375 209.871094 203.023438 211.554688 221.390625 209.242188 C 205.808594 199.675781 190.476562 189.90625 176.585938 178.027344 C 184.527344 182.699219 192.140625 187.886719 199.976562 192.691406 C 207.800781 197.5 215.859375 201.929688 223.820312 206.535156 C 223.898438 204.570312 223.421875 203.332031 223.09375 202.058594 C 220.667969 192.480469 216.363281 183.804688 210.585938 175.832031 C 203.109375 165.5 193.675781 157.761719 180.597656 156.660156 C 168.789062 155.671875 156.871094 155.875 144.390625 155.546875 C 147.949219 173.625 155.601562 188.242188 169.96875 198.660156"/><path fill="#74B7F4" d="M 259.621094 175.832031 C 253.847656 183.804688 249.53125 192.480469 247.105469 202.058594 C 246.785156 203.332031 246.300781 204.570312 246.386719 206.535156 C 254.339844 201.929688 262.40625 197.5 270.234375 192.691406 C 278.070312 187.886719 285.671875 182.699219 293.613281 178.027344 C 279.734375 189.90625 264.390625 199.675781 248.816406 209.242188 C 267.175781 211.554688 284.773438 209.871094 300.230469 198.660156 C 314.605469 188.242188 322.257812 173.625 325.808594 155.546875 C 313.328125 155.875 301.421875 155.671875 289.609375 156.660156 C 276.519531 157.761719 267.097656 165.5 259.621094 175.832031"/><g clip-path="url(#b)"><path fill="#74B7F4" d="M 327.976562 238.4375 C 324.511719 237.992188 320.601562 238.75 317.257812 239.96875 C 297.117188 247.28125 277.953125 255.800781 257.890625 263.328125 C 256.902344 263.707031 255.761719 264.121094 255.113281 264.875 C 249.890625 271.039062 243.011719 273.515625 235.300781 273.613281 C 222.824219 273.757812 210.355469 274.171875 197.875 274.472656 C 189.410156 274.675781 180.957031 274.886719 172.492188 275.042969 C 170.355469 275.082031 167.65625 272.703125 167.519531 270.207031 C 167.375 267.699219 169.085938 266.851562 171.253906 266.628906 C 172.117188 266.539062 172.984375 266.480469 173.855469 266.460938 C 184.371094 266.191406 194.894531 265.929688 205.421875 265.667969 C 216.476562 265.398438 227.554688 265.320312 238.601562 264.78125 C 246.332031 264.402344 251.582031 258.648438 251.707031 251.246094 C 251.84375 243.292969 245.683594 237.289062 237.304688 237.453125 C 224.894531 237.683594 209.183594 235.992188 196.453125 234.019531 C 181.316406 231.667969 173.945312 223.910156 159.25 219.1875 C 136.605469 211.914062 113.425781 214.554688 90.046875 215.027344 C 90.007812 213.402344 89.96875 211.777344 89.929688 210.152344 C 89.792969 205.007812 87.296875 202.773438 82.09375 202.886719 C 68.433594 203.199219 54.777344 203.535156 41.117188 203.875 C 40.285156 203.894531 39.441406 204 37.925781 204.117188 C 38.6875 211.402344 39.203125 218.5 40.207031 225.523438 C 43.933594 251.71875 53.0625 275.941406 67.378906 298.191406 C 68.039062 299.207031 69.683594 300.125 70.890625 300.15625 C 75.542969 300.28125 80.207031 300.070312 84.871094 299.902344 C 89.492188 299.738281 92.027344 297.128906 91.921875 292.417969 C 91.882812 291.082031 91.855469 289.746094 91.824219 288.421875 C 91.84375 288.421875 91.863281 288.429688 91.882812 288.441406 C 102.398438 291.429688 112.855469 294.59375 123.351562 297.621094 C 142.890625 303.261719 162.316406 309.355469 182.03125 314.308594 C 198.386719 318.417969 214.871094 318.914062 230.417969 310.351562 C 263.347656 292.214844 296.304688 274.144531 329.203125 255.957031 C 330.847656 255.046875 332.335938 253.558594 333.429688 252.011719 C 337.144531 246.75 334.347656 239.269531 327.976562 238.4375"/></g></svg>