<svg xmlns="http://www.w3.org/2000/svg" width="112.5" viewBox="0 0 112.5 112.5" height="112.5" version="1.0"><defs><clipPath id="a"><path d="M 0 0 L 112.003906 0 L 112.003906 112.003906 L 0 112.003906 Z M 0 0"/></clipPath><clipPath id="b"><path d="M 41 32 L 98.554688 32 L 98.554688 69 L 41 69 Z M 41 32"/></clipPath></defs><g clip-path="url(#a)"><path fill="#FFF" d="M 0 0 L 112.5 0 L 112.5 112.5 L 0 112.5 Z M 0 0"/><path d="M 0 0 L 112.5 0 L 112.5 112.5 L 0 112.5 Z M 0 0"/></g><path fill="#297881" d="M 78.480469 36.242188 C 78.332031 36.554688 79.890625 36.996094 80.875 37.21875 C 80.433594 37.457031 80.019531 37.75 79.636719 38.113281 C 78.210938 39.46875 77.355469 41.402344 77.023438 43.402344 C 76.882812 43.492188 76.722656 43.5625 76.550781 43.59375 C 75.445312 43.804688 75.015625 42.617188 75.015625 42.617188 C 75.015625 42.617188 75.113281 44.296875 74.039062 44.328125 C 72.972656 44.359375 72.441406 42.828125 72.441406 42.828125 C 72.441406 42.828125 72.480469 44.398438 71.195312 44.757812 C 69.90625 45.121094 69.738281 43.503906 69.738281 43.503906 C 69.738281 43.503906 69.574219 44.757812 68.429688 44.949219 C 68.148438 44.992188 67.917969 44.941406 67.714844 44.839844 C 67.707031 44.832031 67.6875 44.820312 67.675781 44.820312 C 67.644531 44.800781 67.617188 44.78125 67.585938 44.757812 C 67.574219 44.75 67.554688 44.738281 67.546875 44.730469 C 67.515625 44.710938 67.496094 44.6875 67.464844 44.667969 C 67.453125 44.660156 67.445312 44.648438 67.425781 44.640625 C 67.394531 44.609375 67.363281 44.578125 67.34375 44.558594 C 67.332031 44.546875 67.332031 44.546875 67.324219 44.539062 C 67.292969 44.5 67.261719 44.46875 67.234375 44.429688 C 67.222656 44.417969 67.222656 44.40625 67.214844 44.398438 C 67.191406 44.367188 67.171875 44.347656 67.152344 44.316406 C 67.144531 44.308594 67.132812 44.285156 67.132812 44.277344 C 67.121094 44.257812 67.101562 44.226562 67.09375 44.207031 C 67.082031 44.195312 67.082031 44.175781 67.074219 44.167969 C 67.0625 44.136719 67.042969 44.117188 67.03125 44.085938 C 67.03125 44.074219 67.023438 44.066406 67.023438 44.054688 C 67.003906 44.027344 66.992188 43.996094 66.980469 43.964844 C 66.980469 43.957031 66.980469 43.957031 66.972656 43.945312 C 66.960938 43.925781 66.953125 43.90625 66.941406 43.886719 C 66.941406 43.875 66.933594 43.863281 66.933594 43.863281 C 66.921875 43.84375 66.921875 43.835938 66.921875 43.824219 C 66.921875 43.816406 66.921875 43.816406 66.910156 43.804688 C 66.910156 43.792969 66.902344 43.785156 66.902344 43.773438 C 66.902344 43.773438 66.902344 43.765625 66.902344 43.765625 C 66.902344 43.753906 66.902344 43.753906 66.902344 43.753906 C 66.902344 43.753906 66.660156 45.203125 65.414062 45.210938 C 64.167969 45.222656 64.066406 43.984375 64.066406 43.984375 C 64.066406 43.984375 63.664062 45.3125 62.4375 45.816406 C 61.675781 46.128906 60.648438 45.632812 59.984375 45.210938 C 59.714844 45.644531 59.433594 46.066406 59.109375 46.480469 C 58.910156 46.75 58.699219 47.023438 58.5 47.3125 C 58.207031 47.285156 57.914062 47.253906 57.625 47.214844 C 57.351562 46.519531 57.695312 45.503906 57.695312 45.503906 C 57.695312 45.503906 56.6875 46.15625 55.824219 45.503906 C 54.960938 44.851562 55.824219 43.3125 55.824219 43.3125 C 55.824219 43.3125 54.375 43.492188 54.195312 42.65625 C 54.015625 41.832031 55.320312 40.648438 55.320312 40.648438 C 55.320312 40.648438 53.601562 40.234375 53.722656 39.277344 C 53.84375 38.332031 55.320312 38.03125 55.320312 38.03125 C 55.320312 38.03125 54.136719 37.4375 54.4375 35.921875 C 54.507812 35.539062 54.769531 35.285156 55.101562 35.125 C 58.105469 36.542969 60.738281 38.011719 61.867188 39.097656 C 62.054688 39.289062 62.296875 39.539062 62.550781 39.832031 C 63.421875 37.71875 64.238281 35.828125 65.59375 34.652344 C 68.167969 32.429688 70.832031 32.519531 73.765625 32.875 C 76.664062 33.226562 78.441406 33.917969 81.054688 33.597656 C 81.355469 33.847656 81.609375 34.152344 81.628906 34.472656 C 81.679688 35.265625 78.703125 35.800781 78.480469 36.242188 Z M 40.453125 71.449219 C 38.484375 72.171875 36.042969 72.816406 34.011719 73.109375 C 30.8125 75.097656 31.800781 75.972656 32.511719 75.933594 C 33.457031 75.882812 41.339844 73.882812 45.671875 71.570312 C 43.710938 72.695312 41.328125 73.984375 39.046875 74.988281 C 38 75.441406 36.816406 75.894531 35.628906 76.265625 C 35.507812 76.808594 35.980469 77.03125 36.351562 76.988281 C 37.296875 76.890625 45.066406 74.496094 49.269531 71.972656 C 49.773438 71.648438 50.234375 71.347656 50.667969 71.058594 C 48.796875 70.625 47.25 69.859375 46.203125 68.964844 C 44.414062 69.828125 42.394531 70.734375 40.453125 71.449219 Z M 33.871094 71.992188 C 34.746094 71.992188 41.589844 70.714844 46.152344 68.914062 C 44.785156 67.707031 44.324219 66.261719 45.257812 65.03125 C 45.28125 65.011719 45.289062 64.992188 45.308594 64.972656 C 44.0625 65.71875 42.484375 66.472656 40.472656 67.183594 C 31.589844 70.3125 32.925781 71.992188 33.871094 71.992188 Z M 33.871094 71.992188"/><path fill="#7AC9B4" d="M 67.585938 44.769531 C 67.574219 44.757812 67.554688 44.75 67.546875 44.738281 C 67.515625 44.71875 67.496094 44.699219 67.464844 44.679688 C 67.453125 44.667969 67.445312 44.660156 67.425781 44.648438 C 67.394531 44.617188 67.363281 44.589844 67.34375 44.570312 C 67.332031 44.558594 67.332031 44.558594 67.324219 44.546875 C 67.292969 44.507812 67.261719 44.476562 67.234375 44.4375 C 67.222656 44.429688 67.222656 44.417969 67.214844 44.40625 C 67.191406 44.378906 67.171875 44.359375 67.152344 44.328125 C 67.144531 44.316406 67.132812 44.296875 67.132812 44.285156 C 67.113281 44.265625 67.101562 44.238281 67.09375 44.214844 C 67.082031 44.207031 67.082031 44.1875 67.074219 44.175781 C 67.0625 44.144531 67.042969 44.125 67.03125 44.097656 C 67.03125 44.085938 67.023438 44.074219 67.023438 44.066406 C 67.003906 44.035156 66.992188 44.003906 66.980469 43.976562 C 66.980469 43.964844 66.980469 43.964844 66.972656 43.957031 C 66.960938 43.933594 66.953125 43.914062 66.941406 43.894531 C 66.941406 43.886719 66.933594 43.875 66.933594 43.875 C 66.921875 43.855469 66.921875 43.84375 66.921875 43.835938 C 66.921875 43.824219 66.921875 43.824219 66.910156 43.816406 C 66.910156 43.804688 66.902344 43.792969 66.902344 43.785156 C 66.902344 43.785156 66.902344 43.773438 66.902344 43.773438 C 66.902344 43.765625 66.902344 43.765625 66.902344 43.765625 C 66.902344 43.765625 66.660156 45.210938 65.414062 45.222656 C 64.167969 45.230469 64.066406 43.996094 64.066406 43.996094 C 64.066406 43.996094 63.664062 45.324219 62.4375 45.824219 C 61.675781 46.136719 60.648438 45.644531 59.984375 45.222656 C 59.714844 45.65625 59.433594 46.078125 59.109375 46.488281 C 58.800781 46.902344 58.488281 47.324219 58.1875 47.777344 C 57.511719 48.761719 56.847656 49.828125 56.195312 50.914062 C 54.117188 54.402344 52.175781 58.144531 50.496094 60.175781 C 49.683594 61.160156 48.796875 61.664062 47.773438 62.480469 C 46.464844 63.285156 44.425781 64.320312 41.550781 65.253906 C 35.851562 67.085938 29.878906 70.785156 30.050781 72.476562 C 30.101562 72.96875 30.652344 73.207031 31.507812 73.277344 C 29.71875 74.625 28.59375 75.882812 28.722656 76.648438 C 28.863281 77.523438 30.59375 77.511719 32.785156 77.050781 C 32.625 77.371094 32.554688 77.652344 32.605469 77.886719 C 32.957031 79.542969 38.925781 77.683594 42.828125 75.734375 C 45.058594 74.617188 47.371094 73.207031 49.269531 71.992188 C 45.066406 74.515625 37.296875 76.910156 36.351562 77.011719 C 35.972656 77.050781 35.507812 76.828125 35.628906 76.285156 C 36.816406 75.902344 38 75.460938 39.046875 75.007812 C 41.328125 74.011719 43.710938 72.714844 45.671875 71.589844 C 41.347656 73.902344 33.46875 75.902344 32.511719 75.953125 C 31.808594 75.996094 30.824219 75.109375 34.011719 73.128906 C 36.03125 72.835938 38.472656 72.191406 40.453125 71.46875 C 42.394531 70.753906 44.414062 69.851562 46.214844 68.984375 C 47.257812 69.878906 48.816406 70.644531 50.675781 71.078125 C 52.246094 71.4375 54.023438 71.578125 55.925781 71.367188 C 58.859375 71.046875 61.855469 70.113281 64.550781 68.714844 C 63.765625 67.796875 62.589844 65.878906 62.679688 62.660156 C 62.808594 57.863281 67.757812 51.175781 67.757812 51.175781 C 67.554688 51.023438 67.375 50.804688 67.273438 50.492188 C 66.992188 49.515625 67.867188 48.359375 67.867188 48.359375 C 67.867188 48.359375 66.761719 47.738281 66.761719 46.800781 C 66.761719 45.554688 67.867188 44.929688 67.867188 44.929688 C 67.816406 44.910156 67.765625 44.890625 67.726562 44.871094 C 67.714844 44.859375 67.695312 44.851562 67.6875 44.851562 C 67.644531 44.808594 67.617188 44.789062 67.585938 44.769531 Z M 33.871094 71.992188 C 32.925781 71.980469 31.589844 70.3125 40.464844 67.183594 C 42.476562 66.480469 44.054688 65.726562 45.300781 64.972656 C 45.28125 64.992188 45.269531 65.011719 45.25 65.03125 C 44.324219 66.261719 44.777344 67.707031 46.144531 68.914062 C 41.601562 70.714844 34.746094 72.003906 33.871094 71.992188 Z M 33.871094 71.992188"/><path fill="#814895" d="M 76.882812 44.871094 C 76.804688 47.03125 76.191406 52.484375 74.289062 57.773438 C 74.007812 57.851562 73.726562 57.875 73.515625 57.753906 C 72.863281 57.402344 72.710938 56.242188 72.710938 56.242188 C 72.710938 56.242188 71.738281 56.867188 70.761719 56.242188 C 69.785156 55.621094 70.230469 54.464844 70.230469 54.464844 C 70.230469 54.464844 69.164062 54.734375 68.699219 53.929688 C 68.238281 53.125 68.699219 51.488281 68.699219 51.488281 C 68.699219 51.488281 67.566406 51.4375 67.273438 50.460938 C 66.992188 49.484375 67.867188 48.328125 67.867188 48.328125 C 67.867188 48.328125 66.761719 47.707031 66.761719 46.769531 C 66.761719 45.523438 67.867188 44.902344 67.867188 44.902344 C 68.027344 44.960938 68.21875 44.980469 68.429688 44.941406 C 69.574219 44.757812 69.738281 43.492188 69.738281 43.492188 C 69.738281 43.492188 69.917969 45.113281 71.195312 44.75 C 72.480469 44.386719 72.441406 42.820312 72.441406 42.820312 C 72.441406 42.820312 72.972656 44.335938 74.039062 44.316406 C 75.105469 44.285156 75.015625 42.609375 75.015625 42.609375 C 75.015625 42.609375 75.445312 43.792969 76.550781 43.582031 C 76.734375 43.554688 76.882812 43.484375 77.023438 43.390625 C 76.945312 43.894531 76.902344 44.378906 76.882812 44.871094 Z M 52.738281 46.679688 C 54.277344 46.839844 56.003906 47.023438 57.625 47.203125 C 57.351562 46.507812 57.695312 45.492188 57.695312 45.492188 C 57.695312 45.492188 56.6875 46.148438 55.824219 45.492188 C 54.960938 44.839844 55.824219 43.300781 55.824219 43.300781 C 55.824219 43.300781 54.375 43.484375 54.195312 42.648438 C 54.015625 41.824219 55.320312 40.636719 55.320312 40.636719 C 55.320312 40.636719 53.601562 40.222656 53.722656 39.269531 C 53.84375 38.324219 55.320312 38.023438 55.320312 38.023438 C 55.320312 38.023438 54.136719 37.429688 54.4375 35.910156 C 54.507812 35.527344 54.769531 35.277344 55.101562 35.117188 C 51.460938 33.394531 47.289062 31.738281 44.585938 30.914062 C 39.648438 29.402344 25.003906 27.089844 24.5625 28.871094 C 24.230469 30.167969 34.894531 39.902344 41.441406 45.925781 C 46.003906 46.167969 49.863281 46.398438 51.472656 46.558594 C 51.875 46.589844 52.304688 46.640625 52.738281 46.679688 Z M 59.59375 53.078125 C 59.59375 53.078125 58.941406 54.082031 58.226562 53.929688 C 57.511719 53.78125 57.453125 53.015625 57.453125 53.015625 C 57.453125 53.015625 56.679688 54.261719 55.855469 53.839844 C 55.03125 53.429688 55.199219 52.574219 55.199219 52.574219 C 55.199219 52.574219 54.015625 53.597656 53.523438 53.007812 C 53.03125 52.414062 53.523438 51.488281 53.523438 51.488281 C 53.523438 51.488281 52.183594 51.878906 51.894531 50.875 C 51.601562 49.867188 52.71875 49.15625 52.71875 49.15625 C 52.71875 49.15625 51.53125 48.972656 52.003906 47.554688 C 52.125 47.183594 52.394531 46.902344 52.738281 46.671875 C 52.296875 46.628906 51.875 46.578125 51.472656 46.550781 C 49.863281 46.398438 45.992188 46.167969 41.441406 45.917969 C 32.933594 45.453125 22.027344 44.941406 18.78125 44.769531 C 13.804688 44.5 32.109375 51.488281 37.890625 53.589844 C 42.214844 55.167969 50.757812 60.757812 53.421875 59.613281 C 55.011719 58.929688 57.664062 56.695312 59.945312 53.941406 C 59.554688 53.628906 59.59375 53.078125 59.59375 53.078125 Z M 59.59375 53.078125"/><path fill="#814895" d="M 72.570312 35.980469 C 71.714844 36.160156 71.636719 37.269531 71.90625 37.800781 C 72.179688 38.332031 73.464844 38.605469 74.308594 38.113281 C 75.144531 37.621094 74.882812 35.488281 72.570312 35.980469 Z M 73.042969 37.117188 C 72.8125 37.21875 72.480469 37.226562 72.441406 36.90625 C 72.421875 36.773438 72.480469 36.644531 72.582031 36.554688 C 72.632812 36.484375 72.691406 36.421875 72.761719 36.382812 C 72.914062 36.300781 73.074219 36.3125 73.183594 36.402344 C 73.246094 36.421875 73.292969 36.464844 73.335938 36.511719 C 73.527344 36.765625 73.273438 37.015625 73.042969 37.117188 Z M 73.042969 37.117188"/><g clip-path="url(#b)"><path fill="#F6BD4F" d="M 74.28125 57.773438 C 73.988281 58.578125 73.675781 59.371094 73.324219 60.15625 C 71.746094 63.6875 68.449219 66.683594 64.539062 68.703125 C 63.753906 67.789062 62.578125 65.867188 62.667969 62.648438 C 62.800781 57.851562 67.746094 51.164062 67.746094 51.164062 C 68.167969 51.476562 68.691406 51.507812 68.691406 51.507812 C 68.691406 51.507812 68.230469 53.148438 68.691406 53.949219 C 69.152344 54.753906 70.21875 54.484375 70.21875 54.484375 C 70.21875 54.484375 69.777344 55.640625 70.75 56.265625 C 71.726562 56.886719 72.703125 56.265625 72.703125 56.265625 C 72.703125 56.265625 72.84375 57.421875 73.507812 57.773438 C 73.726562 57.875 74.007812 57.851562 74.28125 57.773438 Z M 81.144531 33.578125 C 81.117188 33.578125 81.085938 33.585938 81.066406 33.585938 C 81.367188 33.839844 81.617188 34.140625 81.636719 34.460938 C 81.679688 35.265625 78.703125 35.800781 78.480469 36.242188 C 78.332031 36.554688 79.890625 36.996094 80.875 37.21875 C 82.53125 36.3125 84.695312 36.019531 87.628906 35.175781 C 91.359375 34.109375 98.554688 32.671875 98.554688 32.671875 C 94.644531 31.246094 83.808594 33.226562 81.144531 33.578125 Z M 74.5625 38.355469 C 73.515625 38.957031 71.90625 38.625 71.574219 37.972656 C 71.246094 37.308594 71.335938 35.929688 72.398438 35.710938 C 75.273438 35.085938 75.605469 37.742188 74.5625 38.355469 Z M 72.570312 35.980469 C 71.714844 36.160156 71.636719 37.269531 71.90625 37.800781 C 72.179688 38.332031 73.464844 38.605469 74.308594 38.113281 C 75.144531 37.621094 74.882812 35.488281 72.570312 35.980469 Z M 62.308594 40.113281 C 61.613281 41.402344 60.949219 42.65625 60.449219 44.027344 C 60.429688 44.085938 60.519531 44.144531 60.558594 44.097656 C 61.503906 42.929688 62.054688 41.621094 62.449219 40.175781 C 62.46875 40.09375 62.347656 40.035156 62.308594 40.113281 Z M 41.640625 45.855469 C 45.019531 46.390625 48.566406 46.832031 51.984375 46.890625 C 52.054688 46.890625 52.074219 46.78125 52.003906 46.761719 C 48.707031 45.90625 45.046875 45.664062 41.652344 45.835938 C 41.640625 45.847656 41.628906 45.855469 41.640625 45.855469 Z M 41.640625 45.855469"/></g><path fill="#297881" d="M 63.644531 47.886719 C 62.890625 49.9375 61.503906 52.0625 59.957031 53.941406 C 59.554688 53.628906 59.59375 53.066406 59.59375 53.066406 C 59.59375 53.066406 58.941406 54.070312 58.226562 53.921875 C 57.511719 53.769531 57.453125 53.007812 57.453125 53.007812 C 57.453125 53.007812 56.679688 54.253906 55.855469 53.832031 C 55.03125 53.417969 55.199219 52.5625 55.199219 52.5625 C 55.199219 52.5625 54.015625 53.589844 53.523438 52.996094 C 53.03125 52.402344 53.523438 51.476562 53.523438 51.476562 C 53.523438 51.476562 52.183594 51.871094 51.894531 50.863281 C 51.601562 49.859375 52.71875 49.144531 52.71875 49.144531 C 52.71875 49.144531 51.53125 48.964844 52.003906 47.546875 C 52.125 47.171875 52.394531 46.890625 52.738281 46.660156 C 54.277344 46.820312 56.003906 47.003906 57.625 47.183594 C 57.925781 47.214844 58.214844 47.253906 58.5 47.285156 C 61.34375 47.617188 63.644531 47.886719 63.644531 47.886719 Z M 53.59375 63.777344 C 53.433594 64.269531 52.929688 64.410156 52.476562 64.289062 C 52.394531 64.972656 51.59375 65.132812 50.96875 64.960938 C 50.957031 64.972656 50.957031 64.984375 50.949219 64.992188 C 50.628906 65.265625 50.4375 65.738281 50.6875 66.121094 C 50.898438 66.429688 51.300781 66.523438 51.652344 66.59375 C 51.753906 66.613281 51.742188 66.742188 51.683594 66.792969 C 51.179688 67.175781 50.464844 66.792969 50.234375 66.269531 C 50.09375 65.957031 50.105469 65.605469 50.246094 65.316406 C 50.125 65.375 50.003906 65.433594 49.875 65.476562 C 49.640625 65.535156 49.410156 65.554688 49.167969 65.515625 C 48.9375 65.476562 48.707031 65.375 48.515625 65.234375 C 48.0625 65.496094 47.492188 66.097656 48.035156 66.570312 C 48.414062 66.902344 49.050781 66.792969 49.519531 66.882812 C 49.550781 66.894531 49.550781 66.933594 49.53125 66.945312 C 48.910156 67.367188 47.894531 67.335938 47.542969 66.5625 C 47.238281 65.90625 47.832031 65.324219 48.425781 65.152344 C 48.296875 65.03125 48.183594 64.882812 48.113281 64.722656 C 47.683594 63.675781 48.816406 63.050781 49.640625 62.851562 C 49.652344 62.851562 49.652344 62.859375 49.652344 62.871094 C 49.128906 63.203125 48.132812 63.765625 48.496094 64.539062 C 48.808594 65.214844 49.964844 65.164062 50.425781 64.660156 C 49.8125 64.027344 50.015625 63.03125 50.789062 62.699219 C 50.699219 62.609375 50.617188 62.507812 50.566406 62.398438 C 50.226562 61.703125 50.546875 60.730469 51.351562 60.546875 C 51.359375 60.546875 51.382812 60.558594 51.371094 60.578125 C 51.089844 61.011719 50.746094 61.472656 50.957031 62.015625 C 51.121094 62.417969 51.5625 62.597656 51.972656 62.539062 C 52.085938 62.417969 52.234375 62.316406 52.417969 62.277344 C 52.457031 62.269531 52.496094 62.316406 52.457031 62.347656 C 52.136719 62.628906 51.964844 63.214844 52.246094 63.574219 C 52.515625 63.925781 53.148438 63.898438 53.523438 63.726562 C 53.550781 63.695312 53.613281 63.726562 53.59375 63.777344 Z M 52.164062 64.148438 C 52.054688 64.078125 51.964844 63.988281 51.882812 63.886719 C 51.691406 63.625 51.640625 63.292969 51.722656 62.992188 C 51.441406 63.050781 51.128906 62.960938 50.878906 62.769531 C 50.40625 63.171875 50.285156 63.917969 50.796875 64.347656 C 51.050781 64.570312 51.410156 64.621094 51.710938 64.46875 C 51.875 64.398438 52.015625 64.257812 52.164062 64.148438 Z M 52.164062 64.148438"/><path fill="#7AC9B4" d="M 50.476562 64.8125 L 50.464844 64.78125 C 50.476562 64.773438 50.496094 64.75 50.507812 64.742188 C 50.496094 64.761719 50.488281 64.78125 50.476562 64.8125 Z M 73.183594 36.402344 C 73.074219 36.324219 72.914062 36.300781 72.761719 36.382812 C 72.691406 36.421875 72.632812 36.484375 72.582031 36.554688 C 72.492188 36.644531 72.429688 36.773438 72.441406 36.90625 C 72.480469 37.226562 72.8125 37.21875 73.042969 37.117188 C 73.265625 37.015625 73.515625 36.773438 73.335938 36.511719 C 73.292969 36.464844 73.246094 36.421875 73.183594 36.402344 Z M 50.425781 58.808594 C 51.84375 58.535156 53.128906 57.640625 54.375 56.949219 C 55.695312 56.203125 57.011719 55.5 58.15625 54.503906 C 58.1875 54.484375 58.15625 54.433594 58.125 54.445312 C 55.351562 55.429688 52.980469 57.351562 50.425781 58.777344 C 50.394531 58.789062 50.40625 58.808594 50.425781 58.808594 Z M 47.773438 57.472656 C 50.296875 56.847656 53 55.710938 54.988281 54.011719 C 55.058594 53.949219 54.96875 53.859375 54.898438 53.902344 C 52.496094 55.015625 50.175781 56.335938 47.761719 57.449219 C 47.742188 57.449219 47.753906 57.472656 47.773438 57.472656 Z M 45.109375 56.101562 C 47.78125 55.21875 50.605469 54.484375 53.078125 53.117188 C 53.121094 53.097656 53.089844 53.035156 53.050781 53.046875 C 50.296875 53.648438 47.683594 54.988281 45.109375 56.101562 C 45.097656 56.09375 45.097656 56.101562 45.109375 56.101562 Z M 40.535156 53.921875 C 44.132812 53.640625 48.164062 52.785156 51.402344 51.164062 C 51.441406 51.144531 51.410156 51.09375 51.371094 51.105469 C 49.53125 51.46875 47.761719 52.0625 45.953125 52.554688 C 44.152344 53.046875 42.324219 53.40625 40.523438 53.902344 C 40.515625 53.902344 40.515625 53.921875 40.535156 53.921875 Z M 33.710938 51.277344 C 36.734375 50.933594 39.75 50.542969 42.777344 50.25 C 45.621094 49.980469 48.566406 50.007812 51.359375 49.367188 C 51.402344 49.355469 51.382812 49.304688 51.351562 49.304688 C 48.34375 49.023438 45.230469 49.597656 42.242188 49.96875 C 39.390625 50.320312 36.535156 50.703125 33.710938 51.257812 C 33.699219 51.257812 33.699219 51.285156 33.710938 51.277344 Z M 32.523438 35.929688 C 36.253906 36.0625 39.992188 36.382812 43.679688 36.945312 C 47.027344 37.457031 50.40625 38.546875 53.773438 38.746094 C 53.875 38.757812 53.925781 38.59375 53.824219 38.546875 C 50.777344 37.117188 47.058594 36.804688 43.742188 36.421875 C 40.011719 35.992188 36.261719 35.828125 32.511719 35.921875 C 32.511719 35.921875 32.511719 35.929688 32.523438 35.929688 Z M 38.082031 42.214844 C 40.714844 42.195312 43.359375 42.09375 45.992188 42.125 C 48.617188 42.15625 51.242188 42.496094 53.863281 42.476562 C 53.933594 42.476562 53.945312 42.375 53.882812 42.355469 C 51.460938 41.601562 48.777344 41.601562 46.253906 41.621094 C 43.519531 41.652344 40.796875 41.84375 38.082031 42.144531 C 38.03125 42.15625 38.03125 42.214844 38.082031 42.214844 Z M 60.878906 52.625 C 60.609375 53.085938 60.027344 53.21875 59.582031 52.894531 C 59.421875 52.773438 59.3125 52.613281 59.253906 52.433594 C 59.019531 52.683594 58.660156 52.84375 58.296875 52.816406 C 57.875 52.785156 57.523438 52.484375 57.421875 52.109375 C 57.132812 52.414062 56.679688 52.535156 56.246094 52.363281 C 55.8125 52.191406 55.582031 51.757812 55.59375 51.328125 C 55.25 51.496094 54.777344 51.417969 54.515625 51.09375 C 54.136719 50.644531 54.226562 50.019531 54.617188 49.636719 C 54.023438 49.566406 53.410156 49.09375 53.542969 48.449219 C 53.601562 48.136719 53.855469 47.898438 54.144531 47.785156 C 54.558594 47.625 54.929688 47.738281 55.320312 47.867188 C 55.339844 47.878906 55.339844 47.898438 55.320312 47.898438 C 54.890625 47.90625 53.996094 47.898438 53.945312 48.5 C 53.902344 48.984375 54.507812 49.125 54.878906 49.316406 C 54.871094 48.691406 55.703125 48.398438 56.265625 48.460938 C 56.308594 48.460938 56.316406 48.519531 56.277344 48.539062 C 55.90625 48.671875 55 48.882812 55.28125 49.484375 C 55.523438 50.007812 56.144531 49.707031 56.546875 49.617188 C 56.628906 49.597656 56.699219 49.675781 56.660156 49.757812 C 56.527344 50 56.308594 50.140625 56.066406 50.191406 C 55.996094 50.53125 56.308594 50.925781 56.75 50.894531 C 57.179688 50.863281 57.523438 50.453125 57.714844 50.089844 C 57.734375 50.050781 57.792969 50.058594 57.804688 50.101562 C 57.804688 50.121094 57.816406 50.128906 57.816406 50.148438 C 57.824219 50.140625 57.824219 50.128906 57.835938 50.121094 C 57.835938 50.121094 57.84375 50.121094 57.84375 50.121094 C 57.835938 50.140625 57.824219 50.160156 57.824219 50.179688 C 57.875 50.421875 57.804688 50.644531 57.683594 50.824219 C 57.683594 50.875 57.695312 50.925781 57.714844 50.964844 C 57.804688 51.257812 58.054688 51.488281 58.355469 51.515625 C 58.648438 51.546875 58.929688 51.417969 59.082031 51.15625 C 59.203125 50.933594 59.191406 50.644531 59.171875 50.402344 C 59.171875 50.339844 59.253906 50.3125 59.292969 50.351562 C 59.574219 50.621094 59.542969 51.035156 59.34375 51.355469 C 59.34375 51.355469 59.34375 51.355469 59.34375 51.367188 C 59.351562 51.375 59.351562 51.386719 59.363281 51.398438 C 59.414062 51.355469 59.492188 51.367188 59.511719 51.4375 C 59.523438 51.476562 59.523438 51.507812 59.535156 51.539062 C 59.714844 51.628906 59.925781 51.578125 60.085938 51.46875 C 60.476562 51.214844 60.679688 50.621094 60.289062 50.28125 C 60.257812 50.261719 60.289062 50.21875 60.316406 50.21875 C 61.183594 50.402344 60.660156 51.546875 60.066406 51.738281 C 59.894531 51.800781 59.703125 51.800781 59.542969 51.738281 C 59.542969 51.898438 59.492188 52.0625 59.421875 52.203125 C 59.492188 52.371094 59.613281 52.511719 59.785156 52.605469 C 60.078125 52.753906 60.527344 52.703125 60.800781 52.535156 C 60.851562 52.511719 60.910156 52.574219 60.878906 52.625 Z M 55.773438 50.753906 C 55.792969 50.734375 55.8125 50.714844 55.835938 50.714844 C 55.785156 50.59375 55.765625 50.460938 55.785156 50.320312 C 55.792969 50.28125 55.792969 50.242188 55.8125 50.210938 C 55.453125 50.191406 55.089844 49.988281 54.949219 49.636719 C 54.898438 49.648438 54.847656 49.65625 54.800781 49.65625 C 54.488281 49.980469 54.375 50.480469 54.6875 50.855469 C 54.980469 51.207031 55.511719 51.117188 55.773438 50.753906 Z M 57.644531 51.335938 C 57.613281 51.285156 57.59375 51.234375 57.574219 51.1875 C 57.554688 51.117188 57.53125 51.042969 57.53125 50.984375 C 57.210938 51.265625 56.699219 51.375 56.296875 51.1875 C 56.164062 51.125 56.046875 51.023438 55.953125 50.914062 C 55.914062 51.054688 55.84375 51.164062 55.742188 51.246094 C 55.742188 51.679688 56.035156 52.089844 56.527344 52.109375 C 57.101562 52.132812 57.292969 51.6875 57.644531 51.335938 Z M 59.28125 51.558594 C 59.261719 51.539062 59.253906 51.515625 59.242188 51.488281 C 59.03125 51.730469 58.699219 51.847656 58.367188 51.808594 C 58.105469 51.777344 57.875 51.648438 57.722656 51.457031 C 57.714844 51.628906 57.664062 51.789062 57.574219 51.929688 C 57.714844 52.292969 58.054688 52.542969 58.476562 52.460938 C 58.949219 52.371094 59.152344 51.96875 59.28125 51.558594 Z M 58.296875 44.71875 C 57.695312 44.417969 57.492188 43.703125 57.734375 43.140625 C 57.363281 43.210938 56.929688 43.03125 56.699219 42.65625 C 56.367188 42.113281 56.589844 41.5 57.011719 41.097656 C 56.507812 41.210938 56.015625 41.089844 55.785156 40.515625 C 55.574219 39.972656 55.8125 39.417969 56.265625 39.128906 C 55.914062 38.867188 55.734375 38.3125 55.855469 37.910156 C 56.054688 37.175781 56.929688 37.085938 57.574219 37.066406 C 57.632812 37.066406 57.632812 37.15625 57.574219 37.15625 C 57.070312 37.21875 56.285156 37.339844 56.136719 37.941406 C 56.023438 38.425781 56.355469 38.707031 56.6875 38.957031 C 56.71875 38.96875 56.75 38.988281 56.769531 39.019531 C 56.777344 39.027344 56.777344 39.027344 56.789062 39.039062 C 56.890625 39.117188 56.808594 39.300781 56.6875 39.289062 C 56.636719 39.289062 56.597656 39.277344 56.558594 39.269531 C 56.164062 39.539062 55.875 40.042969 56.265625 40.464844 C 56.578125 40.808594 57.019531 40.625 57.433594 40.625 C 57.460938 40.414062 57.574219 40.222656 57.753906 40.105469 C 57.773438 40.082031 57.804688 40.074219 57.835938 40.054688 C 57.703125 40.011719 57.582031 39.941406 57.460938 39.863281 C 57.160156 39.640625 56.890625 39.277344 56.949219 38.886719 C 57.011719 38.503906 57.34375 38.214844 57.714844 38.121094 C 58.175781 38 58.589844 38.234375 58.980469 38.445312 C 58.992188 38.453125 58.980469 38.464844 58.96875 38.464844 C 58.519531 38.394531 57.351562 38.222656 57.351562 38.96875 C 57.351562 39.519531 58.195312 39.722656 58.609375 39.851562 C 58.667969 39.871094 58.6875 39.964844 58.628906 39.992188 C 58.570312 40.023438 58.507812 40.054688 58.449219 40.074219 C 58.457031 40.082031 58.46875 40.082031 58.46875 40.09375 C 58.46875 40.09375 58.46875 40.105469 58.46875 40.105469 C 58.425781 40.105469 58.398438 40.105469 58.367188 40.105469 C 58.316406 40.113281 58.265625 40.125 58.214844 40.125 C 57.84375 40.214844 57.601562 40.566406 57.84375 40.96875 C 58.097656 41.390625 58.640625 41.351562 59.0625 41.378906 C 59.089844 41.378906 59.101562 41.410156 59.082031 41.429688 C 58.941406 41.613281 58.75 41.703125 58.558594 41.734375 C 58.328125 41.953125 58.214844 42.296875 58.417969 42.585938 C 58.628906 42.878906 59.210938 42.898438 59.472656 42.679688 C 59.535156 42.628906 59.613281 42.6875 59.574219 42.757812 C 59.433594 43.03125 59.179688 43.199219 58.871094 43.171875 C 58.617188 43.152344 58.367188 43.03125 58.214844 42.820312 C 58.144531 42.941406 58.046875 43.039062 57.933594 43.089844 C 57.792969 43.5625 57.957031 44.136719 58.4375 44.347656 C 58.949219 44.578125 59.542969 44.246094 59.695312 43.722656 C 59.703125 43.695312 59.746094 43.695312 59.753906 43.722656 C 59.925781 44.546875 59.019531 45.082031 58.296875 44.71875 Z M 58.074219 42.507812 C 58.015625 42.226562 58.136719 41.914062 58.347656 41.710938 C 57.945312 41.664062 57.5625 41.359375 57.453125 40.949219 C 57.402344 40.96875 57.351562 41 57.300781 41.019531 C 57.019531 41.351562 56.839844 41.773438 56.980469 42.207031 C 57.132812 42.6875 57.703125 42.828125 58.074219 42.507812 Z M 75.324219 52.675781 C 75.34375 53.1875 74.921875 53.457031 74.5 53.40625 C 74.550781 53.429688 74.601562 53.480469 74.601562 53.539062 C 74.652344 54.375 73.605469 54.875 72.902344 54.636719 C 72.449219 54.484375 72.039062 53.910156 72.039062 53.398438 C 71.738281 53.679688 71.324219 53.839844 70.914062 53.769531 C 69.878906 53.589844 69.796875 52.574219 70.136719 51.789062 C 69.796875 51.898438 69.394531 51.839844 69.082031 51.566406 C 68.769531 51.285156 68.609375 50.863281 68.722656 50.460938 C 68.851562 49.980469 69.3125 49.667969 69.726562 49.445312 C 69.757812 49.425781 69.808594 49.464844 69.777344 49.496094 C 69.425781 50 68.730469 50.402344 69.222656 51.085938 C 69.605469 51.617188 70.328125 51.328125 70.691406 50.902344 C 70.589844 50.773438 70.53125 50.621094 70.519531 50.453125 C 70.492188 50 70.8125 49.597656 71.183594 49.386719 C 71.183594 49.386719 71.195312 49.386719 71.195312 49.394531 C 70.992188 49.667969 70.800781 49.929688 70.8125 50.289062 C 70.820312 50.664062 71.0625 50.914062 71.433594 50.894531 C 71.738281 50.882812 71.976562 50.703125 72.117188 50.441406 C 72.21875 50.242188 72.238281 50.019531 72.359375 49.828125 C 72.410156 49.757812 72.53125 49.738281 72.570312 49.828125 C 72.753906 50.191406 72.53125 50.644531 72.269531 50.925781 C 72.199219 50.996094 72.117188 51.066406 72.039062 51.117188 C 72.027344 51.628906 72.5 52.050781 73.054688 51.941406 C 73.6875 51.808594 73.847656 51.117188 73.90625 50.570312 C 73.917969 50.523438 73.96875 50.511719 74 50.550781 C 74.308594 51.015625 74.191406 51.527344 73.867188 51.890625 C 73.835938 52.25 73.9375 52.632812 74.230469 52.886719 C 74.621094 53.21875 74.902344 52.84375 75.246094 52.652344 C 75.273438 52.613281 75.324219 52.632812 75.324219 52.675781 Z M 72.238281 52.050781 C 71.988281 51.828125 71.847656 51.496094 71.886719 51.164062 C 71.675781 51.257812 71.433594 51.285156 71.195312 51.226562 C 71.054688 51.1875 70.921875 51.125 70.820312 51.035156 C 70.761719 51.355469 70.539062 51.609375 70.269531 51.738281 C 70.058594 52.382812 70.007812 53.246094 70.84375 53.417969 C 71.6875 53.589844 72.199219 52.773438 72.238281 52.050781 Z M 74.449219 53.40625 C 74.332031 53.386719 74.210938 53.335938 74.097656 53.265625 C 73.71875 52.996094 73.554688 52.542969 73.597656 52.089844 C 73.40625 52.222656 73.175781 52.300781 72.941406 52.300781 C 72.753906 52.3125 72.582031 52.261719 72.421875 52.179688 C 72.601562 52.492188 72.449219 52.90625 72.238281 53.1875 C 72.238281 53.195312 72.230469 53.195312 72.230469 53.207031 C 72.289062 53.691406 72.449219 54.132812 72.992188 54.292969 C 73.636719 54.484375 74.046875 53.972656 74.332031 53.488281 C 74.359375 53.429688 74.410156 53.40625 74.449219 53.40625 Z M 75.414062 49.15625 C 75.316406 49.082031 75.195312 49.203125 75.214844 49.304688 C 75.34375 49.796875 75.226562 50.402344 74.601562 50.382812 C 73.828125 50.359375 73.667969 49.425781 74.089844 48.914062 C 74.097656 48.902344 74.078125 48.882812 74.070312 48.894531 C 73.324219 49.484375 73.636719 50.652344 74.582031 50.785156 C 75.425781 50.894531 76.210938 49.707031 75.414062 49.15625 Z M 73.816406 51.707031 C 73.816406 51.6875 73.808594 51.667969 73.808594 51.660156 C 73.789062 51.578125 73.675781 51.6875 73.757812 51.707031 C 73.777344 51.707031 73.796875 51.707031 73.816406 51.707031 C 73.816406 51.71875 73.816406 51.707031 73.816406 51.707031 Z M 73.816406 51.707031"/></svg>