<svg xmlns="http://www.w3.org/2000/svg" width="112.5" viewBox="0 0 112.5 112.5" height="112.5" version="1.0"><defs><clipPath id="a"><path d="M 0 0 L 112.003906 0 L 112.003906 112.003906 L 0 112.003906 Z M 0 0"/></clipPath><clipPath id="b"><path d="M 11.25 13.386719 L 101.25 13.386719 L 101.25 98.886719 L 11.25 98.886719 Z M 11.25 13.386719"/></clipPath></defs><g clip-path="url(#a)"><path fill="#FFF" d="M 0 0 L 112.5 0 L 112.5 472.5 L 0 472.5 Z M 0 0"/><path fill="#FFF" d="M 0 0 L 112.5 0 L 112.5 112.5 L 0 112.5 Z M 0 0"/><path d="M 0 0 L 112.5 0 L 112.5 112.5 L 0 112.5 Z M 0 0"/></g><path fill="#FFF" d="M 24.679688 45.652344 C 24.679688 45.988281 24.617188 46.308594 24.488281 46.621094 C 24.359375 46.929688 24.175781 47.203125 23.9375 47.4375 C 23.699219 47.675781 23.425781 47.859375 23.117188 47.984375 C 22.808594 48.113281 22.484375 48.179688 22.148438 48.179688 C 21.8125 48.179688 21.488281 48.113281 21.179688 47.984375 C 20.871094 47.859375 20.597656 47.675781 20.359375 47.4375 C 20.121094 47.203125 19.9375 46.929688 19.808594 46.621094 C 19.679688 46.308594 19.617188 45.988281 19.617188 45.652344 C 19.617188 45.316406 19.679688 44.996094 19.808594 44.6875 C 19.9375 44.378906 20.121094 44.105469 20.359375 43.867188 C 20.597656 43.632812 20.871094 43.449219 21.179688 43.320312 C 21.488281 43.191406 21.8125 43.128906 22.148438 43.128906 C 22.484375 43.128906 22.808594 43.191406 23.117188 43.320312 C 23.425781 43.449219 23.699219 43.632812 23.9375 43.867188 C 24.175781 44.105469 24.359375 44.378906 24.488281 44.6875 C 24.617188 44.996094 24.679688 45.316406 24.679688 45.652344 Z M 24.679688 45.652344"/><path fill="#FFF" d="M 22.359375 49.511719 L 21.867188 49.511719 C 19.898438 49.511719 18.210938 50.492188 17.226562 51.964844 C 18.351562 53.578125 20.179688 54.628906 22.359375 54.628906 C 24.328125 54.628906 26.15625 53.648438 27.28125 52.246094 C 26.226562 50.632812 24.46875 49.511719 22.359375 49.511719 Z M 22.359375 49.511719"/><path fill="#FFF" d="M 92.953125 45.652344 C 92.953125 45.988281 92.890625 46.308594 92.761719 46.621094 C 92.632812 46.929688 92.449219 47.203125 92.210938 47.4375 C 91.972656 47.675781 91.699219 47.859375 91.390625 47.984375 C 91.082031 48.113281 90.757812 48.179688 90.421875 48.179688 C 90.085938 48.179688 89.761719 48.113281 89.453125 47.984375 C 89.144531 47.859375 88.871094 47.675781 88.632812 47.4375 C 88.394531 47.203125 88.210938 46.929688 88.082031 46.621094 C 87.953125 46.308594 87.890625 45.988281 87.890625 45.652344 C 87.890625 45.316406 87.953125 44.996094 88.082031 44.6875 C 88.210938 44.378906 88.394531 44.105469 88.632812 43.867188 C 88.871094 43.632812 89.144531 43.449219 89.453125 43.320312 C 89.761719 43.191406 90.085938 43.128906 90.421875 43.128906 C 90.757812 43.128906 91.082031 43.191406 91.390625 43.320312 C 91.699219 43.449219 91.972656 43.632812 92.210938 43.867188 C 92.449219 44.105469 92.632812 44.378906 92.761719 44.6875 C 92.890625 44.996094 92.953125 45.316406 92.953125 45.652344 Z M 92.953125 45.652344"/><path fill="#FFF" d="M 90.632812 49.511719 L 90.140625 49.511719 C 88.171875 49.511719 86.484375 50.492188 85.5 51.964844 C 86.625 53.578125 88.453125 54.628906 90.632812 54.628906 C 92.601562 54.628906 94.429688 53.648438 95.554688 52.246094 C 94.570312 50.632812 92.742188 49.511719 90.632812 49.511719 Z M 90.632812 49.511719"/><g clip-path="url(#b)"><path fill="#FFF" d="M 90.421875 37.9375 C 84.445312 37.9375 79.59375 42.777344 79.59375 48.738281 C 79.59375 49.441406 79.664062 50.070312 79.804688 50.773438 L 66.09375 55.191406 C 64.617188 51.753906 61.453125 49.300781 57.65625 48.738281 L 57.65625 34.921875 C 62.789062 34.082031 66.796875 29.59375 66.796875 24.191406 C 66.796875 18.230469 61.945312 13.394531 55.96875 13.394531 C 49.992188 13.394531 45.140625 18.230469 45.140625 24.191406 C 45.140625 29.734375 49.429688 34.363281 54.914062 34.921875 L 54.914062 48.597656 C 50.976562 49.019531 47.671875 51.542969 46.125 55.050781 L 32.835938 50.773438 C 32.976562 50.140625 33.046875 49.441406 33.046875 48.738281 C 32.976562 42.777344 28.125 37.9375 22.078125 37.9375 C 16.101562 37.9375 11.25 42.777344 11.25 48.808594 C 11.25 54.769531 16.101562 59.609375 22.078125 59.609375 C 26.367188 59.609375 30.09375 57.085938 31.851562 53.507812 L 45.28125 57.855469 C 45.210938 58.347656 45.140625 58.90625 45.140625 59.46875 C 45.140625 62.695312 46.546875 65.640625 48.867188 67.605469 L 40.78125 78.683594 C 39.234375 77.84375 37.40625 77.28125 35.507812 77.28125 C 29.53125 77.28125 24.679688 82.121094 24.679688 88.082031 C 24.679688 94.042969 29.53125 98.882812 35.507812 98.882812 C 41.484375 98.882812 46.335938 94.042969 46.335938 88.082031 C 46.335938 85.066406 45.070312 82.261719 43.03125 80.296875 L 51.257812 69.078125 C 52.734375 69.777344 54.351562 70.199219 56.039062 70.199219 C 57.867188 70.199219 59.625 69.707031 61.101562 68.9375 L 69.398438 80.296875 C 67.359375 82.261719 66.09375 84.996094 66.09375 88.011719 C 66.09375 93.972656 70.945312 98.8125 76.921875 98.8125 C 82.898438 98.8125 87.75 93.972656 87.75 88.011719 C 87.75 82.050781 82.898438 77.210938 76.921875 77.210938 C 75.023438 77.210938 73.195312 77.703125 71.578125 78.613281 L 63.421875 67.324219 C 65.53125 65.359375 66.9375 62.554688 66.9375 59.398438 C 66.9375 58.90625 66.867188 58.417969 66.796875 57.925781 L 80.648438 53.4375 C 82.40625 57.085938 86.132812 59.609375 90.421875 59.609375 C 96.398438 59.609375 101.25 54.769531 101.25 48.808594 C 101.25 42.777344 96.398438 37.9375 90.421875 37.9375 Z M 22.078125 56.804688 C 17.648438 56.804688 14.0625 53.15625 14.0625 48.808594 C 14.0625 44.460938 17.648438 40.742188 22.078125 40.742188 C 26.507812 40.742188 30.09375 44.320312 30.09375 48.738281 C 30.09375 53.15625 26.507812 56.804688 22.078125 56.804688 Z M 43.523438 88.152344 C 43.523438 92.570312 39.9375 96.148438 35.507812 96.148438 C 31.078125 96.148438 27.492188 92.570312 27.492188 88.152344 C 27.492188 83.734375 31.078125 80.15625 35.507812 80.15625 C 39.867188 80.085938 43.523438 83.734375 43.523438 88.152344 Z M 85.007812 88.152344 C 85.007812 92.570312 81.421875 96.148438 76.992188 96.148438 C 72.5625 96.148438 68.976562 92.570312 68.976562 88.152344 C 68.976562 83.734375 72.5625 80.15625 76.992188 80.15625 C 81.421875 80.085938 85.007812 83.734375 85.007812 88.152344 Z M 47.953125 24.191406 C 47.953125 19.773438 51.539062 16.199219 55.96875 16.199219 C 60.398438 16.199219 63.984375 19.773438 63.984375 24.191406 C 63.984375 28.613281 60.398438 32.1875 55.96875 32.1875 C 51.539062 32.257812 47.953125 28.613281 47.953125 24.191406 Z M 56.039062 67.464844 C 51.609375 67.464844 48.023438 63.886719 48.023438 59.46875 C 48.023438 55.050781 51.609375 51.472656 56.039062 51.472656 C 60.46875 51.472656 64.054688 55.050781 64.054688 59.46875 C 64.054688 63.886719 60.46875 67.464844 56.039062 67.464844 Z M 90.421875 56.804688 C 85.992188 56.804688 82.40625 53.226562 82.40625 48.808594 C 82.40625 44.390625 85.992188 40.742188 90.421875 40.742188 C 94.851562 40.742188 98.4375 44.320312 98.4375 48.738281 C 98.4375 53.15625 94.851562 56.804688 90.421875 56.804688 Z M 90.421875 56.804688"/></g><path fill="#FFF" d="M 58.5 21.109375 C 58.5 21.441406 58.4375 21.765625 58.308594 22.074219 C 58.179688 22.382812 57.996094 22.65625 57.757812 22.894531 C 57.519531 23.128906 57.246094 23.3125 56.9375 23.441406 C 56.628906 23.566406 56.304688 23.632812 55.96875 23.632812 C 55.632812 23.632812 55.308594 23.566406 55 23.441406 C 54.691406 23.3125 54.417969 23.128906 54.179688 22.894531 C 53.941406 22.65625 53.757812 22.382812 53.628906 22.074219 C 53.5 21.765625 53.4375 21.441406 53.4375 21.109375 C 53.4375 20.773438 53.5 20.449219 53.628906 20.140625 C 53.757812 19.832031 53.941406 19.558594 54.179688 19.324219 C 54.417969 19.085938 54.691406 18.902344 55 18.773438 C 55.308594 18.648438 55.632812 18.582031 55.96875 18.582031 C 56.304688 18.582031 56.628906 18.648438 56.9375 18.773438 C 57.246094 18.902344 57.519531 19.085938 57.757812 19.324219 C 57.996094 19.558594 58.179688 19.832031 58.308594 20.140625 C 58.4375 20.449219 58.5 20.773438 58.5 21.109375 Z M 58.5 21.109375"/><path fill="#FFF" d="M 61.03125 27.699219 C 60.117188 26.085938 58.289062 24.964844 56.179688 24.964844 L 55.6875 24.964844 C 53.71875 24.964844 52.03125 25.945312 51.046875 27.417969 C 52.171875 29.03125 54 30.085938 56.179688 30.085938 C 58.148438 30.085938 59.90625 29.171875 61.03125 27.699219 Z M 61.03125 27.699219"/><path fill="#FFF" d="M 79.523438 84.996094 C 79.523438 85.332031 79.460938 85.652344 79.332031 85.960938 C 79.203125 86.269531 79.019531 86.542969 78.78125 86.78125 C 78.542969 87.019531 78.269531 87.199219 77.960938 87.328125 C 77.652344 87.457031 77.328125 87.519531 76.992188 87.519531 C 76.65625 87.519531 76.332031 87.457031 76.023438 87.328125 C 75.714844 87.199219 75.441406 87.019531 75.203125 86.78125 C 74.964844 86.542969 74.78125 86.269531 74.652344 85.960938 C 74.523438 85.652344 74.460938 85.332031 74.460938 84.996094 C 74.460938 84.660156 74.523438 84.339844 74.652344 84.03125 C 74.78125 83.71875 74.964844 83.449219 75.203125 83.210938 C 75.441406 82.972656 75.714844 82.792969 76.023438 82.664062 C 76.332031 82.535156 76.65625 82.472656 76.992188 82.472656 C 77.328125 82.472656 77.652344 82.535156 77.960938 82.664062 C 78.269531 82.792969 78.542969 82.972656 78.78125 83.210938 C 79.019531 83.449219 79.203125 83.71875 79.332031 84.03125 C 79.460938 84.339844 79.523438 84.660156 79.523438 84.996094 Z M 79.523438 84.996094"/><path fill="#FFF" d="M 77.132812 93.972656 C 79.101562 93.972656 80.929688 92.992188 82.054688 91.589844 C 81.070312 89.976562 79.3125 88.851562 77.203125 88.851562 L 76.710938 88.851562 C 74.742188 88.851562 73.054688 89.835938 72.070312 91.308594 C 73.195312 92.921875 75.023438 93.972656 77.132812 93.972656 Z M 77.132812 93.972656"/><path fill="#FFF" d="M 38.039062 84.996094 C 38.039062 85.332031 37.976562 85.652344 37.847656 85.960938 C 37.71875 86.269531 37.535156 86.542969 37.296875 86.78125 C 37.058594 87.019531 36.785156 87.199219 36.476562 87.328125 C 36.167969 87.457031 35.84375 87.519531 35.507812 87.519531 C 35.171875 87.519531 34.847656 87.457031 34.539062 87.328125 C 34.230469 87.199219 33.957031 87.019531 33.71875 86.78125 C 33.480469 86.542969 33.296875 86.269531 33.167969 85.960938 C 33.039062 85.652344 32.976562 85.332031 32.976562 84.996094 C 32.976562 84.660156 33.039062 84.339844 33.167969 84.03125 C 33.296875 83.71875 33.480469 83.449219 33.71875 83.210938 C 33.957031 82.972656 34.230469 82.792969 34.539062 82.664062 C 34.847656 82.535156 35.171875 82.472656 35.507812 82.472656 C 35.84375 82.472656 36.167969 82.535156 36.476562 82.664062 C 36.785156 82.792969 37.058594 82.972656 37.296875 83.210938 C 37.535156 83.449219 37.71875 83.71875 37.847656 84.03125 C 37.976562 84.339844 38.039062 84.660156 38.039062 84.996094 Z M 38.039062 84.996094"/><path fill="#FFF" d="M 35.71875 88.851562 L 35.226562 88.851562 C 33.257812 88.851562 31.570312 89.835938 30.585938 91.308594 C 31.710938 92.921875 33.539062 93.972656 35.71875 93.972656 C 37.6875 93.972656 39.515625 92.992188 40.640625 91.589844 C 39.585938 89.976562 37.828125 88.851562 35.71875 88.851562 Z M 35.71875 88.851562"/><path fill="#FFF" d="M 58.570312 56.3125 C 58.570312 56.648438 58.507812 56.96875 58.378906 57.277344 C 58.25 57.589844 58.066406 57.859375 57.828125 58.097656 C 57.589844 58.335938 57.316406 58.515625 57.007812 58.644531 C 56.699219 58.773438 56.375 58.835938 56.039062 58.835938 C 55.703125 58.835938 55.378906 58.773438 55.070312 58.644531 C 54.761719 58.515625 54.488281 58.335938 54.25 58.097656 C 54.011719 57.859375 53.828125 57.589844 53.699219 57.277344 C 53.570312 56.96875 53.507812 56.648438 53.507812 56.3125 C 53.507812 55.976562 53.570312 55.65625 53.699219 55.347656 C 53.828125 55.039062 54.011719 54.765625 54.25 54.527344 C 54.488281 54.289062 54.761719 54.109375 55.070312 53.980469 C 55.378906 53.851562 55.703125 53.789062 56.039062 53.789062 C 56.375 53.789062 56.699219 53.851562 57.007812 53.980469 C 57.316406 54.109375 57.589844 54.289062 57.828125 54.527344 C 58.066406 54.765625 58.25 55.039062 58.378906 55.347656 C 58.507812 55.65625 58.570312 55.976562 58.570312 56.3125 Z M 58.570312 56.3125"/><path fill="#FFF" d="M 56.320312 60.171875 L 55.828125 60.171875 C 53.859375 60.171875 52.171875 61.152344 51.1875 62.625 C 52.3125 64.238281 54.140625 65.289062 56.320312 65.289062 C 58.289062 65.289062 60.117188 64.308594 61.242188 62.90625 C 60.1875 61.292969 58.359375 60.171875 56.320312 60.171875 Z M 56.320312 60.171875"/></svg>