<svg xmlns="http://www.w3.org/2000/svg" width="112.5" viewBox="0 0 112.5 112.5" height="112.5" version="1.0"><defs><clipPath id="a"><path d="M 0 0 L 112.003906 0 L 112.003906 112.003906 L 0 112.003906 Z M 0 0"/></clipPath><clipPath id="b"><path d="M 51.878906 83.304688 L 61.179688 83.304688 L 61.179688 92.648438 L 51.878906 92.648438 Z M 51.878906 83.304688"/></clipPath><clipPath id="c"><path d="M 80 53 L 90.582031 53 L 90.582031 57 L 80 57 Z M 80 53"/></clipPath><clipPath id="d"><path d="M 21.582031 53 L 32 53 L 32 57 L 21.582031 57 Z M 21.582031 53"/></clipPath><clipPath id="e"><path d="M 54 19.898438 L 59 19.898438 L 59 30 L 54 30 Z M 54 19.898438"/></clipPath></defs><g clip-path="url(#a)"><path fill="#FFF" d="M 0 0 L 112.5 0 L 112.5 112.5 L 0 112.5 Z M 0 0"/><path d="M 0 0 L 112.5 0 L 112.5 112.5 L 0 112.5 Z M 0 0"/></g><path fill="#ECC10C" d="M 73.988281 54.59375 C 73.988281 44.695312 66.160156 36.671875 56.507812 36.671875 C 46.855469 36.671875 39.03125 44.695312 39.03125 54.59375 C 39.03125 60.121094 41.46875 65.0625 45.300781 68.347656 C 46.238281 70.25 47.175781 72.554688 47.449219 74.613281 C 48.046875 79.117188 56.507812 78.617188 56.507812 78.617188 C 56.507812 78.617188 64.96875 79.117188 65.566406 74.613281 C 65.839844 72.554688 66.777344 70.25 67.714844 68.347656 C 71.546875 65.0625 73.988281 60.121094 73.988281 54.59375"/><path fill="#F29211" d="M 62.828125 65.0625 C 61.496094 65.0625 60.417969 63.980469 60.417969 62.640625 C 60.417969 61.300781 61.496094 60.214844 62.828125 60.214844 C 64.160156 60.214844 65.238281 61.300781 65.238281 62.640625 C 65.238281 63.980469 64.160156 65.0625 62.828125 65.0625 Z M 60.160156 65.09375 L 60.234375 64.316406 C 60.425781 64.613281 60.664062 64.875 60.945312 65.09375 Z M 52.074219 65.09375 C 52.339844 64.882812 52.574219 64.636719 52.761719 64.351562 L 52.835938 65.09375 Z M 47.777344 62.640625 C 47.777344 61.300781 48.855469 60.214844 50.1875 60.214844 C 51.519531 60.214844 52.597656 61.300781 52.597656 62.640625 C 52.597656 63.980469 51.519531 65.0625 50.1875 65.0625 C 48.855469 65.0625 47.777344 63.980469 47.777344 62.640625 Z M 62.828125 59.539062 C 61.125 59.539062 59.742188 60.925781 59.742188 62.640625 C 59.742188 62.65625 59.746094 62.675781 59.746094 62.691406 L 59.507812 65.09375 L 53.484375 65.09375 L 53.261719 62.851562 C 53.269531 62.78125 53.273438 62.710938 53.273438 62.640625 C 53.273438 60.925781 51.890625 59.539062 50.1875 59.539062 C 48.484375 59.539062 47.101562 60.925781 47.101562 62.640625 C 47.101562 64.355469 48.484375 65.742188 50.1875 65.742188 L 52.898438 65.742188 L 54.175781 78.632812 L 54.820312 78.566406 L 53.550781 65.742188 L 59.445312 65.742188 L 58.171875 78.566406 L 58.816406 78.632812 L 60.09375 65.742188 L 62.332031 65.742188 L 62.332031 65.699219 C 62.492188 65.726562 62.660156 65.742188 62.828125 65.742188 C 64.535156 65.742188 65.914062 64.355469 65.914062 62.640625 C 65.914062 60.925781 64.535156 59.539062 62.828125 59.539062"/><g clip-path="url(#b)"><path fill="#32435B" d="M 61.136719 87.949219 C 61.160156 90.519531 59.105469 92.625 56.550781 92.648438 C 53.992188 92.667969 51.902344 90.601562 51.878906 88.03125 C 51.855469 85.460938 53.910156 83.359375 56.46875 83.335938 C 59.023438 83.3125 61.117188 85.378906 61.136719 87.949219"/></g><path fill="#BDC2C5" d="M 63.773438 77.429688 L 63.773438 87.691406 C 63.773438 88.960938 62.75 89.992188 61.484375 89.992188 L 51.53125 89.992188 C 50.269531 89.992188 49.242188 88.960938 49.242188 87.691406 L 49.242188 77.429688 L 63.773438 77.429688"/><path fill="#EFF4F4" d="M 61.964844 85.636719 L 51.054688 85.636719 C 49.667969 85.636719 48.542969 86.152344 48.542969 86.789062 C 48.542969 87.40625 49.597656 87.90625 50.925781 87.9375 C 50.964844 87.9375 51.007812 87.941406 51.054688 87.941406 L 61.964844 87.941406 C 62.007812 87.941406 62.050781 87.9375 62.09375 87.9375 C 63.421875 87.90625 64.472656 87.40625 64.472656 86.789062 C 64.472656 86.152344 63.351562 85.636719 61.964844 85.636719"/><path fill="#EFF4F4" d="M 61.964844 82.496094 L 51.054688 82.496094 C 49.667969 82.496094 48.542969 83.011719 48.542969 83.648438 C 48.542969 84.265625 49.597656 84.769531 50.925781 84.800781 C 50.964844 84.800781 51.007812 84.800781 51.054688 84.800781 L 61.964844 84.800781 C 62.007812 84.800781 62.050781 84.800781 62.09375 84.800781 C 63.421875 84.769531 64.472656 84.265625 64.472656 83.648438 C 64.472656 83.011719 63.351562 82.496094 61.964844 82.496094"/><path fill="#EFF4F4" d="M 61.964844 79.359375 L 51.054688 79.359375 C 49.667969 79.359375 48.542969 79.875 48.542969 80.507812 C 48.542969 81.125 49.597656 81.628906 50.925781 81.660156 C 50.964844 81.660156 51.007812 81.660156 51.054688 81.660156 L 61.964844 81.660156 C 62.007812 81.660156 62.050781 81.660156 62.09375 81.660156 C 63.421875 81.628906 64.472656 81.125 64.472656 80.507812 C 64.472656 79.875 63.351562 79.359375 61.964844 79.359375"/><path fill="#ECC10C" d="M 80.859375 76.855469 L 76.582031 72.367188 C 76.039062 71.796875 75.085938 71.828125 74.449219 72.441406 C 73.835938 73.035156 73.746094 73.953125 74.234375 74.527344 C 74.25 74.542969 74.265625 74.5625 74.285156 74.582031 L 78.558594 79.070312 C 78.574219 79.085938 78.59375 79.105469 78.609375 79.121094 C 79.160156 79.636719 80.074219 79.585938 80.691406 78.992188 C 81.328125 78.382812 81.402344 77.421875 80.859375 76.855469"/><g clip-path="url(#c)"><path fill="#ECC10C" d="M 88.910156 53.0625 L 82.128906 53.304688 C 81.269531 53.332031 80.597656 54.074219 80.628906 54.957031 C 80.65625 55.8125 81.335938 56.492188 82.164062 56.503906 C 82.1875 56.503906 82.214844 56.503906 82.242188 56.503906 L 89.023438 56.261719 C 89.050781 56.261719 89.078125 56.257812 89.105469 56.257812 C 89.925781 56.1875 90.558594 55.460938 90.527344 54.605469 C 90.496094 53.722656 89.773438 53.03125 88.910156 53.0625"/></g><path fill="#ECC10C" d="M 78.402344 30.28125 L 73.394531 34.882812 C 72.761719 35.46875 72.726562 36.472656 73.320312 37.125 C 73.894531 37.757812 74.847656 37.828125 75.484375 37.300781 C 75.503906 37.28125 75.523438 37.265625 75.546875 37.246094 L 80.550781 32.644531 C 80.574219 32.625 80.59375 32.605469 80.609375 32.589844 C 81.191406 31.996094 81.203125 31.035156 80.628906 30.402344 C 80.035156 29.75 79.039062 29.695312 78.402344 30.28125"/><path fill="#ECC10C" d="M 31.304688 76.960938 L 35.578125 72.472656 C 36.121094 71.902344 37.078125 71.9375 37.710938 72.550781 C 38.328125 73.140625 38.417969 74.058594 37.929688 74.636719 C 37.910156 74.652344 37.894531 74.671875 37.878906 74.6875 L 33.605469 79.175781 C 33.585938 79.195312 33.570312 79.210938 33.554688 79.230469 C 33.003906 79.746094 32.085938 79.695312 31.472656 79.101562 C 30.835938 78.488281 30.761719 77.53125 31.304688 76.960938"/><g clip-path="url(#d)"><path fill="#ECC10C" d="M 23.25 53.167969 L 30.03125 53.410156 C 30.890625 53.441406 31.566406 54.183594 31.535156 55.066406 C 31.503906 55.921875 30.824219 56.597656 30 56.613281 C 29.972656 56.613281 29.945312 56.613281 29.917969 56.613281 L 23.136719 56.371094 C 23.109375 56.371094 23.082031 56.367188 23.058594 56.367188 C 22.234375 56.292969 21.605469 55.570312 21.632812 54.714844 C 21.664062 53.832031 22.390625 53.140625 23.25 53.167969"/></g><path fill="#ECC10C" d="M 33.757812 30.386719 L 38.765625 34.992188 C 39.402344 35.574219 39.4375 36.578125 38.84375 37.230469 C 38.269531 37.863281 37.316406 37.9375 36.675781 37.410156 C 36.65625 37.390625 36.636719 37.375 36.617188 37.355469 L 31.609375 32.75 C 31.589844 32.734375 31.570312 32.714844 31.550781 32.695312 C 30.972656 32.105469 30.957031 31.140625 31.53125 30.511719 C 32.125 29.859375 33.121094 29.800781 33.757812 30.386719"/><g clip-path="url(#e)"><path fill="#ECC10C" d="M 54.863281 21.507812 L 54.96875 28.332031 C 54.984375 29.195312 55.707031 29.886719 56.585938 29.875 C 57.4375 29.859375 58.125 29.191406 58.15625 28.359375 C 58.15625 28.335938 58.15625 28.308594 58.15625 28.28125 L 58.046875 21.457031 C 58.046875 21.429688 58.046875 21.402344 58.042969 21.375 C 57.988281 20.546875 57.28125 19.898438 56.429688 19.914062 C 55.550781 19.929688 54.847656 20.640625 54.863281 21.507812"/></g></svg>