<svg xmlns="http://www.w3.org/2000/svg" width="112.5" viewBox="0 0 112.5 112.5" height="112.5" version="1.0"><defs><clipPath id="a"><path d="M 0 0 L 112.003906 0 L 112.003906 112.003906 L 0 112.003906 Z M 0 0"/></clipPath><clipPath id="b"><path d="M 20 66 L 30 66 L 30 92.660156 L 20 92.660156 Z M 20 66"/></clipPath><clipPath id="c"><path d="M 32 66 L 43 66 L 43 92.660156 L 32 92.660156 Z M 32 66"/></clipPath><clipPath id="d"><path d="M 20 36 L 43 36 L 43 92.660156 L 20 92.660156 Z M 20 36"/></clipPath><clipPath id="e"><path d="M 70 36 L 92.660156 36 L 92.660156 67 L 70 67 Z M 70 36"/></clipPath><clipPath id="f"><path d="M 70 66 L 80 66 L 80 92.660156 L 70 92.660156 Z M 70 66"/></clipPath><clipPath id="g"><path d="M 83 66 L 92.660156 66 L 92.660156 92.660156 L 83 92.660156 Z M 83 66"/></clipPath><clipPath id="h"><path d="M 70 36 L 92.660156 36 L 92.660156 92.660156 L 70 92.660156 Z M 70 36"/></clipPath></defs><g clip-path="url(#a)"><path fill="#FFF" d="M 0 0 L 112.5 0 L 112.5 112.5 L 0 112.5 Z M 0 0"/><path d="M 0 0 L 112.5 0 L 112.5 112.5 L 0 112.5 Z M 0 0"/></g><path fill="#DFE8F4" d="M 37.035156 29.128906 L 37.035156 25.8125 C 37.035156 24.8125 36.785156 23.878906 36.285156 23.011719 C 35.785156 22.144531 35.101562 21.464844 34.234375 20.964844 C 33.808594 20.714844 33.359375 20.527344 32.882812 20.398438 C 32.410156 20.269531 31.925781 20.207031 31.433594 20.207031 C 30.941406 20.207031 30.457031 20.269531 29.980469 20.398438 C 29.507812 20.527344 29.054688 20.714844 28.632812 20.964844 C 27.761719 21.464844 27.078125 22.144531 26.578125 23.011719 C 26.078125 23.878906 25.828125 24.8125 25.828125 25.8125 L 25.828125 29.128906 C 25.828125 30.007812 26.046875 30.828125 26.484375 31.589844 C 26.921875 32.351562 27.523438 32.949219 28.285156 33.390625 C 28.761719 33.667969 29.269531 33.878906 29.800781 34.023438 C 30.335938 34.167969 30.878906 34.238281 31.433594 34.238281 C 31.984375 34.238281 32.527344 34.167969 33.0625 34.023438 C 33.597656 33.878906 34.101562 33.667969 34.582031 33.390625 C 35.339844 32.949219 35.941406 32.351562 36.378906 31.589844 C 36.820312 30.828125 37.039062 30.007812 37.035156 29.128906 Z M 37.035156 29.128906"/><path fill="#DFE8F4" d="M 31.222656 36.207031 C 25.089844 36.207031 20.136719 41.628906 20.136719 66.585938 L 42.308594 66.585938 C 42.308594 41.628906 37.335938 36.207031 31.222656 36.207031 Z M 31.222656 36.207031"/><g clip-path="url(#b)"><path fill="#DFE8F4" d="M 22.019531 92.507812 C 21.769531 92.507812 21.527344 92.460938 21.296875 92.367188 C 21.066406 92.269531 20.863281 92.132812 20.6875 91.957031 C 20.511719 91.78125 20.375 91.578125 20.277344 91.347656 C 20.183594 91.117188 20.136719 90.875 20.136719 90.625 L 20.136719 66.527344 L 29.519531 66.527344 L 23.855469 91.003906 C 23.8125 91.214844 23.734375 91.414062 23.625 91.597656 C 23.511719 91.785156 23.371094 91.945312 23.203125 92.082031 C 23.039062 92.21875 22.851562 92.324219 22.648438 92.398438 C 22.445312 92.472656 22.234375 92.507812 22.019531 92.507812 Z M 22.019531 92.507812"/></g><g clip-path="url(#c)"><path fill="#DFE8F4" d="M 40.410156 92.507812 C 40.660156 92.511719 40.902344 92.464844 41.132812 92.371094 C 41.367188 92.277344 41.574219 92.140625 41.75 91.964844 C 41.929688 91.785156 42.066406 91.582031 42.164062 91.351562 C 42.257812 91.117188 42.308594 90.878906 42.308594 90.625 L 42.308594 66.527344 L 32.921875 66.527344 L 38.585938 91.003906 C 38.628906 91.214844 38.703125 91.414062 38.816406 91.597656 C 38.925781 91.78125 39.0625 91.945312 39.230469 92.082031 C 39.394531 92.21875 39.578125 92.324219 39.78125 92.398438 C 39.984375 92.472656 40.195312 92.507812 40.410156 92.507812 Z M 40.410156 92.507812"/></g><g clip-path="url(#d)"><path fill="#DFE8F4" d="M 31.222656 36.207031 C 25.089844 36.207031 20.136719 41.628906 20.136719 66.585938 L 20.136719 90.6875 C 20.132812 90.917969 20.175781 91.144531 20.257812 91.363281 C 20.339844 91.578125 20.457031 91.773438 20.609375 91.949219 C 20.765625 92.121094 20.945312 92.261719 21.152344 92.371094 C 21.355469 92.476562 21.574219 92.542969 21.804688 92.570312 C 22.039062 92.59375 22.265625 92.578125 22.488281 92.519531 C 22.714844 92.464844 22.921875 92.367188 23.113281 92.230469 C 23.300781 92.097656 23.460938 91.933594 23.585938 91.738281 C 23.714844 91.546875 23.804688 91.335938 23.855469 91.109375 L 29.171875 68.246094 C 29.226562 68.007812 29.316406 67.789062 29.445312 67.582031 C 29.574219 67.378906 29.730469 67.199219 29.921875 67.050781 C 30.109375 66.898438 30.320312 66.785156 30.546875 66.707031 C 30.773438 66.625 31.011719 66.585938 31.25 66.585938 C 31.492188 66.589844 31.726562 66.628906 31.957031 66.707031 C 32.183594 66.789062 32.390625 66.902344 32.578125 67.054688 C 32.769531 67.203125 32.925781 67.382812 33.054688 67.585938 C 33.183594 67.789062 33.277344 68.007812 33.332031 68.246094 L 38.585938 91.003906 C 38.628906 91.214844 38.703125 91.414062 38.816406 91.597656 C 38.925781 91.78125 39.0625 91.945312 39.230469 92.082031 C 39.394531 92.21875 39.578125 92.324219 39.78125 92.398438 C 39.984375 92.472656 40.195312 92.507812 40.410156 92.507812 C 40.660156 92.511719 40.902344 92.464844 41.132812 92.371094 C 41.367188 92.277344 41.574219 92.140625 41.75 91.964844 C 41.929688 91.785156 42.066406 91.582031 42.164062 91.351562 C 42.257812 91.117188 42.308594 90.878906 42.308594 90.625 L 42.308594 66.527344 C 42.308594 41.628906 37.335938 36.207031 31.222656 36.207031 Z M 31.222656 36.207031"/></g><path fill="#DFE8F4" d="M 87.164062 29.128906 L 87.164062 25.8125 C 87.164062 24.8125 86.914062 23.878906 86.414062 23.011719 C 85.914062 22.144531 85.226562 21.464844 84.359375 20.964844 C 83.9375 20.714844 83.484375 20.527344 83.011719 20.398438 C 82.535156 20.269531 82.050781 20.207031 81.558594 20.207031 C 81.066406 20.207031 80.582031 20.269531 80.109375 20.398438 C 79.632812 20.527344 79.183594 20.714844 78.757812 20.964844 C 77.890625 21.464844 77.207031 22.144531 76.707031 23.011719 C 76.203125 23.878906 75.953125 24.8125 75.957031 25.8125 L 75.957031 29.128906 C 75.953125 30.007812 76.171875 30.828125 76.613281 31.589844 C 77.050781 32.351562 77.648438 32.949219 78.410156 33.390625 C 78.890625 33.667969 79.394531 33.878906 79.929688 34.023438 C 80.460938 34.167969 81.007812 34.238281 81.558594 34.238281 C 82.113281 34.238281 82.65625 34.167969 83.1875 34.023438 C 83.722656 33.878906 84.230469 33.667969 84.707031 33.390625 C 85.46875 32.949219 86.066406 32.351562 86.507812 31.589844 C 86.945312 30.828125 87.164062 30.007812 87.164062 29.128906 Z M 87.164062 29.128906"/><g clip-path="url(#e)"><path fill="#DFE8F4" d="M 81.347656 36.207031 C 75.234375 36.207031 70.261719 41.628906 70.261719 66.585938 L 92.433594 66.585938 C 92.433594 41.628906 87.480469 36.207031 81.347656 36.207031 Z M 81.347656 36.207031"/></g><g clip-path="url(#f)"><path fill="#DFE8F4" d="M 72.160156 92.507812 C 71.910156 92.511719 71.667969 92.464844 71.433594 92.371094 C 71.203125 92.277344 70.996094 92.140625 70.820312 91.964844 C 70.640625 91.785156 70.503906 91.582031 70.40625 91.351562 C 70.3125 91.117188 70.261719 90.878906 70.261719 90.625 L 70.261719 66.527344 L 79.644531 66.527344 L 73.984375 91.003906 C 73.941406 91.214844 73.863281 91.414062 73.753906 91.597656 C 73.644531 91.78125 73.507812 91.945312 73.339844 92.082031 C 73.175781 92.21875 72.988281 92.324219 72.789062 92.398438 C 72.585938 92.472656 72.375 92.507812 72.160156 92.507812 Z M 72.160156 92.507812"/></g><g clip-path="url(#g)"><path fill="#DFE8F4" d="M 90.550781 92.507812 C 90.800781 92.507812 91.042969 92.460938 91.273438 92.367188 C 91.503906 92.269531 91.707031 92.132812 91.882812 91.957031 C 92.058594 91.78125 92.195312 91.578125 92.289062 91.347656 C 92.386719 91.117188 92.433594 90.875 92.433594 90.625 L 92.433594 66.527344 L 83.050781 66.527344 L 88.714844 91.003906 C 88.757812 91.214844 88.835938 91.414062 88.945312 91.597656 C 89.058594 91.785156 89.199219 91.945312 89.363281 92.082031 C 89.53125 92.21875 89.71875 92.324219 89.921875 92.398438 C 90.125 92.472656 90.335938 92.507812 90.550781 92.507812 Z M 90.550781 92.507812"/></g><g clip-path="url(#h)"><path fill="#DFE8F4" d="M 81.347656 36.207031 C 75.234375 36.207031 70.261719 41.628906 70.261719 66.585938 L 70.261719 90.6875 C 70.269531 90.933594 70.324219 91.167969 70.425781 91.390625 C 70.523438 91.617188 70.664062 91.8125 70.839844 91.984375 C 71.019531 92.15625 71.21875 92.285156 71.449219 92.375 C 71.675781 92.46875 71.914062 92.511719 72.160156 92.507812 C 72.375 92.507812 72.585938 92.472656 72.789062 92.398438 C 72.988281 92.324219 73.175781 92.21875 73.339844 92.082031 C 73.507812 91.945312 73.644531 91.78125 73.753906 91.597656 C 73.863281 91.414062 73.941406 91.214844 73.984375 91.003906 L 79.269531 68.199219 C 79.324219 67.964844 79.414062 67.746094 79.542969 67.539062 C 79.671875 67.335938 79.832031 67.160156 80.019531 67.007812 C 80.210938 66.859375 80.417969 66.742188 80.644531 66.664062 C 80.871094 66.582031 81.105469 66.542969 81.347656 66.542969 C 81.589844 66.546875 81.824219 66.589844 82.050781 66.675781 C 82.28125 66.757812 82.484375 66.878906 82.671875 67.03125 C 82.859375 67.1875 83.015625 67.367188 83.136719 67.578125 C 83.261719 67.785156 83.347656 68.007812 83.398438 68.246094 L 88.714844 91.003906 C 88.765625 91.226562 88.851562 91.4375 88.980469 91.628906 C 89.105469 91.820312 89.261719 91.984375 89.449219 92.121094 C 89.636719 92.253906 89.839844 92.351562 90.0625 92.414062 C 90.285156 92.472656 90.511719 92.492188 90.742188 92.46875 C 90.96875 92.445312 91.1875 92.382812 91.394531 92.277344 C 91.601562 92.175781 91.78125 92.039062 91.9375 91.867188 C 92.09375 91.699219 92.214844 91.507812 92.300781 91.292969 C 92.386719 91.078125 92.429688 90.855469 92.433594 90.625 L 92.433594 66.527344 C 92.433594 41.628906 87.480469 36.207031 81.347656 36.207031 Z M 81.347656 36.207031"/></g><path fill="#DFE8F4" d="M 47.082031 52.261719 L 37.609375 39.492188 L 38.210938 58.242188 L 44.054688 58.242188 C 44.554688 58.246094 45.03125 58.152344 45.496094 57.960938 C 45.957031 57.773438 46.363281 57.5 46.714844 57.148438 C 47.070312 56.796875 47.34375 56.390625 47.53125 55.929688 C 47.722656 55.472656 47.820312 54.992188 47.820312 54.492188 C 47.8125 53.671875 47.566406 52.925781 47.082031 52.261719 Z M 47.082031 52.261719"/><path fill="#CCD8E5" d="M 47.082031 52.261719 L 38.042969 40.019531 L 38.042969 49.460938 C 38.042969 49.953125 38.136719 50.421875 38.324219 50.875 C 38.511719 51.328125 38.777344 51.730469 39.125 52.078125 C 39.46875 52.421875 39.871094 52.691406 40.320312 52.878906 C 40.773438 53.070312 41.246094 53.164062 41.734375 53.167969 L 47.609375 53.167969 C 47.476562 52.839844 47.300781 52.539062 47.082031 52.261719 Z M 47.082031 52.261719"/><path fill="#0795FF" d="M 71.347656 32.261719 C 70.847656 31.84375 70.316406 31.476562 69.75 31.160156 C 69.183594 30.84375 68.589844 30.585938 67.972656 30.378906 C 67.359375 30.175781 66.726562 30.03125 66.085938 29.945312 C 65.441406 29.855469 64.796875 29.832031 64.148438 29.867188 C 63.5 29.902344 62.859375 29.996094 62.226562 30.152344 C 61.597656 30.308594 60.988281 30.523438 60.398438 30.792969 C 59.808594 31.0625 59.246094 31.386719 58.71875 31.761719 C 58.1875 32.140625 57.699219 32.5625 57.25 33.027344 L 56.359375 33.902344 L 55.472656 33.027344 C 55.019531 32.554688 54.53125 32.128906 53.996094 31.75 C 53.464844 31.367188 52.902344 31.042969 52.308594 30.765625 C 51.714844 30.492188 51.101562 30.277344 50.46875 30.121094 C 49.832031 29.964844 49.191406 29.867188 48.539062 29.832031 C 47.882812 29.796875 47.234375 29.824219 46.585938 29.910156 C 45.9375 30 45.304688 30.144531 44.683594 30.355469 C 44.066406 30.5625 43.472656 30.828125 42.902344 31.148438 C 42.332031 31.46875 41.796875 31.839844 41.296875 32.261719 C 40.792969 32.714844 40.34375 33.210938 39.941406 33.757812 C 39.539062 34.300781 39.195312 34.878906 38.914062 35.492188 C 38.628906 36.109375 38.410156 36.746094 38.253906 37.402344 C 38.101562 38.0625 38.015625 38.730469 37.996094 39.40625 C 37.976562 40.082031 38.027344 40.753906 38.144531 41.421875 C 38.265625 42.085938 38.449219 42.734375 38.699219 43.363281 C 38.949219 43.992188 39.261719 44.589844 39.632812 45.152344 C 40.003906 45.71875 40.429688 46.242188 40.90625 46.71875 L 54.867188 60.667969 C 55.058594 60.855469 55.273438 61 55.519531 61.101562 C 55.765625 61.203125 56.019531 61.253906 56.285156 61.253906 C 56.550781 61.253906 56.804688 61.203125 57.050781 61.101562 C 57.296875 61 57.511719 60.855469 57.699219 60.667969 L 71.664062 46.71875 C 72.144531 46.242188 72.570312 45.722656 72.945312 45.160156 C 73.320312 44.597656 73.632812 44.003906 73.886719 43.375 C 74.140625 42.746094 74.328125 42.101562 74.449219 41.433594 C 74.570312 40.769531 74.625 40.097656 74.609375 39.421875 C 74.597656 38.746094 74.511719 38.078125 74.363281 37.417969 C 74.210938 36.757812 73.996094 36.121094 73.714844 35.507812 C 73.433594 34.890625 73.09375 34.308594 72.695312 33.761719 C 72.296875 33.214844 71.847656 32.714844 71.347656 32.261719 Z M 71.347656 32.261719"/><path fill="#CCD8E5" d="M 42.082031 58.242188 L 36.992188 58.242188 C 36.789062 58.242188 36.597656 58.28125 36.414062 58.359375 C 36.230469 58.433594 36.066406 58.542969 35.925781 58.683594 C 35.785156 58.824219 35.675781 58.988281 35.597656 59.171875 C 35.523438 59.355469 35.484375 59.550781 35.484375 59.75 C 35.484375 59.949219 35.523438 60.140625 35.597656 60.324219 C 35.675781 60.511719 35.785156 60.671875 35.925781 60.8125 C 36.066406 60.957031 36.230469 61.0625 36.414062 61.140625 C 36.597656 61.21875 36.789062 61.253906 36.992188 61.253906 L 42.21875 61.253906 C 42.171875 60.171875 42.140625 59.175781 42.082031 58.242188 Z M 42.082031 58.242188"/><path fill="#CCD8E5" d="M 75.957031 55.59375 L 75.957031 49.460938 L 70.96875 52.683594 C 70.667969 55.15625 70.472656 57.988281 70.351562 61.195312 C 70.722656 61.195312 71.085938 61.160156 71.445312 61.085938 C 71.808594 61.015625 72.15625 60.910156 72.496094 60.769531 C 72.835938 60.628906 73.160156 60.457031 73.464844 60.25 C 73.773438 60.046875 74.054688 59.8125 74.316406 59.554688 C 74.574219 59.292969 74.808594 59.011719 75.011719 58.703125 C 75.214844 58.398438 75.390625 58.078125 75.53125 57.734375 C 75.671875 57.394531 75.777344 57.046875 75.847656 56.683594 C 75.921875 56.324219 75.957031 55.960938 75.957031 55.59375 Z M 75.957031 55.59375"/><path fill="#DFE8F4" d="M 74.960938 39.503906 L 69.839844 47.457031 C 69.335938 48.242188 68.746094 48.949219 68.0625 49.582031 C 67.382812 50.21875 66.632812 50.757812 65.816406 51.203125 C 64.996094 51.648438 64.136719 51.988281 63.238281 52.21875 C 62.335938 52.449219 61.417969 52.5625 60.488281 52.566406 C 60.113281 52.566406 59.75 52.636719 59.402344 52.78125 C 59.058594 52.925781 58.75 53.128906 58.484375 53.394531 C 58.21875 53.660156 58.015625 53.964844 57.871094 54.3125 C 57.726562 54.660156 57.65625 55.019531 57.65625 55.394531 C 57.652344 55.773438 57.722656 56.136719 57.867188 56.484375 C 58.007812 56.832031 58.214844 57.140625 58.480469 57.410156 C 58.746094 57.675781 59.050781 57.882812 59.398438 58.027344 C 59.75 58.171875 60.109375 58.242188 60.488281 58.242188 L 62.308594 58.242188 C 66.296875 58.246094 70.085938 57.386719 73.683594 55.667969 L 78.59375 53.257812 Z M 74.960938 39.503906"/></svg>