<svg xmlns="http://www.w3.org/2000/svg" width="375" viewBox="0 0 375 375" height="375" version="1.0"><defs><clipPath id="a"><path d="M 113 33.507812 L 309 33.507812 L 309 244 L 113 244 Z M 113 33.507812"/></clipPath><clipPath id="b"><path d="M 65.460938 250 L 292 250 L 292 341.757812 L 65.460938 341.757812 Z M 65.460938 250"/></clipPath></defs><g clip-path="url(#a)"><path fill="#74B7F4" d="M 212.765625 194.894531 C 210.613281 208.070312 198.117188 221.917969 177.488281 234.039062 C 154.296875 220.40625 141.355469 204.460938 141.90625 190.085938 C 142.238281 181.449219 147.339844 176.046875 151.613281 174.039062 C 159.292969 170.425781 166.300781 173.53125 170.820312 176.773438 C 170.828125 176.777344 170.835938 176.777344 170.839844 176.785156 C 170.917969 182.664062 173.269531 188.355469 177.585938 192.988281 C 178.414062 193.875 179.542969 194.339844 180.691406 194.339844 C 181.378906 194.339844 182.074219 194.171875 182.710938 193.824219 L 209.5 179.285156 C 212.519531 183.515625 213.710938 189.089844 212.765625 194.894531 Z M 180.40625 118.480469 C 183.375 115.175781 187.882812 113.820312 192.191406 114.941406 C 199.164062 116.765625 204.164062 119.1875 205.894531 121.59375 C 208.417969 125.101562 195.21875 144.855469 181.523438 155.9375 C 177.339844 159.324219 174.285156 163.390625 172.535156 167.785156 C 168.929688 165.734375 165.222656 164.496094 161.535156 164.074219 C 160.40625 160.289062 158.097656 153.6875 154.273438 147.578125 Z M 307.332031 87.355469 C 305.671875 85.695312 302.988281 85.695312 301.328125 87.355469 L 259.402344 129.378906 L 234.824219 155.101562 C 233.824219 156.148438 232.679688 157.023438 231.421875 157.707031 L 181.800781 184.640625 C 179.96875 181.816406 179.132812 178.703125 179.355469 175.476562 C 179.683594 170.796875 182.347656 166.210938 186.859375 162.558594 C 195.078125 155.90625 221.417969 128.605469 212.777344 116.609375 C 209.78125 112.453125 203.574219 109.121094 194.328125 106.710938 C 186.941406 104.773438 179.191406 107.109375 174.09375 112.785156 L 145.734375 144.367188 C 144.382812 145.871094 144.273438 148.117188 145.476562 149.742188 C 149.097656 154.652344 151.476562 160.632812 152.800781 164.632812 C 151.179688 165.03125 149.574219 165.59375 148.007812 166.332031 C 144.246094 168.097656 141.03125 170.898438 138.578125 174.355469 L 123.726562 148.128906 C 122.09375 145.253906 121.90625 141.726562 123.210938 138.691406 C 128.683594 126 147.558594 94.765625 155.421875 81.925781 C 157.082031 79.210938 159.839844 77.4375 162.984375 77.050781 C 181.054688 74.820312 229.78125 69.347656 240.453125 68.242188 C 241.425781 68.140625 242.332031 67.707031 243.019531 67.015625 L 268.785156 41.195312 C 270.441406 39.53125 270.441406 36.839844 268.785156 35.175781 C 267.128906 33.515625 264.441406 33.515625 262.78125 35.175781 L 238.078125 59.933594 C 224.9375 61.328125 179.316406 66.460938 161.941406 68.605469 C 156.21875 69.3125 151.203125 72.542969 148.1875 77.46875 C 140.230469 90.464844 121.101562 122.117188 115.417969 135.320312 C 113.058594 140.789062 113.402344 147.144531 116.339844 152.332031 L 134.242188 183.9375 C 133.78125 185.820312 133.496094 187.769531 133.421875 189.761719 C 133.015625 200.371094 137.914062 221.324219 175.175781 242.527344 C 175.386719 242.664062 175.617188 242.789062 175.855469 242.886719 C 176.382812 243.105469 176.9375 243.210938 177.480469 243.210938 C 177.8125 243.210938 178.140625 243.171875 178.457031 243.097656 C 178.902344 242.992188 179.332031 242.816406 179.730469 242.570312 C 179.734375 242.570312 179.734375 242.566406 179.742188 242.5625 C 210.578125 225.035156 219.273438 207.71875 221.144531 196.265625 C 222.394531 188.601562 220.886719 181.136719 217 175.210938 L 235.464844 165.191406 C 237.496094 164.089844 239.34375 162.675781 240.957031 160.992188 L 265.46875 135.328125 L 307.332031 93.375 C 308.992188 91.710938 308.992188 89.019531 307.332031 87.355469"/></g><g clip-path="url(#b)"><path fill="#74B7F4" d="M 204.777344 278.203125 C 204.027344 278.445312 203.398438 278.878906 202.910156 279.425781 C 201.4375 277.449219 199.65625 275.699219 197.597656 274.265625 L 215.542969 266.816406 C 223.738281 263.414062 233.101562 263.339844 241.320312 266.457031 Z M 186.855469 260.976562 C 194.140625 258.144531 202.132812 257.894531 209.503906 260.109375 L 187.152344 269.386719 L 176.445312 265.015625 Z M 252.976562 262.761719 C 252.792969 262.621094 252.59375 262.492188 252.382812 262.378906 L 249.0625 260.625 C 240.726562 256.222656 231.011719 254.746094 221.738281 256.269531 C 210.394531 249.414062 196.253906 248.195312 183.785156 253.042969 L 164.988281 260.335938 L 157.515625 257.285156 C 145.519531 252.382812 132.082031 251.839844 119.6875 255.769531 L 99.351562 262.203125 L 69.984375 262.203125 C 67.636719 262.203125 65.734375 264.109375 65.734375 266.457031 C 65.734375 268.808594 67.636719 270.714844 69.984375 270.714844 L 100.007812 270.714844 C 100.445312 270.714844 100.875 270.644531 101.285156 270.515625 L 122.246094 263.882812 C 132.753906 260.554688 144.140625 261.011719 154.3125 265.167969 L 189.886719 279.699219 C 195.417969 281.957031 198.992188 287.28125 198.992188 293.265625 C 198.992188 295.09375 198.265625 296.796875 196.953125 298.0625 C 195.640625 299.328125 193.921875 299.980469 192.089844 299.910156 L 131.527344 297.484375 C 129.179688 297.453125 127.207031 299.21875 127.113281 301.566406 C 127.019531 303.914062 128.839844 305.894531 131.1875 305.988281 L 191.753906 308.414062 C 191.960938 308.421875 192.167969 308.425781 192.375 308.425781 C 196.300781 308.425781 199.988281 306.9375 202.835938 304.199219 C 205.832031 301.316406 207.480469 297.429688 207.480469 293.265625 C 207.480469 290.925781 207.132812 288.648438 206.480469 286.492188 C 206.777344 286.464844 207.078125 286.402344 207.375 286.3125 L 253.890625 271.351562 C 264.652344 267.886719 276.320312 272.421875 282.042969 281.949219 L 187.679688 331.160156 C 183.921875 333.117188 179.566406 333.742188 175.414062 332.929688 L 95.371094 317.21875 C 95.101562 317.171875 94.828125 317.144531 94.554688 317.144531 L 69.984375 317.144531 C 67.636719 317.144531 65.734375 319.046875 65.734375 321.398438 C 65.734375 323.746094 67.636719 325.652344 69.984375 325.652344 L 94.144531 325.652344 L 173.78125 341.285156 C 175.503906 341.625 177.25 341.789062 178.992188 341.789062 C 183.355469 341.789062 187.703125 340.742188 191.601562 338.710938 L 288.289062 288.285156 C 291.101562 286.816406 292.25 283.410156 290.898438 280.53125 C 284.183594 266.191406 268.117188 258.773438 252.976562 262.761719"/></g></svg>