<svg xmlns="http://www.w3.org/2000/svg" width="112.5" viewBox="0 0 112.5 112.5" height="112.5" version="1.0"><defs><clipPath id="a"><path d="M 0 0 L 112.003906 0 L 112.003906 112.003906 L 0 112.003906 Z M 0 0"/></clipPath><clipPath id="b"><path d="M 17 17 L 95.625 17 L 95.625 83 L 17 83 Z M 17 17"/></clipPath><clipPath id="c"><path d="M 17 53 L 95.625 53 L 95.625 95.625 L 17 95.625 Z M 17 53"/></clipPath></defs><g clip-path="url(#a)"><path fill="#FFF" d="M 0 0 L 112.5 0 L 112.5 712.5 L 0 712.5 Z M 0 0"/><path fill="#FFF" d="M 0 0 L 112.5 0 L 112.5 112.5 L 0 112.5 Z M 0 0"/><path d="M 0 0 L 112.5 0 L 112.5 112.5 L 0 112.5 Z M 0 0"/></g><g clip-path="url(#b)"><path fill="#C99F35" d="M 77.628906 32.03125 L 59.523438 18.292969 C 57.585938 16.828125 54.914062 16.828125 52.976562 18.292969 L 34.871094 32.03125 L 22.421875 41.476562 L 19.152344 43.953125 C 17.804688 44.980469 17.011719 46.574219 17.011719 48.265625 L 17.011719 53.707031 L 52.976562 80.996094 C 54.914062 82.464844 57.585938 82.464844 59.523438 80.996094 L 95.488281 53.707031 L 95.488281 48.265625 C 95.488281 46.574219 94.695312 44.980469 93.347656 43.953125 L 90.082031 41.476562 L 77.628906 32.03125"/></g><path fill="#F5F6F5" d="M 22.421875 57.738281 L 22.421875 32.03125 L 90.078125 32.03125 L 90.078125 57.738281 L 56.25 86.828125 L 22.421875 57.738281"/><path fill="#F8CA20" d="M 46.777344 61.796875 L 65.722656 61.796875 L 71.132812 49.621094 L 63.015625 50.972656 L 56.25 44.207031 L 49.484375 50.972656 L 41.367188 49.621094 L 46.777344 61.796875"/><path fill="#C99F35" d="M 65.722656 68.5625 L 46.777344 68.5625 C 46.03125 68.5625 45.425781 67.957031 45.425781 67.210938 C 45.425781 66.464844 46.03125 65.855469 46.777344 65.855469 L 65.722656 65.855469 C 66.46875 65.855469 67.074219 66.464844 67.074219 67.210938 C 67.074219 67.957031 66.46875 68.5625 65.722656 68.5625"/><path fill="#C99F35" d="M 56.25 38.796875 Z M 56.25 41.5 C 54.757812 41.5 53.542969 40.285156 53.542969 38.796875 C 53.542969 37.304688 54.757812 36.089844 56.25 36.089844 C 57.742188 36.089844 58.957031 37.304688 58.957031 38.796875 C 58.957031 40.285156 57.742188 41.5 56.25 41.5"/><path fill="#C99F35" d="M 37.308594 44.207031 Z M 37.308594 46.914062 C 35.816406 46.914062 34.601562 45.699219 34.601562 44.207031 C 34.601562 42.71875 35.816406 41.5 37.308594 41.5 C 38.796875 41.5 40.011719 42.71875 40.011719 44.207031 C 40.011719 45.699219 38.796875 46.914062 37.308594 46.914062"/><path fill="#C99F35" d="M 75.191406 44.207031 Z M 75.191406 46.914062 C 73.703125 46.914062 72.488281 45.699219 72.488281 44.207031 C 72.488281 42.71875 73.703125 41.5 75.191406 41.5 C 76.683594 41.5 77.898438 42.71875 77.898438 44.207031 C 77.898438 45.699219 76.683594 46.914062 75.191406 46.914062"/><path fill="#100F0D" d="M 90.078125 91.566406 L 79.253906 91.566406 C 78.507812 91.566406 77.898438 90.957031 77.898438 90.210938 C 77.898438 89.46875 78.507812 88.859375 79.253906 88.859375 L 90.078125 88.859375 C 90.824219 88.859375 91.429688 89.46875 91.429688 90.210938 C 91.429688 90.957031 90.824219 91.566406 90.078125 91.566406"/><path fill="#100F0D" d="M 90.078125 86.152344 L 83.3125 86.152344 C 82.566406 86.152344 81.957031 85.546875 81.957031 84.800781 C 81.957031 84.054688 82.566406 83.445312 83.3125 83.445312 L 90.078125 83.445312 C 90.824219 83.445312 91.429688 84.054688 91.429688 84.800781 C 91.429688 85.546875 90.824219 86.152344 90.078125 86.152344"/><g clip-path="url(#c)"><path fill="#DEC45C" d="M 17.011719 53.679688 L 56.25 82.769531 L 95.488281 53.679688 L 95.488281 95.625 L 17.011719 95.625 L 17.011719 53.679688"/></g></svg>