<svg xmlns="http://www.w3.org/2000/svg" xmlns:xlink="http://www.w3.org/1999/xlink" width="112.5" viewBox="0 0 112.5 112.5" height="112.5" version="1.0"><defs><clipPath id="a"><path d="M 0 0 L 112.003906 0 L 112.003906 112.003906 L 0 112.003906 Z M 0 0"/></clipPath><clipPath id="b"><path d="M 31.339844 32 L 80.839844 32 L 80.839844 80.710938 L 31.339844 80.710938 Z M 31.339844 32"/></clipPath><clipPath id="c"><path d="M 44.246094 54.695312 L 64.460938 54.695312 L 64.460938 80.757812 L 44.246094 80.757812 Z M 44.246094 54.695312"/></clipPath><clipPath id="d"><path d="M 53.695312 80.738281 C 50.140625 80.757812 48.683594 80.160156 47.230469 78.46875 C 45.640625 76.625 45.457031 72.742188 44.246094 70.863281 C 46.230469 70.6875 47.511719 75.214844 50.410156 75.289062 C 51.570312 75.320312 52.183594 75.046875 52.179688 73.757812 C 52.175781 72.855469 51.726562 72.066406 51.367188 71.226562 C 50.871094 70.0625 50.554688 68.765625 50.367188 67.519531 C 49.890625 64.359375 49.957031 60.9375 51.105469 57.972656 C 51.332031 57.394531 51.527344 56.789062 51.769531 56.226562 C 51.730469 58.453125 52.941406 60.113281 53.898438 62.039062 C 54.808594 63.867188 55.738281 65.914062 57.222656 67.332031 C 55.835938 65.496094 55.179688 63.035156 55.179688 60.742188 C 55.179688 59.597656 55.453125 58.59375 55.722656 57.503906 C 55.9375 56.640625 56.445312 55.585938 56.417969 54.695312 C 56.417969 57.617188 56.835938 60.445312 58.542969 62.773438 C 59.898438 64.617188 61.402344 66.71875 62.09375 68.898438 C 62.382812 69.8125 62.554688 70.695312 62.542969 71.652344 C 63.261719 69.773438 62.441406 67.761719 61.554688 66.15625 C 62.703125 67.332031 65.839844 70.777344 63.761719 75.214844 C 61.820312 79.367188 57.25 80.714844 53.695312 80.738281 Z M 53.695312 80.738281"/></clipPath><clipPath id="e"><path d="M 53.695312 80.738281 C 50.140625 80.757812 48.683594 80.160156 47.230469 78.46875 C 45.640625 76.625 45.457031 72.742188 44.246094 70.863281 C 46.230469 70.6875 47.511719 75.214844 50.410156 75.289062 C 51.570312 75.320312 52.183594 75.046875 52.179688 73.757812 C 52.175781 72.855469 51.726562 72.066406 51.367188 71.226562 C 50.871094 70.0625 50.554688 68.765625 50.367188 67.519531 C 49.890625 64.359375 49.957031 60.9375 51.105469 57.972656 C 51.332031 57.394531 51.527344 56.789062 51.769531 56.226562 C 51.730469 58.453125 52.941406 60.113281 53.898438 62.039062 C 54.808594 63.867188 55.738281 65.914062 57.222656 67.332031 C 55.835938 65.496094 55.179688 63.035156 55.179688 60.742188 C 55.179688 59.597656 55.453125 58.59375 55.722656 57.503906 C 55.9375 56.640625 56.445312 55.585938 56.417969 54.695312 C 56.417969 57.617188 56.835938 60.445312 58.542969 62.773438 C 59.898438 64.617188 61.402344 66.71875 62.09375 68.898438 C 62.382812 69.8125 62.554688 70.695312 62.542969 71.652344 C 63.261719 69.773438 62.441406 67.761719 61.554688 66.15625 C 62.703125 67.332031 65.839844 70.777344 63.761719 75.214844 C 61.820312 79.367188 57.25 80.714844 53.695312 80.738281"/></clipPath><clipPath id="g"><path d="M 44.742188 51.535156 L 61.882812 51.535156 L 61.882812 80.757812 L 44.742188 80.757812 Z M 44.742188 51.535156"/></clipPath><clipPath id="h"><path d="M 46.792969 76.230469 C 44.9375 70.402344 47.847656 68.800781 44.742188 66.210938 C 46.550781 66.59375 47.96875 67.976562 49.289062 69.167969 C 51.027344 70.730469 52.65625 69.84375 51.972656 67.515625 C 49.648438 59.5625 51.941406 53.320312 53.285156 51.535156 C 51.824219 55.089844 54.589844 59.648438 56.976562 62.066406 C 59.859375 64.988281 62.355469 70.746094 61.714844 75.171875 C 61.070312 79.648438 56.316406 80.757812 53.429688 80.757812 C 50.542969 80.757812 47.882812 79.648438 46.792969 76.230469 Z M 46.792969 76.230469"/></clipPath><clipPath id="i"><path d="M 46.792969 76.230469 C 44.9375 70.402344 47.847656 68.800781 44.742188 66.210938 C 46.550781 66.59375 47.96875 67.976562 49.289062 69.167969 C 51.027344 70.730469 52.65625 69.84375 51.972656 67.515625 C 49.648438 59.5625 51.941406 53.320312 53.285156 51.535156 C 51.824219 55.089844 54.589844 59.648438 56.976562 62.066406 C 59.859375 64.988281 62.355469 70.746094 61.714844 75.171875 C 61.070312 79.648438 56.316406 80.757812 53.429688 80.757812 C 50.542969 80.757812 47.882812 79.648438 46.792969 76.230469"/></clipPath><clipPath id="k"><path d="M 50.394531 65.144531 L 59.070312 65.144531 L 59.070312 80.78125 L 50.394531 80.78125 Z M 50.394531 65.144531"/></clipPath><clipPath id="l"><path d="M 50.6875 76.308594 C 51.644531 73.722656 53.988281 73.625 55.210938 70.25 C 55.777344 68.679688 55.566406 67.015625 54.769531 65.144531 C 55.328125 65.46875 58.726562 69.300781 59.042969 73.726562 C 59.339844 77.863281 56.585938 80.78125 53.582031 80.78125 C 50.574219 80.78125 50.074219 77.96875 50.6875 76.308594 Z M 50.6875 76.308594"/></clipPath><clipPath id="m"><path d="M 50.6875 76.308594 C 51.644531 73.722656 53.988281 73.625 55.210938 70.25 C 55.777344 68.679688 55.566406 67.015625 54.769531 65.144531 C 55.328125 65.46875 58.726562 69.300781 59.042969 73.726562 C 59.339844 77.863281 56.585938 80.78125 53.582031 80.78125 C 50.574219 80.78125 50.074219 77.96875 50.6875 76.308594"/></clipPath><linearGradient x1="-.001" gradientTransform="matrix(0 -26.04399 26.03581 0 54.35 80.738)" xmlns:xlink="http://www.w3.org/1999/xlink" y1="0" x2="1" gradientUnits="userSpaceOnUse" y2="0" xlink:type="simple" xlink:actuate="onLoad" id="f" xlink:show="other"><stop stop-color="#F14624" offset="0"/><stop stop-color="#F14724" offset=".008"/><stop stop-color="#F14723" offset=".012"/><stop stop-color="#F14823" offset=".016"/><stop stop-color="#F14823" offset=".02"/><stop stop-color="#F14923" offset=".023"/><stop stop-color="#F14A23" offset=".031"/><stop stop-color="#F14B22" offset=".039"/><stop stop-color="#F14C22" offset=".043"/><stop stop-color="#F14D22" offset=".047"/><stop stop-color="#F14D22" offset=".055"/><stop stop-color="#F14E22" offset=".063"/><stop stop-color="#F15022" offset=".066"/><stop stop-color="#F15022" offset=".07"/><stop stop-color="#F15121" offset=".074"/><stop stop-color="#F15121" offset=".078"/><stop stop-color="#F25221" offset=".086"/><stop stop-color="#F25321" offset=".09"/><stop stop-color="#F25421" offset=".094"/><stop stop-color="#F25420" offset=".098"/><stop stop-color="#F25520" offset=".102"/><stop stop-color="#F25520" offset=".105"/><stop stop-color="#F25620" offset=".109"/><stop stop-color="#F25720" offset=".113"/><stop stop-color="#F25820" offset=".117"/><stop stop-color="#F25820" offset=".121"/><stop stop-color="#F25920" offset=".125"/><stop stop-color="#F25A20" offset=".129"/><stop stop-color="#F25A20" offset=".133"/><stop stop-color="#F25A1F" offset=".141"/><stop stop-color="#F25C1F" offset=".145"/><stop stop-color="#F25C1F" offset=".148"/><stop stop-color="#F35D1F" offset=".152"/><stop stop-color="#F35D1F" offset=".156"/><stop stop-color="#F35E1F" offset=".164"/><stop stop-color="#F35F1F" offset=".168"/><stop stop-color="#F3601F" offset=".172"/><stop stop-color="#F3601F" offset=".176"/><stop stop-color="#F3611E" offset=".18"/><stop stop-color="#F3611E" offset=".188"/><stop stop-color="#F3621E" offset=".191"/><stop stop-color="#F3631E" offset=".195"/><stop stop-color="#F3641E" offset=".203"/><stop stop-color="#F3651D" offset=".211"/><stop stop-color="#F3651D" offset=".215"/><stop stop-color="#F3661D" offset=".219"/><stop stop-color="#F3671D" offset=".223"/><stop stop-color="#F3681D" offset=".227"/><stop stop-color="#F3691D" offset=".23"/><stop stop-color="#F3691D" offset=".234"/><stop stop-color="#F46A1D" offset=".238"/><stop stop-color="#F46A1C" offset=".242"/><stop stop-color="#F46B1C" offset=".246"/><stop stop-color="#F46B1C" offset=".25"/><stop stop-color="#F46C1C" offset=".258"/><stop stop-color="#F46D1C" offset=".262"/><stop stop-color="#F46D1B" offset=".266"/><stop stop-color="#F46E1B" offset=".27"/><stop stop-color="#F46F1B" offset=".273"/><stop stop-color="#F46F1B" offset=".277"/><stop stop-color="#F4701B" offset=".281"/><stop stop-color="#F4711B" offset=".289"/><stop stop-color="#F4721B" offset=".293"/><stop stop-color="#F4731A" offset=".297"/><stop stop-color="#F4731A" offset=".305"/><stop stop-color="#F4741A" offset=".313"/><stop stop-color="#F57619" offset=".316"/><stop stop-color="#F57619" offset=".32"/><stop stop-color="#F57719" offset=".328"/><stop stop-color="#F57819" offset=".336"/><stop stop-color="#F57919" offset=".34"/><stop stop-color="#F57919" offset=".344"/><stop stop-color="#F57A19" offset=".348"/><stop stop-color="#F57B19" offset=".352"/><stop stop-color="#F57B18" offset=".355"/><stop stop-color="#F57C18" offset=".359"/><stop stop-color="#F57C18" offset=".363"/><stop stop-color="#F57D18" offset=".367"/><stop stop-color="#F57D18" offset=".371"/><stop stop-color="#F57E18" offset=".375"/><stop stop-color="#F57E17" offset=".379"/><stop stop-color="#F57F17" offset=".383"/><stop stop-color="#F57F17" offset=".387"/><stop stop-color="#F58017" offset=".391"/><stop stop-color="#F68117" offset=".395"/><stop stop-color="#F68117" offset=".398"/><stop stop-color="#F68217" offset=".406"/><stop stop-color="#F68317" offset=".41"/><stop stop-color="#F68417" offset=".414"/><stop stop-color="#F68516" offset=".418"/><stop stop-color="#F68516" offset=".422"/><stop stop-color="#F68516" offset=".43"/><stop stop-color="#F68616" offset=".438"/><stop stop-color="#F68715" offset=".441"/><stop stop-color="#F68815" offset=".445"/><stop stop-color="#F68915" offset=".449"/><stop stop-color="#F68A15" offset=".453"/><stop stop-color="#F68A15" offset=".457"/><stop stop-color="#F68B15" offset=".461"/><stop stop-color="#F68B15" offset=".465"/><stop stop-color="#F68C15" offset=".469"/><stop stop-color="#F78D14" offset=".473"/><stop stop-color="#F78D14" offset=".477"/><stop stop-color="#F78E14" offset=".48"/><stop stop-color="#F78F14" offset=".484"/><stop stop-color="#F79014" offset=".488"/><stop stop-color="#F79013" offset=".492"/><stop stop-color="#F79113" offset=".496"/><stop stop-color="#F79113" offset=".5"/><stop stop-color="#F79213" offset=".508"/><stop stop-color="#F79213" offset=".516"/><stop stop-color="#F79313" offset=".52"/><stop stop-color="#F79413" offset=".523"/><stop stop-color="#F79513" offset=".527"/><stop stop-color="#F79512" offset=".531"/><stop stop-color="#F79512" offset=".539"/><stop stop-color="#F79712" offset=".543"/><stop stop-color="#F79811" offset=".547"/><stop stop-color="#F79811" offset=".555"/><stop stop-color="#F89911" offset=".559"/><stop stop-color="#F89A11" offset=".563"/><stop stop-color="#F89B11" offset=".566"/><stop stop-color="#F89B11" offset=".57"/><stop stop-color="#F89C11" offset=".578"/><stop stop-color="#F89D11" offset=".586"/><stop stop-color="#F89E11" offset=".59"/><stop stop-color="#F89E10" offset=".594"/><stop stop-color="#F89F10" offset=".598"/><stop stop-color="#F89F0F" offset=".602"/><stop stop-color="#F8A00F" offset=".605"/><stop stop-color="#F8A10F" offset=".609"/><stop stop-color="#F8A10F" offset=".613"/><stop stop-color="#F8A20F" offset=".617"/><stop stop-color="#F8A20F" offset=".621"/><stop stop-color="#F8A30F" offset=".625"/><stop stop-color="#F8A30F" offset=".633"/><stop stop-color="#F8A50F" offset=".637"/><stop stop-color="#F9A60E" offset=".641"/><stop stop-color="#F9A70E" offset=".645"/><stop stop-color="#F9A70E" offset=".648"/><stop stop-color="#F9A80E" offset=".652"/><stop stop-color="#F9A80D" offset=".656"/><stop stop-color="#F9A90D" offset=".664"/><stop stop-color="#F9AA0D" offset=".672"/><stop stop-color="#F9AB0D" offset=".676"/><stop stop-color="#F9AC0D" offset=".68"/><stop stop-color="#F9AC0D" offset=".688"/><stop stop-color="#F9AD0C" offset=".691"/><stop stop-color="#F9AE0C" offset=".695"/><stop stop-color="#F9AE0C" offset=".699"/><stop stop-color="#F9AF0C" offset=".703"/><stop stop-color="#F9AF0B" offset=".707"/><stop stop-color="#F9B00B" offset=".711"/><stop stop-color="#F9B00B" offset=".715"/><stop stop-color="#FAB10B" offset=".719"/><stop stop-color="#FAB10B" offset=".723"/><stop stop-color="#FAB20B" offset=".727"/><stop stop-color="#FAB30B" offset=".73"/><stop stop-color="#FAB30B" offset=".734"/><stop stop-color="#FAB40A" offset=".75"/><stop stop-color="#FAB40A" offset="1"/></linearGradient><linearGradient x1="0" gradientTransform="matrix(0 -29.22498 29.2158 0 53.28 80.759)" xmlns:xlink="http://www.w3.org/1999/xlink" y1="0" x2="1" gradientUnits="userSpaceOnUse" y2="0" xlink:type="simple" xlink:actuate="onLoad" id="j" xlink:show="other"><stop stop-color="#EE2A27" offset="0"/><stop stop-color="#EE2B27" offset=".008"/><stop stop-color="#EE2C27" offset=".012"/><stop stop-color="#EE2C27" offset=".016"/><stop stop-color="#EE2D27" offset=".02"/><stop stop-color="#EF2E26" offset=".023"/><stop stop-color="#EF2F26" offset=".027"/><stop stop-color="#EF3026" offset=".031"/><stop stop-color="#EF3026" offset=".035"/><stop stop-color="#EF3126" offset=".039"/><stop stop-color="#EF3126" offset=".043"/><stop stop-color="#EF3226" offset=".047"/><stop stop-color="#EF3326" offset=".051"/><stop stop-color="#EF3426" offset=".055"/><stop stop-color="#EF3425" offset=".059"/><stop stop-color="#EF3525" offset=".063"/><stop stop-color="#EF3625" offset=".066"/><stop stop-color="#EF3625" offset=".07"/><stop stop-color="#EF3725" offset=".074"/><stop stop-color="#EF3825" offset=".078"/><stop stop-color="#EF3924" offset=".082"/><stop stop-color="#F03924" offset=".086"/><stop stop-color="#F03A24" offset=".09"/><stop stop-color="#F03B24" offset=".094"/><stop stop-color="#F03B24" offset=".098"/><stop stop-color="#F03C24" offset=".102"/><stop stop-color="#F03D24" offset=".105"/><stop stop-color="#F03E24" offset=".109"/><stop stop-color="#F03E24" offset=".113"/><stop stop-color="#F03F24" offset=".117"/><stop stop-color="#F04023" offset=".121"/><stop stop-color="#F04123" offset=".125"/><stop stop-color="#F04223" offset=".133"/><stop stop-color="#F04223" offset=".141"/><stop stop-color="#F04422" offset=".145"/><stop stop-color="#F04522" offset=".148"/><stop stop-color="#F14622" offset=".152"/><stop stop-color="#F14722" offset=".156"/><stop stop-color="#F14722" offset=".16"/><stop stop-color="#F14822" offset=".164"/><stop stop-color="#F14822" offset=".172"/><stop stop-color="#F14A21" offset=".176"/><stop stop-color="#F14B21" offset=".18"/><stop stop-color="#F14B21" offset=".188"/><stop stop-color="#F14C21" offset=".191"/><stop stop-color="#F14D21" offset=".195"/><stop stop-color="#F14E20" offset=".199"/><stop stop-color="#F14F20" offset=".203"/><stop stop-color="#F15020" offset=".207"/><stop stop-color="#F15020" offset=".211"/><stop stop-color="#F15120" offset=".215"/><stop stop-color="#F15120" offset=".219"/><stop stop-color="#F15220" offset=".223"/><stop stop-color="#F25320" offset=".227"/><stop stop-color="#F25320" offset=".23"/><stop stop-color="#F25420" offset=".234"/><stop stop-color="#F2551F" offset=".238"/><stop stop-color="#F2561F" offset=".242"/><stop stop-color="#F2561F" offset=".25"/><stop stop-color="#F2571F" offset=".254"/><stop stop-color="#F2581F" offset=".258"/><stop stop-color="#F2591F" offset=".262"/><stop stop-color="#F25A1E" offset=".266"/><stop stop-color="#F25B1E" offset=".27"/><stop stop-color="#F25B1E" offset=".273"/><stop stop-color="#F25C1E" offset=".277"/><stop stop-color="#F25D1E" offset=".281"/><stop stop-color="#F35E1E" offset=".285"/><stop stop-color="#F35E1E" offset=".289"/><stop stop-color="#F35F1E" offset=".293"/><stop stop-color="#F3601D" offset=".297"/><stop stop-color="#F3601D" offset=".301"/><stop stop-color="#F3611D" offset=".305"/><stop stop-color="#F3611D" offset=".309"/><stop stop-color="#F3621C" offset=".313"/><stop stop-color="#F3631C" offset=".316"/><stop stop-color="#F3641C" offset=".32"/><stop stop-color="#F3651C" offset=".324"/><stop stop-color="#F3661C" offset=".328"/><stop stop-color="#F3671C" offset=".332"/><stop stop-color="#F3671C" offset=".336"/><stop stop-color="#F3671C" offset=".344"/><stop stop-color="#F3691B" offset=".348"/><stop stop-color="#F46A1B" offset=".352"/><stop stop-color="#F46B1B" offset=".355"/><stop stop-color="#F46B1B" offset=".359"/><stop stop-color="#F46C1B" offset=".363"/><stop stop-color="#F46D1B" offset=".367"/><stop stop-color="#F46D1A" offset=".371"/><stop stop-color="#F46E1A" offset=".375"/><stop stop-color="#F46E1A" offset=".379"/><stop stop-color="#F46F1A" offset=".383"/><stop stop-color="#F4701A" offset=".387"/><stop stop-color="#F4711A" offset=".391"/><stop stop-color="#F47119" offset=".395"/><stop stop-color="#F47219" offset=".398"/><stop stop-color="#F47319" offset=".406"/><stop stop-color="#F47419" offset=".41"/><stop stop-color="#F47519" offset=".414"/><stop stop-color="#F57619" offset=".418"/><stop stop-color="#F57719" offset=".422"/><stop stop-color="#F57818" offset=".426"/><stop stop-color="#F57818" offset=".43"/><stop stop-color="#F57918" offset=".438"/><stop stop-color="#F57A17" offset=".441"/><stop stop-color="#F57B17" offset=".445"/><stop stop-color="#F57B17" offset=".449"/><stop stop-color="#F57C17" offset=".453"/><stop stop-color="#F57C17" offset=".461"/><stop stop-color="#F57E17" offset=".465"/><stop stop-color="#F57F17" offset=".469"/><stop stop-color="#F57F17" offset=".477"/><stop stop-color="#F68116" offset=".48"/><stop stop-color="#F68116" offset=".484"/><stop stop-color="#F68216" offset=".488"/><stop stop-color="#F68316" offset=".492"/><stop stop-color="#F68415" offset=".5"/><stop stop-color="#F68515" offset=".504"/><stop stop-color="#F68615" offset=".508"/><stop stop-color="#F68615" offset=".512"/><stop stop-color="#F68715" offset=".516"/><stop stop-color="#F68715" offset=".52"/><stop stop-color="#F68815" offset=".523"/><stop stop-color="#F68914" offset=".527"/><stop stop-color="#F68A14" offset=".531"/><stop stop-color="#F68B14" offset=".539"/><stop stop-color="#F68B14" offset=".543"/><stop stop-color="#F68C14" offset=".547"/><stop stop-color="#F78D14" offset=".551"/><stop stop-color="#F78E13" offset=".555"/><stop stop-color="#F78F13" offset=".559"/><stop stop-color="#F79013" offset=".563"/><stop stop-color="#F79113" offset=".566"/><stop stop-color="#F79112" offset=".57"/><stop stop-color="#F79212" offset=".578"/><stop stop-color="#F79312" offset=".582"/><stop stop-color="#F79412" offset=".586"/><stop stop-color="#F79412" offset=".59"/><stop stop-color="#F79512" offset=".594"/><stop stop-color="#F79612" offset=".598"/><stop stop-color="#F79712" offset=".602"/><stop stop-color="#F79712" offset=".605"/><stop stop-color="#F79811" offset=".609"/><stop stop-color="#F89911" offset=".613"/><stop stop-color="#F89911" offset=".617"/><stop stop-color="#F89A11" offset=".621"/><stop stop-color="#F89B10" offset=".625"/><stop stop-color="#F89C10" offset=".629"/><stop stop-color="#F89D10" offset=".633"/><stop stop-color="#F89E10" offset=".641"/><stop stop-color="#F89F10" offset=".645"/><stop stop-color="#F89F0F" offset=".648"/><stop stop-color="#F8A00F" offset=".652"/><stop stop-color="#F8A10F" offset=".656"/><stop stop-color="#F8A10F" offset=".66"/><stop stop-color="#F8A20F" offset=".664"/><stop stop-color="#F8A20F" offset=".672"/><stop stop-color="#F8A40F" offset=".676"/><stop stop-color="#F9A50E" offset=".68"/><stop stop-color="#F9A50E" offset=".684"/><stop stop-color="#F9A60E" offset=".688"/><stop stop-color="#F9A70E" offset=".691"/><stop stop-color="#F9A80D" offset=".695"/><stop stop-color="#F9A90D" offset=".699"/><stop stop-color="#F9A90D" offset=".703"/><stop stop-color="#F9AA0D" offset=".711"/><stop stop-color="#F9AB0D" offset=".715"/><stop stop-color="#F9AC0D" offset=".719"/><stop stop-color="#F9AC0D" offset=".727"/><stop stop-color="#F9AD0C" offset=".73"/><stop stop-color="#F9AE0C" offset=".734"/><stop stop-color="#F9AF0B" offset=".738"/><stop stop-color="#F9B00B" offset=".742"/><stop stop-color="#F9B00B" offset=".746"/><stop stop-color="#FAB10B" offset=".75"/><stop stop-color="#FAB10B" offset=".754"/><stop stop-color="#FAB20B" offset=".758"/><stop stop-color="#FAB30B" offset=".762"/><stop stop-color="#FAB40A" offset=".766"/><stop stop-color="#FAB40A" offset=".781"/><stop stop-color="#FAB40A" offset=".813"/><stop stop-color="#FAB40A" offset=".875"/><stop stop-color="#FAB40A" offset="1"/></linearGradient><linearGradient x1="0" gradientTransform="matrix(0 -15.63671 15.6318 0 54.762 80.781)" xmlns:xlink="http://www.w3.org/1999/xlink" y1="0" x2="1" gradientUnits="userSpaceOnUse" y2="0" xlink:type="simple" xlink:actuate="onLoad" id="n" xlink:show="other"><stop stop-color="#F57E13" offset="0"/><stop stop-color="#F57E13" offset=".063"/><stop stop-color="#F57E13" offset=".066"/><stop stop-color="#F57F13" offset=".07"/><stop stop-color="#F57F13" offset=".074"/><stop stop-color="#F58013" offset=".078"/><stop stop-color="#F58113" offset=".082"/><stop stop-color="#F58113" offset=".086"/><stop stop-color="#F68113" offset=".094"/><stop stop-color="#F68213" offset=".098"/><stop stop-color="#F68213" offset=".102"/><stop stop-color="#F68313" offset=".105"/><stop stop-color="#F68313" offset=".109"/><stop stop-color="#F68413" offset=".117"/><stop stop-color="#F68513" offset=".121"/><stop stop-color="#F68512" offset=".125"/><stop stop-color="#F68512" offset=".141"/><stop stop-color="#F68612" offset=".145"/><stop stop-color="#F68712" offset=".148"/><stop stop-color="#F68712" offset=".156"/><stop stop-color="#F68812" offset=".164"/><stop stop-color="#F68912" offset=".172"/><stop stop-color="#F68A12" offset=".176"/><stop stop-color="#F68B11" offset=".18"/><stop stop-color="#F68B11" offset=".188"/><stop stop-color="#F78C11" offset=".191"/><stop stop-color="#F78D11" offset=".195"/><stop stop-color="#F78E11" offset=".203"/><stop stop-color="#F78F11" offset=".211"/><stop stop-color="#F79011" offset=".219"/><stop stop-color="#F79011" offset=".223"/><stop stop-color="#F79110" offset=".227"/><stop stop-color="#F79210" offset=".23"/><stop stop-color="#F79210" offset=".234"/><stop stop-color="#F79210" offset=".25"/><stop stop-color="#F79310" offset=".254"/><stop stop-color="#F79410" offset=".258"/><stop stop-color="#F79410" offset=".266"/><stop stop-color="#F79510" offset=".27"/><stop stop-color="#F79610" offset=".273"/><stop stop-color="#F7960F" offset=".277"/><stop stop-color="#F7970F" offset=".281"/><stop stop-color="#F7970F" offset=".289"/><stop stop-color="#F7970F" offset=".293"/><stop stop-color="#F7980F" offset=".297"/><stop stop-color="#F8980F" offset=".301"/><stop stop-color="#F8990F" offset=".305"/><stop stop-color="#F89A0F" offset=".309"/><stop stop-color="#F89A0F" offset=".313"/><stop stop-color="#F89B0F" offset=".316"/><stop stop-color="#F89B0F" offset=".32"/><stop stop-color="#F89C0F" offset=".324"/><stop stop-color="#F89C0F" offset=".328"/><stop stop-color="#F89D0F" offset=".332"/><stop stop-color="#F89D0E" offset=".336"/><stop stop-color="#F89D0E" offset=".344"/><stop stop-color="#F89E0E" offset=".348"/><stop stop-color="#F89E0E" offset=".352"/><stop stop-color="#F89F0E" offset=".355"/><stop stop-color="#F89F0E" offset=".359"/><stop stop-color="#F8A00E" offset=".367"/><stop stop-color="#F8A00E" offset=".371"/><stop stop-color="#F8A10E" offset=".375"/><stop stop-color="#F8A10E" offset=".383"/><stop stop-color="#F8A20E" offset=".387"/><stop stop-color="#F8A20D" offset=".391"/><stop stop-color="#F8A20D" offset=".395"/><stop stop-color="#F8A30D" offset=".398"/><stop stop-color="#F8A40D" offset=".406"/><stop stop-color="#F8A50D" offset=".414"/><stop stop-color="#F9A50D" offset=".422"/><stop stop-color="#F9A60D" offset=".43"/><stop stop-color="#F9A70D" offset=".438"/><stop stop-color="#F9A80C" offset=".441"/><stop stop-color="#F9A80C" offset=".445"/><stop stop-color="#F9A90C" offset=".453"/><stop stop-color="#F9AA0C" offset=".461"/><stop stop-color="#F9AB0C" offset=".465"/><stop stop-color="#F9AB0C" offset=".469"/><stop stop-color="#F9AC0C" offset=".477"/><stop stop-color="#F9AC0C" offset=".484"/><stop stop-color="#F9AD0C" offset=".488"/><stop stop-color="#F9AE0C" offset=".492"/><stop stop-color="#F9AE0B" offset=".5"/><stop stop-color="#F9AE0B" offset=".504"/><stop stop-color="#F9AF0B" offset=".508"/><stop stop-color="#F9AF0B" offset=".512"/><stop stop-color="#F9B00B" offset=".516"/><stop stop-color="#F9B00B" offset=".52"/><stop stop-color="#FAB10B" offset=".523"/><stop stop-color="#FAB10B" offset=".527"/><stop stop-color="#FAB20B" offset=".531"/><stop stop-color="#FAB20B" offset=".535"/><stop stop-color="#FAB30B" offset=".539"/><stop stop-color="#FAB30B" offset=".547"/><stop stop-color="#FAB40A" offset=".551"/><stop stop-color="#FAB40A" offset=".555"/><stop stop-color="#FAB50A" offset=".559"/><stop stop-color="#FAB60B" offset=".563"/><stop stop-color="#FAB70B" offset=".566"/><stop stop-color="#FAB70B" offset=".57"/><stop stop-color="#FAB80B" offset=".574"/><stop stop-color="#FAB80B" offset=".578"/><stop stop-color="#FAB80B" offset=".586"/><stop stop-color="#FAB90B" offset=".594"/><stop stop-color="#FABA0B" offset=".602"/><stop stop-color="#FABA0C" offset=".605"/><stop stop-color="#FABB0C" offset=".609"/><stop stop-color="#FABB0C" offset=".617"/><stop stop-color="#FABC0C" offset=".625"/><stop stop-color="#FBBD0C" offset=".629"/><stop stop-color="#FBBE0C" offset=".633"/><stop stop-color="#FBBE0C" offset=".637"/><stop stop-color="#FBBF0D" offset=".641"/><stop stop-color="#FBC00D" offset=".645"/><stop stop-color="#FBC10D" offset=".648"/><stop stop-color="#FBC20D" offset=".652"/><stop stop-color="#FBC20D" offset=".656"/><stop stop-color="#FBC30D" offset=".66"/><stop stop-color="#FBC30D" offset=".664"/><stop stop-color="#FBC40D" offset=".672"/><stop stop-color="#FBC50D" offset=".68"/><stop stop-color="#FBC50E" offset=".688"/><stop stop-color="#FBC60E" offset=".695"/><stop stop-color="#FBC60E" offset=".703"/><stop stop-color="#FBC70E" offset=".711"/><stop stop-color="#FBC80F" offset=".715"/><stop stop-color="#FCC90F" offset=".719"/><stop stop-color="#FCCA0F" offset=".723"/><stop stop-color="#FCCB0F" offset=".727"/><stop stop-color="#FCCB0F" offset=".73"/><stop stop-color="#FCCC0F" offset=".734"/><stop stop-color="#FCCD0F" offset=".738"/><stop stop-color="#FCCD0F" offset=".742"/><stop stop-color="#FCCE10" offset=".746"/><stop stop-color="#FCCE10" offset=".75"/><stop stop-color="#FCCF10" offset=".758"/><stop stop-color="#FCCF10" offset=".766"/><stop stop-color="#FCD010" offset=".773"/><stop stop-color="#FCD110" offset=".777"/><stop stop-color="#FCD110" offset=".781"/><stop stop-color="#FCD211" offset=".789"/><stop stop-color="#FCD311" offset=".793"/><stop stop-color="#FCD411" offset=".797"/><stop stop-color="#FCD411" offset=".805"/><stop stop-color="#FCD512" offset=".809"/><stop stop-color="#FDD612" offset=".813"/><stop stop-color="#FDD612" offset=".816"/><stop stop-color="#FDD712" offset=".82"/><stop stop-color="#FDD712" offset=".824"/><stop stop-color="#FDD812" offset=".828"/><stop stop-color="#FDD812" offset=".832"/><stop stop-color="#FDD912" offset=".836"/><stop stop-color="#FDDA13" offset=".84"/><stop stop-color="#FDDA13" offset=".844"/><stop stop-color="#FDDB13" offset=".848"/><stop stop-color="#FDDB13" offset=".852"/><stop stop-color="#FDDC13" offset=".855"/><stop stop-color="#FDDC13" offset=".859"/><stop stop-color="#FDDD13" offset=".867"/><stop stop-color="#FDDE14" offset=".871"/><stop stop-color="#FDDE14" offset=".875"/><stop stop-color="#FDDF14" offset=".883"/><stop stop-color="#FDDF14" offset=".891"/><stop stop-color="#FDE014" offset=".895"/><stop stop-color="#FEE114" offset=".898"/><stop stop-color="#FEE214" offset=".906"/><stop stop-color="#FEE215" offset=".914"/><stop stop-color="#FEE315" offset=".918"/><stop stop-color="#FEE415" offset=".922"/><stop stop-color="#FEE415" offset=".926"/><stop stop-color="#FEE516" offset=".93"/><stop stop-color="#FEE515" offset=".934"/><stop stop-color="#FEE615" offset=".938"/><stop stop-color="#FEE615" offset="1"/></linearGradient></defs><g clip-path="url(#a)" fill="#FFF"><path d="M 0 0 L 112.5 0 L 112.5 112.5 L 0 112.5 Z M 0 0"/><path d="M 0 0 L 112.5 0 L 112.5 112.5 L 0 112.5 Z M 0 0"/></g><path fill="#51ADE5" d="M 56.210938 103.722656 C 43.527344 103.722656 31.582031 98.785156 22.621094 89.804688 C 13.636719 80.839844 8.703125 68.898438 8.703125 56.210938 C 8.703125 43.527344 13.636719 31.582031 22.621094 22.621094 C 31.582031 13.636719 43.527344 8.699219 56.210938 8.699219 C 68.898438 8.699219 80.839844 13.636719 89.804688 22.621094 C 98.785156 31.601562 103.722656 43.527344 103.722656 56.210938 C 103.722656 68.898438 98.785156 80.839844 89.804688 89.804688 C 80.839844 98.785156 68.898438 103.722656 56.210938 103.722656 Z M 56.210938 11.550781 C 44.285156 11.550781 33.0625 16.203125 24.632812 24.632812 C 16.203125 33.0625 11.550781 44.285156 11.550781 56.210938 C 11.550781 68.136719 16.203125 79.359375 24.632812 87.789062 C 33.0625 96.222656 44.285156 100.875 56.210938 100.875 C 68.136719 100.875 79.359375 96.222656 87.789062 87.789062 C 96.222656 79.359375 100.875 68.136719 100.875 56.210938 C 100.875 44.285156 96.222656 33.0625 87.789062 24.632812 C 79.359375 16.203125 68.136719 11.550781 56.210938 11.550781 Z M 56.210938 11.550781"/><g clip-path="url(#b)"><path fill="#01B5F0" d="M 42.507812 75.644531 L 42.570312 62.199219 L 66.511719 59.078125 L 70.261719 73.238281 C 61.203125 76.5625 51.914062 77.367188 42.507812 75.644531 Z M 80.167969 70.96875 C 79.644531 69.949219 78.40625 69.550781 77.398438 70.078125 C 75.933594 70.839844 74.464844 71.53125 72.988281 72.15625 L 69.3125 58.273438 L 68.570312 52.464844 C 59.980469 51.554688 51.605469 52.324219 43.441406 54.765625 C 42.558594 47.5 40.144531 40.363281 36.25 33.503906 C 35.578125 32.320312 34.054688 31.941406 32.90625 32.664062 C 31.808594 33.359375 31.460938 34.800781 32.101562 35.9375 C 35.835938 42.519531 38.085938 49.355469 38.789062 56.285156 L 39.03125 56.261719 C 38.953125 56.289062 38.875 56.320312 38.796875 56.347656 L 39.59375 62.585938 L 39.65625 62.578125 L 39.601562 75.035156 C 38.117188 74.683594 36.632812 74.269531 35.144531 73.796875 C 34.066406 73.449219 32.910156 74.050781 32.566406 75.144531 C 32.222656 76.238281 32.820312 77.402344 33.902344 77.75 C 35.792969 78.359375 37.6875 78.871094 39.578125 79.292969 L 39.578125 79.480469 L 40.484375 79.484375 C 44.40625 80.296875 48.3125 80.707031 52.175781 80.707031 C 53.804688 80.707031 55.425781 80.632812 57.039062 80.488281 C 64.535156 79.816406 72.019531 77.550781 79.285156 73.765625 C 80.292969 73.238281 80.6875 71.984375 80.167969 70.96875"/></g><path fill="#01B5F0" d="M 52.886719 48.503906 L 53.085938 48.554688 L 53.085938 50.351562 L 54.792969 50.351562 L 54.792969 48.480469 L 55.152344 48.457031 C 55.398438 48.40625 55.609375 48.363281 55.8125 48.292969 C 57.410156 47.789062 58.320312 46.78125 58.519531 45.285156 C 58.75 43.527344 58.1875 42.179688 56.890625 41.382812 C 56.46875 41.121094 56.011719 40.902344 55.570312 40.695312 L 55.445312 40.636719 C 55.199219 40.523438 54.949219 40.410156 54.699219 40.28125 C 54.546875 40.210938 54.390625 40.140625 54.226562 40.058594 L 54.160156 40.027344 C 53.75 39.835938 53.363281 39.65625 52.996094 39.410156 C 52.449219 39.054688 52.257812 38.285156 52.519531 37.488281 C 52.652344 37.078125 52.9375 36.601562 53.960938 36.582031 C 54.734375 36.582031 55.253906 36.9375 55.472656 37.609375 C 55.550781 37.851562 55.589844 38.113281 55.617188 38.3125 L 55.6875 38.675781 L 58.476562 38.675781 L 58.484375 38.578125 C 58.574219 37.828125 58.378906 36.910156 57.988281 36.238281 C 57.414062 35.246094 56.511719 34.640625 55.148438 34.332031 L 54.945312 34.28125 L 54.945312 32.296875 L 53.246094 32.296875 L 53.246094 34.203125 L 52.683594 34.378906 C 52.25 34.507812 51.863281 34.625 51.5 34.804688 C 50.339844 35.390625 49.578125 36.550781 49.46875 37.90625 C 49.363281 39.226562 49.921875 40.464844 50.957031 41.210938 C 51.5 41.609375 52.121094 41.890625 52.671875 42.136719 C 52.917969 42.25 53.171875 42.371094 53.421875 42.492188 C 53.613281 42.582031 53.785156 42.667969 53.957031 42.742188 C 54.339844 42.925781 54.683594 43.085938 55 43.289062 C 55.578125 43.671875 55.804688 44.441406 55.5625 45.210938 C 55.425781 45.648438 55.066406 46.171875 54.113281 46.195312 L 53.894531 46.203125 C 53.777344 46.203125 53.664062 46.203125 53.5625 46.195312 C 52.652344 46.121094 52.046875 45.523438 51.945312 44.601562 L 51.863281 44.027344 L 49.085938 44.027344 L 49.070312 44.136719 C 48.847656 46.382812 50.097656 47.8125 52.886719 48.503906"/><g clip-path="url(#c)"><g clip-path="url(#d)"><g clip-path="url(#e)"><path fill="url(#f)" d="M 44.246094 80.757812 L 64.460938 80.757812 L 64.460938 54.695312 L 44.246094 54.695312 Z M 44.246094 80.757812"/></g></g></g><g clip-path="url(#g)"><g clip-path="url(#h)"><g clip-path="url(#i)"><path fill="url(#j)" d="M 44.742188 80.757812 L 61.882812 80.757812 L 61.882812 51.535156 L 44.742188 51.535156 Z M 44.742188 80.757812"/></g></g></g><g clip-path="url(#k)"><g clip-path="url(#l)"><g clip-path="url(#m)"><path fill="url(#n)" d="M 50.394531 80.78125 L 59.070312 80.78125 L 59.070312 65.144531 L 50.394531 65.144531 Z M 50.394531 80.78125"/></g></g></g></svg>