<svg xmlns="http://www.w3.org/2000/svg" xmlns:xlink="http://www.w3.org/1999/xlink" width="500" zoomAndPan="magnify" viewBox="0 0 375 374.999991" height="500" preserveAspectRatio="xMidYMid meet" version="1.0"><defs><clipPath id="id1"><path d="M 83.601562 68.761719 L 291.351562 68.761719 L 291.351562 306 L 83.601562 306 Z M 83.601562 68.761719 " clip-rule="nonzero"/></clipPath></defs><g clip-path="url(#id1)"><path fill="#74b7f4" d="M 232.578125 68.90625 C 200.453125 68.90625 173.707031 91.644531 173.707031 120.441406 C 173.707031 136.640625 182.46875 150.84375 195.566406 160.203125 C 195.492188 160.902344 195.59375 160.96875 195.144531 162.636719 C 194.34375 165.601562 192.71875 169.828125 189.351562 174.613281 L 184.292969 181.8125 L 193.082031 181.851562 C 208.25 181.917969 216.746094 173.164062 219.257812 170.378906 C 223.574219 171.253906 227.96875 171.96875 232.578125 171.96875 C 264.699219 171.96875 291.445312 149.230469 291.445312 120.433594 C 291.445312 91.632812 264.699219 68.898438 232.578125 68.90625 Z M 232.578125 78.082031 C 260.414062 78.078125 282.273438 97.378906 282.273438 120.433594 C 282.273438 143.480469 260.414062 162.78125 232.578125 162.78125 C 227.820312 162.78125 223.230469 162.210938 218.882812 161.152344 L 216.046875 160.464844 L 214.226562 162.742188 C 214.226562 162.742188 209.234375 168.625 200.984375 171.292969 C 201.859375 169.238281 203.558594 166.667969 204 165.03125 C 205.046875 161.148438 205.082031 158.292969 205.082031 158.292969 L 205.082031 155.773438 L 202.949219 154.425781 C 190.617188 146.59375 182.882812 134.265625 182.882812 120.441406 C 182.882812 97.394531 204.734375 78.082031 232.578125 78.082031 Z M 235.191406 94.605469 C 224.003906 94.605469 217.867188 101.089844 217.5625 110.027344 L 226.410156 110.027344 C 226.714844 105.433594 229.84375 102.492188 234.699219 102.492188 C 239.441406 102.492188 242.609375 105.320312 242.609375 109.238281 C 242.609375 112.964844 241.023438 114.96875 236.355469 117.789062 C 231.160156 120.84375 228.976562 124.234375 229.3125 129.890625 L 229.347656 132.457031 L 238.089844 132.457031 L 238.089844 130.304688 C 238.089844 126.582031 239.480469 124.65625 244.414062 121.753906 C 249.53125 118.695312 252.394531 114.65625 252.394531 108.890625 C 252.394531 100.554688 245.503906 94.605469 235.191406 94.605469 Z M 135.417969 127.84375 C 117.761719 127.84375 103.339844 142.285156 103.339844 159.964844 C 103.339844 177.644531 117.761719 192.082031 135.417969 192.082031 C 153.074219 192.082031 167.492188 177.644531 167.492188 159.964844 C 167.492188 142.285156 153.074219 127.84375 135.417969 127.84375 Z M 135.417969 137.726562 C 147.738281 137.726562 157.621094 147.625 157.621094 159.964844 C 157.621094 172.304688 147.738281 182.199219 135.417969 182.199219 C 123.09375 182.199219 113.210938 172.304688 113.210938 159.964844 C 113.210938 147.625 123.09375 137.726562 135.417969 137.726562 Z M 234.140625 138.414062 C 230.375 138.414062 227.882812 140.789062 227.882812 144.445312 C 227.882812 148.0625 230.375 150.4375 234.140625 150.4375 C 237.984375 150.4375 240.386719 148.0625 240.386719 144.445312 C 240.386719 140.785156 237.980469 138.414062 234.140625 138.414062 Z M 113.835938 201.964844 C 97.199219 201.964844 83.601562 215.582031 83.601562 232.242188 L 83.601562 300.792969 C 83.597656 301.121094 83.625 301.445312 83.6875 301.765625 C 83.746094 302.089844 83.835938 302.402344 83.957031 302.703125 C 84.082031 303.007812 84.230469 303.296875 84.410156 303.570312 C 84.589844 303.84375 84.792969 304.097656 85.023438 304.332031 C 85.253906 304.566406 85.503906 304.773438 85.773438 304.957031 C 86.042969 305.140625 86.332031 305.292969 86.632812 305.421875 C 86.933594 305.546875 87.246094 305.644531 87.566406 305.707031 C 87.886719 305.773438 88.210938 305.804688 88.539062 305.804688 C 88.863281 305.804688 89.1875 305.773438 89.507812 305.707031 C 89.828125 305.644531 90.140625 305.546875 90.441406 305.421875 C 90.742188 305.292969 91.03125 305.140625 91.300781 304.957031 C 91.570312 304.773438 91.820312 304.566406 92.050781 304.332031 C 92.28125 304.097656 92.484375 303.84375 92.664062 303.570312 C 92.84375 303.296875 92.996094 303.007812 93.117188 302.703125 C 93.238281 302.402344 93.328125 302.089844 93.390625 301.765625 C 93.449219 301.445312 93.476562 301.121094 93.472656 300.792969 L 93.472656 232.242188 C 93.472656 220.921875 102.535156 211.847656 113.835938 211.847656 L 160.773438 211.847656 C 163.613281 211.847656 166.296875 213.078125 168.167969 215.207031 L 193.121094 249.351562 C 193.34375 249.660156 193.597656 249.933594 193.886719 250.183594 C 194.171875 250.429688 194.484375 250.640625 194.820312 250.816406 C 195.15625 250.992188 195.507812 251.128906 195.875 251.222656 C 196.242188 251.316406 196.617188 251.367188 196.996094 251.375 C 197.375 251.386719 197.75 251.351562 198.121094 251.273438 C 198.492188 251.195312 198.847656 251.074219 199.191406 250.914062 C 199.535156 250.753906 199.855469 250.554688 200.152344 250.320312 C 200.449219 250.085938 200.71875 249.820312 200.957031 249.527344 L 216.25 230.378906 C 218.128906 228.03125 220.953125 226.671875 223.953125 226.671875 L 240.09375 226.671875 C 239.847656 227.246094 239.75 228.550781 239.480469 228.949219 C 238.574219 230.285156 237.398438 231.144531 235.34375 232.28125 C 231.28125 234.523438 224.105469 237.398438 217.792969 245.917969 L 200.695312 266.425781 C 198.707031 268.03125 195.941406 267.9375 194.121094 266.117188 L 176.351562 248.320312 C 176.039062 247.914062 175.675781 247.5625 175.257812 247.269531 C 174.839844 246.976562 174.390625 246.753906 173.902344 246.601562 C 173.417969 246.449219 172.917969 246.371094 172.40625 246.375 C 171.898438 246.375 171.398438 246.453125 170.914062 246.609375 C 170.828125 246.636719 170.738281 246.667969 170.652344 246.699219 C 170.585938 246.722656 170.519531 246.75 170.453125 246.773438 C 170.449219 246.777344 170.445312 246.78125 170.441406 246.785156 C 170.292969 246.847656 170.148438 246.917969 170.007812 246.996094 C 170.003906 247 170 247.003906 170 247.007812 C 169.5625 247.25 169.167969 247.550781 168.824219 247.910156 C 168.476562 248.269531 168.191406 248.675781 167.96875 249.121094 C 167.746094 249.570312 167.59375 250.039062 167.511719 250.53125 C 167.429688 251.027344 167.421875 251.519531 167.492188 252.015625 L 167.484375 300.792969 C 167.476562 301.121094 167.503906 301.445312 167.566406 301.765625 C 167.625 302.089844 167.714844 302.402344 167.839844 302.703125 C 167.960938 303.007812 168.109375 303.296875 168.289062 303.570312 C 168.46875 303.84375 168.671875 304.097656 168.902344 304.332031 C 169.132812 304.566406 169.382812 304.773438 169.652344 304.957031 C 169.925781 305.140625 170.210938 305.292969 170.511719 305.421875 C 170.8125 305.546875 171.125 305.644531 171.445312 305.707031 C 171.765625 305.773438 172.089844 305.804688 172.417969 305.804688 C 172.746094 305.804688 173.066406 305.773438 173.386719 305.707031 C 173.710938 305.644531 174.019531 305.546875 174.320312 305.421875 C 174.625 305.292969 174.910156 305.140625 175.179688 304.957031 C 175.453125 304.773438 175.703125 304.566406 175.929688 304.332031 C 176.160156 304.097656 176.367188 303.84375 176.542969 303.570312 C 176.722656 303.296875 176.875 303.007812 176.996094 302.703125 C 177.117188 302.402344 177.210938 302.089844 177.269531 301.765625 C 177.328125 301.445312 177.355469 301.121094 177.351562 300.792969 L 177.363281 263.308594 L 187.144531 273.101562 C 192.582031 278.546875 201.410156 278.882812 207.25 273.875 C 207.457031 273.699219 207.652344 273.503906 207.828125 273.296875 L 225.367188 252.257812 C 225.4375 252.171875 225.507812 252.085938 225.570312 251.996094 C 230.53125 245.183594 234.964844 243.773438 240.105469 240.9375 C 242.675781 239.519531 245.511719 237.632812 247.632812 234.507812 C 249.753906 231.386719 250.976562 227.347656 251.371094 222.105469 C 251.398438 221.769531 251.390625 221.429688 251.34375 221.089844 C 251.300781 220.753906 251.222656 220.425781 251.109375 220.101562 C 251 219.78125 250.855469 219.476562 250.679688 219.183594 C 250.503906 218.890625 250.300781 218.621094 250.070312 218.371094 C 249.839844 218.121094 249.585938 217.898438 249.308594 217.699219 C 249.03125 217.503906 248.734375 217.335938 248.421875 217.199219 C 248.113281 217.066406 247.789062 216.960938 247.457031 216.894531 C 247.125 216.824219 246.789062 216.789062 246.445312 216.789062 L 223.953125 216.789062 C 217.960938 216.789062 212.289062 219.523438 208.539062 224.210938 L 197.273438 238.3125 L 175.898438 209.050781 C 175.8125 208.933594 175.722656 208.820312 175.625 208.710938 C 171.882812 204.421875 166.460938 201.964844 160.773438 201.964844 Z M 108.199219 246.371094 C 107.875 246.375 107.554688 246.410156 107.238281 246.480469 C 106.921875 246.546875 106.617188 246.644531 106.320312 246.773438 C 106.023438 246.902344 105.738281 247.058594 105.472656 247.242188 C 105.207031 247.425781 104.960938 247.636719 104.734375 247.867188 C 104.511719 248.101562 104.308594 248.351562 104.132812 248.625 C 103.957031 248.898438 103.808594 249.183594 103.691406 249.484375 C 103.570312 249.785156 103.480469 250.097656 103.421875 250.414062 C 103.363281 250.734375 103.335938 251.054688 103.339844 251.378906 L 103.332031 300.792969 C 103.328125 301.121094 103.355469 301.445312 103.414062 301.765625 C 103.472656 302.089844 103.566406 302.402344 103.6875 302.703125 C 103.808594 303.007812 103.960938 303.296875 104.140625 303.570312 C 104.316406 303.84375 104.523438 304.097656 104.753906 304.332031 C 104.980469 304.566406 105.230469 304.773438 105.503906 304.957031 C 105.773438 305.140625 106.058594 305.292969 106.363281 305.421875 C 106.664062 305.546875 106.972656 305.644531 107.296875 305.707031 C 107.617188 305.773438 107.941406 305.804688 108.265625 305.804688 C 108.59375 305.804688 108.917969 305.773438 109.238281 305.707031 C 109.558594 305.644531 109.871094 305.546875 110.171875 305.421875 C 110.472656 305.292969 110.757812 305.140625 111.03125 304.957031 C 111.300781 304.773438 111.550781 304.566406 111.78125 304.332031 C 112.011719 304.097656 112.214844 303.84375 112.394531 303.570312 C 112.574219 303.296875 112.722656 303.007812 112.847656 302.703125 C 112.96875 302.402344 113.058594 302.089844 113.117188 301.765625 C 113.179688 301.445312 113.207031 301.121094 113.203125 300.792969 L 113.210938 251.378906 C 113.214844 251.046875 113.1875 250.71875 113.125 250.394531 C 113.066406 250.070312 112.972656 249.753906 112.847656 249.449219 C 112.722656 249.144531 112.570312 248.851562 112.386719 248.578125 C 112.203125 248.300781 111.996094 248.046875 111.761719 247.8125 C 111.527344 247.578125 111.273438 247.371094 111 247.191406 C 110.722656 247.007812 110.433594 246.855469 110.125 246.730469 C 109.820312 246.605469 109.503906 246.515625 109.179688 246.453125 C 108.855469 246.390625 108.527344 246.363281 108.199219 246.371094 Z M 108.199219 246.371094 " fill-opacity="1" fill-rule="nonzero"/></g></svg>