<svg xmlns="http://www.w3.org/2000/svg" xmlns:xlink="http://www.w3.org/1999/xlink" width="500" zoomAndPan="magnify" viewBox="0 0 375 374.999991" height="500" preserveAspectRatio="xMidYMid meet" version="1.0"><defs><clipPath id="id1"><path d="M 77 292 L 309.113281 292 L 309.113281 298.371094 L 77 298.371094 Z M 77 292 " clip-rule="nonzero"/></clipPath><clipPath id="id2"><path d="M 167 98 L 309.660156 98 L 309.660156 222 L 167 222 Z M 167 98 " clip-rule="nonzero"/></clipPath><clipPath id="id3"><path d="M 92 76.167969 L 203 76.167969 L 203 188 L 92 188 Z M 92 76.167969 " clip-rule="nonzero"/></clipPath></defs><g clip-path="url(#id1)"><path fill="#74b7f4" d="M 306.398438 292.9375 L 80.597656 292.9375 C 79.101562 292.9375 77.882812 294.15625 77.882812 295.652344 C 77.882812 297.152344 79.101562 298.371094 80.597656 298.371094 L 306.398438 298.371094 C 307.894531 298.371094 309.113281 297.152344 309.113281 295.652344 C 309.113281 294.15625 307.894531 292.9375 306.398438 292.9375 " fill-opacity="1" fill-rule="nonzero"/></g><path fill="#74b7f4" d="M 163.414062 256.636719 C 163.414062 255.160156 162.195312 253.941406 160.699219 253.941406 L 134.503906 253.941406 C 133.03125 253.941406 131.8125 255.160156 131.8125 256.636719 L 131.8125 287.546875 L 163.414062 287.546875 L 163.414062 256.636719 " fill-opacity="1" fill-rule="nonzero"/><path fill="#74b7f4" d="M 264.476562 159.523438 C 263.003906 159.523438 261.765625 160.761719 261.765625 162.238281 L 261.765625 287.546875 L 293.363281 287.546875 L 293.363281 162.238281 C 293.363281 160.761719 292.148438 159.523438 290.671875 159.523438 L 264.476562 159.523438 " fill-opacity="1" fill-rule="nonzero"/><path fill="#74b7f4" d="M 177.835938 221.535156 C 176.339844 221.535156 175.125 222.710938 175.125 224.230469 L 175.125 287.546875 L 206.722656 287.546875 L 206.722656 224.230469 C 206.722656 222.710938 205.507812 221.535156 204.03125 221.535156 L 177.835938 221.535156 " fill-opacity="1" fill-rule="nonzero"/><path fill="#74b7f4" d="M 221.144531 194.027344 C 219.671875 194.027344 218.433594 195.222656 218.433594 196.742188 L 218.433594 287.546875 L 250.054688 287.546875 L 250.054688 196.742188 C 250.054688 195.222656 248.816406 194.027344 247.339844 194.027344 L 221.144531 194.027344 " fill-opacity="1" fill-rule="nonzero"/><path fill="#74b7f4" d="M 107.457031 210.453125 L 92.96875 223.546875 C 94.402344 224.679688 95.640625 226.003906 96.601562 227.566406 L 111.066406 214.496094 C 109.65625 213.382812 108.4375 212.015625 107.457031 210.453125 " fill-opacity="1" fill-rule="nonzero"/><path fill="#74b7f4" d="M 138.265625 220.765625 C 139.25 219.203125 140.425781 217.792969 141.835938 216.636719 L 137.199219 211.867188 C 137.199219 211.910156 137.15625 211.929688 137.113281 211.972656 C 136 213.382812 134.65625 214.625 133.222656 215.566406 L 138.265625 220.765625 " fill-opacity="1" fill-rule="nonzero"/><path fill="#74b7f4" d="M 165.550781 224.570312 C 164.355469 222.027344 162.324219 219.972656 159.804688 218.816406 C 154.976562 216.613281 149.71875 217.191406 145.785156 220.359375 C 141.917969 223.480469 140.210938 228.421875 141.277344 233.34375 C 143.628906 243.910156 157.238281 246.988281 163.992188 238.5625 C 167.066406 234.796875 167.859375 229.664062 165.550781 224.570312 " fill-opacity="1" fill-rule="nonzero"/><path fill="#74b7f4" d="M 122.839844 213.34375 C 126.75 213.34375 130.425781 211.652344 132.925781 208.550781 C 138.136719 202.15625 136.042969 192.207031 128.738281 188.765625 C 123.90625 186.5625 118.652344 187.136719 114.71875 190.304688 C 105.40625 197.875 110.425781 213.34375 122.839844 213.34375 " fill-opacity="1" fill-rule="nonzero"/><path fill="#74b7f4" d="M 91.472656 246.113281 C 96.792969 239.480469 94.292969 229.535156 87.265625 226.367188 C 82.457031 224.121094 77.222656 224.699219 73.269531 227.886719 C 64.9375 234.605469 67.84375 248.25 78.484375 250.648438 C 83.035156 251.652344 88.183594 250.175781 91.472656 246.113281 " fill-opacity="1" fill-rule="nonzero"/><g clip-path="url(#id2)"><path fill="#74b7f4" d="M 283.964844 103.734375 L 299.730469 105.148438 L 167.003906 217.320312 C 168.265625 218.605469 169.332031 220.078125 170.167969 221.707031 L 303.128906 109.339844 L 301.742188 124.996094 C 301.589844 126.496094 302.703125 127.800781 304.175781 127.949219 C 304.261719 127.949219 304.347656 127.949219 304.433594 127.949219 C 305.820312 127.949219 306.996094 126.902344 307.125 125.488281 L 309.089844 103.328125 C 309.261719 101.808594 308.148438 100.460938 306.632812 100.3125 L 284.433594 98.34375 C 282.980469 98.195312 281.632812 99.308594 281.507812 100.804688 C 281.378906 102.28125 282.488281 103.605469 283.964844 103.734375 " fill-opacity="1" fill-rule="nonzero"/></g><path fill="#74b7f4" d="M 160.699219 145.46875 C 160.699219 143.371094 160.039062 141.703125 158.734375 140.484375 C 157.410156 139.265625 154.976562 138.109375 151.386719 137.019531 L 151.386719 153.167969 C 154.25 152.871094 156.511719 152.035156 158.199219 150.667969 C 159.867188 149.296875 160.699219 147.566406 160.699219 145.46875 " fill-opacity="1" fill-rule="nonzero"/><path fill="#74b7f4" d="M 145.636719 108.933594 C 142.945312 109.191406 140.851562 109.980469 139.335938 111.328125 C 137.796875 112.65625 137.027344 114.34375 137.027344 116.355469 C 137.027344 118.34375 137.625 119.929688 138.820312 121.105469 C 140.019531 122.261719 142.304688 123.394531 145.636719 124.464844 L 145.636719 108.933594 " fill-opacity="1" fill-rule="nonzero"/><g clip-path="url(#id3)"><path fill="#74b7f4" d="M 130.808594 129.125 C 127.667969 126.496094 126.109375 122.601562 126.109375 117.425781 C 126.109375 112.25 127.902344 108.015625 131.535156 104.71875 C 135.148438 101.445312 139.847656 99.648438 145.636719 99.351562 L 145.636719 94.859375 L 151.386719 94.859375 L 151.386719 99.4375 C 157.945312 99.90625 164.164062 102.152344 170.015625 106.152344 L 164.203125 114.410156 C 160.253906 111.609375 155.980469 109.875 151.386719 109.210938 L 151.386719 126.089844 L 151.640625 126.089844 C 158.519531 127.691406 163.5625 129.875 166.789062 132.632812 C 170.015625 135.371094 171.640625 139.371094 171.640625 144.613281 C 171.640625 149.832031 169.78125 154.109375 166.085938 157.382812 C 162.367188 160.679688 157.472656 162.476562 151.386719 162.773438 L 151.386719 169.234375 L 145.636719 169.234375 L 145.636719 162.6875 C 137.453125 161.855469 130.105469 158.582031 123.585938 152.914062 L 130.148438 145.105469 C 135.167969 149.46875 140.316406 152.078125 145.636719 152.914062 L 145.636719 135.5 C 138.886719 133.898438 133.949219 131.757812 130.808594 129.125 Z M 147.625 187.460938 C 178.113281 187.460938 202.941406 162.601562 202.941406 132.035156 C 202.941406 101.511719 178.113281 76.675781 147.625 76.675781 C 117.09375 76.675781 92.285156 101.511719 92.285156 132.035156 C 92.285156 162.601562 117.09375 187.460938 147.625 187.460938 " fill-opacity="1" fill-rule="nonzero"/></g></svg>