<svg xmlns="http://www.w3.org/2000/svg" width="112.5" viewBox="0 0 112.5 112.5" height="112.5" version="1.0"><defs><clipPath id="a"><path d="M 0 0 L 112.003906 0 L 112.003906 112.003906 L 0 112.003906 Z M 0 0"/></clipPath><clipPath id="b"><path d="M 11.269531 23.398438 L 101.230469 23.398438 L 101.230469 89.398438 L 11.269531 89.398438 Z M 11.269531 23.398438"/></clipPath></defs><g clip-path="url(#a)"><path fill="#FFF" d="M 0 0 L 112.5 0 L 112.5 112.5 L 0 112.5 Z M 0 0"/><path d="M 0 0 L 112.5 0 L 112.5 112.5 L 0 112.5 Z M 0 0"/></g><g clip-path="url(#b)"><path fill="#FFF" d="M 94.886719 36.152344 L 91.746094 36.152344 C 93.636719 34.910156 94.886719 32.769531 94.886719 30.335938 C 94.886719 26.511719 91.789062 23.398438 87.980469 23.398438 C 85.136719 23.398438 82.691406 25.132812 81.632812 27.601562 C 80.574219 25.132812 78.128906 23.398438 75.289062 23.398438 C 72.445312 23.398438 70 25.132812 68.941406 27.601562 C 67.882812 25.132812 65.4375 23.398438 62.597656 23.398438 C 59.753906 23.398438 57.308594 25.132812 56.25 27.601562 C 55.191406 25.132812 52.746094 23.398438 49.902344 23.398438 C 47.0625 23.398438 44.617188 25.132812 43.558594 27.601562 C 42.5 25.132812 40.054688 23.398438 37.210938 23.398438 C 34.371094 23.398438 31.925781 25.132812 30.867188 27.601562 C 29.808594 25.132812 27.363281 23.398438 24.519531 23.398438 C 20.710938 23.398438 17.613281 26.511719 17.613281 30.335938 C 17.613281 32.769531 18.863281 34.910156 20.753906 36.152344 L 17.613281 36.152344 C 14.113281 36.152344 11.269531 39.011719 11.269531 42.527344 L 11.269531 60.152344 C 11.269531 62.21875 12.941406 63.902344 15 63.902344 C 16.015625 63.902344 16.941406 63.492188 17.613281 62.828125 L 17.613281 85.652344 C 17.613281 87.722656 19.289062 89.402344 21.347656 89.402344 C 22.683594 89.402344 23.859375 88.695312 24.519531 87.628906 C 25.179688 88.695312 26.355469 89.402344 27.691406 89.402344 C 29.03125 89.402344 30.207031 88.6875 30.867188 87.621094 C 31.523438 88.6875 32.699219 89.402344 34.039062 89.402344 C 35.378906 89.402344 36.554688 88.695312 37.210938 87.628906 C 37.871094 88.695312 39.046875 89.402344 40.386719 89.402344 C 41.726562 89.402344 42.898438 88.6875 43.558594 87.621094 C 44.214844 88.6875 45.390625 89.402344 46.730469 89.402344 C 48.070312 89.402344 49.246094 88.695312 49.902344 87.628906 C 50.5625 88.695312 51.738281 89.402344 53.078125 89.402344 C 54.417969 89.402344 55.589844 88.6875 56.25 87.621094 C 56.910156 88.6875 58.082031 89.402344 59.421875 89.402344 C 60.761719 89.402344 61.9375 88.695312 62.597656 87.628906 C 63.253906 88.695312 64.429688 89.402344 65.769531 89.402344 C 67.109375 89.402344 68.285156 88.6875 68.941406 87.621094 C 69.601562 88.6875 70.773438 89.402344 72.113281 89.402344 C 73.453125 89.402344 74.628906 88.695312 75.289062 87.628906 C 75.945312 88.695312 77.121094 89.402344 78.460938 89.402344 C 79.800781 89.402344 80.976562 88.6875 81.632812 87.621094 C 82.292969 88.6875 83.46875 89.402344 84.808594 89.402344 C 86.144531 89.402344 87.320312 88.695312 87.980469 87.628906 C 88.640625 88.695312 89.816406 89.402344 91.152344 89.402344 C 93.210938 89.402344 94.886719 87.722656 94.886719 85.652344 L 94.886719 62.828125 C 95.558594 63.492188 96.484375 63.902344 97.5 63.902344 C 99.558594 63.902344 101.230469 62.21875 101.230469 60.152344 L 101.230469 42.527344 C 101.230469 39.011719 98.386719 36.152344 94.886719 36.152344 Z M 81.632812 33.066406 C 82.175781 34.332031 83.078125 35.40625 84.214844 36.152344 L 79.054688 36.152344 C 80.191406 35.40625 81.09375 34.332031 81.632812 33.066406 Z M 68.941406 33.066406 C 69.484375 34.332031 70.386719 35.40625 71.523438 36.152344 L 66.363281 36.152344 C 67.5 35.40625 68.402344 34.332031 68.941406 33.066406 Z M 56.25 33.066406 C 56.792969 34.332031 57.691406 35.40625 58.828125 36.152344 L 53.671875 36.152344 C 54.808594 35.40625 55.707031 34.332031 56.25 33.066406 Z M 43.558594 33.066406 C 44.097656 34.332031 45 35.40625 46.136719 36.152344 L 40.976562 36.152344 C 42.113281 35.40625 43.015625 34.332031 43.558594 33.066406 Z M 30.867188 33.066406 C 31.40625 34.332031 32.308594 35.40625 33.445312 36.152344 L 28.285156 36.152344 C 29.421875 35.40625 30.324219 34.332031 30.867188 33.066406"/></g><path fill="#52AEE8" d="M 24.519531 36.152344 C 27.714844 36.152344 30.304688 33.546875 30.304688 30.335938 C 30.304688 27.128906 27.714844 24.523438 24.519531 24.523438 C 21.324219 24.523438 18.734375 27.128906 18.734375 30.335938 C 18.734375 33.546875 21.324219 36.152344 24.519531 36.152344 Z M 37.210938 36.152344 C 40.40625 36.152344 42.996094 33.546875 42.996094 30.335938 C 42.996094 27.128906 40.40625 24.523438 37.210938 24.523438 C 34.015625 24.523438 31.425781 27.128906 31.425781 30.335938 C 31.425781 33.546875 34.015625 36.152344 37.210938 36.152344 Z M 49.902344 36.152344 C 53.101562 36.152344 55.691406 33.546875 55.691406 30.335938 C 55.691406 27.128906 53.101562 24.523438 49.902344 24.523438 C 46.707031 24.523438 44.117188 27.128906 44.117188 30.335938 C 44.117188 33.546875 46.707031 36.152344 49.902344 36.152344 Z M 62.597656 36.152344 C 65.792969 36.152344 68.382812 33.546875 68.382812 30.335938 C 68.382812 27.128906 65.792969 24.523438 62.597656 24.523438 C 59.398438 24.523438 56.808594 27.128906 56.808594 30.335938 C 56.808594 33.546875 59.398438 36.152344 62.597656 36.152344 Z M 75.289062 36.152344 C 78.484375 36.152344 81.074219 33.546875 81.074219 30.335938 C 81.074219 27.128906 78.484375 24.523438 75.289062 24.523438 C 72.09375 24.523438 69.503906 27.128906 69.503906 30.335938 C 69.503906 33.546875 72.09375 36.152344 75.289062 36.152344 Z M 87.980469 36.152344 C 91.175781 36.152344 93.765625 33.546875 93.765625 30.335938 C 93.765625 27.128906 91.175781 24.523438 87.980469 24.523438 C 84.785156 24.523438 82.195312 27.128906 82.195312 30.335938 C 82.195312 33.546875 84.785156 36.152344 87.980469 36.152344 Z M 94.886719 37.277344 L 17.613281 37.277344 C 14.726562 37.277344 12.386719 39.625 12.386719 42.527344 L 12.386719 60.152344 C 12.386719 61.601562 13.558594 62.777344 15 62.777344 C 16.445312 62.777344 17.613281 61.601562 17.613281 60.152344 L 17.613281 43.089844 C 17.613281 42.777344 17.863281 42.527344 18.175781 42.527344 C 18.484375 42.527344 18.734375 42.777344 18.734375 43.089844 L 18.734375 85.652344 C 18.734375 87.105469 19.902344 88.28125 21.347656 88.28125 C 22.789062 88.28125 23.960938 87.105469 23.960938 85.652344 L 23.960938 63.339844 C 23.960938 63.03125 24.210938 62.777344 24.519531 62.777344 C 24.828125 62.777344 25.078125 63.03125 25.078125 63.339844 L 25.078125 85.652344 C 25.078125 87.105469 26.25 88.28125 27.691406 88.28125 C 29.136719 88.28125 30.304688 87.105469 30.304688 85.652344 L 30.304688 43.089844 C 30.304688 43.050781 30.308594 43.011719 30.316406 42.976562 C 30.371094 42.71875 30.59375 42.527344 30.867188 42.527344 C 31.136719 42.527344 31.363281 42.71875 31.414062 42.976562 C 31.421875 43.011719 31.425781 43.050781 31.425781 43.089844 L 31.425781 85.652344 C 31.425781 87.105469 32.597656 88.28125 34.039062 88.28125 C 35.484375 88.28125 36.652344 87.105469 36.652344 85.652344 L 36.652344 63.339844 C 36.652344 63.03125 36.902344 62.777344 37.210938 62.777344 C 37.519531 62.777344 37.773438 63.03125 37.773438 63.339844 L 37.773438 85.652344 C 37.773438 87.105469 38.941406 88.28125 40.386719 88.28125 C 41.828125 88.28125 42.996094 87.105469 42.996094 85.652344 L 42.996094 43.089844 C 42.996094 43.050781 43.003906 43.011719 43.007812 42.976562 C 43.0625 42.71875 43.289062 42.527344 43.558594 42.527344 C 43.828125 42.527344 44.054688 42.71875 44.105469 42.976562 C 44.113281 43.011719 44.117188 43.050781 44.117188 43.089844 L 44.117188 85.652344 C 44.117188 87.105469 45.289062 88.28125 46.730469 88.28125 C 48.175781 88.28125 49.34375 87.105469 49.34375 85.652344 L 49.34375 63.339844 C 49.34375 63.03125 49.59375 62.777344 49.902344 62.777344 C 50.214844 62.777344 50.464844 63.03125 50.464844 63.339844 L 50.464844 85.652344 C 50.464844 87.105469 51.632812 88.28125 53.078125 88.28125 C 54.519531 88.28125 55.691406 87.105469 55.691406 85.652344 L 55.691406 43.089844 C 55.691406 43.050781 55.695312 43.011719 55.699219 42.976562 C 55.753906 42.71875 55.980469 42.527344 56.25 42.527344 C 56.519531 42.527344 56.746094 42.71875 56.800781 42.976562 C 56.804688 43.011719 56.808594 43.050781 56.808594 43.089844 L 56.808594 85.652344 C 56.808594 87.105469 57.980469 88.28125 59.421875 88.28125 C 60.867188 88.28125 62.035156 87.105469 62.035156 85.652344 L 62.035156 63.339844 C 62.035156 63.03125 62.285156 62.777344 62.597656 62.777344 C 62.90625 62.777344 63.15625 63.03125 63.15625 63.339844 L 63.15625 85.652344 C 63.15625 87.105469 64.324219 88.28125 65.769531 88.28125 C 67.210938 88.28125 68.382812 87.105469 68.382812 85.652344 L 68.382812 43.089844 C 68.382812 43.050781 68.386719 43.011719 68.394531 42.976562 C 68.445312 42.71875 68.671875 42.527344 68.941406 42.527344 C 69.210938 42.527344 69.4375 42.71875 69.492188 42.976562 C 69.496094 43.011719 69.503906 43.050781 69.503906 43.089844 L 69.503906 85.652344 C 69.503906 87.105469 70.671875 88.28125 72.113281 88.28125 C 73.558594 88.28125 74.726562 87.105469 74.726562 85.652344 L 74.726562 63.339844 C 74.726562 63.03125 74.980469 62.777344 75.289062 62.777344 C 75.597656 62.777344 75.847656 63.03125 75.847656 63.339844 L 75.847656 85.652344 C 75.847656 87.105469 77.019531 88.28125 78.460938 88.28125 C 79.902344 88.28125 81.074219 87.105469 81.074219 85.652344 L 81.074219 43.089844 C 81.074219 43.050781 81.078125 43.011719 81.085938 42.976562 C 81.136719 42.71875 81.363281 42.527344 81.632812 42.527344 C 81.90625 42.527344 82.128906 42.71875 82.183594 42.976562 C 82.191406 43.011719 82.195312 43.050781 82.195312 43.089844 L 82.195312 85.652344 C 82.195312 87.105469 83.363281 88.28125 84.808594 88.28125 C 86.25 88.28125 87.421875 87.105469 87.421875 85.652344 L 87.421875 63.339844 C 87.421875 63.03125 87.671875 62.777344 87.980469 62.777344 C 88.289062 62.777344 88.539062 63.03125 88.539062 63.339844 L 88.539062 85.652344 C 88.539062 87.105469 89.710938 88.28125 91.152344 88.28125 C 92.597656 88.28125 93.765625 87.105469 93.765625 85.652344 L 93.765625 43.089844 C 93.765625 42.777344 94.015625 42.527344 94.324219 42.527344 C 94.636719 42.527344 94.886719 42.777344 94.886719 43.089844 L 94.886719 60.152344 C 94.886719 61.601562 96.054688 62.777344 97.5 62.777344 C 98.941406 62.777344 100.113281 61.601562 100.113281 60.152344 L 100.113281 42.527344 C 100.113281 39.625 97.773438 37.277344 94.886719 37.277344"/></svg>