<svg xmlns="http://www.w3.org/2000/svg" width="112.5" viewBox="0 0 112.5 112.5" height="112.5" version="1.0"><defs><clipPath id="a"><path d="M 0 0 L 112.003906 0 L 112.003906 112.003906 L 0 112.003906 Z M 0 0"/></clipPath><clipPath id="b"><path d="M 25.789062 28.585938 L 86.523438 28.585938 L 86.523438 84.0625 L 25.789062 84.0625 Z M 25.789062 28.585938"/></clipPath></defs><g clip-path="url(#a)"><path fill="#FFF" d="M 0 0 L 112.5 0 L 112.5 352.5 L 0 352.5 Z M 0 0"/><path fill="#FFF" d="M 0 0 L 112.5 0 L 112.5 112.5 L 0 112.5 Z M 0 0"/><path d="M 0 0 L 112.5 0 L 112.5 112.5 L 0 112.5 Z M 0 0"/></g><path fill="#F78F3B" d="M 35.941406 31.9375 C 35.199219 31.464844 34.390625 31.230469 33.59375 31.191406 C 33.457031 31.191406 33.324219 31.191406 33.1875 31.191406 C 33.183594 31.191406 33.179688 31.191406 33.175781 31.191406 C 31.105469 31.273438 29.167969 32.667969 28.566406 34.738281 C 31.691406 34.738281 34.820312 34.738281 37.945312 34.738281 C 37.644531 33.617188 37.035156 32.632812 35.941406 31.9375"/><path fill="#CCD9E8" d="M 47.175781 68.820312 C 45.503906 68.820312 45.507812 66.21875 47.175781 66.21875 C 50.847656 66.21875 54.519531 66.21875 58.191406 66.21875 C 59.855469 66.21875 59.851562 68.820312 58.191406 68.820312 C 54.519531 68.820312 50.847656 68.820312 47.175781 68.820312 Z M 47.175781 55.058594 C 50.847656 55.058594 54.519531 55.058594 58.191406 55.058594 C 59.855469 55.058594 59.851562 57.660156 58.191406 57.660156 C 54.519531 57.660156 50.847656 57.660156 47.175781 57.660156 C 45.503906 57.660156 45.507812 55.058594 47.175781 55.058594 Z M 47.175781 44.636719 C 50.847656 44.636719 54.519531 44.636719 58.191406 44.636719 C 59.855469 44.636719 59.851562 47.242188 58.191406 47.242188 C 54.519531 47.242188 50.847656 47.242188 47.175781 47.242188 C 45.503906 47.242188 45.507812 44.636719 47.175781 44.636719 Z M 62.726562 64.710938 C 63.382812 65.425781 64.042969 66.136719 64.699219 66.851562 C 65.460938 65.5 66.21875 64.148438 66.980469 62.796875 C 67.800781 61.339844 70.035156 62.652344 69.210938 64.109375 C 68.164062 65.976562 67.117188 67.835938 66.070312 69.699219 C 65.671875 70.410156 64.605469 70.574219 64.039062 69.960938 C 62.992188 68.824219 61.945312 67.6875 60.898438 66.550781 C 59.769531 65.320312 61.59375 63.480469 62.726562 64.710938 Z M 62.726562 53.546875 C 63.382812 54.261719 64.042969 54.976562 64.699219 55.691406 C 65.460938 54.335938 66.21875 52.984375 66.980469 51.636719 C 67.800781 50.175781 70.035156 51.492188 69.210938 52.949219 C 68.164062 54.8125 67.117188 56.675781 66.070312 58.535156 C 65.671875 59.246094 64.605469 59.414062 64.039062 58.800781 C 62.992188 57.664062 61.945312 56.527344 60.898438 55.390625 C 59.769531 54.160156 61.59375 52.3125 62.726562 53.546875 Z M 62.726562 42.386719 C 63.382812 43.097656 64.042969 43.816406 64.699219 44.527344 C 65.460938 43.175781 66.21875 41.824219 66.980469 40.476562 C 67.800781 39.011719 70.035156 40.328125 69.210938 41.789062 C 68.164062 43.648438 67.117188 45.515625 66.070312 47.375 C 65.671875 48.085938 64.605469 48.25 64.039062 47.640625 C 62.992188 46.503906 61.945312 45.367188 60.898438 44.230469 C 59.769531 43 61.59375 41.152344 62.726562 42.386719 Z M 71.449219 75.273438 C 71.449219 73.6875 71.449219 72.101562 71.449219 70.515625 C 71.449219 62.457031 71.449219 54.390625 71.449219 46.328125 C 71.449219 43.402344 71.449219 40.476562 71.449219 37.546875 C 71.449219 37.054688 71.472656 36.550781 71.449219 36.058594 C 71.320312 33.269531 69.25 31.191406 66.449219 31.191406 C 65.125 31.191406 63.796875 31.191406 62.472656 31.191406 C 54.632812 31.191406 46.796875 31.191406 38.957031 31.191406 C 39.804688 32.160156 40.40625 33.351562 40.652344 34.695312 C 41.109375 37.242188 40.777344 40.089844 40.777344 42.652344 C 40.777344 47.945312 40.777344 53.234375 40.777344 58.527344 C 40.777344 63.351562 40.777344 68.175781 40.777344 73 C 40.777344 74.117188 40.738281 75.242188 40.777344 76.355469 C 40.875 79.289062 42.875 81.417969 45.863281 81.417969 C 48.574219 81.308594 50.570312 79.300781 50.679688 76.570312 C 50.707031 75.867188 51.25 75.273438 51.972656 75.273438 C 58.464844 75.273438 64.957031 75.273438 71.449219 75.273438"/><path fill="#F78F3B" d="M 53.105469 77.875 C 52.839844 79.238281 52.242188 80.441406 51.398438 81.417969 C 57.929688 81.417969 64.46875 81.417969 71 81.417969 C 73.328125 81.417969 75.65625 81.417969 77.980469 81.417969 C 80.613281 81.417969 83.039062 80.402344 83.734375 77.875 C 80.070312 77.875 76.40625 77.875 72.746094 77.875 C 66.195312 77.875 59.652344 77.875 53.105469 77.875"/><path fill="#342F90" d="M 64.039062 47.640625 C 64.605469 48.25 65.671875 48.085938 66.070312 47.375 C 67.117188 45.515625 68.164062 43.648438 69.210938 41.789062 C 70.035156 40.328125 67.800781 39.011719 66.980469 40.476562 C 66.21875 41.824219 65.460938 43.175781 64.699219 44.527344 C 64.042969 43.816406 63.382812 43.097656 62.726562 42.386719 C 61.59375 41.152344 59.769531 43 60.898438 44.230469 C 61.945312 45.367188 62.992188 46.503906 64.039062 47.640625"/><path fill="#342F90" d="M 64.039062 58.800781 C 64.605469 59.414062 65.671875 59.246094 66.070312 58.535156 C 67.117188 56.675781 68.164062 54.8125 69.210938 52.949219 C 70.035156 51.492188 67.800781 50.175781 66.980469 51.636719 C 66.21875 52.984375 65.460938 54.335938 64.699219 55.691406 C 64.042969 54.976562 63.382812 54.261719 62.726562 53.546875 C 61.59375 52.3125 59.769531 54.160156 60.898438 55.390625 C 61.945312 56.527344 62.992188 57.664062 64.039062 58.800781"/><path fill="#342F90" d="M 64.039062 69.960938 C 64.605469 70.574219 65.671875 70.410156 66.070312 69.699219 C 67.117188 67.835938 68.164062 65.976562 69.210938 64.109375 C 70.035156 62.652344 67.800781 61.339844 66.980469 62.796875 C 66.21875 64.148438 65.460938 65.5 64.699219 66.851562 C 64.042969 66.136719 63.382812 65.425781 62.726562 64.710938 C 61.59375 63.480469 59.769531 65.320312 60.898438 66.550781 C 61.945312 67.6875 62.992188 68.824219 64.039062 69.960938"/><path fill="#342F90" d="M 47.175781 47.242188 C 50.847656 47.242188 54.519531 47.242188 58.191406 47.242188 C 59.851562 47.242188 59.855469 44.636719 58.191406 44.636719 C 54.519531 44.636719 50.847656 44.636719 47.175781 44.636719 C 45.507812 44.636719 45.503906 47.242188 47.175781 47.242188"/><path fill="#342F90" d="M 47.175781 57.660156 C 50.847656 57.660156 54.519531 57.660156 58.191406 57.660156 C 59.851562 57.660156 59.855469 55.058594 58.191406 55.058594 C 54.519531 55.058594 50.847656 55.058594 47.175781 55.058594 C 45.507812 55.058594 45.503906 57.660156 47.175781 57.660156"/><path fill="#342F90" d="M 58.191406 66.21875 C 54.519531 66.21875 50.847656 66.21875 47.175781 66.21875 C 45.507812 66.21875 45.503906 68.820312 47.175781 68.820312 C 50.847656 68.820312 54.519531 68.820312 58.191406 68.820312 C 59.851562 68.820312 59.855469 66.21875 58.191406 66.21875"/><g clip-path="url(#b)"><path fill="#342F90" d="M 77.980469 81.417969 C 75.65625 81.417969 73.328125 81.417969 71 81.417969 C 64.46875 81.417969 57.929688 81.417969 51.398438 81.417969 C 52.242188 80.441406 52.839844 79.238281 53.105469 77.875 C 59.652344 77.875 66.195312 77.875 72.746094 77.875 C 76.40625 77.875 80.070312 77.875 83.734375 77.875 C 83.039062 80.402344 80.613281 81.417969 77.980469 81.417969 Z M 50.679688 76.570312 C 50.570312 79.300781 48.574219 81.308594 45.863281 81.417969 C 42.875 81.417969 40.875 79.289062 40.777344 76.355469 C 40.738281 75.242188 40.777344 74.117188 40.777344 73 C 40.777344 68.175781 40.777344 63.351562 40.777344 58.527344 C 40.777344 53.234375 40.777344 47.945312 40.777344 42.652344 C 40.777344 40.089844 41.109375 37.242188 40.652344 34.695312 C 40.40625 33.351562 39.804688 32.160156 38.957031 31.191406 C 46.796875 31.191406 54.632812 31.191406 62.472656 31.191406 C 63.796875 31.191406 65.125 31.191406 66.449219 31.191406 C 69.25 31.191406 71.320312 33.269531 71.449219 36.058594 C 71.472656 36.550781 71.449219 37.054688 71.449219 37.546875 C 71.449219 40.476562 71.449219 43.402344 71.449219 46.328125 C 71.449219 54.390625 71.449219 62.457031 71.449219 70.515625 C 71.449219 72.101562 71.449219 73.6875 71.449219 75.273438 C 64.957031 75.273438 58.464844 75.273438 51.972656 75.273438 C 51.25 75.273438 50.707031 75.867188 50.679688 76.570312 Z M 28.566406 34.738281 C 29.167969 32.667969 31.105469 31.273438 33.175781 31.191406 C 33.179688 31.191406 33.183594 31.191406 33.1875 31.191406 C 33.324219 31.191406 33.457031 31.191406 33.59375 31.191406 C 34.390625 31.230469 35.199219 31.464844 35.941406 31.9375 C 37.035156 32.632812 37.644531 33.617188 37.945312 34.738281 C 34.820312 34.738281 31.691406 34.738281 28.566406 34.738281 Z M 85.230469 75.273438 C 81.496094 75.273438 77.765625 75.273438 74.035156 75.273438 C 74.035156 62.472656 74.035156 49.671875 74.035156 36.878906 C 74.035156 32.476562 71.28125 28.726562 66.699219 28.59375 C 66.675781 28.59375 66.65625 28.585938 66.636719 28.585938 C 56.875 28.585938 47.113281 28.585938 37.355469 28.585938 C 35.964844 28.585938 34.578125 28.585938 33.1875 28.585938 C 33.15625 28.585938 33.128906 28.597656 33.097656 28.597656 C 32.960938 28.601562 32.828125 28.597656 32.691406 28.609375 C 28.824219 28.894531 25.789062 32.1875 25.789062 36.09375 C 25.789062 36.976562 26.507812 37.390625 27.1875 37.34375 C 30.855469 37.34375 34.523438 37.34375 38.191406 37.34375 C 38.203125 40.558594 38.191406 43.773438 38.191406 46.988281 C 38.191406 56.246094 38.191406 65.496094 38.191406 74.75 C 38.191406 75.796875 38.128906 76.882812 38.316406 77.917969 C 38.980469 81.597656 42.230469 84.023438 45.863281 84.023438 C 56.746094 84.023438 67.632812 84.101562 78.511719 84.023438 C 82.886719 83.992188 86.339844 81.117188 86.523438 76.570312 C 86.550781 75.867188 85.910156 75.273438 85.230469 75.273438"/></g></svg>