<svg xmlns="http://www.w3.org/2000/svg" xmlns:xlink="http://www.w3.org/1999/xlink" width="112.5" viewBox="0 0 112.5 112.5" height="112.5" version="1.0"><defs><clipPath id="a"><path d="M 0 0 L 112.003906 0 L 112.003906 112.003906 L 0 112.003906 Z M 0 0"/></clipPath><clipPath id="b"><path d="M 36.230469 39 L 64 39 L 64 76 L 36.230469 76 Z M 36.230469 39"/></clipPath><clipPath id="c"><path d="M 63.59375 74.320312 C 63.59375 74.933594 63.101562 75.429688 62.496094 75.429688 L 37.410156 75.429688 C 36.804688 75.429688 36.316406 74.933594 36.316406 74.320312 L 36.316406 40.632812 C 36.316406 40.019531 36.804688 39.523438 37.410156 39.523438 L 62.496094 39.523438 C 63.101562 39.523438 63.59375 40.019531 63.59375 40.632812 Z M 63.59375 74.320312"/></clipPath><clipPath id="e"><path d="M 41 35.710938 L 59 35.710938 L 59 42 L 41 42 Z M 41 35.710938"/></clipPath><clipPath id="f"><path d="M 54.613281 38.691406 L 54.613281 35.710938 L 45.292969 35.710938 L 45.292969 38.691406 C 45.292969 38.691406 41.617188 38.507812 41.59375 41.671875 L 58.316406 41.671875 C 58.292969 38.507812 54.613281 38.691406 54.613281 38.691406 Z M 54.613281 38.691406"/></clipPath><clipPath id="h"><path d="M 58 55 L 75.980469 55 L 75.980469 76.960938 L 58 76.960938 Z M 58 55"/></clipPath><clipPath id="i"><path d="M 57 55 L 75.980469 55 L 75.980469 76.960938 L 57 76.960938 Z M 57 55"/></clipPath><clipPath id="j"><path d="M 65.199219 60.640625 L 68.3125 60.640625 L 68.3125 64.464844 L 65.199219 64.464844 Z M 61.417969 64.464844 L 72.09375 64.464844 L 72.09375 67.613281 L 61.417969 67.613281 Z M 65.199219 67.613281 L 68.3125 67.613281 L 68.3125 71.4375 L 65.199219 71.4375 Z M 65.199219 67.613281"/></clipPath><linearGradient x1="179.709" gradientTransform="matrix(.17787 0 0 .1799 17.99 17.864)" xmlns:xlink="http://www.w3.org/1999/xlink" y1="120.406" x2="179.709" gradientUnits="userSpaceOnUse" y2="319.999" xlink:type="simple" xlink:actuate="onLoad" id="d" xlink:show="other"><stop stop-color="#66C6E4" offset="0"/><stop stop-color="#66C6E4" offset=".25"/><stop stop-color="#66C6E4" offset=".313"/><stop stop-color="#66C6E4" offset=".32"/><stop stop-color="#65C6E4" offset=".324"/><stop stop-color="#64C5E3" offset=".328"/><stop stop-color="#64C5E3" offset=".332"/><stop stop-color="#63C5E3" offset=".336"/><stop stop-color="#62C5E3" offset=".34"/><stop stop-color="#62C5E2" offset=".344"/><stop stop-color="#61C5E2" offset=".348"/><stop stop-color="#60C4E2" offset=".352"/><stop stop-color="#60C4E2" offset=".355"/><stop stop-color="#5FC4E1" offset=".359"/><stop stop-color="#5EC4E1" offset=".363"/><stop stop-color="#5EC4E1" offset=".367"/><stop stop-color="#5DC4E1" offset=".371"/><stop stop-color="#5CC3E0" offset=".375"/><stop stop-color="#5CC3E0" offset=".379"/><stop stop-color="#5BC3E0" offset=".383"/><stop stop-color="#5AC3DF" offset=".387"/><stop stop-color="#5AC3DF" offset=".391"/><stop stop-color="#59C3DF" offset=".395"/><stop stop-color="#58C2DF" offset=".398"/><stop stop-color="#58C2DE" offset=".402"/><stop stop-color="#57C2DE" offset=".406"/><stop stop-color="#56C2DE" offset=".41"/><stop stop-color="#56C2DE" offset=".414"/><stop stop-color="#55C2DD" offset=".418"/><stop stop-color="#54C1DD" offset=".422"/><stop stop-color="#53C1DD" offset=".426"/><stop stop-color="#53C1DD" offset=".43"/><stop stop-color="#52C1DC" offset=".434"/><stop stop-color="#51C1DC" offset=".438"/><stop stop-color="#51C1DC" offset=".441"/><stop stop-color="#50C0DC" offset=".445"/><stop stop-color="#4FC0DB" offset=".449"/><stop stop-color="#4FC0DB" offset=".453"/><stop stop-color="#4EC0DB" offset=".457"/><stop stop-color="#4DC0DB" offset=".461"/><stop stop-color="#4DBFDA" offset=".465"/><stop stop-color="#4CBFDA" offset=".469"/><stop stop-color="#4BBFDA" offset=".473"/><stop stop-color="#4BBFD9" offset=".477"/><stop stop-color="#4ABFD9" offset=".48"/><stop stop-color="#49BFD9" offset=".484"/><stop stop-color="#49BED9" offset=".488"/><stop stop-color="#48BED8" offset=".492"/><stop stop-color="#47BED8" offset=".496"/><stop stop-color="#47BED8" offset=".5"/><stop stop-color="#46BED8" offset=".504"/><stop stop-color="#45BED7" offset=".508"/><stop stop-color="#45BDD7" offset=".512"/><stop stop-color="#44BDD7" offset=".516"/><stop stop-color="#43BDD7" offset=".52"/><stop stop-color="#42BDD6" offset=".523"/><stop stop-color="#42BDD6" offset=".527"/><stop stop-color="#41BDD6" offset=".531"/><stop stop-color="#40BCD6" offset=".535"/><stop stop-color="#40BCD5" offset=".539"/><stop stop-color="#3FBCD5" offset=".543"/><stop stop-color="#3EBCD5" offset=".547"/><stop stop-color="#3EBCD5" offset=".551"/><stop stop-color="#3DBCD4" offset=".555"/><stop stop-color="#3CBBD4" offset=".559"/><stop stop-color="#3CBBD4" offset=".563"/><stop stop-color="#3BBBD4" offset=".566"/><stop stop-color="#3ABBD3" offset=".57"/><stop stop-color="#3ABBD3" offset=".574"/><stop stop-color="#39BBD3" offset=".578"/><stop stop-color="#38BAD2" offset=".582"/><stop stop-color="#38BAD2" offset=".586"/><stop stop-color="#37BAD2" offset=".59"/><stop stop-color="#36BAD2" offset=".594"/><stop stop-color="#36BAD1" offset=".598"/><stop stop-color="#35B9D1" offset=".602"/><stop stop-color="#34B9D1" offset=".605"/><stop stop-color="#34B9D1" offset=".609"/><stop stop-color="#33B9D0" offset=".613"/><stop stop-color="#32B9D0" offset=".617"/><stop stop-color="#31B9D0" offset=".621"/><stop stop-color="#31B8D0" offset=".625"/><stop stop-color="#30B8CF" offset=".629"/><stop stop-color="#2FB8CF" offset=".633"/><stop stop-color="#2FB8CF" offset=".637"/><stop stop-color="#2EB8CF" offset=".641"/><stop stop-color="#2DB8CE" offset=".645"/><stop stop-color="#2DB7CE" offset=".648"/><stop stop-color="#2CB7CE" offset=".652"/><stop stop-color="#2BB7CE" offset=".656"/><stop stop-color="#2BB7CD" offset=".66"/><stop stop-color="#2AB7CD" offset=".664"/><stop stop-color="#29B7CD" offset=".668"/><stop stop-color="#29B6CD" offset=".672"/><stop stop-color="#28B6CC" offset=".676"/><stop stop-color="#27B6CC" offset=".68"/><stop stop-color="#27B6CC" offset=".684"/><stop stop-color="#26B6CB" offset=".688"/><stop stop-color="#25B6CB" offset=".691"/><stop stop-color="#25B5CB" offset=".695"/><stop stop-color="#24B5CB" offset=".699"/><stop stop-color="#23B5CA" offset=".703"/><stop stop-color="#23B5CA" offset=".707"/><stop stop-color="#22B5CA" offset=".711"/><stop stop-color="#21B5CA" offset=".715"/><stop stop-color="#21B4C9" offset=".719"/><stop stop-color="#20B4C9" offset=".723"/><stop stop-color="#1FB4C9" offset=".727"/><stop stop-color="#1EB4C9" offset=".73"/><stop stop-color="#1EB4C8" offset=".734"/><stop stop-color="#1DB3C8" offset=".738"/><stop stop-color="#1CB3C8" offset=".742"/><stop stop-color="#1CB3C8" offset=".746"/><stop stop-color="#1BB3C7" offset=".75"/><stop stop-color="#1AB3C7" offset=".754"/><stop stop-color="#1AB3C7" offset=".758"/><stop stop-color="#19B2C7" offset=".762"/><stop stop-color="#18B2C6" offset=".766"/><stop stop-color="#18B2C6" offset=".77"/><stop stop-color="#17B2C6" offset=".773"/><stop stop-color="#16B2C5" offset=".777"/><stop stop-color="#16B2C5" offset=".781"/><stop stop-color="#15B1C5" offset=".785"/><stop stop-color="#14B1C5" offset=".789"/><stop stop-color="#14B1C4" offset=".793"/><stop stop-color="#13B1C4" offset=".797"/><stop stop-color="#12B1C4" offset=".801"/><stop stop-color="#12B1C4" offset=".805"/><stop stop-color="#11B0C3" offset=".809"/><stop stop-color="#10B0C3" offset=".813"/><stop stop-color="#10B0C3" offset=".816"/><stop stop-color="#0FB0C3" offset=".82"/><stop stop-color="#0EB0C2" offset=".824"/><stop stop-color="#0DB0C2" offset=".828"/><stop stop-color="#0DAFC2" offset=".832"/><stop stop-color="#0CAFC2" offset=".836"/><stop stop-color="#0BAFC1" offset=".84"/><stop stop-color="#0BAFC1" offset=".844"/><stop stop-color="#0AAFC1" offset=".848"/><stop stop-color="#09AEC1" offset=".852"/><stop stop-color="#09AEC0" offset=".855"/><stop stop-color="#08AEC0" offset=".859"/><stop stop-color="#07AEC0" offset=".863"/><stop stop-color="#07AEC0" offset=".867"/><stop stop-color="#06AEBF" offset=".871"/><stop stop-color="#05ADBF" offset=".875"/><stop stop-color="#05ADBF" offset=".879"/><stop stop-color="#04ADBE" offset=".883"/><stop stop-color="#03ADBE" offset=".887"/><stop stop-color="#03ADBE" offset=".891"/><stop stop-color="#02ADBE" offset=".895"/><stop stop-color="#01ACBD" offset=".898"/><stop stop-color="#01ACBD" offset=".902"/><stop stop-color="#00ACBD" offset=".906"/><stop stop-color="#00ACBD" offset=".938"/><stop stop-color="#00ACBD" offset="1"/></linearGradient><linearGradient x1="179.708" gradientTransform="matrix(.17787 0 0 .1799 17.99 17.864)" xmlns:xlink="http://www.w3.org/1999/xlink" y1="99.214" x2="179.708" gradientUnits="userSpaceOnUse" y2="132.35" xlink:type="simple" xlink:actuate="onLoad" id="g" xlink:show="other"><stop stop-color="#66C6E4" offset="0"/><stop stop-color="#66C6E4" offset=".008"/><stop stop-color="#65C6E4" offset=".016"/><stop stop-color="#64C5E3" offset=".023"/><stop stop-color="#63C5E3" offset=".031"/><stop stop-color="#62C5E3" offset=".039"/><stop stop-color="#62C5E2" offset=".047"/><stop stop-color="#61C5E2" offset=".055"/><stop stop-color="#60C4E2" offset=".063"/><stop stop-color="#5FC4E1" offset=".07"/><stop stop-color="#5EC4E1" offset=".078"/><stop stop-color="#5EC4E1" offset=".086"/><stop stop-color="#5DC4E0" offset=".094"/><stop stop-color="#5CC3E0" offset=".102"/><stop stop-color="#5BC3E0" offset=".109"/><stop stop-color="#5AC3E0" offset=".117"/><stop stop-color="#5AC3DF" offset=".125"/><stop stop-color="#59C3DF" offset=".133"/><stop stop-color="#58C2DF" offset=".141"/><stop stop-color="#57C2DE" offset=".148"/><stop stop-color="#56C2DE" offset=".156"/><stop stop-color="#56C2DE" offset=".164"/><stop stop-color="#55C2DD" offset=".172"/><stop stop-color="#54C1DD" offset=".18"/><stop stop-color="#53C1DD" offset=".188"/><stop stop-color="#52C1DC" offset=".195"/><stop stop-color="#52C1DC" offset=".203"/><stop stop-color="#51C1DC" offset=".211"/><stop stop-color="#50C0DC" offset=".219"/><stop stop-color="#4FC0DB" offset=".227"/><stop stop-color="#4EC0DB" offset=".234"/><stop stop-color="#4EC0DB" offset=".242"/><stop stop-color="#4DC0DA" offset=".25"/><stop stop-color="#4CBFDA" offset=".258"/><stop stop-color="#4BBFDA" offset=".266"/><stop stop-color="#4BBFD9" offset=".273"/><stop stop-color="#4ABFD9" offset=".281"/><stop stop-color="#49BFD9" offset=".289"/><stop stop-color="#48BED9" offset=".297"/><stop stop-color="#47BED8" offset=".305"/><stop stop-color="#47BED8" offset=".313"/><stop stop-color="#46BED8" offset=".32"/><stop stop-color="#45BED7" offset=".328"/><stop stop-color="#44BDD7" offset=".336"/><stop stop-color="#43BDD7" offset=".344"/><stop stop-color="#43BDD6" offset=".352"/><stop stop-color="#42BDD6" offset=".359"/><stop stop-color="#41BDD6" offset=".367"/><stop stop-color="#40BCD5" offset=".375"/><stop stop-color="#3FBCD5" offset=".383"/><stop stop-color="#3FBCD5" offset=".391"/><stop stop-color="#3EBCD5" offset=".398"/><stop stop-color="#3DBCD4" offset=".406"/><stop stop-color="#3CBBD4" offset=".414"/><stop stop-color="#3BBBD4" offset=".422"/><stop stop-color="#3BBBD3" offset=".43"/><stop stop-color="#3ABBD3" offset=".438"/><stop stop-color="#39BBD3" offset=".445"/><stop stop-color="#38BAD2" offset=".453"/><stop stop-color="#37BAD2" offset=".461"/><stop stop-color="#37BAD2" offset=".469"/><stop stop-color="#36BAD2" offset=".477"/><stop stop-color="#35BAD1" offset=".484"/><stop stop-color="#34B9D1" offset=".492"/><stop stop-color="#33B9D1" offset=".5"/><stop stop-color="#33B9D0" offset=".508"/><stop stop-color="#32B9D0" offset=".516"/><stop stop-color="#31B8D0" offset=".523"/><stop stop-color="#30B8CF" offset=".531"/><stop stop-color="#2FB8CF" offset=".539"/><stop stop-color="#2FB8CF" offset=".547"/><stop stop-color="#2EB8CE" offset=".555"/><stop stop-color="#2DB7CE" offset=".563"/><stop stop-color="#2CB7CE" offset=".57"/><stop stop-color="#2BB7CE" offset=".578"/><stop stop-color="#2BB7CD" offset=".586"/><stop stop-color="#2AB7CD" offset=".594"/><stop stop-color="#29B6CD" offset=".602"/><stop stop-color="#28B6CC" offset=".609"/><stop stop-color="#27B6CC" offset=".617"/><stop stop-color="#27B6CC" offset=".625"/><stop stop-color="#26B6CB" offset=".633"/><stop stop-color="#25B5CB" offset=".641"/><stop stop-color="#24B5CB" offset=".648"/><stop stop-color="#23B5CB" offset=".656"/><stop stop-color="#23B5CA" offset=".664"/><stop stop-color="#22B5CA" offset=".672"/><stop stop-color="#21B4CA" offset=".68"/><stop stop-color="#20B4C9" offset=".688"/><stop stop-color="#1FB4C9" offset=".695"/><stop stop-color="#1FB4C9" offset=".703"/><stop stop-color="#1EB4C8" offset=".711"/><stop stop-color="#1DB3C8" offset=".719"/><stop stop-color="#1CB3C8" offset=".727"/><stop stop-color="#1BB3C7" offset=".734"/><stop stop-color="#1BB3C7" offset=".742"/><stop stop-color="#1AB3C7" offset=".75"/><stop stop-color="#19B2C7" offset=".758"/><stop stop-color="#18B2C6" offset=".766"/><stop stop-color="#18B2C6" offset=".773"/><stop stop-color="#17B2C6" offset=".781"/><stop stop-color="#16B2C5" offset=".789"/><stop stop-color="#15B1C5" offset=".797"/><stop stop-color="#14B1C5" offset=".805"/><stop stop-color="#14B1C4" offset=".813"/><stop stop-color="#13B1C4" offset=".82"/><stop stop-color="#12B1C4" offset=".828"/><stop stop-color="#11B0C4" offset=".836"/><stop stop-color="#10B0C3" offset=".844"/><stop stop-color="#10B0C3" offset=".852"/><stop stop-color="#0FB0C3" offset=".859"/><stop stop-color="#0EB0C2" offset=".867"/><stop stop-color="#0DAFC2" offset=".875"/><stop stop-color="#0CAFC2" offset=".883"/><stop stop-color="#0CAFC1" offset=".891"/><stop stop-color="#0BAFC1" offset=".898"/><stop stop-color="#0AAFC1" offset=".906"/><stop stop-color="#09AEC0" offset=".914"/><stop stop-color="#08AEC0" offset=".922"/><stop stop-color="#08AEC0" offset=".93"/><stop stop-color="#07AEC0" offset=".938"/><stop stop-color="#06AEBF" offset=".945"/><stop stop-color="#05ADBF" offset=".953"/><stop stop-color="#04ADBF" offset=".961"/><stop stop-color="#04ADBE" offset=".969"/><stop stop-color="#03ADBE" offset=".977"/><stop stop-color="#02ADBE" offset=".984"/><stop stop-color="#01ACBD" offset=".992"/><stop stop-color="#00ACBD" offset="1"/></linearGradient><linearGradient x1="274.169" gradientTransform="matrix(.17787 0 0 .1799 17.99 17.864)" xmlns:xlink="http://www.w3.org/1999/xlink" y1="237.792" x2="274.169" gradientUnits="userSpaceOnUse" y2="297.798" xlink:type="simple" xlink:actuate="onLoad" id="k" xlink:show="other"><stop stop-color="#37BAD2" offset="0"/><stop stop-color="#37BAD2" offset=".016"/><stop stop-color="#36BAD2" offset=".031"/><stop stop-color="#35BAD1" offset=".047"/><stop stop-color="#34B9D1" offset=".063"/><stop stop-color="#34B9D1" offset=".078"/><stop stop-color="#33B9D0" offset=".094"/><stop stop-color="#32B9D0" offset=".109"/><stop stop-color="#31B9D0" offset=".125"/><stop stop-color="#30B8CF" offset=".141"/><stop stop-color="#2FB8CF" offset=".156"/><stop stop-color="#2FB8CF" offset=".172"/><stop stop-color="#2EB8CE" offset=".188"/><stop stop-color="#2DB7CE" offset=".203"/><stop stop-color="#2CB7CE" offset=".219"/><stop stop-color="#2BB7CE" offset=".234"/><stop stop-color="#2BB7CD" offset=".25"/><stop stop-color="#2AB7CD" offset=".266"/><stop stop-color="#29B6CD" offset=".281"/><stop stop-color="#28B6CC" offset=".297"/><stop stop-color="#27B6CC" offset=".313"/><stop stop-color="#26B6CC" offset=".328"/><stop stop-color="#26B6CB" offset=".344"/><stop stop-color="#25B5CB" offset=".359"/><stop stop-color="#24B5CB" offset=".375"/><stop stop-color="#23B5CA" offset=".391"/><stop stop-color="#22B5CA" offset=".406"/><stop stop-color="#22B5CA" offset=".422"/><stop stop-color="#21B4C9" offset=".438"/><stop stop-color="#20B4C9" offset=".453"/><stop stop-color="#1FB4C9" offset=".469"/><stop stop-color="#1EB4C9" offset=".484"/><stop stop-color="#1DB4C8" offset=".5"/><stop stop-color="#1DB3C8" offset=".516"/><stop stop-color="#1CB3C8" offset=".531"/><stop stop-color="#1BB3C7" offset=".547"/><stop stop-color="#1AB3C7" offset=".563"/><stop stop-color="#19B3C7" offset=".578"/><stop stop-color="#19B2C6" offset=".594"/><stop stop-color="#18B2C6" offset=".609"/><stop stop-color="#17B2C6" offset=".625"/><stop stop-color="#16B2C5" offset=".641"/><stop stop-color="#15B2C5" offset=".656"/><stop stop-color="#14B1C5" offset=".672"/><stop stop-color="#14B1C4" offset=".688"/><stop stop-color="#13B1C4" offset=".703"/><stop stop-color="#12B1C4" offset=".719"/><stop stop-color="#11B0C4" offset=".734"/><stop stop-color="#10B0C3" offset=".75"/><stop stop-color="#10B0C3" offset=".766"/><stop stop-color="#0FB0C3" offset=".781"/><stop stop-color="#0EB0C2" offset=".797"/><stop stop-color="#0DAFC2" offset=".813"/><stop stop-color="#0CAFC2" offset=".828"/><stop stop-color="#0CAFC1" offset=".844"/><stop stop-color="#0BAFC1" offset=".859"/><stop stop-color="#0AAFC1" offset=".875"/><stop stop-color="#09AEC0" offset=".891"/><stop stop-color="#08AEC0" offset=".906"/><stop stop-color="#07AEC0" offset=".922"/><stop stop-color="#07AEBF" offset=".938"/><stop stop-color="#06AEBF" offset=".953"/><stop stop-color="#05ADBF" offset=".969"/><stop stop-color="#04ADBF" offset=".984"/><stop stop-color="#03ADBE" offset="1"/></linearGradient></defs><g clip-path="url(#a)" fill="#FFF"><path d="M 0 0 L 112.5 0 L 112.5 952.5 L 0 952.5 Z M 0 0"/><path d="M 0 0 L 112.5 0 L 112.5 112.5 L 0 112.5 Z M 0 0"/><path d="M 0 0 L 112.5 0 L 112.5 112.5 L 0 112.5 Z M 0 0"/></g><path fill="#51ADE5" d="M 56.210938 103.722656 C 43.527344 103.722656 31.582031 98.785156 22.621094 89.804688 C 13.636719 80.839844 8.703125 68.898438 8.703125 56.210938 C 8.703125 43.527344 13.636719 31.582031 22.621094 22.621094 C 31.582031 13.636719 43.527344 8.699219 56.210938 8.699219 C 68.898438 8.699219 80.839844 13.636719 89.804688 22.621094 C 98.785156 31.601562 103.722656 43.527344 103.722656 56.210938 C 103.722656 68.898438 98.785156 80.839844 89.804688 89.804688 C 80.839844 98.785156 68.898438 103.722656 56.210938 103.722656 Z M 56.210938 11.550781 C 44.285156 11.550781 33.0625 16.203125 24.632812 24.632812 C 16.203125 33.0625 11.550781 44.285156 11.550781 56.210938 C 11.550781 68.136719 16.203125 79.359375 24.632812 87.789062 C 33.0625 96.222656 44.285156 100.875 56.210938 100.875 C 68.136719 100.875 79.359375 96.222656 87.789062 87.789062 C 96.222656 79.359375 100.875 68.136719 100.875 56.210938 C 100.875 44.285156 96.222656 33.0625 87.789062 24.632812 C 79.359375 16.203125 68.136719 11.550781 56.210938 11.550781 Z M 56.210938 11.550781"/><g clip-path="url(#b)"><g clip-path="url(#c)"><path fill="url(#d)" d="M 36.316406 39.523438 L 36.316406 75.429688 L 63.59375 75.429688 L 63.59375 39.523438 Z M 36.316406 39.523438"/></g></g><g clip-path="url(#e)"><g clip-path="url(#f)"><path fill="url(#g)" d="M 41.59375 35.710938 L 41.59375 41.671875 L 58.316406 41.671875 L 58.316406 35.710938 Z M 41.59375 35.710938"/></g></g><path fill="#050607" d="M 59.6875 47.296875 L 41.183594 47.296875 C 40.9375 47.296875 40.738281 47.097656 40.738281 46.847656 C 40.738281 46.601562 40.9375 46.398438 41.183594 46.398438 L 59.6875 46.398438 C 59.933594 46.398438 60.132812 46.601562 60.132812 46.847656 C 60.132812 47.097656 59.933594 47.296875 59.6875 47.296875 Z M 59.6875 47.296875"/><path fill="#050607" d="M 59.6875 53.722656 L 41.183594 53.722656 C 40.9375 53.722656 40.738281 53.519531 40.738281 53.273438 C 40.738281 53.023438 40.9375 52.824219 41.183594 52.824219 L 59.6875 52.824219 C 59.933594 52.824219 60.132812 53.023438 60.132812 53.273438 C 60.132812 53.519531 59.933594 53.722656 59.6875 53.722656 Z M 59.6875 53.722656"/><path fill="#050607" d="M 59.6875 60.144531 L 41.183594 60.144531 C 40.9375 60.144531 40.738281 59.945312 40.738281 59.695312 C 40.738281 59.445312 40.9375 59.246094 41.183594 59.246094 L 59.6875 59.246094 C 59.933594 59.246094 60.132812 59.445312 60.132812 59.695312 C 60.132812 59.945312 59.933594 60.144531 59.6875 60.144531 Z M 59.6875 60.144531"/><path fill="#050607" d="M 59.6875 66.570312 L 41.183594 66.570312 C 40.9375 66.570312 40.738281 66.367188 40.738281 66.117188 C 40.738281 65.871094 40.9375 65.667969 41.183594 65.667969 L 59.6875 65.667969 C 59.933594 65.667969 60.132812 65.871094 60.132812 66.117188 C 60.132812 66.367188 59.933594 66.570312 59.6875 66.570312 Z M 59.6875 66.570312"/><path fill="#050607" d="M 52.96875 40.113281 L 46.734375 40.113281 L 46.734375 37.375 C 46.734375 37.125 46.933594 36.925781 47.179688 36.925781 C 47.425781 36.925781 47.625 37.125 47.625 37.375 L 47.625 39.214844 L 52.078125 39.214844 L 52.078125 37.375 C 52.078125 37.125 52.277344 36.925781 52.523438 36.925781 C 52.769531 36.925781 52.96875 37.125 52.96875 37.375 Z M 52.96875 40.113281"/><g clip-path="url(#h)"><path fill="#FFF" d="M 75.238281 57.285156 C 75.238281 57.285156 70.828125 58.203125 66.753906 55.570312 C 62.683594 58.203125 58.273438 57.285156 58.273438 57.285156 C 58.273438 57.285156 58.050781 66.261719 58.503906 69.351562 C 58.957031 72.441406 66.753906 76.507812 66.753906 76.507812 C 66.753906 76.507812 74.554688 72.441406 75.007812 69.351562 C 75.460938 66.261719 75.238281 57.285156 75.238281 57.285156 Z M 75.238281 57.285156"/></g><g clip-path="url(#i)"><path fill="#050607" d="M 66.753906 76.957031 C 66.6875 76.957031 66.617188 76.941406 66.550781 76.90625 C 65.734375 76.480469 58.535156 72.640625 58.0625 69.417969 C 57.609375 66.324219 57.820312 57.644531 57.828125 57.277344 C 57.832031 57.140625 57.890625 57.015625 57.996094 56.933594 C 58.097656 56.851562 58.234375 56.820312 58.363281 56.847656 C 58.367188 56.847656 59.082031 56.992188 60.171875 56.992188 C 61.796875 56.992188 64.214844 56.679688 66.515625 55.191406 C 66.660156 55.097656 66.847656 55.097656 66.996094 55.191406 C 69.296875 56.679688 71.714844 56.992188 73.339844 56.992188 C 74.429688 56.992188 75.144531 56.847656 75.152344 56.847656 C 75.277344 56.820312 75.414062 56.851562 75.515625 56.933594 C 75.617188 57.019531 75.679688 57.140625 75.683594 57.277344 C 75.691406 57.644531 75.902344 66.324219 75.449219 69.417969 C 74.976562 72.640625 67.777344 76.480469 66.960938 76.90625 C 66.894531 76.941406 66.824219 76.957031 66.753906 76.957031 Z M 58.707031 57.808594 C 58.667969 59.746094 58.5625 66.691406 58.941406 69.285156 C 59.277344 71.558594 64.511719 74.800781 66.753906 76 C 69 74.800781 74.234375 71.558594 74.570312 69.285156 C 74.949219 66.6875 74.84375 59.746094 74.804688 57.808594 C 74.460938 57.847656 73.957031 57.890625 73.339844 57.890625 C 71.652344 57.890625 69.164062 57.574219 66.753906 56.101562 C 64.347656 57.574219 61.859375 57.890625 60.171875 57.890625 C 59.554688 57.890625 59.050781 57.847656 58.707031 57.808594 Z M 58.707031 57.808594"/></g><g clip-path="url(#j)"><path fill="url(#k)" d="M 61.417969 60.640625 L 61.417969 71.4375 L 72.09375 71.4375 L 72.09375 60.640625 Z M 61.417969 60.640625"/></g></svg>