<svg xmlns="http://www.w3.org/2000/svg" width="112.5" viewBox="0 0 112.5 112.5" height="112.5" version="1.0"><defs><clipPath id="a"><path d="M 0 0 L 112.003906 0 L 112.003906 112.003906 L 0 112.003906 Z M 0 0"/></clipPath><clipPath id="b"><path d="M 39.285156 32.144531 L 73.035156 32.144531 L 73.035156 80.144531 L 39.285156 80.144531 Z M 39.285156 32.144531"/></clipPath></defs><g clip-path="url(#a)" fill="#FFF"><path d="M 0 0 L 112.5 0 L 112.5 112.5 L 0 112.5 Z M 0 0"/><path d="M 0 0 L 112.5 0 L 112.5 112.5 L 0 112.5 Z M 0 0"/></g><path fill="#51ADE5" d="M 56.210938 103.722656 C 43.527344 103.722656 31.582031 98.785156 22.621094 89.804688 C 13.636719 80.839844 8.703125 68.898438 8.703125 56.210938 C 8.703125 43.527344 13.636719 31.582031 22.621094 22.621094 C 31.582031 13.636719 43.527344 8.703125 56.210938 8.703125 C 68.898438 8.703125 80.839844 13.636719 89.804688 22.621094 C 98.785156 31.601562 103.722656 43.527344 103.722656 56.210938 C 103.722656 68.898438 98.785156 80.839844 89.804688 89.804688 C 80.839844 98.785156 68.898438 103.722656 56.210938 103.722656 Z M 56.210938 11.550781 C 44.285156 11.550781 33.0625 16.203125 24.632812 24.632812 C 16.203125 33.0625 11.550781 44.285156 11.550781 56.210938 C 11.550781 68.136719 16.203125 79.359375 24.632812 87.789062 C 33.0625 96.222656 44.285156 100.875 56.210938 100.875 C 68.136719 100.875 79.359375 96.222656 87.789062 87.789062 C 96.222656 79.359375 100.875 68.136719 100.875 56.210938 C 100.875 44.285156 96.222656 33.0625 87.789062 24.632812 C 79.359375 16.203125 68.136719 11.550781 56.210938 11.550781 Z M 56.210938 11.550781"/><path fill="#469DDC" d="M 63.925781 66.835938 C 63.839844 66.820312 63.746094 66.808594 63.652344 66.800781 L 63.652344 66.269531 C 63.652344 66.0625 63.488281 65.894531 63.28125 65.894531 C 63.074219 65.894531 62.90625 66.0625 62.90625 66.269531 L 62.90625 66.804688 C 62.257812 66.875 61.605469 67.132812 61.210938 67.710938 C 60.8125 68.296875 60.8125 69.085938 61.210938 69.714844 C 61.597656 70.328125 62.257812 70.589844 62.90625 70.777344 L 62.90625 73.203125 C 62.746094 73.167969 62.589844 73.117188 62.441406 73.050781 C 61.929688 72.824219 61.546875 72.4375 61.382812 71.988281 C 61.3125 71.792969 61.097656 71.691406 60.90625 71.761719 C 60.710938 71.832031 60.609375 72.046875 60.679688 72.242188 C 60.914062 72.890625 61.429688 73.421875 62.136719 73.734375 C 62.386719 73.847656 62.644531 73.921875 62.90625 73.964844 L 62.90625 74.519531 C 62.90625 74.726562 63.074219 74.894531 63.28125 74.894531 C 63.488281 74.894531 63.652344 74.726562 63.652344 74.519531 L 63.652344 74 C 63.9375 73.976562 64.214844 73.914062 64.476562 73.804688 C 65.292969 73.472656 65.945312 72.632812 65.625 71.664062 C 65.316406 70.730469 64.460938 70.433594 63.652344 70.210938 L 63.652344 67.554688 C 63.699219 67.5625 63.746094 67.566406 63.792969 67.574219 C 64.414062 67.6875 65.007812 68.1875 65.167969 68.734375 C 65.226562 68.933594 65.433594 69.050781 65.632812 68.988281 C 65.832031 68.929688 65.945312 68.722656 65.886719 68.523438 C 65.648438 67.710938 64.820312 67 63.925781 66.835938 Z M 62.90625 69.992188 C 62.453125 69.847656 62.0625 69.660156 61.84375 69.3125 C 61.605469 68.9375 61.601562 68.472656 61.832031 68.132812 C 62.058594 67.796875 62.464844 67.621094 62.90625 67.558594 Z M 64.914062 71.898438 C 65.097656 72.453125 64.671875 72.917969 64.195312 73.113281 C 64.023438 73.179688 63.84375 73.222656 63.652344 73.242188 L 63.652344 70.992188 C 64.253906 71.167969 64.742188 71.382812 64.914062 71.898438 Z M 64.914062 71.898438"/><g clip-path="url(#b)"><path fill="#469DDC" d="M 70.023438 32.144531 L 42.296875 32.144531 C 40.648438 32.144531 39.300781 33.492188 39.300781 35.144531 L 39.300781 77.144531 C 39.300781 78.792969 40.648438 80.144531 42.296875 80.144531 L 70.023438 80.144531 C 71.671875 80.144531 73.023438 78.792969 73.023438 77.144531 L 73.023438 35.144531 C 73.023438 33.492188 71.671875 32.144531 70.023438 32.144531 Z M 49.605469 40.960938 C 49.605469 40.234375 50.257812 39.644531 51.054688 39.644531 L 53.914062 39.644531 L 53.914062 37.019531 C 53.914062 36.128906 54.503906 35.40625 55.234375 35.40625 L 57.089844 35.40625 C 57.816406 35.40625 58.410156 36.128906 58.410156 37.019531 L 58.410156 39.644531 L 61.125 39.644531 C 62.015625 39.644531 62.738281 40.234375 62.738281 40.964844 L 62.738281 42.453125 C 62.738281 43.179688 62.015625 43.769531 61.125 43.769531 L 58.410156 43.769531 L 58.410156 46.441406 C 58.410156 47.246094 57.816406 47.894531 57.089844 47.894531 L 55.230469 47.894531 C 54.503906 47.894531 53.914062 47.246094 53.914062 46.441406 L 53.914062 43.769531 L 51.054688 43.769531 C 50.257812 43.769531 49.605469 43.179688 49.605469 42.453125 Z M 46.042969 49.394531 L 66.277344 49.394531 C 66.484375 49.394531 66.652344 49.5625 66.652344 49.769531 C 66.652344 49.976562 66.484375 50.144531 66.277344 50.144531 L 46.042969 50.144531 C 45.835938 50.144531 45.667969 49.976562 45.667969 49.769531 C 45.667969 49.5625 45.835938 49.394531 46.042969 49.394531 Z M 46.042969 51.644531 L 66.277344 51.644531 C 66.484375 51.644531 66.652344 51.8125 66.652344 52.019531 C 66.652344 52.226562 66.484375 52.394531 66.277344 52.394531 L 46.042969 52.394531 C 45.835938 52.394531 45.667969 52.226562 45.667969 52.019531 C 45.667969 51.8125 45.835938 51.644531 46.042969 51.644531 Z M 46.042969 53.894531 L 66.277344 53.894531 C 66.484375 53.894531 66.652344 54.0625 66.652344 54.269531 C 66.652344 54.476562 66.484375 54.644531 66.277344 54.644531 L 46.042969 54.644531 C 45.835938 54.644531 45.667969 54.476562 45.667969 54.269531 C 45.667969 54.0625 45.835938 53.894531 46.042969 53.894531 Z M 46.042969 56.144531 L 66.277344 56.144531 C 66.484375 56.144531 66.652344 56.3125 66.652344 56.519531 C 66.652344 56.726562 66.484375 56.894531 66.277344 56.894531 L 46.042969 56.894531 C 45.835938 56.894531 45.667969 56.726562 45.667969 56.519531 C 45.667969 56.3125 45.835938 56.144531 46.042969 56.144531 Z M 46.042969 58.394531 L 66.277344 58.394531 C 66.484375 58.394531 66.652344 58.5625 66.652344 58.769531 C 66.652344 58.976562 66.484375 59.144531 66.277344 59.144531 L 46.042969 59.144531 C 45.835938 59.144531 45.667969 58.976562 45.667969 58.769531 C 45.667969 58.5625 45.835938 58.394531 46.042969 58.394531 Z M 46.042969 60.644531 L 66.277344 60.644531 C 66.484375 60.644531 66.652344 60.8125 66.652344 61.019531 C 66.652344 61.226562 66.484375 61.394531 66.277344 61.394531 L 46.042969 61.394531 C 45.835938 61.394531 45.667969 61.226562 45.667969 61.019531 C 45.667969 60.8125 45.835938 60.644531 46.042969 60.644531 Z M 46.042969 62.894531 L 59.851562 62.894531 C 59.394531 63.105469 58.957031 63.355469 58.546875 63.644531 L 46.042969 63.644531 C 45.835938 63.644531 45.667969 63.476562 45.667969 63.269531 C 45.667969 63.0625 45.835938 62.894531 46.042969 62.894531 Z M 46.042969 65.144531 L 56.925781 65.144531 C 56.726562 65.382812 56.546875 65.632812 56.375 65.894531 L 46.042969 65.894531 C 45.835938 65.894531 45.667969 65.726562 45.667969 65.519531 C 45.667969 65.3125 45.835938 65.144531 46.042969 65.144531 Z M 46.042969 67.394531 L 55.601562 67.394531 C 55.507812 67.640625 55.421875 67.890625 55.351562 68.144531 L 46.042969 68.144531 C 45.835938 68.144531 45.667969 67.976562 45.667969 67.769531 C 45.667969 67.5625 45.835938 67.394531 46.042969 67.394531 Z M 46.042969 69.644531 L 55.070312 69.644531 C 55.050781 69.890625 55.035156 70.140625 55.035156 70.394531 L 46.042969 70.394531 C 45.835938 70.394531 45.667969 70.226562 45.667969 70.019531 C 45.667969 69.8125 45.835938 69.644531 46.042969 69.644531 Z M 46.042969 71.894531 L 55.175781 71.894531 C 55.222656 72.148438 55.28125 72.398438 55.351562 72.644531 L 46.042969 72.644531 C 45.835938 72.644531 45.667969 72.476562 45.667969 72.269531 C 45.667969 72.0625 45.835938 71.894531 46.042969 71.894531 Z M 46.042969 74.144531 L 55.941406 74.144531 C 56.074219 74.402344 56.21875 74.652344 56.375 74.894531 L 46.042969 74.894531 C 45.835938 74.894531 45.667969 74.726562 45.667969 74.519531 C 45.667969 74.3125 45.835938 74.144531 46.042969 74.144531 Z M 46.042969 77.144531 C 45.835938 77.144531 45.667969 76.976562 45.667969 76.769531 C 45.667969 76.5625 45.835938 76.394531 46.042969 76.394531 L 57.628906 76.394531 C 57.917969 76.664062 58.226562 76.914062 58.546875 77.144531 Z M 63.28125 77.144531 C 59.554688 77.144531 56.535156 74.121094 56.535156 70.394531 C 56.535156 66.667969 59.554688 63.644531 63.28125 63.644531 C 67.003906 63.644531 70.023438 66.667969 70.023438 70.394531 C 70.023438 74.121094 67.003906 77.144531 63.28125 77.144531 Z M 63.28125 77.144531"/></g></svg>