<svg xmlns="http://www.w3.org/2000/svg" xmlns:xlink="http://www.w3.org/1999/xlink" width="150" zoomAndPan="magnify" viewBox="0 0 112.5 112.499997" height="150" preserveAspectRatio="xMidYMid meet" version="1.0"><defs><clipPath id="id1"><path d="M 20 70 L 103.933594 70 L 103.933594 100 L 20 100 Z M 20 70 " clip-rule="nonzero"/></clipPath><clipPath id="id2"><path d="M 14 69 L 103.933594 69 L 103.933594 100.488281 L 14 100.488281 Z M 14 69 " clip-rule="nonzero"/></clipPath></defs><path fill="#f48ca7" d="M 86.011719 35.34375 C 86.011719 48.832031 77.5 55.09375 69.332031 60.039062 C 63.332031 63.664062 57.519531 66.582031 55.414062 71.136719 C 50.429688 60.398438 24.8125 58.742188 24.8125 35.34375 C 25.210938 19.371094 48.902344 11.960938 55.414062 33.195312 C 57.789062 25.449219 62.449219 21.515625 67.429688 20.417969 C 76.105469 18.503906 85.753906 25.199219 86.011719 35.34375 Z M 86.011719 35.34375 " fill-opacity="1" fill-rule="nonzero"/><path fill="#f7b6ad" d="M 38.882812 90.769531 C 39.351562 91.21875 39.878906 91.601562 40.433594 91.921875 C 36.546875 91.921875 35.046875 91.199219 31.992188 88.707031 C 25.601562 83.628906 19.339844 77.316406 15.46875 73.824219 C 14.359375 72.820312 14.828125 70.914062 16.167969 70.261719 C 17.527344 69.597656 19.207031 70.132812 21.832031 70.980469 C 20.507812 71.625 20.1875 73.398438 21.132812 74.535156 C 24.621094 78.742188 32.179688 84.425781 38.882812 90.769531 Z M 38.882812 90.769531 " fill-opacity="1" fill-rule="nonzero"/><g clip-path="url(#id1)"><path fill="#ffd7d2" d="M 38.605469 77.167969 C 38.417969 76.570312 38.625 76.152344 38.625 76.152344 C 39.800781 70.816406 48.191406 73.527344 51.128906 74.351562 C 56.046875 75.738281 58.96875 75.042969 64.144531 73.925781 C 88.84375 66.011719 88.21875 78.292969 88.21875 78.292969 L 103.089844 78.292969 L 103.089844 99.769531 L 76.085938 99.769531 C 74.242188 99.769531 72.640625 99.65625 70.519531 99.316406 C 63.3125 98.441406 47.421875 94.613281 41.507812 92.421875 C 41.136719 92.285156 40.78125 92.113281 40.433594 91.921875 C 39.878906 91.601562 39.351562 91.21875 38.882812 90.769531 C 32.179688 84.425781 24.621094 78.742188 21.132812 74.535156 C 20.1875 73.398438 20.507812 71.625 21.832031 70.980469 C 24.328125 69.761719 29.773438 70.382812 38.605469 77.167969 Z M 38.605469 77.167969 " fill-opacity="1" fill-rule="nonzero"/></g><path fill="#3a322b" d="M 43.558594 62.101562 C 48.644531 65.109375 53.039062 67.707031 54.769531 71.4375 C 54.882812 71.6875 55.136719 71.847656 55.414062 71.847656 C 55.691406 71.847656 55.941406 71.6875 56.058594 71.4375 C 57.789062 67.707031 62.179688 65.109375 67.265625 62.101562 C 75.933594 56.96875 86.722656 50.585938 86.722656 35.328125 C 86.523438 27.398438 80.421875 20.601562 72.53125 19.523438 C 66.574219 18.707031 59.152344 21.375 55.414062 31.019531 C 51.675781 21.375 44.25 18.710938 38.296875 19.523438 C 30.402344 20.601562 24.300781 27.398438 24.101562 35.34375 C 24.101562 50.585938 34.890625 56.96875 43.558594 62.101562 Z M 38.488281 20.933594 C 39.078125 20.851562 39.6875 20.808594 40.300781 20.808594 C 45.703125 20.808594 51.871094 24.070312 54.730469 33.40625 C 54.824219 33.707031 55.101562 33.910156 55.414062 33.910156 C 55.726562 33.910156 56 33.707031 56.09375 33.40625 C 59.28125 23.007812 66.574219 20.140625 72.335938 20.933594 C 78.464844 21.773438 85.09375 27.113281 85.300781 35.34375 C 85.300781 49.773438 75.332031 55.671875 66.539062 60.875 C 61.96875 63.582031 57.628906 66.148438 55.414062 69.65625 C 53.199219 66.148438 48.855469 63.582031 44.285156 60.875 C 35.492188 55.671875 25.523438 49.773438 25.523438 35.363281 C 25.730469 27.113281 32.359375 21.773438 38.488281 20.933594 Z M 38.488281 20.933594 " fill-opacity="1" fill-rule="nonzero"/><g clip-path="url(#id2)"><path fill="#3a322b" d="M 103.089844 77.582031 L 88.886719 77.582031 C 88.757812 76.480469 88.226562 74.382812 86.101562 72.746094 C 82.082031 69.652344 74.621094 69.820312 63.992188 73.226562 L 63.621094 73.308594 C 58.671875 74.382812 55.945312 74.972656 51.324219 73.667969 L 50.851562 73.535156 C 48.101562 72.742188 42.984375 71.273438 39.984375 73.058594 C 38.964844 73.667969 38.289062 74.589844 37.976562 75.804688 C 28.542969 68.859375 23.679688 69.445312 21.792969 70.21875 C 19.1875 69.382812 17.429688 68.855469 15.851562 69.625 C 14.957031 70.0625 14.308594 70.960938 14.167969 71.972656 C 14.035156 72.890625 14.335938 73.757812 14.992188 74.351562 C 16.097656 75.351562 17.378906 76.5625 18.859375 77.960938 C 22.472656 81.375 26.972656 85.625 31.542969 89.257812 C 34.652344 91.792969 36.292969 92.609375 40.261719 92.632812 C 40.585938 92.804688 40.917969 92.964844 41.257812 93.089844 C 47.371094 95.351562 63.457031 99.175781 70.40625 100.019531 C 72.460938 100.347656 74.105469 100.480469 76.082031 100.480469 L 103.089844 100.480469 C 103.484375 100.480469 103.800781 100.164062 103.800781 99.769531 L 103.800781 78.296875 C 103.800781 77.902344 103.484375 77.582031 103.089844 77.582031 Z M 19.839844 76.925781 C 18.351562 75.519531 17.066406 74.308594 15.949219 73.296875 C 15.539062 72.925781 15.542969 72.433594 15.578125 72.171875 C 15.65625 71.621094 16 71.136719 16.480469 70.902344 C 17.398438 70.453125 18.660156 70.730469 20.433594 71.28125 C 20.207031 71.601562 20.035156 71.964844 19.949219 72.367188 C 19.746094 73.300781 19.980469 74.253906 20.585938 74.988281 C 22.691406 77.53125 26.144531 80.503906 30.144531 83.949219 C 32.792969 86.230469 35.53125 88.59375 38.183594 91.089844 C 36.019531 90.808594 34.707031 90 32.4375 88.148438 C 27.90625 84.550781 23.433594 80.324219 19.839844 76.925781 Z M 102.378906 99.058594 L 76.082031 99.058594 C 74.1875 99.058594 72.609375 98.929688 70.605469 98.609375 C 63.703125 97.773438 47.796875 93.992188 41.753906 91.757812 C 40.890625 91.4375 40.089844 90.929688 39.371094 90.253906 C 36.632812 87.660156 33.804688 85.226562 31.070312 82.871094 C 27.121094 79.46875 23.710938 76.53125 21.679688 74.082031 C 21.355469 73.6875 21.230469 73.171875 21.339844 72.667969 C 21.4375 72.203125 21.730469 71.820312 22.144531 71.621094 C 22.511719 71.441406 23.222656 71.191406 24.355469 71.191406 C 26.765625 71.191406 31.078125 72.316406 38.007812 77.605469 C 38.007812 77.605469 38.007812 77.605469 38.007812 77.609375 C 38.488281 78.765625 39.816406 79.703125 41.988281 80.414062 C 45.046875 81.222656 50.011719 83.074219 52.613281 84.371094 C 54.5625 85.34375 56.855469 85.847656 59.621094 85.90625 C 60.003906 85.914062 60.398438 85.917969 60.789062 85.921875 C 62.441406 85.9375 64.152344 85.957031 65.441406 86.289062 C 66.421875 86.613281 66.910156 86.773438 67.613281 87.964844 C 67.8125 88.300781 68.246094 88.414062 68.585938 88.214844 C 68.925781 88.015625 69.039062 87.578125 68.839844 87.242188 C 67.867188 85.589844 66.949219 85.289062 65.886719 84.941406 C 65.871094 84.933594 65.796875 84.910156 65.785156 84.910156 C 64.339844 84.535156 62.542969 84.519531 60.804688 84.5 C 60.417969 84.496094 60.03125 84.492188 59.648438 84.484375 C 57.097656 84.429688 55.003906 83.976562 53.246094 83.097656 C 50.578125 81.765625 45.484375 79.871094 42.390625 79.054688 C 40.183594 78.328125 39.53125 77.523438 39.339844 77.105469 C 39.320312 77.0625 39.304688 77.023438 39.292969 76.984375 C 39.289062 76.964844 39.28125 76.949219 39.277344 76.933594 C 39.199219 76.652344 39.265625 76.46875 39.265625 76.46875 C 39.292969 76.414062 39.3125 76.359375 39.324219 76.300781 C 39.527344 75.378906 39.980469 74.71875 40.714844 74.285156 C 43.1875 72.8125 48.097656 74.222656 50.457031 74.902344 L 50.9375 75.042969 C 55.902344 76.441406 58.921875 75.785156 63.921875 74.699219 L 64.359375 74.601562 C 77.0625 70.535156 82.707031 71.953125 85.207031 73.855469 C 87.582031 75.664062 87.507812 78.160156 87.503906 78.261719 C 87.492188 78.457031 87.5625 78.644531 87.699219 78.785156 C 87.832031 78.929688 88.019531 79.007812 88.214844 79.007812 L 102.378906 79.007812 Z M 102.378906 99.058594 " fill-opacity="1" fill-rule="nonzero"/></g></svg>