<svg xmlns="http://www.w3.org/2000/svg" width="112.5" viewBox="0 0 112.5 112.5" height="112.5" version="1.0"><defs><clipPath id="a"><path d="M 0 0 L 112.003906 0 L 112.003906 112.003906 L 0 112.003906 Z M 0 0"/></clipPath><clipPath id="b"><path d="M 10.601562 17.707031 L 102.101562 17.707031 L 102.101562 99.457031 L 10.601562 99.457031 Z M 10.601562 17.707031"/></clipPath></defs><g clip-path="url(#a)"><path fill="#FFF" d="M 0 0 L 112.5 0 L 112.5 112.5 L 0 112.5 Z M 0 0"/><path d="M 0 0 L 112.5 0 L 112.5 112.5 L 0 112.5 Z M 0 0"/></g><path fill="#52AEE8" d="M 28.132812 29.585938 L 25.105469 29.585938 L 25.105469 37.96875 L 27.753906 37.96875 C 27.960938 37.96875 28.167969 37.953125 28.371094 37.917969 C 29.757812 37.683594 30.875 36.71875 31.285156 35.398438 C 31.441406 34.898438 31.519531 34.375 31.519531 33.839844 C 31.519531 32.671875 31.132812 31.546875 30.433594 30.671875 C 29.882812 29.984375 29.042969 29.585938 28.132812 29.585938"/><path fill="#52AEE8" d="M 40.390625 29.320312 C 38.28125 29.320312 36.566406 31.320312 36.566406 33.777344 C 36.566406 36.238281 38.28125 38.238281 40.390625 38.238281 C 42.5 38.238281 44.21875 36.238281 44.21875 33.777344 C 44.21875 31.320312 42.5 29.320312 40.390625 29.320312"/><path fill="#52AEE8" d="M 87.484375 32.859375 C 87.921875 32.859375 88.277344 33.214844 88.277344 33.65625 C 88.277344 34.09375 87.921875 34.449219 87.484375 34.449219 L 82.292969 34.449219 L 82.292969 37.96875 L 87.984375 37.96875 C 88.421875 37.96875 88.777344 38.324219 88.777344 38.765625 C 88.777344 39.203125 88.421875 39.558594 87.984375 39.558594 L 81.496094 39.558594 C 81.058594 39.558594 80.703125 39.203125 80.703125 38.765625 L 80.703125 28.792969 C 80.703125 28.355469 81.058594 28 81.496094 28 L 87.984375 28 C 88.421875 28 88.777344 28.355469 88.777344 28.792969 C 88.777344 29.230469 88.421875 29.585938 87.984375 29.585938 L 82.292969 29.585938 L 82.292969 32.859375 Z M 78.140625 29.433594 L 75.074219 29.433594 L 75.074219 38.917969 C 75.074219 39.359375 74.71875 39.714844 74.28125 39.714844 C 73.84375 39.714844 73.488281 39.359375 73.488281 38.917969 L 73.488281 29.433594 L 70.535156 29.433594 C 70.097656 29.433594 69.742188 29.078125 69.742188 28.636719 C 69.742188 28.199219 70.097656 27.84375 70.535156 27.84375 L 78.140625 27.84375 C 78.578125 27.84375 78.933594 28.199219 78.933594 28.636719 C 78.933594 29.078125 78.578125 29.433594 78.140625 29.433594 Z M 68.980469 39.648438 C 68.882812 39.691406 68.777344 39.710938 68.675781 39.710938 C 68.367188 39.710938 68.070312 39.527344 67.945312 39.222656 L 66.628906 36.09375 L 62.289062 36.09375 L 61.070312 39.207031 C 60.945312 39.519531 60.648438 39.710938 60.332031 39.710938 C 60.234375 39.710938 60.136719 39.691406 60.039062 39.65625 C 59.632812 39.496094 59.429688 39.035156 59.589844 38.625 L 63.621094 28.351562 C 63.621094 28.347656 63.625 28.347656 63.625 28.34375 C 63.636719 28.308594 63.65625 28.277344 63.675781 28.242188 C 63.683594 28.230469 63.6875 28.21875 63.695312 28.207031 C 63.722656 28.164062 63.757812 28.121094 63.792969 28.085938 C 63.800781 28.074219 63.8125 28.070312 63.820312 28.058594 C 63.863281 28.023438 63.90625 27.988281 63.957031 27.960938 C 63.984375 27.941406 64.015625 27.925781 64.046875 27.910156 C 64.050781 27.910156 64.050781 27.910156 64.054688 27.910156 C 64.070312 27.902344 64.089844 27.898438 64.109375 27.890625 C 64.136719 27.882812 64.167969 27.871094 64.199219 27.863281 C 64.21875 27.859375 64.242188 27.859375 64.265625 27.855469 C 64.296875 27.851562 64.324219 27.847656 64.351562 27.847656 C 64.375 27.847656 64.398438 27.851562 64.421875 27.851562 C 64.449219 27.855469 64.480469 27.855469 64.507812 27.859375 C 64.535156 27.867188 64.558594 27.875 64.585938 27.882812 C 64.605469 27.890625 64.628906 27.890625 64.648438 27.902344 C 64.652344 27.902344 64.652344 27.902344 64.65625 27.902344 C 64.6875 27.917969 64.714844 27.933594 64.742188 27.949219 C 64.761719 27.957031 64.777344 27.964844 64.796875 27.976562 C 64.804688 27.980469 64.8125 27.992188 64.824219 28 C 64.898438 28.050781 64.964844 28.117188 65.015625 28.191406 C 65.019531 28.199219 65.023438 28.207031 65.027344 28.214844 C 65.050781 28.253906 65.074219 28.289062 65.089844 28.328125 C 65.089844 28.332031 65.089844 28.332031 65.089844 28.332031 L 67.886719 34.988281 L 69.40625 38.609375 C 69.578125 39.011719 69.386719 39.476562 68.980469 39.648438 Z M 57.097656 38.765625 C 57.097656 39.105469 56.878906 39.410156 56.554688 39.519531 C 56.472656 39.546875 56.390625 39.558594 56.304688 39.558594 C 56.058594 39.558594 55.824219 39.445312 55.671875 39.242188 L 49.628906 31.175781 L 49.628906 38.765625 C 49.628906 39.203125 49.273438 39.558594 48.835938 39.558594 C 48.398438 39.558594 48.042969 39.203125 48.042969 38.765625 L 48.042969 28.792969 C 48.042969 28.449219 48.261719 28.148438 48.585938 28.039062 C 48.90625 27.929688 49.265625 28.042969 49.46875 28.316406 L 55.511719 36.382812 L 55.511719 28.792969 C 55.511719 28.355469 55.867188 28 56.304688 28 C 56.742188 28 57.097656 28.355469 57.097656 28.792969 Z M 40.390625 39.824219 C 37.40625 39.824219 34.980469 37.113281 34.980469 33.777344 C 34.980469 30.445312 37.40625 27.730469 40.390625 27.730469 C 43.375 27.730469 45.804688 30.445312 45.804688 33.777344 C 45.804688 37.113281 43.375 39.824219 40.390625 39.824219 Z M 32.800781 35.871094 C 32.210938 37.765625 30.613281 39.152344 28.636719 39.484375 C 28.34375 39.535156 28.046875 39.558594 27.753906 39.558594 L 24.3125 39.558594 C 23.871094 39.558594 23.515625 39.203125 23.515625 38.765625 L 23.515625 28.792969 C 23.515625 28.355469 23.871094 28 24.3125 28 L 28.132812 28 C 29.527344 28 30.816406 28.609375 31.671875 29.679688 C 32.597656 30.835938 33.105469 32.3125 33.105469 33.839844 C 33.105469 34.535156 33.003906 35.21875 32.800781 35.871094 Z M 86.863281 19.296875 L 25.84375 19.296875 C 18.316406 19.296875 12.191406 25.429688 12.191406 32.964844 L 12.191406 34.429688 C 12.191406 41.964844 18.316406 48.097656 25.84375 48.097656 L 70.015625 48.097656 L 70.015625 47.574219 C 70.015625 43.097656 72.605469 42.429688 74.152344 42.429688 C 76.75 42.429688 78.300781 44.308594 78.300781 47.464844 L 78.300781 48.097656 L 86.863281 48.097656 C 94.390625 48.097656 100.515625 41.964844 100.515625 34.429688 L 100.515625 32.964844 C 100.515625 25.429688 94.390625 19.296875 86.863281 19.296875"/><path fill="#52AEE8" d="M 64.386719 30.75 L 62.914062 34.503906 L 65.960938 34.503906 L 64.386719 30.75"/><g clip-path="url(#b)"><path fill="#333" d="M 100.515625 34.429688 C 100.515625 41.964844 94.390625 48.097656 86.863281 48.097656 L 78.300781 48.097656 L 78.300781 47.464844 C 78.300781 44.308594 76.75 42.429688 74.148438 42.429688 C 72.605469 42.429688 70.015625 43.097656 70.015625 47.574219 L 70.015625 48.097656 L 25.84375 48.097656 C 18.316406 48.097656 12.191406 41.964844 12.191406 34.429688 L 12.191406 32.964844 C 12.191406 25.429688 18.316406 19.296875 25.84375 19.296875 L 86.863281 19.296875 C 94.390625 19.296875 100.515625 25.429688 100.515625 32.964844 Z M 86.863281 17.707031 L 25.84375 17.707031 C 17.441406 17.707031 10.601562 24.550781 10.601562 32.964844 L 10.601562 34.429688 C 10.601562 42.84375 17.441406 49.6875 25.84375 49.6875 L 70.015625 49.6875 L 70.015625 73.386719 C 69.277344 72.292969 68.273438 70.382812 67.265625 67.148438 C 66.484375 64.65625 64.6875 62.292969 61.992188 63.121094 C 59.785156 63.796875 59.140625 65.761719 59.480469 67.40625 C 59.484375 67.425781 59.886719 69.355469 60.304688 71.082031 C 60.554688 72.128906 60.769531 73.078125 60.964844 73.960938 C 62.195312 79.453125 62.871094 82.480469 68.773438 90.597656 C 69.34375 91.378906 70.339844 93.082031 70.621094 95.71875 C 70.742188 96.828125 70.800781 98.667969 70.800781 98.6875 C 70.816406 99.117188 71.167969 99.457031 71.59375 99.457031 C 71.601562 99.457031 71.609375 99.457031 71.621094 99.457031 C 72.050781 99.441406 72.386719 99.089844 72.386719 98.664062 C 72.386719 98.652344 72.386719 98.644531 72.386719 98.636719 C 72.382812 98.558594 72.324219 96.71875 72.199219 95.550781 C 71.878906 92.546875 70.71875 90.570312 70.058594 89.660156 C 64.347656 81.8125 63.695312 78.898438 62.515625 73.613281 C 62.316406 72.722656 62.101562 71.765625 61.847656 70.710938 C 61.4375 69.003906 61.039062 67.101562 61.035156 67.082031 C 60.941406 66.640625 60.777344 65.15625 62.457031 64.640625 C 64.457031 64.023438 65.484375 66.765625 65.75 67.621094 C 67.605469 73.554688 69.519531 75.453125 70.191406 75.96875 C 70.308594 76.140625 70.496094 76.222656 70.808594 76.222656 C 70.851562 76.222656 70.890625 76.222656 70.929688 76.214844 C 71.027344 76.199219 71.125 76.167969 71.210938 76.113281 C 71.453125 75.972656 71.601562 75.710938 71.601562 75.429688 L 71.601562 47.574219 C 71.601562 44.386719 73.054688 44.015625 74.148438 44.015625 C 76.269531 44.015625 76.710938 45.890625 76.710938 47.464844 L 76.710938 63.765625 C 76.710938 64.207031 77.066406 64.5625 77.507812 64.5625 C 77.945312 64.5625 78.300781 64.207031 78.300781 63.765625 C 78.300781 62.804688 78.710938 61.847656 79.375 61.277344 C 79.886719 60.839844 80.488281 60.667969 81.171875 60.773438 C 82.820312 61.023438 83.410156 62.308594 83.410156 63.421875 L 83.410156 64.988281 C 83.410156 65.429688 83.765625 65.785156 84.203125 65.785156 C 84.640625 65.785156 84.996094 65.429688 84.996094 64.988281 L 84.996094 63.984375 C 84.996094 63.582031 85.144531 63.246094 85.453125 62.960938 C 86.003906 62.445312 86.902344 62.21875 87.527344 62.261719 C 89.070312 62.367188 90.109375 63.425781 90.109375 64.890625 L 90.109375 66.925781 C 90.109375 67.363281 90.460938 67.71875 90.902344 67.71875 C 91.339844 67.71875 91.695312 67.363281 91.695312 66.925781 C 91.695312 66.195312 91.921875 65.585938 92.355469 65.167969 C 92.816406 64.722656 93.511719 64.503906 94.347656 64.535156 C 95.824219 64.589844 96.351562 65.882812 96.351562 67.074219 L 96.351562 69.265625 C 96.351562 71.808594 96.140625 76.65625 95.757812 78.761719 C 94.527344 85.515625 92.5625 88.285156 91.128906 90.308594 C 89.765625 92.230469 89.605469 94.5 89.453125 96.691406 L 89.433594 97.015625 C 89.40625 97.371094 89.410156 98.523438 89.410156 98.664062 C 89.410156 98.664062 89.410156 98.664062 89.410156 98.667969 C 89.414062 99.105469 89.769531 99.457031 90.203125 99.457031 C 90.207031 99.457031 90.207031 99.457031 90.207031 99.457031 C 90.644531 99.453125 91 99.097656 90.996094 98.660156 C 90.996094 98.1875 91 97.351562 91.015625 97.128906 L 91.039062 96.800781 C 91.179688 94.738281 91.316406 92.789062 92.421875 91.230469 C 94.320312 88.550781 96.121094 85.605469 97.316406 79.046875 C 97.753906 76.636719 97.9375 71.488281 97.9375 69.265625 L 97.9375 67.074219 C 97.9375 64.683594 96.519531 63.027344 94.40625 62.949219 C 93.285156 62.90625 92.300781 63.1875 91.554688 63.765625 C 91.105469 62.027344 89.617188 60.8125 87.632812 60.675781 C 86.761719 60.617188 85.542969 60.878906 84.628906 61.578125 C 84.074219 60.3125 82.929688 59.433594 81.410156 59.203125 C 80.265625 59.027344 79.207031 59.328125 78.34375 60.074219 C 78.328125 60.085938 78.3125 60.097656 78.300781 60.109375 L 78.300781 49.6875 L 86.863281 49.6875 C 95.265625 49.6875 102.101562 42.84375 102.101562 34.429688 L 102.101562 32.964844 C 102.101562 24.550781 95.265625 17.707031 86.863281 17.707031"/></g><path fill="#FFF" d="M 64.386719 30.75 L 65.960938 34.503906 L 62.914062 34.503906 Z M 67.886719 34.988281 L 65.089844 28.332031 C 65.089844 28.332031 65.089844 28.328125 65.089844 28.328125 C 65.074219 28.289062 65.050781 28.253906 65.027344 28.214844 C 65.023438 28.207031 65.019531 28.199219 65.015625 28.191406 C 64.964844 28.117188 64.898438 28.050781 64.824219 28 C 64.8125 27.992188 64.804688 27.984375 64.792969 27.976562 C 64.777344 27.964844 64.757812 27.957031 64.742188 27.949219 C 64.714844 27.933594 64.6875 27.917969 64.65625 27.902344 C 64.652344 27.902344 64.652344 27.902344 64.648438 27.902344 C 64.628906 27.890625 64.605469 27.890625 64.585938 27.882812 C 64.558594 27.875 64.535156 27.867188 64.507812 27.859375 C 64.480469 27.855469 64.449219 27.855469 64.421875 27.851562 C 64.398438 27.851562 64.375 27.847656 64.351562 27.847656 C 64.324219 27.847656 64.296875 27.851562 64.265625 27.855469 C 64.242188 27.859375 64.21875 27.859375 64.199219 27.863281 C 64.167969 27.871094 64.136719 27.882812 64.109375 27.890625 C 64.089844 27.898438 64.070312 27.902344 64.054688 27.90625 C 64.050781 27.910156 64.050781 27.910156 64.046875 27.910156 C 64.015625 27.925781 63.988281 27.941406 63.957031 27.960938 C 63.90625 27.988281 63.863281 28.023438 63.820312 28.058594 C 63.8125 28.070312 63.800781 28.074219 63.792969 28.085938 C 63.757812 28.121094 63.722656 28.164062 63.695312 28.207031 C 63.6875 28.21875 63.683594 28.230469 63.675781 28.242188 C 63.65625 28.277344 63.636719 28.308594 63.625 28.34375 C 63.625 28.347656 63.621094 28.347656 63.621094 28.351562 L 59.589844 38.625 C 59.429688 39.035156 59.632812 39.496094 60.039062 39.65625 C 60.136719 39.691406 60.234375 39.710938 60.332031 39.710938 C 60.648438 39.710938 60.945312 39.519531 61.070312 39.207031 L 62.289062 36.09375 L 66.628906 36.09375 L 67.945312 39.222656 C 68.070312 39.527344 68.367188 39.710938 68.675781 39.710938 C 68.777344 39.710938 68.882812 39.691406 68.984375 39.648438 C 69.386719 39.476562 69.578125 39.011719 69.40625 38.609375 L 67.886719 34.988281"/><path fill="#FFF" d="M 87.984375 29.585938 C 88.421875 29.585938 88.777344 29.230469 88.777344 28.792969 C 88.777344 28.355469 88.421875 28 87.984375 28 L 81.496094 28 C 81.058594 28 80.703125 28.355469 80.703125 28.792969 L 80.703125 38.765625 C 80.703125 39.203125 81.058594 39.558594 81.496094 39.558594 L 87.984375 39.558594 C 88.421875 39.558594 88.777344 39.203125 88.777344 38.765625 C 88.777344 38.324219 88.421875 37.96875 87.984375 37.96875 L 82.292969 37.96875 L 82.292969 34.449219 L 87.484375 34.449219 C 87.921875 34.449219 88.277344 34.09375 88.277344 33.65625 C 88.277344 33.214844 87.921875 32.859375 87.484375 32.859375 L 82.292969 32.859375 L 82.292969 29.585938 L 87.984375 29.585938"/><path fill="#FFF" d="M 56.304688 28 C 55.867188 28 55.511719 28.355469 55.511719 28.792969 L 55.511719 36.382812 L 49.46875 28.316406 C 49.265625 28.042969 48.90625 27.929688 48.585938 28.039062 C 48.261719 28.148438 48.042969 28.449219 48.042969 28.792969 L 48.042969 38.765625 C 48.042969 39.203125 48.398438 39.558594 48.835938 39.558594 C 49.273438 39.558594 49.628906 39.203125 49.628906 38.765625 L 49.628906 31.175781 L 55.671875 39.242188 C 55.824219 39.445312 56.058594 39.558594 56.304688 39.558594 C 56.390625 39.558594 56.472656 39.546875 56.554688 39.519531 C 56.878906 39.410156 57.097656 39.105469 57.097656 38.765625 L 57.097656 28.792969 C 57.097656 28.355469 56.742188 28 56.304688 28"/><path fill="#FFF" d="M 31.285156 35.398438 C 30.875 36.71875 29.757812 37.683594 28.371094 37.917969 C 28.167969 37.953125 27.960938 37.96875 27.753906 37.96875 L 25.105469 37.96875 L 25.105469 29.585938 L 28.132812 29.585938 C 29.042969 29.585938 29.882812 29.984375 30.433594 30.671875 C 31.132812 31.546875 31.519531 32.671875 31.519531 33.839844 C 31.519531 34.375 31.441406 34.898438 31.285156 35.398438 Z M 28.132812 28 L 24.3125 28 C 23.871094 28 23.515625 28.355469 23.515625 28.792969 L 23.515625 38.765625 C 23.515625 39.203125 23.871094 39.558594 24.3125 39.558594 L 27.753906 39.558594 C 28.046875 39.558594 28.34375 39.535156 28.636719 39.484375 C 30.613281 39.152344 32.210938 37.765625 32.800781 35.871094 C 33.003906 35.21875 33.105469 34.535156 33.105469 33.839844 C 33.105469 32.3125 32.597656 30.835938 31.671875 29.679688 C 30.816406 28.609375 29.527344 28 28.132812 28"/><path fill="#FFF" d="M 78.140625 27.84375 L 70.539062 27.84375 C 70.097656 27.84375 69.742188 28.199219 69.742188 28.636719 C 69.742188 29.074219 70.097656 29.433594 70.539062 29.433594 L 73.488281 29.433594 L 73.488281 38.917969 C 73.488281 39.359375 73.84375 39.714844 74.28125 39.714844 C 74.71875 39.714844 75.074219 39.359375 75.074219 38.917969 L 75.074219 29.433594 L 78.140625 29.433594 C 78.578125 29.433594 78.933594 29.074219 78.933594 28.636719 C 78.933594 28.199219 78.578125 27.84375 78.140625 27.84375"/><path fill="#FFF" d="M 40.390625 38.238281 C 38.28125 38.238281 36.566406 36.238281 36.566406 33.777344 C 36.566406 31.320312 38.28125 29.320312 40.390625 29.320312 C 42.5 29.320312 44.21875 31.320312 44.21875 33.777344 C 44.21875 36.238281 42.5 38.238281 40.390625 38.238281 Z M 40.390625 27.730469 C 37.40625 27.730469 34.980469 30.445312 34.980469 33.777344 C 34.980469 37.113281 37.40625 39.824219 40.390625 39.824219 C 43.375 39.824219 45.804688 37.113281 45.804688 33.777344 C 45.804688 30.445312 43.375 27.730469 40.390625 27.730469"/><path fill="#FBCE9C" d="M 89.433594 97.015625 L 89.453125 96.691406 C 89.605469 94.5 89.765625 92.230469 91.125 90.308594 C 92.5625 88.285156 94.527344 85.515625 95.757812 78.761719 C 96.136719 76.65625 96.351562 71.808594 96.351562 69.265625 L 96.351562 67.074219 C 96.351562 65.882812 95.824219 64.589844 94.347656 64.535156 C 93.511719 64.503906 92.816406 64.722656 92.355469 65.167969 C 91.921875 65.585938 91.695312 66.195312 91.695312 66.925781 C 91.695312 67.363281 91.339844 67.71875 90.902344 67.71875 C 90.460938 67.71875 90.105469 67.363281 90.105469 66.925781 L 90.105469 64.890625 C 90.105469 63.421875 89.070312 62.367188 87.527344 62.261719 C 86.902344 62.21875 86.003906 62.445312 85.453125 62.960938 C 85.144531 63.246094 84.996094 63.582031 84.996094 63.984375 L 84.996094 64.988281 C 84.996094 65.429688 84.640625 65.785156 84.203125 65.785156 C 83.765625 65.785156 83.410156 65.429688 83.410156 64.988281 L 83.410156 63.421875 C 83.410156 62.308594 82.820312 61.023438 81.171875 60.773438 C 80.488281 60.667969 79.886719 60.839844 79.375 61.277344 C 78.710938 61.847656 78.300781 62.804688 78.300781 63.765625 C 78.300781 64.207031 77.945312 64.5625 77.507812 64.5625 C 77.066406 64.5625 76.710938 64.207031 76.710938 63.765625 L 76.710938 47.464844 C 76.710938 45.890625 76.269531 44.015625 74.148438 44.015625 C 73.054688 44.015625 71.601562 44.386719 71.601562 47.574219 L 71.601562 75.429688 C 71.601562 75.710938 71.453125 75.972656 71.210938 76.113281 C 71.125 76.167969 71.027344 76.199219 70.929688 76.214844 C 70.890625 76.222656 70.851562 76.222656 70.808594 76.222656 C 70.496094 76.222656 70.308594 76.140625 70.191406 75.96875 C 69.519531 75.453125 67.605469 73.554688 65.75 67.621094 C 65.484375 66.765625 64.457031 64.023438 62.457031 64.640625 C 60.777344 65.15625 60.941406 66.640625 61.035156 67.082031 C 61.039062 67.101562 61.4375 69.003906 61.847656 70.710938 C 62.101562 71.765625 62.316406 72.722656 62.515625 73.613281 C 63.695312 78.898438 64.347656 81.8125 70.058594 89.660156 C 70.71875 90.570312 71.878906 92.546875 72.199219 95.550781 C 72.324219 96.71875 72.382812 98.558594 72.386719 98.636719 C 72.386719 98.644531 72.386719 98.652344 72.386719 98.664062 L 89.410156 98.664062 C 89.410156 98.523438 89.40625 97.371094 89.433594 97.015625"/></svg>