<svg xmlns="http://www.w3.org/2000/svg" width="112.5" viewBox="0 0 112.5 112.5" height="112.5" version="1.0"><defs><clipPath id="a"><path d="M 0 0 L 112.003906 0 L 112.003906 112.003906 L 0 112.003906 Z M 0 0"/></clipPath><clipPath id="b"><path d="M 33.75 33.75 L 78.75 33.75 L 78.75 78.75 L 33.75 78.75 Z M 33.75 33.75"/></clipPath></defs><g clip-path="url(#a)" fill="#FFF"><path d="M 0 0 L 112.5 0 L 112.5 112.5 L 0 112.5 Z M 0 0"/><path d="M 0 0 L 112.5 0 L 112.5 112.5 L 0 112.5 Z M 0 0"/></g><path fill="#51ADE5" d="M 56.210938 103.722656 C 43.527344 103.722656 31.582031 98.785156 22.621094 89.804688 C 13.636719 80.839844 8.703125 68.898438 8.703125 56.210938 C 8.703125 43.527344 13.636719 31.582031 22.621094 22.621094 C 31.582031 13.636719 43.527344 8.699219 56.210938 8.699219 C 68.898438 8.699219 80.839844 13.636719 89.804688 22.621094 C 98.785156 31.601562 103.722656 43.527344 103.722656 56.210938 C 103.722656 68.898438 98.785156 80.839844 89.804688 89.804688 C 80.839844 98.785156 68.898438 103.722656 56.210938 103.722656 Z M 56.210938 11.550781 C 44.285156 11.550781 33.0625 16.203125 24.632812 24.632812 C 16.203125 33.0625 11.550781 44.285156 11.550781 56.210938 C 11.550781 68.136719 16.203125 79.359375 24.632812 87.789062 C 33.0625 96.222656 44.285156 100.875 56.210938 100.875 C 68.136719 100.875 79.359375 96.222656 87.789062 87.789062 C 96.222656 79.359375 100.875 68.136719 100.875 56.210938 C 100.875 44.285156 96.222656 33.0625 87.789062 24.632812 C 79.359375 16.203125 68.136719 11.550781 56.210938 11.550781 Z M 56.210938 11.550781"/><path fill="#365672" d="M 77.605469 42.160156 L 74.191406 44.476562 L 72.695312 45.492188 L 68.957031 48.027344 L 43.542969 48.027344 L 34.894531 42.160156 C 34.375 41.800781 34.503906 41.003906 35.109375 40.820312 L 55.824219 34.632812 C 56.097656 34.550781 56.398438 34.550781 56.675781 34.632812 L 72.730469 39.429688 L 74.191406 39.867188 L 77.394531 40.820312 C 77.996094 41.003906 78.121094 41.800781 77.605469 42.160156"/><path fill="#477293" d="M 43.542969 51.765625 L 43.542969 48.027344 C 43.542969 46.375 49.230469 45.039062 56.25 45.039062 C 63.269531 45.039062 68.957031 46.375 68.957031 48.027344 L 68.957031 51.765625 L 43.542969 51.765625"/><path fill="#365672" d="M 68.957031 51.765625 C 68.957031 53.074219 65.382812 54.1875 60.414062 54.589844 L 52.085938 54.589844 C 47.117188 54.1875 43.542969 53.074219 43.542969 51.765625 C 43.542969 50.113281 49.230469 48.773438 56.25 48.773438 C 63.269531 48.773438 68.957031 50.113281 68.957031 51.765625"/><path fill="#D28328" d="M 54.753906 56.25 C 54.753906 55.425781 55.429688 54.753906 56.25 54.753906 C 57.070312 54.753906 57.746094 55.425781 57.746094 56.25 C 57.746094 57.070312 57.070312 57.746094 56.25 57.746094 C 55.429688 57.746094 54.753906 57.070312 54.753906 56.25 Z M 60.734375 56.25 C 60.734375 53.777344 58.722656 51.765625 56.25 51.765625 C 53.777344 51.765625 51.765625 53.777344 51.765625 56.25 C 51.765625 56.773438 51.855469 57.273438 52.023438 57.746094 L 51.765625 58.492188 L 60.734375 58.492188 L 60.476562 57.746094 C 60.644531 57.273438 60.734375 56.773438 60.734375 56.25"/><path fill="#F4B329" d="M 74.9375 51.765625 C 74.9375 52.589844 74.261719 53.261719 73.441406 53.261719 C 72.621094 53.261719 71.949219 52.589844 71.949219 51.765625 C 71.949219 51.214844 72.246094 50.734375 72.695312 50.472656 C 72.910156 50.347656 73.175781 50.269531 73.441406 50.269531 C 73.710938 50.269531 73.972656 50.347656 74.191406 50.472656 C 74.636719 50.734375 74.9375 51.214844 74.9375 51.765625"/><path fill="#F4B329" d="M 68.210938 77.929688 L 44.289062 77.929688 C 42.421875 77.929688 41.011719 76.230469 41.351562 74.390625 L 43.980469 60.191406 C 44.242188 58.773438 45.480469 57.746094 46.921875 57.746094 L 65.578125 57.746094 C 67.019531 57.746094 68.257812 58.773438 68.519531 60.191406 L 71.148438 74.390625 C 71.488281 76.230469 70.078125 77.929688 68.210938 77.929688"/><g clip-path="url(#b)"><path fill="#2B2C2D" d="M 73.441406 51.015625 C 73.855469 51.015625 74.191406 51.351562 74.191406 51.765625 C 74.191406 52.175781 73.855469 52.511719 73.441406 52.511719 C 73.03125 52.511719 72.695312 52.175781 72.695312 51.765625 C 72.695312 51.351562 73.03125 51.015625 73.441406 51.015625 Z M 74.191406 40.644531 L 77.183594 41.535156 L 74.191406 43.570312 Z M 68.210938 49.886719 C 65.558594 48.460938 59.957031 48.027344 56.25 48.027344 C 52.542969 48.027344 46.941406 48.460938 44.289062 49.886719 L 44.289062 48.03125 C 44.433594 47.269531 48.78125 45.785156 56.25 45.785156 C 63.71875 45.785156 68.066406 47.269531 68.210938 48.027344 Z M 60.871094 53.796875 C 59.988281 52.144531 58.246094 51.015625 56.25 51.015625 C 54.253906 51.015625 52.511719 52.144531 51.628906 53.796875 C 46.25 53.296875 44.359375 52.140625 44.289062 51.769531 C 44.429688 51.003906 48.777344 49.523438 56.25 49.523438 C 63.722656 49.523438 68.070312 51.003906 68.210938 51.761719 C 68.140625 52.140625 66.25 53.296875 60.871094 53.796875 Z M 56.996094 56.25 C 56.996094 56.660156 56.660156 56.996094 56.25 56.996094 C 55.839844 56.996094 55.503906 56.660156 55.503906 56.25 C 55.503906 55.839844 55.839844 55.503906 56.25 55.503906 C 56.660156 55.503906 56.996094 55.839844 56.996094 56.25 Z M 56.25 54.007812 C 55.011719 54.007812 54.007812 55.011719 54.007812 56.25 C 54.007812 56.511719 54.0625 56.761719 54.144531 56.996094 L 52.597656 56.996094 C 52.546875 56.753906 52.511719 56.503906 52.511719 56.25 C 52.511719 54.1875 54.1875 52.511719 56.25 52.511719 C 58.3125 52.511719 59.988281 54.1875 59.988281 56.25 C 59.988281 56.503906 59.953125 56.753906 59.902344 56.996094 L 58.355469 56.996094 C 58.4375 56.761719 58.492188 56.511719 58.492188 56.25 C 58.492188 55.011719 57.488281 54.007812 56.25 54.007812 Z M 65.578125 58.492188 C 66.660156 58.492188 67.589844 59.261719 67.785156 60.328125 L 70.414062 74.527344 C 70.535156 75.1875 70.363281 75.859375 69.933594 76.371094 C 69.507812 76.886719 68.878906 77.179688 68.210938 77.179688 L 44.289062 77.179688 C 43.621094 77.179688 42.992188 76.886719 42.566406 76.371094 C 42.136719 75.859375 41.964844 75.1875 42.085938 74.527344 L 44.714844 60.328125 C 44.910156 59.261719 45.839844 58.492188 46.921875 58.492188 Z M 34.480469 42.777344 L 40.132812 46.617188 C 40.472656 46.851562 40.9375 46.761719 41.171875 46.417969 C 41.402344 46.078125 41.3125 45.613281 40.972656 45.378906 L 35.320312 41.535156 L 56.035156 35.351562 C 56.175781 35.308594 56.320312 35.308594 56.460938 35.347656 L 72.695312 40.195312 L 72.695312 44.585938 L 69.25 46.925781 C 67.429688 44.875 60.558594 44.289062 56.25 44.289062 C 51.253906 44.289062 42.792969 45.078125 42.792969 48.027344 L 42.792969 51.765625 C 42.792969 54.066406 48.050781 54.9375 51.117188 55.25 C 51.050781 55.574219 51.015625 55.910156 51.015625 56.25 C 51.015625 56.503906 51.046875 56.753906 51.082031 56.996094 L 46.921875 56.996094 C 45.117188 56.996094 43.574219 58.28125 43.246094 60.054688 L 40.617188 74.257812 C 40.414062 75.351562 40.703125 76.46875 41.417969 77.328125 C 42.128906 78.183594 43.175781 78.675781 44.289062 78.675781 L 68.210938 78.675781 C 69.324219 78.675781 70.371094 78.183594 71.082031 77.328125 C 71.796875 76.46875 72.085938 75.351562 71.882812 74.257812 L 69.253906 60.054688 C 68.925781 58.28125 67.382812 56.996094 65.578125 56.996094 L 61.417969 56.996094 C 61.453125 56.753906 61.484375 56.503906 61.484375 56.25 C 61.484375 55.910156 61.449219 55.574219 61.382812 55.25 C 64.449219 54.9375 69.707031 54.066406 69.707031 51.765625 L 69.707031 48.425781 L 72.695312 46.390625 L 72.695312 49.660156 C 71.828125 49.96875 71.199219 50.792969 71.199219 51.765625 C 71.199219 53.003906 72.203125 54.007812 73.441406 54.007812 C 74.679688 54.007812 75.683594 53.003906 75.683594 51.765625 C 75.683594 50.792969 75.058594 49.96875 74.191406 49.660156 L 74.191406 45.378906 L 78.027344 42.773438 C 78.507812 42.441406 78.75 41.882812 78.65625 41.304688 C 78.566406 40.730469 78.164062 40.269531 77.609375 40.101562 L 56.886719 33.917969 C 56.46875 33.792969 56.027344 33.792969 55.609375 33.917969 L 34.894531 40.101562 C 34.335938 40.269531 33.933594 40.726562 33.84375 41.304688 C 33.75 41.882812 33.992188 42.445312 34.480469 42.777344"/></g><path fill="#2B2C2D" d="M 54.007812 64.472656 C 54.007812 63.5 54.636719 62.675781 55.503906 62.367188 L 55.503906 66.578125 C 54.636719 66.269531 54.007812 65.445312 54.007812 64.472656 Z M 56.996094 68.347656 C 57.863281 68.65625 58.492188 69.480469 58.492188 70.453125 C 58.492188 71.425781 57.863281 72.25 56.996094 72.558594 Z M 54.007812 70.453125 C 54.007812 70.039062 53.671875 69.707031 53.261719 69.707031 C 52.847656 69.707031 52.511719 70.039062 52.511719 70.453125 C 52.511719 72.257812 53.796875 73.765625 55.503906 74.113281 L 55.503906 74.191406 C 55.503906 74.601562 55.839844 74.9375 56.25 74.9375 C 56.660156 74.9375 56.996094 74.601562 56.996094 74.191406 L 56.996094 74.113281 C 58.703125 73.765625 59.988281 72.257812 59.988281 70.453125 C 59.988281 68.648438 58.703125 67.136719 56.996094 66.792969 L 56.996094 62.367188 C 57.863281 62.675781 58.492188 63.5 58.492188 64.472656 C 58.492188 64.882812 58.828125 65.21875 59.238281 65.21875 C 59.652344 65.21875 59.988281 64.882812 59.988281 64.472656 C 59.988281 62.667969 58.703125 61.160156 56.996094 60.8125 L 56.996094 60.734375 C 56.996094 60.324219 56.660156 59.988281 56.25 59.988281 C 55.839844 59.988281 55.503906 60.324219 55.503906 60.734375 L 55.503906 60.8125 C 53.796875 61.160156 52.511719 62.667969 52.511719 64.472656 C 52.511719 66.277344 53.796875 67.785156 55.503906 68.132812 L 55.503906 72.558594 C 54.636719 72.25 54.007812 71.425781 54.007812 70.453125"/></svg>