<svg xmlns="http://www.w3.org/2000/svg" width="112.5" viewBox="0 0 112.5 112.5" height="112.5" version="1.0"><defs><clipPath id="a"><path d="M 0 0 L 112.003906 0 L 112.003906 112.003906 L 0 112.003906 Z M 0 0"/></clipPath><clipPath id="b"><path d="M 30.308594 35.304688 L 82.035156 35.304688 L 82.035156 77.304688 L 30.308594 77.304688 Z M 30.308594 35.304688"/></clipPath></defs><g clip-path="url(#a)" fill="#FFF"><path d="M 0 0 L 112.5 0 L 112.5 112.5 L 0 112.5 Z M 0 0"/><path d="M 0 0 L 112.5 0 L 112.5 112.5 L 0 112.5 Z M 0 0"/></g><path fill="#51ADE5" d="M 56.210938 103.722656 C 43.527344 103.722656 31.582031 98.785156 22.621094 89.804688 C 13.636719 80.839844 8.703125 68.898438 8.703125 56.210938 C 8.703125 43.527344 13.636719 31.582031 22.621094 22.621094 C 31.582031 13.636719 43.527344 8.699219 56.210938 8.699219 C 68.898438 8.699219 80.839844 13.636719 89.804688 22.621094 C 98.785156 31.601562 103.722656 43.527344 103.722656 56.210938 C 103.722656 68.898438 98.785156 80.839844 89.804688 89.804688 C 80.839844 98.785156 68.898438 103.722656 56.210938 103.722656 Z M 56.210938 11.550781 C 44.285156 11.550781 33.0625 16.203125 24.632812 24.632812 C 16.203125 33.0625 11.550781 44.285156 11.550781 56.210938 C 11.550781 68.136719 16.203125 79.359375 24.632812 87.789062 C 33.0625 96.222656 44.285156 100.875 56.210938 100.875 C 68.136719 100.875 79.359375 96.222656 87.789062 87.789062 C 96.222656 79.359375 100.875 68.136719 100.875 56.210938 C 100.875 44.285156 96.222656 33.0625 87.789062 24.632812 C 79.359375 16.203125 68.136719 11.550781 56.210938 11.550781 Z M 56.210938 11.550781"/><path fill="#F6D23A" d="M 66.457031 69.539062 C 66.460938 69.570312 66.464844 69.601562 66.464844 69.636719 L 66.457031 70.449219 L 71.320312 70.503906 C 71.324219 70.503906 71.324219 70.503906 71.324219 70.503906 L 71.472656 70.503906 L 71.492188 69.285156 L 66.167969 69.1875 C 66.316406 69.246094 66.425781 69.378906 66.457031 69.539062"/><path fill="#F6D23A" d="M 64.777344 69.605469 C 64.777344 69.605469 64.777344 69.605469 64.777344 69.609375 L 64.769531 70.433594 L 65.515625 70.441406 L 65.523438 69.621094 C 65.527344 69.414062 65.652344 69.246094 65.835938 69.179688 L 64.46875 69.15625 C 64.648438 69.222656 64.78125 69.398438 64.777344 69.605469"/><path fill="#F6D23A" d="M 56.902344 70.347656 L 63.828125 70.421875 L 63.839844 69.59375 C 63.839844 69.386719 63.972656 69.210938 64.15625 69.148438 L 56.902344 69.015625 L 56.902344 70.347656"/><path fill="#469DDC" d="M 79.050781 64.375 C 79.046875 64.375 79.042969 64.375 79.039062 64.375 C 78.679688 64.375 78.378906 64.640625 78.324219 64.992188 L 79.757812 64.980469 C 79.695312 64.640625 79.40625 64.382812 79.050781 64.375"/><path fill="#469DDC" d="M 69.074219 54.769531 L 68.242188 57.320312 L 78.710938 55.992188 L 78.726562 54.871094 C 78.730469 54.613281 78.941406 54.40625 79.199219 54.40625 C 79.199219 54.40625 79.203125 54.40625 79.207031 54.40625 C 79.464844 54.410156 79.671875 54.625 79.667969 54.886719 C 79.667969 54.890625 79.667969 54.890625 79.667969 54.890625 L 79.652344 55.875 L 80.734375 55.738281 C 80.972656 55.707031 81.054688 55.515625 81.074219 55.457031 C 81.082031 55.429688 81.097656 55.363281 81.089844 55.285156 C 81.082031 55.207031 81.050781 55.117188 80.964844 55.035156 L 61.628906 36.835938 C 61.621094 36.839844 61.617188 36.839844 61.609375 36.839844 L 32.210938 38.339844 L 40.777344 47.054688 L 41.238281 45.636719 C 41.621094 44.464844 42.738281 43.683594 43.960938 43.746094 C 48.335938 43.964844 52.679688 44.789062 56.871094 46.203125 C 60.808594 47.527344 64.546875 49.347656 67.984375 51.617188 C 68.691406 52.078125 69.121094 52.839844 69.199219 53.648438 C 69.230469 54.019531 69.191406 54.398438 69.074219 54.769531"/><path fill="#469DDC" d="M 56.648438 49.273438 C 56.644531 49.210938 56.652344 49.148438 56.671875 49.085938 C 56.753906 48.835938 57.019531 48.703125 57.269531 48.785156 C 60.445312 49.855469 63.464844 51.328125 66.238281 53.15625 C 66.375 53.246094 66.449219 53.394531 66.453125 53.546875 C 66.453125 53.636719 66.429688 53.730469 66.375 53.816406 C 66.285156 53.953125 66.136719 54.027344 65.980469 54.027344 C 65.894531 54.027344 65.804688 54.003906 65.726562 53.949219 C 63.015625 52.164062 60.070312 50.730469 56.96875 49.6875 C 56.785156 49.625 56.664062 49.457031 56.648438 49.273438 Z M 65.175781 63.683594 L 68.179688 54.46875 C 68.230469 54.316406 68.25 54.160156 68.261719 54.007812 C 68.222656 53.972656 67.363281 53.179688 66.089844 52.371094 C 65.332031 51.886719 61.21875 49.382812 54.722656 47.421875 C 50.109375 46.027344 45.347656 45.457031 44.441406 45.359375 C 43.898438 45.296875 43.214844 45.414062 42.714844 46.84375 L 39.808594 55.179688 C 40.460938 55.207031 41.109375 55.25 41.757812 55.300781 C 41.8125 55.296875 41.867188 55.300781 41.921875 55.316406 C 45.222656 55.597656 48.492188 56.222656 51.6875 57.1875 C 51.730469 57.195312 51.769531 57.207031 51.804688 57.226562 C 51.980469 57.28125 52.15625 57.335938 52.335938 57.394531 C 52.429688 57.421875 52.523438 57.453125 52.617188 57.480469 C 52.789062 57.539062 52.964844 57.589844 53.140625 57.648438 C 53.335938 57.714844 53.53125 57.789062 53.726562 57.855469 C 53.875 57.910156 54.023438 57.960938 54.171875 58.015625 C 54.417969 58.105469 54.660156 58.191406 54.902344 58.28125 C 54.925781 58.289062 54.949219 58.296875 54.96875 58.308594 C 56.738281 58.984375 58.457031 59.761719 60.121094 60.636719 C 60.191406 60.671875 60.261719 60.707031 60.328125 60.742188 C 60.683594 60.933594 61.039062 61.125 61.386719 61.320312 C 61.488281 61.375 61.585938 61.433594 61.683594 61.488281 C 62.019531 61.679688 62.351562 61.875 62.683594 62.074219 C 62.78125 62.132812 62.878906 62.195312 62.980469 62.257812 C 63.3125 62.460938 63.648438 62.667969 63.976562 62.882812 C 63.980469 62.882812 63.980469 62.886719 63.984375 62.886719 C 64.382812 63.148438 64.78125 63.410156 65.175781 63.683594"/><path fill="#FFF" d="M 54.992188 74.21875 L 52.472656 74.191406 L 52.441406 76.105469 L 67.664062 76.351562 L 67.695312 74.367188 L 55.101562 74.234375 C 55.066406 74.234375 55.027344 74.230469 54.992188 74.21875"/><path fill="#FFF" d="M 32.863281 72.941406 L 33.398438 72.949219 L 33.410156 72.140625 C 33.414062 71.878906 33.621094 71.660156 33.886719 71.675781 C 34.117188 71.679688 34.304688 71.84375 34.34375 72.0625 C 34.347656 72.09375 34.351562 72.125 34.351562 72.160156 L 34.339844 72.964844 L 35.085938 72.976562 L 35.097656 72.167969 C 35.101562 71.90625 35.300781 71.691406 35.574219 71.703125 C 35.804688 71.707031 35.992188 71.871094 36.03125 72.089844 C 36.035156 72.121094 36.039062 72.152344 36.039062 72.1875 L 36.023438 72.992188 L 48.132812 73.175781 L 48.125 71.167969 L 32.894531 70.925781 L 32.863281 72.941406"/><path fill="#F6D23A" d="M 36.507812 75.851562 L 51.5 76.089844 L 51.519531 74.863281 L 47.863281 74.8125 L 47.863281 74.875 C 47.855469 75.132812 47.648438 75.339844 47.390625 75.339844 C 47.390625 75.339844 47.386719 75.339844 47.382812 75.339844 C 47.15625 75.335938 46.96875 75.167969 46.929688 74.949219 C 46.921875 74.917969 46.921875 74.886719 46.921875 74.855469 L 46.921875 74.796875 L 46.175781 74.789062 L 46.175781 74.847656 C 46.171875 75.105469 45.960938 75.3125 45.707031 75.3125 C 45.703125 75.3125 45.699219 75.3125 45.699219 75.3125 C 45.46875 75.308594 45.28125 75.140625 45.242188 74.921875 C 45.238281 74.890625 45.234375 74.859375 45.234375 74.828125 L 45.234375 74.773438 L 36.507812 74.648438 L 36.507812 75.851562"/><path fill="#F6D23A" d="M 52.84375 58.550781 C 52.761719 58.523438 52.679688 58.496094 52.597656 58.46875 C 52.746094 58.816406 52.859375 59.164062 52.941406 59.5 C 52.949219 59.523438 52.953125 59.542969 52.957031 59.5625 C 52.996094 59.730469 53.03125 59.894531 53.054688 60.054688 C 53.0625 60.105469 53.074219 60.152344 53.078125 60.203125 C 53.089844 60.257812 53.09375 60.3125 53.101562 60.371094 C 53.109375 60.453125 53.117188 60.535156 53.125 60.617188 C 53.125 60.65625 53.128906 60.695312 53.132812 60.730469 C 53.136719 60.851562 53.140625 60.972656 53.140625 61.082031 C 53.117188 62.464844 52.703125 63.796875 51.941406 64.9375 C 51.851562 65.070312 51.703125 65.144531 51.550781 65.144531 C 51.460938 65.144531 51.371094 65.121094 51.289062 65.066406 C 51.15625 64.972656 51.082031 64.824219 51.082031 64.671875 C 51.082031 64.582031 51.105469 64.488281 51.160156 64.40625 C 51.820312 63.414062 52.179688 62.261719 52.199219 61.0625 C 52.199219 60.960938 52.199219 60.851562 52.191406 60.738281 C 52.1875 60.664062 52.179688 60.582031 52.167969 60.503906 C 52.167969 60.46875 52.164062 60.433594 52.160156 60.398438 C 52.066406 59.675781 51.8125 58.820312 51.316406 58.066406 C 49.765625 57.601562 48.199219 57.214844 46.621094 56.914062 C 46.652344 56.953125 46.679688 57 46.695312 57.050781 C 46.710938 57.101562 46.722656 57.152344 46.722656 57.207031 L 46.722656 57.210938 L 46.714844 57.683594 L 47.226562 57.691406 C 47.453125 57.695312 47.640625 57.863281 47.679688 58.078125 C 47.6875 58.109375 47.691406 58.144531 47.691406 58.175781 C 47.6875 58.4375 47.46875 58.648438 47.210938 58.640625 L 46.105469 58.625 C 45.84375 58.621094 45.597656 58.71875 45.410156 58.902344 C 45.316406 58.992188 45.242188 59.097656 45.191406 59.214844 C 45.191406 59.222656 45.1875 59.226562 45.1875 59.234375 C 45.164062 59.285156 45.144531 59.339844 45.132812 59.398438 C 45.132812 59.398438 45.132812 59.402344 45.132812 59.402344 C 45.121094 59.464844 45.113281 59.527344 45.113281 59.589844 C 45.109375 59.65625 45.117188 59.722656 45.128906 59.785156 C 45.136719 59.824219 45.148438 59.859375 45.160156 59.898438 C 45.167969 59.921875 45.171875 59.945312 45.179688 59.96875 C 45.226562 60.085938 45.296875 60.191406 45.386719 60.285156 C 45.570312 60.476562 45.8125 60.582031 46.074219 60.585938 L 46.320312 60.589844 C 47.050781 60.601562 47.683594 61.027344 47.996094 61.640625 C 48.003906 61.652344 48.007812 61.667969 48.015625 61.683594 C 48.035156 61.722656 48.054688 61.765625 48.070312 61.808594 C 48.082031 61.832031 48.089844 61.855469 48.097656 61.878906 C 48.109375 61.914062 48.121094 61.949219 48.132812 61.984375 C 48.140625 62.011719 48.148438 62.042969 48.152344 62.074219 C 48.160156 62.105469 48.167969 62.136719 48.175781 62.167969 C 48.183594 62.203125 48.1875 62.242188 48.191406 62.277344 C 48.195312 62.304688 48.199219 62.332031 48.199219 62.355469 C 48.207031 62.421875 48.210938 62.488281 48.207031 62.554688 C 48.199219 63.097656 47.992188 63.578125 47.625 63.9375 C 47.59375 63.964844 47.558594 63.988281 47.527344 64.015625 C 47.507812 64.035156 47.484375 64.054688 47.464844 64.070312 C 47.421875 64.101562 47.382812 64.132812 47.34375 64.160156 C 47.320312 64.175781 47.292969 64.1875 47.269531 64.203125 C 47.203125 64.242188 47.132812 64.277344 47.0625 64.3125 C 47.03125 64.324219 46.996094 64.339844 46.964844 64.351562 C 46.925781 64.367188 46.882812 64.382812 46.84375 64.394531 C 46.78125 64.414062 46.714844 64.429688 46.652344 64.441406 C 46.636719 64.445312 46.621094 64.449219 46.605469 64.453125 L 46.589844 65.496094 C 46.585938 65.753906 46.375 65.960938 46.121094 65.960938 C 46.117188 65.960938 46.113281 65.960938 46.113281 65.960938 C 45.851562 65.957031 45.644531 65.742188 45.648438 65.480469 C 45.648438 65.476562 45.648438 65.476562 45.648438 65.476562 L 45.664062 64.46875 L 45.003906 64.457031 C 44.777344 64.457031 44.589844 64.289062 44.550781 64.070312 C 44.542969 64.039062 44.542969 64.007812 44.542969 63.972656 C 44.546875 63.714844 44.75 63.503906 45.019531 63.507812 L 46.273438 63.527344 C 46.53125 63.53125 46.78125 63.433594 46.96875 63.253906 C 47.15625 63.070312 47.261719 62.824219 47.265625 62.5625 C 47.273438 62.277344 47.164062 62.019531 46.988281 61.835938 C 46.808594 61.648438 46.566406 61.542969 46.304688 61.539062 L 46.058594 61.535156 C 45.328125 61.523438 44.699219 61.101562 44.382812 60.488281 C 44.375 60.46875 44.367188 60.445312 44.355469 60.425781 C 44.339844 60.390625 44.324219 60.355469 44.308594 60.320312 C 44.296875 60.289062 44.285156 60.257812 44.277344 60.226562 C 44.265625 60.199219 44.257812 60.171875 44.246094 60.144531 C 44.238281 60.105469 44.230469 60.066406 44.21875 60.03125 C 44.214844 60.007812 44.207031 59.984375 44.203125 59.960938 C 44.195312 59.910156 44.1875 59.863281 44.183594 59.8125 C 44.183594 59.796875 44.179688 59.785156 44.179688 59.769531 C 44.171875 59.707031 44.171875 59.640625 44.171875 59.570312 C 44.175781 59.394531 44.203125 59.222656 44.253906 59.058594 C 44.257812 59.042969 44.261719 59.027344 44.265625 59.011719 C 44.277344 58.976562 44.289062 58.945312 44.300781 58.910156 C 44.3125 58.882812 44.320312 58.859375 44.332031 58.832031 C 44.34375 58.808594 44.355469 58.78125 44.367188 58.757812 C 44.382812 58.726562 44.398438 58.691406 44.417969 58.660156 C 44.429688 58.640625 44.441406 58.621094 44.457031 58.601562 C 44.476562 58.566406 44.496094 58.535156 44.515625 58.503906 C 44.535156 58.476562 44.558594 58.449219 44.578125 58.421875 C 44.59375 58.402344 44.609375 58.378906 44.628906 58.359375 C 44.726562 58.238281 44.84375 58.132812 44.96875 58.042969 C 44.976562 58.039062 44.984375 58.03125 44.992188 58.027344 C 45.222656 57.863281 45.488281 57.75 45.773438 57.699219 L 45.78125 57.191406 C 45.785156 57.027344 45.863281 56.882812 45.992188 56.800781 C 44.988281 56.621094 43.976562 56.476562 42.960938 56.363281 C 42.933594 56.425781 42.890625 56.476562 42.835938 56.523438 C 42.128906 57.066406 41.550781 57.773438 41.164062 58.570312 C 40.691406 59.535156 40.582031 60.425781 40.570312 61 C 40.546875 62.449219 41.082031 63.503906 41.3125 63.890625 C 41.847656 64.78125 42.507812 65.269531 42.863281 65.53125 C 44.460938 66.710938 46.261719 66.960938 47.53125 66.960938 C 48.371094 66.75 49.167969 66.363281 49.855469 65.820312 C 50.058594 65.660156 50.355469 65.695312 50.515625 65.898438 C 50.578125 65.976562 50.609375 66.066406 50.617188 66.15625 C 50.628906 66.308594 50.566406 66.464844 50.4375 66.566406 C 49.195312 67.554688 47.640625 68.09375 46.058594 68.09375 C 46.019531 68.09375 45.980469 68.09375 45.945312 68.089844 C 43.808594 68.058594 41.820312 67.070312 40.496094 65.378906 C 40.433594 65.300781 40.402344 65.210938 40.394531 65.117188 C 40.382812 64.96875 40.445312 64.8125 40.574219 64.710938 C 40.609375 64.679688 40.652344 64.660156 40.691406 64.644531 C 40.632812 64.554688 40.574219 64.46875 40.515625 64.371094 C 40.40625 64.1875 40.234375 63.867188 40.074219 63.441406 C 40.03125 63.476562 39.984375 63.503906 39.933594 63.523438 C 39.882812 63.539062 39.832031 63.546875 39.78125 63.546875 C 39.585938 63.546875 39.402344 63.421875 39.335938 63.222656 C 39.210938 62.839844 39.117188 62.449219 39.054688 62.054688 C 38.996094 61.65625 38.96875 61.257812 38.976562 60.851562 C 38.976562 60.660156 38.992188 60.46875 39.011719 60.273438 C 39.015625 60.253906 39.015625 60.238281 39.019531 60.21875 C 39.042969 60.023438 39.074219 59.828125 39.113281 59.628906 C 39.113281 59.625 39.117188 59.617188 39.117188 59.613281 C 39.371094 58.378906 39.953125 57.15625 40.765625 56.175781 C 40.445312 56.15625 40.121094 56.148438 39.800781 56.132812 C 39.789062 56.167969 39.769531 56.203125 39.746094 56.234375 C 39.289062 56.851562 38.925781 57.527344 38.667969 58.246094 C 38.417969 58.9375 38.035156 60.371094 38.296875 62.160156 C 38.371094 62.683594 38.605469 64.285156 39.769531 65.8125 C 40.652344 66.972656 41.316406 67.445312 43 68.375 C 43.726562 68.773438 44.570312 69.15625 45.5625 69.535156 C 45.679688 69.542969 45.800781 69.550781 45.921875 69.550781 C 48.191406 69.589844 50.359375 68.730469 52 67.132812 C 52.039062 67.09375 52.074219 67.054688 52.113281 67.015625 C 52.214844 66.914062 52.316406 66.804688 52.410156 66.699219 C 52.464844 66.640625 52.519531 66.582031 52.570312 66.519531 C 52.6875 66.378906 52.804688 66.234375 52.914062 66.082031 C 52.957031 66.027344 53 65.96875 53.039062 65.910156 C 53.148438 65.753906 53.253906 65.589844 53.355469 65.425781 C 53.386719 65.378906 53.414062 65.328125 53.445312 65.277344 C 53.546875 65.101562 53.644531 64.921875 53.730469 64.738281 C 53.738281 64.730469 53.742188 64.71875 53.746094 64.710938 C 53.753906 64.6875 53.765625 64.664062 53.773438 64.644531 C 53.792969 64.605469 53.808594 64.570312 53.828125 64.53125 C 53.859375 64.457031 53.894531 64.386719 53.921875 64.3125 C 53.949219 64.253906 53.972656 64.191406 53.996094 64.128906 C 54.027344 64.054688 54.054688 63.980469 54.082031 63.90625 C 54.105469 63.839844 54.128906 63.777344 54.148438 63.710938 C 54.171875 63.640625 54.199219 63.566406 54.21875 63.492188 C 54.242188 63.425781 54.261719 63.355469 54.28125 63.289062 C 54.300781 63.21875 54.316406 63.144531 54.335938 63.074219 C 54.351562 63 54.371094 62.929688 54.386719 62.855469 C 54.402344 62.789062 54.417969 62.71875 54.429688 62.652344 C 54.445312 62.574219 54.460938 62.5 54.472656 62.421875 C 54.484375 62.355469 54.492188 62.292969 54.503906 62.226562 C 54.515625 62.144531 54.527344 62.0625 54.535156 61.980469 C 54.542969 61.917969 54.546875 61.859375 54.554688 61.796875 C 54.5625 61.710938 54.570312 61.625 54.578125 61.539062 C 54.582031 61.480469 54.582031 61.417969 54.585938 61.355469 C 54.589844 61.273438 54.59375 61.1875 54.59375 61.101562 C 54.597656 60.976562 54.597656 60.855469 54.597656 60.738281 C 54.597656 60.734375 54.597656 60.726562 54.59375 60.71875 C 54.59375 60.617188 54.589844 60.515625 54.589844 60.421875 C 54.585938 60.394531 54.585938 60.371094 54.585938 60.34375 C 54.582031 60.269531 54.578125 60.199219 54.570312 60.128906 C 54.570312 60.09375 54.566406 60.0625 54.5625 60.027344 C 54.558594 59.96875 54.554688 59.914062 54.546875 59.859375 C 54.542969 59.824219 54.539062 59.785156 54.535156 59.75 C 54.527344 59.703125 54.523438 59.660156 54.515625 59.617188 C 54.507812 59.578125 54.503906 59.539062 54.496094 59.503906 C 54.492188 59.46875 54.484375 59.4375 54.476562 59.40625 C 54.46875 59.363281 54.460938 59.324219 54.453125 59.285156 C 54.449219 59.28125 54.449219 59.277344 54.449219 59.273438 C 54.433594 59.214844 54.417969 59.160156 54.402344 59.105469 C 53.886719 58.914062 53.367188 58.726562 52.84375 58.550781"/><path fill="#FFF" d="M 59.121094 65.886719 C 59.113281 66.148438 58.90625 66.351562 58.648438 66.351562 C 58.648438 66.351562 58.644531 66.351562 58.640625 66.351562 C 58.382812 66.347656 58.175781 66.132812 58.179688 65.875 L 58.179688 65.871094 C 58.179688 65.871094 58.179688 65.871094 58.179688 65.867188 L 58.1875 65.421875 L 54.46875 65.359375 C 54.195312 65.894531 53.867188 66.402344 53.488281 66.878906 L 53.488281 67.328125 L 55.804688 67.367188 C 55.8125 67.367188 55.820312 67.367188 55.828125 67.367188 L 60.789062 67.453125 L 60.804688 66.628906 C 60.808594 66.367188 61.015625 66.164062 61.273438 66.164062 C 61.277344 66.164062 61.277344 66.164062 61.28125 66.164062 C 61.507812 66.164062 61.695312 66.332031 61.734375 66.550781 C 61.742188 66.582031 61.746094 66.613281 61.746094 66.648438 L 61.730469 67.46875 L 62.488281 67.480469 L 62.488281 66.660156 C 62.488281 66.402344 62.699219 66.1875 62.960938 66.1875 C 63.1875 66.1875 63.378906 66.355469 63.421875 66.570312 C 63.425781 66.601562 63.429688 66.632812 63.429688 66.667969 L 63.429688 67.5 L 68.714844 67.589844 L 68.75 65.589844 L 59.125 65.4375 L 59.121094 65.886719"/><path fill="#F6D23A" d="M 60.054688 72.472656 C 60.050781 72.472656 60.050781 72.472656 60.046875 72.472656 C 59.824219 72.46875 59.640625 72.308594 59.59375 72.097656 L 58.824219 72.09375 C 58.769531 72.296875 58.585938 72.445312 58.367188 72.445312 C 58.367188 72.445312 58.363281 72.445312 58.359375 72.445312 C 58.140625 72.441406 57.960938 72.289062 57.914062 72.085938 L 56.238281 72.074219 L 56.238281 73.285156 L 68.175781 73.421875 L 70.808594 73.449219 L 70.828125 72.179688 L 60.511719 72.105469 C 60.464844 72.316406 60.277344 72.472656 60.054688 72.472656"/><path fill="#FFF" d="M 79.53125 63.515625 L 79.636719 56.832031 L 79.53125 63.511719 C 79.53125 63.511719 79.53125 63.515625 79.53125 63.515625"/><path fill="#FFF" d="M 61.609375 36.839844 C 61.617188 36.839844 61.621094 36.839844 61.628906 36.835938 C 61.628906 36.835938 61.628906 36.835938 61.632812 36.835938 L 61.125 36.359375 C 61.042969 36.285156 60.933594 36.246094 60.824219 36.25 L 31.636719 37.742188 C 31.394531 37.757812 31.300781 37.945312 31.277344 38.003906 C 31.257812 38.0625 31.195312 38.265625 31.367188 38.441406 L 40.535156 47.800781 L 40.777344 47.054688 L 32.210938 38.339844 L 61.609375 36.839844"/><path fill="#FFF" d="M 44.441406 45.359375 C 45.347656 45.457031 50.109375 46.027344 54.722656 47.421875 C 61.21875 49.382812 65.332031 51.886719 66.089844 52.371094 C 67.363281 53.179688 68.222656 53.972656 68.261719 54.007812 C 68.296875 53.378906 68.007812 52.761719 67.46875 52.40625 C 64.097656 50.183594 60.433594 48.398438 56.574219 47.097656 C 52.460938 45.714844 48.203125 44.90625 43.914062 44.691406 C 43.117188 44.652344 42.382812 45.160156 42.132812 45.933594 L 39.128906 55.152344 C 39.355469 55.15625 39.582031 55.171875 39.808594 55.179688 L 42.714844 46.84375 C 43.214844 45.414062 43.898438 45.296875 44.441406 45.359375"/><path fill="#FFF" d="M 39.769531 65.8125 C 38.605469 64.285156 38.371094 62.683594 38.296875 62.160156 C 38.035156 60.371094 38.417969 58.9375 38.667969 58.246094 C 38.925781 57.527344 39.289062 56.851562 39.746094 56.238281 C 39.769531 56.203125 39.789062 56.167969 39.800781 56.132812 C 39.804688 56.128906 39.804688 56.125 39.804688 56.121094 C 39.558594 56.113281 39.3125 56.101562 39.0625 56.097656 C 38.09375 57.542969 37.546875 59.210938 37.519531 60.828125 C 37.484375 63.121094 38.335938 65.292969 39.925781 66.941406 C 41.425781 68.5 43.417969 69.414062 45.5625 69.535156 C 44.570312 69.15625 43.726562 68.773438 43 68.375 C 41.316406 67.445312 40.652344 66.972656 39.769531 65.8125"/><path fill="#FFF" d="M 40.515625 64.371094 C 40.574219 64.46875 40.632812 64.554688 40.691406 64.644531 C 40.878906 64.570312 41.101562 64.621094 41.234375 64.789062 C 42.382812 66.253906 44.105469 67.113281 45.960938 67.140625 C 46.488281 67.148438 47.019531 67.085938 47.53125 66.960938 C 46.261719 66.960938 44.460938 66.710938 42.863281 65.53125 C 42.507812 65.269531 41.847656 64.78125 41.3125 63.890625 C 41.082031 63.503906 40.546875 62.449219 40.570312 61 C 40.582031 60.425781 40.691406 59.535156 41.164062 58.570312 C 41.550781 57.773438 42.128906 57.066406 42.835938 56.523438 C 42.890625 56.476562 42.933594 56.425781 42.960938 56.363281 C 42.964844 56.363281 42.964844 56.359375 42.964844 56.359375 C 42.632812 56.324219 42.300781 56.289062 41.96875 56.261719 C 40.742188 57.4375 39.941406 59.222656 39.914062 60.867188 C 39.902344 61.570312 40.007812 62.257812 40.226562 62.917969 C 40.292969 63.113281 40.222656 63.320312 40.070312 63.441406 C 40.074219 63.441406 40.074219 63.441406 40.074219 63.441406 C 40.234375 63.867188 40.40625 64.1875 40.515625 64.371094"/><path fill="#FFF" d="M 56.25 70.34375 L 56.902344 70.347656 L 56.902344 69.015625 L 64.15625 69.148438 C 64.207031 69.132812 64.257812 69.125 64.3125 69.125 C 64.367188 69.125 64.417969 69.136719 64.46875 69.15625 L 65.835938 69.179688 C 65.886719 69.164062 65.941406 69.152344 66 69.152344 C 66.058594 69.152344 66.113281 69.164062 66.167969 69.1875 L 71.492188 69.285156 L 71.503906 68.585938 L 69.015625 68.542969 L 56.28125 68.324219 L 56.25 70.34375"/><path fill="#FFF" d="M 60.535156 71.335938 L 60.523438 72.003906 C 60.523438 72.039062 60.519531 72.074219 60.511719 72.105469 L 70.828125 72.179688 L 70.839844 71.445312 L 67.023438 71.402344 L 60.535156 71.335938"/><path fill="#FFF" d="M 59.59375 72.097656 C 59.589844 72.0625 59.582031 72.027344 59.582031 71.988281 L 59.59375 71.324219 L 58.847656 71.316406 L 58.839844 71.976562 C 58.835938 72.015625 58.832031 72.054688 58.820312 72.09375 L 58.824219 72.09375 L 59.59375 72.097656"/><path fill="#FFF" d="M 57.914062 72.085938 C 57.90625 72.046875 57.898438 72.003906 57.898438 71.960938 L 57.910156 71.304688 L 55.617188 71.28125 L 55.585938 73.277344 L 56.238281 73.285156 L 56.238281 72.074219 L 57.914062 72.085938"/><path fill="#FFF" d="M 51.519531 74.863281 L 51.53125 74.175781 L 47.875 74.117188 L 47.863281 74.8125 L 51.519531 74.863281"/><path fill="#FFF" d="M 36.507812 75.851562 L 36.507812 74.648438 L 45.234375 74.773438 L 45.246094 74.078125 L 35.945312 73.933594 L 35.914062 75.839844 L 36.507812 75.851562"/><path fill="#FFF" d="M 46.921875 74.796875 L 46.933594 74.105469 L 46.1875 74.09375 L 46.175781 74.789062 L 46.921875 74.796875"/><path fill="#3E4445" d="M 41.234375 64.789062 C 41.101562 64.621094 40.878906 64.570312 40.691406 64.644531 C 40.652344 64.660156 40.609375 64.679688 40.574219 64.710938 C 40.445312 64.8125 40.382812 64.964844 40.394531 65.117188 C 40.402344 65.210938 40.433594 65.296875 40.496094 65.375 C 41.820312 67.0625 43.804688 68.054688 45.945312 68.085938 C 45.980469 68.089844 46.019531 68.089844 46.054688 68.089844 C 46.621094 68.089844 47.179688 68.015625 47.722656 67.882812 C 47.722656 67.882812 47.722656 67.882812 47.726562 67.882812 C 48.707031 67.644531 49.636719 67.199219 50.4375 66.5625 C 50.566406 66.460938 50.625 66.308594 50.617188 66.15625 C 50.609375 66.066406 50.578125 65.976562 50.515625 65.898438 C 50.355469 65.695312 50.058594 65.660156 49.855469 65.820312 C 49.167969 66.363281 48.371094 66.75 47.53125 66.960938 C 47.019531 67.085938 46.488281 67.148438 45.960938 67.140625 C 44.105469 67.113281 42.382812 66.253906 41.234375 64.789062"/><g clip-path="url(#b)"><path fill="#3E4445" d="M 69.074219 54.765625 C 69.191406 54.394531 69.230469 54.019531 69.195312 53.648438 C 69.121094 52.839844 68.691406 52.078125 67.984375 51.617188 C 64.546875 49.347656 60.808594 47.527344 56.871094 46.203125 C 52.679688 44.789062 48.335938 43.964844 43.960938 43.746094 C 42.738281 43.683594 41.621094 44.464844 41.238281 45.636719 L 40.777344 47.054688 L 40.535156 47.800781 L 31.367188 38.441406 C 31.195312 38.265625 31.257812 38.0625 31.277344 38.003906 C 31.300781 37.945312 31.394531 37.757812 31.636719 37.742188 L 60.824219 36.25 C 60.933594 36.246094 61.042969 36.285156 61.125 36.359375 L 61.632812 36.835938 L 80.964844 55.03125 C 81.050781 55.113281 81.082031 55.207031 81.089844 55.285156 C 81.097656 55.363281 81.082031 55.429688 81.070312 55.457031 C 81.054688 55.515625 80.972656 55.707031 80.734375 55.738281 L 79.652344 55.875 L 79.667969 54.886719 C 79.671875 54.625 79.464844 54.410156 79.207031 54.40625 C 79.203125 54.40625 79.199219 54.40625 79.199219 54.40625 C 78.941406 54.40625 78.730469 54.613281 78.726562 54.871094 L 78.710938 55.992188 L 68.242188 57.320312 L 68.238281 57.320312 Z M 54.894531 64.417969 C 55.296875 63.378906 55.515625 62.265625 55.535156 61.117188 C 55.542969 60.492188 55.515625 59.964844 55.449219 59.515625 C 58.757812 60.851562 61.890625 62.542969 64.796875 64.578125 Z M 68.75 65.589844 L 68.714844 67.589844 L 63.429688 67.5 L 63.429688 66.660156 C 63.429688 66.632812 63.425781 66.601562 63.421875 66.570312 C 63.378906 66.355469 63.1875 66.1875 62.960938 66.1875 C 62.699219 66.1875 62.488281 66.402344 62.488281 66.660156 L 62.488281 67.480469 L 61.730469 67.46875 L 61.742188 66.644531 C 61.742188 66.609375 61.742188 66.578125 61.734375 66.550781 C 61.695312 66.332031 61.507812 66.164062 61.28125 66.164062 C 61.277344 66.164062 61.277344 66.164062 61.273438 66.164062 C 61.015625 66.164062 60.808594 66.367188 60.804688 66.628906 L 60.789062 67.453125 L 55.828125 67.367188 C 55.820312 67.367188 55.8125 67.367188 55.804688 67.367188 L 53.488281 67.328125 L 53.488281 66.882812 C 53.488281 66.882812 53.488281 66.882812 53.488281 66.878906 C 53.867188 66.402344 54.195312 65.894531 54.46875 65.359375 C 54.472656 65.359375 54.472656 65.359375 54.472656 65.355469 L 58.1875 65.417969 L 58.1875 65.421875 L 58.179688 65.867188 C 58.179688 65.871094 58.179688 65.871094 58.179688 65.871094 C 58.175781 66.132812 58.382812 66.34375 58.640625 66.347656 C 58.644531 66.347656 58.644531 66.347656 58.648438 66.347656 C 58.90625 66.347656 59.113281 66.140625 59.117188 65.882812 L 59.125 65.429688 L 68.75 65.585938 Z M 67.695312 74.367188 L 67.660156 76.351562 L 52.441406 76.105469 L 52.46875 74.1875 L 54.992188 74.214844 C 55.027344 74.222656 55.0625 74.230469 55.101562 74.230469 L 67.695312 74.363281 Z M 32.894531 70.921875 L 48.125 71.164062 L 48.125 71.167969 L 48.132812 73.175781 L 36.023438 72.992188 L 36.039062 72.183594 C 36.039062 72.152344 36.035156 72.121094 36.03125 72.089844 C 35.992188 71.871094 35.804688 71.707031 35.574219 71.703125 C 35.300781 71.691406 35.101562 71.90625 35.097656 72.167969 L 35.085938 72.976562 L 34.339844 72.964844 L 34.351562 72.15625 C 34.351562 72.125 34.347656 72.09375 34.34375 72.0625 C 34.304688 71.84375 34.117188 71.679688 33.886719 71.675781 C 33.621094 71.660156 33.414062 71.878906 33.410156 72.140625 L 33.398438 72.949219 L 32.863281 72.941406 Z M 35.945312 73.933594 L 45.246094 74.078125 L 45.234375 74.773438 L 45.234375 74.828125 C 45.234375 74.859375 45.238281 74.890625 45.242188 74.921875 C 45.285156 75.140625 45.46875 75.304688 45.695312 75.308594 C 45.699219 75.308594 45.703125 75.308594 45.703125 75.308594 C 45.960938 75.308594 46.171875 75.101562 46.175781 74.84375 L 46.175781 74.789062 L 46.1875 74.09375 L 46.933594 74.105469 L 46.921875 74.796875 L 46.921875 74.855469 C 46.921875 74.886719 46.921875 74.917969 46.929688 74.949219 C 46.96875 75.167969 47.15625 75.332031 47.382812 75.335938 C 47.386719 75.335938 47.386719 75.335938 47.390625 75.335938 C 47.648438 75.335938 47.855469 75.128906 47.859375 74.871094 L 47.863281 74.8125 L 47.871094 74.117188 L 51.53125 74.175781 L 51.519531 74.863281 L 51.5 76.089844 L 36.507812 75.851562 L 35.914062 75.839844 Z M 55.34375 68.304688 L 55.308594 70.332031 L 55.15625 70.332031 C 54.886719 70.328125 54.6875 70.535156 54.683594 70.796875 L 54.644531 73.265625 L 52.011719 73.234375 L 49.074219 73.191406 L 49.0625 70.695312 C 49.0625 70.441406 48.855469 70.230469 48.601562 70.226562 L 48.335938 70.222656 C 49.90625 69.832031 51.355469 69.042969 52.558594 67.898438 C 52.605469 68.105469 52.789062 68.261719 53.011719 68.265625 Z M 71.503906 68.585938 L 71.492188 69.285156 L 71.472656 70.503906 L 71.324219 70.503906 C 71.324219 70.503906 71.324219 70.503906 71.320312 70.503906 L 66.457031 70.449219 L 66.453125 70.449219 L 66.464844 69.628906 C 66.464844 69.597656 66.460938 69.570312 66.457031 69.539062 C 66.425781 69.378906 66.316406 69.246094 66.167969 69.1875 C 66.113281 69.164062 66.058594 69.152344 66 69.152344 C 65.941406 69.152344 65.886719 69.164062 65.835938 69.179688 C 65.652344 69.246094 65.527344 69.414062 65.523438 69.621094 L 65.515625 70.441406 L 64.769531 70.433594 L 64.777344 69.605469 C 64.78125 69.398438 64.648438 69.222656 64.46875 69.15625 C 64.417969 69.136719 64.367188 69.125 64.3125 69.125 C 64.257812 69.125 64.207031 69.132812 64.15625 69.148438 C 63.972656 69.210938 63.839844 69.386719 63.839844 69.59375 L 63.828125 70.421875 L 56.902344 70.347656 L 56.25 70.34375 L 56.28125 68.324219 L 69.015625 68.542969 Z M 70.828125 72.179688 L 70.808594 73.449219 L 68.175781 73.421875 L 56.238281 73.285156 L 55.582031 73.277344 L 55.617188 71.28125 L 57.910156 71.304688 L 57.898438 71.960938 C 57.898438 72.003906 57.902344 72.046875 57.914062 72.085938 C 57.964844 72.289062 58.144531 72.4375 58.359375 72.441406 C 58.363281 72.441406 58.367188 72.441406 58.367188 72.441406 C 58.585938 72.441406 58.765625 72.292969 58.820312 72.09375 C 58.832031 72.054688 58.835938 72.015625 58.839844 71.976562 L 58.847656 71.316406 L 59.59375 71.324219 L 59.582031 71.988281 C 59.582031 72.027344 59.589844 72.0625 59.59375 72.097656 C 59.640625 72.308594 59.824219 72.464844 60.046875 72.46875 C 60.050781 72.46875 60.050781 72.46875 60.054688 72.46875 C 60.277344 72.46875 60.460938 72.3125 60.511719 72.105469 C 60.519531 72.070312 60.523438 72.039062 60.523438 72.003906 L 60.535156 71.335938 L 67.023438 71.402344 L 70.839844 71.445312 Z M 54.453125 59.285156 C 54.460938 59.324219 54.46875 59.363281 54.476562 59.40625 C 54.484375 59.4375 54.492188 59.46875 54.496094 59.503906 C 54.503906 59.539062 54.511719 59.578125 54.515625 59.617188 C 54.523438 59.660156 54.527344 59.703125 54.535156 59.75 C 54.539062 59.785156 54.542969 59.824219 54.546875 59.859375 C 54.554688 59.914062 54.558594 59.972656 54.5625 60.027344 C 54.566406 60.0625 54.570312 60.09375 54.570312 60.128906 C 54.578125 60.195312 54.582031 60.269531 54.585938 60.34375 C 54.585938 60.371094 54.585938 60.394531 54.589844 60.421875 C 54.589844 60.515625 54.59375 60.617188 54.59375 60.71875 C 54.59375 60.726562 54.597656 60.730469 54.597656 60.738281 C 54.597656 60.855469 54.597656 60.976562 54.59375 61.101562 C 54.59375 61.1875 54.589844 61.273438 54.585938 61.355469 C 54.582031 61.417969 54.582031 61.480469 54.578125 61.539062 C 54.570312 61.625 54.5625 61.710938 54.554688 61.796875 C 54.546875 61.859375 54.542969 61.917969 54.535156 61.980469 C 54.527344 62.0625 54.515625 62.144531 54.503906 62.226562 C 54.492188 62.292969 54.484375 62.355469 54.472656 62.421875 C 54.460938 62.5 54.445312 62.574219 54.429688 62.652344 C 54.417969 62.71875 54.402344 62.789062 54.386719 62.855469 C 54.371094 62.929688 54.351562 63 54.335938 63.074219 C 54.316406 63.144531 54.300781 63.21875 54.28125 63.289062 C 54.261719 63.355469 54.242188 63.425781 54.21875 63.492188 C 54.199219 63.566406 54.171875 63.640625 54.148438 63.710938 C 54.128906 63.777344 54.105469 63.839844 54.082031 63.90625 C 54.054688 63.980469 54.027344 64.054688 53.996094 64.128906 C 53.972656 64.191406 53.949219 64.253906 53.921875 64.3125 C 53.894531 64.386719 53.859375 64.457031 53.828125 64.53125 C 53.808594 64.570312 53.792969 64.605469 53.773438 64.644531 C 53.761719 64.664062 53.753906 64.6875 53.746094 64.710938 C 53.742188 64.71875 53.738281 64.730469 53.730469 64.738281 C 53.644531 64.921875 53.546875 65.101562 53.445312 65.277344 C 53.414062 65.328125 53.386719 65.378906 53.355469 65.425781 C 53.253906 65.589844 53.148438 65.753906 53.039062 65.910156 C 53 65.96875 52.957031 66.027344 52.914062 66.082031 C 52.804688 66.234375 52.6875 66.378906 52.570312 66.519531 C 52.519531 66.582031 52.464844 66.640625 52.410156 66.699219 C 52.316406 66.804688 52.214844 66.914062 52.113281 67.015625 C 52.074219 67.054688 52.035156 67.09375 51.996094 67.132812 C 50.359375 68.730469 48.191406 69.589844 45.921875 69.550781 C 45.800781 69.550781 45.679688 69.542969 45.5625 69.535156 C 43.417969 69.414062 41.425781 68.5 39.925781 66.941406 C 38.335938 65.292969 37.484375 63.121094 37.519531 60.828125 C 37.546875 59.210938 38.09375 57.542969 39.0625 56.097656 C 39.3125 56.101562 39.558594 56.113281 39.804688 56.121094 C 40.125 56.136719 40.449219 56.152344 40.769531 56.171875 C 40.765625 56.171875 40.765625 56.175781 40.765625 56.175781 C 39.953125 57.15625 39.371094 58.378906 39.117188 59.613281 C 39.117188 59.617188 39.113281 59.625 39.113281 59.628906 C 39.074219 59.828125 39.042969 60.023438 39.019531 60.21875 C 39.015625 60.238281 39.015625 60.253906 39.011719 60.273438 C 38.992188 60.46875 38.976562 60.660156 38.976562 60.851562 C 38.96875 61.257812 38.996094 61.65625 39.054688 62.054688 C 39.117188 62.449219 39.210938 62.839844 39.335938 63.21875 C 39.402344 63.417969 39.585938 63.542969 39.78125 63.542969 C 39.832031 63.542969 39.882812 63.535156 39.929688 63.519531 C 39.984375 63.5 40.03125 63.472656 40.070312 63.441406 C 40.222656 63.320312 40.292969 63.113281 40.226562 62.917969 C 40.007812 62.257812 39.902344 61.570312 39.914062 60.867188 C 39.941406 59.222656 40.742188 57.4375 41.96875 56.261719 C 42.300781 56.289062 42.632812 56.324219 42.964844 56.359375 C 43.980469 56.472656 44.992188 56.617188 46 56.796875 C 45.996094 56.796875 45.996094 56.796875 45.992188 56.800781 C 45.863281 56.882812 45.785156 57.027344 45.78125 57.191406 L 45.773438 57.699219 C 45.488281 57.75 45.222656 57.863281 44.992188 58.027344 C 44.984375 58.03125 44.976562 58.039062 44.96875 58.042969 C 44.84375 58.132812 44.726562 58.238281 44.628906 58.359375 C 44.609375 58.378906 44.59375 58.402344 44.578125 58.421875 C 44.558594 58.449219 44.535156 58.476562 44.515625 58.503906 C 44.496094 58.535156 44.476562 58.566406 44.457031 58.601562 C 44.441406 58.621094 44.429688 58.640625 44.417969 58.660156 C 44.398438 58.691406 44.382812 58.726562 44.367188 58.757812 C 44.355469 58.78125 44.34375 58.808594 44.332031 58.832031 C 44.320312 58.855469 44.3125 58.882812 44.300781 58.910156 C 44.289062 58.945312 44.277344 58.976562 44.265625 59.011719 C 44.261719 59.027344 44.257812 59.042969 44.253906 59.058594 C 44.203125 59.222656 44.175781 59.394531 44.171875 59.570312 C 44.171875 59.640625 44.171875 59.707031 44.179688 59.769531 C 44.179688 59.785156 44.183594 59.796875 44.183594 59.8125 C 44.1875 59.863281 44.195312 59.910156 44.203125 59.960938 C 44.207031 59.984375 44.214844 60.007812 44.21875 60.03125 C 44.230469 60.066406 44.238281 60.105469 44.246094 60.144531 C 44.253906 60.171875 44.265625 60.199219 44.277344 60.226562 C 44.285156 60.257812 44.296875 60.289062 44.308594 60.320312 C 44.324219 60.355469 44.339844 60.390625 44.355469 60.425781 C 44.367188 60.445312 44.375 60.46875 44.382812 60.488281 C 44.46875 60.652344 44.578125 60.808594 44.710938 60.945312 C 45.066406 61.316406 45.546875 61.523438 46.058594 61.53125 L 46.304688 61.535156 C 46.574219 61.539062 46.816406 61.652344 46.988281 61.835938 C 47.164062 62.019531 47.273438 62.277344 47.265625 62.5625 C 47.261719 62.824219 47.15625 63.070312 46.96875 63.253906 C 46.78125 63.433594 46.53125 63.53125 46.273438 63.527344 L 45.019531 63.507812 C 44.75 63.503906 44.546875 63.714844 44.542969 63.972656 C 44.542969 64.007812 44.542969 64.039062 44.550781 64.070312 C 44.589844 64.285156 44.777344 64.449219 45.003906 64.453125 L 45.664062 64.464844 L 45.664062 64.46875 L 45.648438 65.476562 C 45.648438 65.476562 45.648438 65.476562 45.648438 65.480469 C 45.648438 65.738281 45.855469 65.953125 46.113281 65.957031 C 46.113281 65.957031 46.117188 65.957031 46.121094 65.957031 C 46.375 65.957031 46.585938 65.75 46.589844 65.492188 L 46.605469 64.445312 C 46.621094 64.445312 46.636719 64.445312 46.652344 64.441406 C 46.714844 64.429688 46.78125 64.414062 46.84375 64.394531 C 46.882812 64.382812 46.925781 64.367188 46.964844 64.351562 C 46.996094 64.339844 47.03125 64.324219 47.0625 64.3125 C 47.132812 64.277344 47.203125 64.242188 47.269531 64.203125 C 47.292969 64.1875 47.320312 64.175781 47.34375 64.160156 C 47.382812 64.132812 47.421875 64.101562 47.464844 64.070312 C 47.484375 64.054688 47.507812 64.035156 47.527344 64.015625 C 47.5625 63.988281 47.59375 63.960938 47.625 63.929688 C 47.992188 63.574219 48.199219 63.089844 48.207031 62.550781 C 48.207031 62.484375 48.207031 62.421875 48.199219 62.355469 C 48.199219 62.332031 48.195312 62.304688 48.191406 62.277344 C 48.1875 62.242188 48.183594 62.203125 48.175781 62.167969 C 48.167969 62.136719 48.160156 62.105469 48.152344 62.074219 C 48.148438 62.042969 48.140625 62.011719 48.132812 61.984375 C 48.121094 61.949219 48.109375 61.914062 48.097656 61.878906 C 48.089844 61.855469 48.082031 61.832031 48.070312 61.808594 C 48.054688 61.765625 48.035156 61.722656 48.015625 61.683594 C 48.007812 61.667969 48.003906 61.652344 47.996094 61.640625 C 47.683594 61.027344 47.050781 60.601562 46.320312 60.589844 L 46.074219 60.585938 C 45.8125 60.582031 45.570312 60.476562 45.386719 60.285156 C 45.296875 60.191406 45.226562 60.085938 45.179688 59.96875 C 45.171875 59.945312 45.167969 59.921875 45.160156 59.898438 C 45.148438 59.859375 45.136719 59.824219 45.128906 59.785156 C 45.117188 59.71875 45.109375 59.652344 45.113281 59.585938 C 45.113281 59.523438 45.121094 59.460938 45.132812 59.402344 C 45.132812 59.402344 45.132812 59.398438 45.132812 59.398438 C 45.144531 59.339844 45.164062 59.285156 45.1875 59.234375 C 45.1875 59.226562 45.191406 59.222656 45.191406 59.214844 C 45.347656 58.859375 45.703125 58.609375 46.105469 58.621094 L 47.210938 58.636719 C 47.214844 58.636719 47.21875 58.636719 47.21875 58.636719 C 47.476562 58.636719 47.683594 58.429688 47.6875 58.171875 C 47.691406 58.140625 47.6875 58.109375 47.679688 58.078125 C 47.640625 57.863281 47.453125 57.695312 47.226562 57.691406 L 46.714844 57.683594 L 46.722656 57.210938 L 46.722656 57.207031 C 46.722656 57.152344 46.710938 57.101562 46.695312 57.050781 C 46.679688 57 46.652344 56.957031 46.621094 56.914062 C 46.621094 56.914062 46.621094 56.910156 46.617188 56.910156 C 48.199219 57.210938 49.765625 57.597656 51.3125 58.058594 C 51.8125 58.816406 52.070312 59.675781 52.160156 60.398438 C 52.164062 60.433594 52.167969 60.46875 52.167969 60.503906 C 52.179688 60.582031 52.1875 60.664062 52.191406 60.738281 C 52.199219 60.851562 52.199219 60.960938 52.199219 61.0625 C 52.179688 62.261719 51.820312 63.414062 51.160156 64.40625 C 51.105469 64.488281 51.082031 64.582031 51.082031 64.671875 C 51.082031 64.824219 51.15625 64.96875 51.289062 65.058594 C 51.371094 65.113281 51.460938 65.140625 51.550781 65.140625 C 51.703125 65.140625 51.851562 65.066406 51.941406 64.929688 C 52.703125 63.789062 53.117188 62.457031 53.140625 61.078125 C 53.140625 60.96875 53.136719 60.851562 53.132812 60.730469 C 53.128906 60.695312 53.125 60.65625 53.125 60.617188 C 53.117188 60.539062 53.109375 60.453125 53.101562 60.371094 C 53.09375 60.3125 53.089844 60.257812 53.078125 60.203125 C 53.074219 60.152344 53.0625 60.105469 53.054688 60.054688 C 53.03125 59.894531 52.996094 59.730469 52.957031 59.5625 C 52.953125 59.542969 52.949219 59.523438 52.941406 59.5 C 52.859375 59.164062 52.746094 58.816406 52.597656 58.46875 C 52.597656 58.46875 52.597656 58.464844 52.59375 58.464844 C 52.679688 58.492188 52.761719 58.515625 52.84375 58.546875 C 53.367188 58.722656 53.886719 58.90625 54.402344 59.101562 C 54.417969 59.15625 54.433594 59.214844 54.449219 59.273438 C 54.449219 59.277344 54.449219 59.28125 54.453125 59.285156 Z M 62.976562 62.257812 C 62.878906 62.195312 62.78125 62.132812 62.683594 62.074219 C 62.351562 61.875 62.019531 61.679688 61.683594 61.488281 C 61.585938 61.433594 61.488281 61.378906 61.386719 61.320312 C 61.039062 61.125 60.683594 60.933594 60.328125 60.742188 C 60.261719 60.707031 60.191406 60.671875 60.121094 60.636719 C 58.457031 59.761719 56.738281 58.984375 54.96875 58.308594 C 54.949219 58.296875 54.925781 58.289062 54.902344 58.28125 C 54.660156 58.191406 54.417969 58.105469 54.171875 58.015625 C 54.023438 57.960938 53.875 57.910156 53.726562 57.855469 C 53.53125 57.789062 53.335938 57.714844 53.140625 57.648438 C 52.964844 57.589844 52.789062 57.539062 52.617188 57.480469 C 52.523438 57.453125 52.429688 57.421875 52.335938 57.394531 C 52.15625 57.335938 51.980469 57.28125 51.804688 57.226562 C 51.769531 57.210938 51.730469 57.195312 51.6875 57.1875 C 48.492188 56.222656 45.222656 55.597656 41.921875 55.316406 C 41.867188 55.300781 41.8125 55.296875 41.757812 55.300781 C 41.109375 55.25 40.460938 55.207031 39.808594 55.179688 C 39.582031 55.171875 39.355469 55.15625 39.128906 55.152344 L 42.132812 45.933594 C 42.382812 45.160156 43.117188 44.652344 43.914062 44.691406 C 48.203125 44.90625 52.460938 45.714844 56.574219 47.097656 C 60.433594 48.398438 64.097656 50.183594 67.46875 52.40625 C 68.007812 52.761719 68.296875 53.378906 68.261719 54.007812 C 68.25 54.160156 68.226562 54.316406 68.179688 54.46875 L 65.175781 63.683594 C 64.78125 63.410156 64.382812 63.148438 63.984375 62.886719 C 63.980469 62.886719 63.980469 62.882812 63.976562 62.882812 C 63.648438 62.667969 63.3125 62.460938 62.976562 62.257812 Z M 79.039062 64.375 C 79.042969 64.375 79.046875 64.375 79.050781 64.375 C 79.40625 64.382812 79.695312 64.640625 79.757812 64.980469 L 78.324219 64.992188 C 78.378906 64.640625 78.679688 64.375 79.039062 64.375 Z M 80.851562 56.675781 C 81.378906 56.609375 81.804688 56.253906 81.964844 55.75 C 82.128906 55.242188 81.992188 54.703125 81.605469 54.339844 L 61.765625 35.667969 C 61.5 35.417969 61.140625 35.285156 60.777344 35.304688 L 31.589844 36.800781 C 31.050781 36.828125 30.597656 37.15625 30.402344 37.660156 C 30.207031 38.164062 30.320312 38.71875 30.699219 39.105469 L 40.203125 48.8125 L 38.035156 55.464844 C 37.992188 55.597656 38.015625 55.746094 38.089844 55.867188 C 37.140625 57.390625 36.605469 59.125 36.578125 60.8125 C 36.539062 63.359375 37.488281 65.769531 39.25 67.597656 C 40.433594 68.828125 41.894531 69.695312 43.492188 70.144531 L 32.4375 69.96875 C 32.4375 69.96875 32.433594 69.96875 32.429688 69.96875 C 32.175781 69.96875 31.964844 70.171875 31.960938 70.433594 L 31.914062 73.402344 C 31.910156 73.527344 31.960938 73.648438 32.046875 73.738281 C 32.132812 73.828125 32.253906 73.878906 32.375 73.878906 L 33.851562 73.902344 C 33.855469 73.902344 33.855469 73.902344 33.855469 73.902344 L 35.003906 73.921875 L 34.96875 76.296875 C 34.964844 76.421875 35.011719 76.542969 35.097656 76.632812 C 35.1875 76.726562 35.304688 76.777344 35.429688 76.777344 L 51.953125 77.042969 L 68.117188 77.304688 C 68.121094 77.304688 68.121094 77.304688 68.125 77.304688 C 68.378906 77.304688 68.589844 77.097656 68.59375 76.839844 L 68.632812 74.371094 L 71.265625 74.398438 C 71.265625 74.398438 71.269531 74.398438 71.269531 74.398438 C 71.527344 74.398438 71.734375 74.191406 71.738281 73.933594 L 71.777344 71.453125 L 71.929688 71.453125 C 71.933594 71.453125 71.933594 71.453125 71.9375 71.453125 C 72.191406 71.453125 72.402344 71.25 72.40625 70.988281 L 72.453125 68.128906 C 72.457031 67.867188 72.25 67.652344 71.988281 67.648438 L 69.65625 67.605469 L 69.695312 65.128906 C 69.699219 64.867188 69.492188 64.652344 69.234375 64.648438 L 65.867188 64.59375 C 65.867188 64.589844 65.871094 64.585938 65.871094 64.582031 L 67.914062 58.3125 L 78.695312 56.949219 L 78.589844 63.5 C 77.902344 63.695312 77.386719 64.324219 77.375 65.082031 L 77.367188 65.441406 L 76.628906 72.433594 C 76.617188 72.542969 76.644531 72.644531 76.699219 72.730469 C 76.773438 72.851562 76.894531 72.9375 77.046875 72.953125 C 77.0625 72.957031 77.082031 72.957031 77.097656 72.957031 C 77.335938 72.957031 77.539062 72.777344 77.5625 72.535156 L 78.160156 66.886719 L 78.261719 65.9375 L 78.550781 65.933594 L 78.425781 73.96875 C 78.425781 74.007812 78.429688 74.046875 78.4375 74.085938 C 78.488281 74.289062 78.667969 74.445312 78.886719 74.449219 C 78.890625 74.449219 78.890625 74.449219 78.894531 74.449219 C 79.152344 74.449219 79.359375 74.242188 79.363281 73.984375 L 79.476562 66.878906 L 79.492188 65.925781 L 79.796875 65.925781 L 79.863281 66.875 L 80.28125 72.578125 C 80.296875 72.824219 80.503906 73.015625 80.75 73.015625 C 80.761719 73.015625 80.773438 73.015625 80.785156 73.015625 C 80.953125 73 81.09375 72.898438 81.167969 72.753906 C 81.203125 72.679688 81.226562 72.597656 81.21875 72.507812 L 80.703125 65.433594 L 80.707031 65.132812 C 80.71875 64.375 80.21875 63.730469 79.53125 63.515625 C 79.53125 63.515625 79.53125 63.511719 79.53125 63.511719 L 79.636719 56.832031 L 79.636719 56.828125 L 80.851562 56.675781"/></g><path fill="#3E4445" d="M 56.96875 49.683594 C 60.070312 50.726562 63.015625 52.160156 65.722656 53.945312 C 65.804688 54 65.894531 54.023438 65.980469 54.023438 C 66.132812 54.023438 66.285156 53.949219 66.375 53.808594 C 66.429688 53.730469 66.453125 53.636719 66.453125 53.546875 C 66.449219 53.394531 66.375 53.246094 66.238281 53.15625 C 63.464844 51.328125 60.445312 49.855469 57.269531 48.785156 C 57.019531 48.703125 56.753906 48.835938 56.671875 49.085938 C 56.652344 49.148438 56.644531 49.210938 56.648438 49.273438 C 56.664062 49.457031 56.785156 49.621094 56.96875 49.683594"/></svg>