<svg xmlns="http://www.w3.org/2000/svg" width="112.5" viewBox="0 0 112.5 112.5" height="112.5" version="1.0"><defs><clipPath id="a"><path d="M 0 0 L 112.003906 0 L 112.003906 112.003906 L 0 112.003906 Z M 0 0"/></clipPath><clipPath id="b"><path d="M 37 33.8125 L 75 33.8125 L 75 78.8125 L 37 78.8125 Z M 37 33.8125"/></clipPath><clipPath id="c"><path d="M 42 33.8125 L 70 33.8125 L 70 78.8125 L 42 78.8125 Z M 42 33.8125"/></clipPath><clipPath id="d"><path d="M 48 33.8125 L 64 33.8125 L 64 78.8125 L 48 78.8125 Z M 48 33.8125"/></clipPath><clipPath id="e"><path d="M 31.589844 35 L 46 35 L 46 78 L 31.589844 78 Z M 31.589844 35"/></clipPath><clipPath id="f"><path d="M 67 35 L 81.089844 35 L 81.089844 78 L 67 78 Z M 67 35"/></clipPath><clipPath id="g"><path d="M 40 33.8125 L 72 33.8125 L 72 41 L 40 41 Z M 40 33.8125"/></clipPath><clipPath id="h"><path d="M 40 72 L 72 72 L 72 78.8125 L 40 78.8125 Z M 40 72"/></clipPath><clipPath id="i"><path d="M 56 75 L 57 75 L 57 78.8125 L 56 78.8125 Z M 56 75"/></clipPath><clipPath id="j"><path d="M 56 33.8125 L 57 33.8125 L 57 37 L 56 37 Z M 56 33.8125"/></clipPath><clipPath id="k"><path d="M 31.589844 54 L 43 54 L 43 67 L 31.589844 67 Z M 31.589844 54"/></clipPath><clipPath id="l"><path d="M 31.589844 55 L 45 55 L 45 68 L 31.589844 68 Z M 31.589844 55"/></clipPath><clipPath id="m"><path d="M 69 56 L 81.089844 56 L 81.089844 69 L 69 69 Z M 69 56"/></clipPath></defs><g clip-path="url(#a)" fill="#FFF"><path d="M 0 0 L 112.5 0 L 112.5 120 L 0 120 Z M 0 0"/><path d="M 0 0 L 112.5 0 L 112.5 112.5 L 0 112.5 Z M 0 0"/><path d="M 0 0 L 112.5 0 L 112.5 112.5 L 0 112.5 Z M 0 0"/></g><path fill="#51ADE5" d="M 56.210938 103.722656 C 43.527344 103.722656 31.582031 98.785156 22.621094 89.804688 C 13.636719 80.839844 8.703125 68.898438 8.703125 56.210938 C 8.703125 43.527344 13.636719 31.582031 22.621094 22.621094 C 31.582031 13.636719 43.527344 8.699219 56.210938 8.699219 C 68.898438 8.699219 80.839844 13.636719 89.804688 22.621094 C 98.785156 31.601562 103.722656 43.527344 103.722656 56.210938 C 103.722656 68.898438 98.785156 80.839844 89.804688 89.804688 C 80.839844 98.785156 68.898438 103.722656 56.210938 103.722656 Z M 56.210938 11.550781 C 44.285156 11.550781 33.0625 16.203125 24.632812 24.632812 C 16.203125 33.0625 11.550781 44.285156 11.550781 56.210938 C 11.550781 68.136719 16.203125 79.359375 24.632812 87.789062 C 33.0625 96.222656 44.285156 100.875 56.210938 100.875 C 68.136719 100.875 79.359375 96.222656 87.789062 87.789062 C 96.222656 79.359375 100.875 68.136719 100.875 56.210938 C 100.875 44.285156 96.222656 33.0625 87.789062 24.632812 C 79.359375 16.203125 68.136719 11.550781 56.210938 11.550781 Z M 56.210938 11.550781"/><g clip-path="url(#b)"><path fill="#DEF4FC" d="M 37.9375 33.929688 L 74.742188 33.929688 L 74.742188 78.699219 L 37.9375 78.699219 Z M 37.9375 33.929688"/></g><g clip-path="url(#c)"><path fill="#FFF" d="M 42.710938 33.929688 L 69.972656 33.929688 L 69.972656 78.699219 L 42.710938 78.699219 Z M 42.710938 33.929688"/></g><g clip-path="url(#d)"><path fill="#E9F6FF" d="M 48.800781 33.929688 L 63.882812 33.929688 L 63.882812 78.699219 L 48.800781 78.699219 Z M 48.800781 33.929688"/></g><path transform="matrix(.08996 0 0 .08987 33.312 33.307)" fill="none" d="M 139.652634 139.662746 C 147.295134 132.013162 155.588984 125.189386 164.577607 119.191416 C 173.56623 113.193447 183.032509 108.108212 193.019868 103.979175 C 203.007226 99.850138 213.298548 96.720763 223.893833 94.634513 C 234.489118 92.504799 245.214672 91.461674 255.98365 91.461674 C 266.796052 91.461674 277.521607 92.504799 288.116891 94.634513 C 298.712176 96.720763 309.003498 99.850138 318.947433 103.979175 C 328.934792 108.108212 338.444494 113.193447 347.389694 119.191416 C 356.378316 125.189386 364.71559 132.013162 372.35809 139.662746" stroke="#C8DFF5" stroke-width="4" stroke-miterlimit="10"/><path transform="matrix(.08996 0 0 .08987 33.312 33.307)" fill="none" d="M 372.35809 372.323107 C 364.71559 379.972691 356.378316 386.796468 347.389694 392.794437 C 338.444494 398.792407 328.934792 403.877642 318.947433 408.006678 C 309.003498 412.135715 298.712176 415.265091 288.116891 417.351341 C 277.521607 419.481055 266.796052 420.52418 255.98365 420.52418 C 245.214672 420.52418 234.489118 419.481055 223.893833 417.351341 C 213.298548 415.265091 203.007226 412.135715 193.019868 408.006678 C 183.032509 403.877642 173.56623 398.792407 164.577607 392.794437 C 155.588984 386.796468 147.295134 379.972691 139.652634 372.323107" stroke="#C8DFF5" stroke-width="4" stroke-miterlimit="10"/><path fill="#C8DFF5" d="M 66.933594 45.730469 C 67.015625 45.816406 67.101562 45.902344 67.183594 45.988281 L 66.921875 46.238281 C 66.84375 46.152344 66.761719 46.070312 66.679688 45.984375 Z M 67.429688 46.253906 C 67.511719 46.34375 67.59375 46.4375 67.675781 46.527344 L 67.402344 46.765625 C 67.324219 46.671875 67.246094 46.585938 67.164062 46.496094 Z M 67.910156 46.808594 C 67.988281 46.902344 68.0625 46.996094 68.136719 47.089844 L 67.851562 47.3125 C 67.78125 47.21875 67.707031 47.128906 67.632812 47.035156 Z M 68.359375 47.378906 C 68.429688 47.476562 68.503906 47.574219 68.574219 47.675781 L 68.28125 47.882812 C 68.210938 47.785156 68.140625 47.6875 68.070312 47.59375 Z M 68.78125 47.976562 C 68.847656 48.074219 68.914062 48.175781 68.976562 48.277344 L 68.675781 48.472656 C 68.613281 48.371094 68.546875 48.273438 68.480469 48.175781 Z M 69.171875 48.585938 C 69.234375 48.691406 69.296875 48.796875 69.355469 48.902344 L 69.042969 49.082031 C 68.984375 48.976562 68.925781 48.875 68.863281 48.773438 Z M 69.53125 49.222656 C 69.589844 49.328125 69.644531 49.433594 69.699219 49.542969 L 69.378906 49.707031 C 69.328125 49.601562 69.273438 49.496094 69.214844 49.390625 Z M 69.863281 49.871094 C 69.914062 49.980469 69.964844 50.089844 70.015625 50.203125 L 69.6875 50.347656 C 69.636719 50.238281 69.589844 50.132812 69.535156 50.023438 Z M 70.160156 50.535156 C 70.207031 50.648438 70.253906 50.757812 70.296875 50.871094 L 69.960938 51.003906 C 69.917969 50.894531 69.875 50.785156 69.828125 50.675781 Z M 70.425781 51.210938 C 70.464844 51.328125 70.507812 51.441406 70.546875 51.558594 L 70.203125 51.671875 C 70.167969 51.558594 70.128906 51.445312 70.085938 51.335938 Z M 70.65625 51.90625 C 70.691406 52.019531 70.726562 52.136719 70.761719 52.253906 L 70.414062 52.351562 C 70.382812 52.238281 70.347656 52.125 70.3125 52.011719 Z M 70.855469 52.605469 C 70.886719 52.722656 70.914062 52.839844 70.941406 52.957031 L 70.589844 53.039062 C 70.5625 52.921875 70.535156 52.808594 70.507812 52.691406 Z M 71.019531 53.316406 C 71.042969 53.433594 71.066406 53.550781 71.085938 53.671875 L 70.734375 53.734375 C 70.710938 53.617188 70.691406 53.503906 70.667969 53.386719 Z M 71.148438 54.03125 C 71.164062 54.152344 71.183594 54.269531 71.199219 54.390625 L 70.839844 54.4375 C 70.828125 54.320312 70.808594 54.203125 70.792969 54.085938 Z M 71.242188 54.753906 C 71.253906 54.875 71.265625 54.996094 71.273438 55.117188 L 70.914062 55.144531 C 70.90625 55.027344 70.894531 54.910156 70.882812 54.792969 Z M 71.300781 55.480469 C 71.304688 55.601562 71.3125 55.722656 71.316406 55.84375 L 70.957031 55.855469 C 70.953125 55.734375 70.945312 55.617188 70.941406 55.5 Z M 71.320312 56.207031 C 71.324219 56.328125 71.324219 56.449219 71.320312 56.570312 L 70.960938 56.566406 C 70.960938 56.445312 70.964844 56.328125 70.960938 56.210938 Z M 71.308594 56.9375 C 71.304688 57.058594 71.296875 57.179688 71.289062 57.300781 L 70.929688 57.277344 C 70.9375 57.15625 70.945312 57.039062 70.949219 56.921875 Z M 71.261719 57.660156 C 71.25 57.78125 71.238281 57.902344 71.222656 58.023438 L 70.867188 57.984375 C 70.878906 57.867188 70.894531 57.746094 70.902344 57.628906 Z M 71.179688 58.386719 C 71.160156 58.507812 71.144531 58.625 71.125 58.746094 L 70.769531 58.6875 C 70.789062 58.570312 70.804688 58.453125 70.820312 58.335938 Z M 71.058594 59.105469 C 71.039062 59.222656 71.011719 59.34375 70.988281 59.460938 L 70.636719 59.386719 C 70.660156 59.269531 70.683594 59.152344 70.707031 59.039062 Z M 70.90625 59.816406 C 70.878906 59.933594 70.847656 60.054688 70.816406 60.171875 L 70.46875 60.078125 C 70.5 59.964844 70.527344 59.847656 70.558594 59.734375 Z M 70.71875 60.519531 C 70.683594 60.636719 70.648438 60.75 70.613281 60.867188 L 70.269531 60.757812 C 70.304688 60.644531 70.339844 60.53125 70.375 60.417969 Z M 70.496094 61.214844 C 70.457031 61.328125 70.414062 61.445312 70.371094 61.558594 L 70.035156 61.429688 C 70.078125 61.320312 70.117188 61.207031 70.15625 61.097656 Z M 70.242188 61.894531 C 70.195312 62.007812 70.148438 62.121094 70.101562 62.230469 L 69.773438 62.085938 C 69.816406 61.980469 69.863281 61.871094 69.90625 61.761719 Z M 69.953125 62.566406 C 69.902344 62.675781 69.851562 62.785156 69.796875 62.894531 L 69.472656 62.738281 C 69.527344 62.628906 69.578125 62.523438 69.625 62.414062 Z M 69.632812 63.21875 C 69.578125 63.324219 69.519531 63.433594 69.460938 63.539062 L 69.148438 63.363281 C 69.203125 63.261719 69.257812 63.15625 69.3125 63.054688 Z M 69.28125 63.855469 C 69.21875 63.960938 69.15625 64.066406 69.09375 64.167969 L 68.785156 63.980469 C 68.847656 63.878906 68.910156 63.777344 68.96875 63.675781 Z M 68.898438 64.476562 C 68.832031 64.578125 68.765625 64.675781 68.695312 64.777344 L 68.402344 64.574219 C 68.46875 64.476562 68.53125 64.378906 68.597656 64.28125 Z M 68.484375 65.078125 C 68.414062 65.175781 68.339844 65.273438 68.265625 65.371094 L 67.980469 65.152344 C 68.054688 65.058594 68.125 64.960938 68.195312 64.867188 Z M 68.042969 65.65625 C 67.96875 65.75 67.894531 65.84375 67.816406 65.933594 L 67.539062 65.703125 C 67.617188 65.613281 67.691406 65.523438 67.761719 65.433594 Z M 67.574219 66.214844 C 67.496094 66.304688 67.414062 66.394531 67.328125 66.484375 L 67.066406 66.242188 C 67.148438 66.152344 67.226562 66.066406 67.304688 65.976562 Z M 67.082031 66.746094 C 67.03125 66.796875 66.980469 66.847656 66.933594 66.898438 L 66.679688 66.644531 C 66.726562 66.59375 66.773438 66.546875 66.824219 66.496094 Z M 67.082031 66.746094"/><path fill="#C8DFF5" d="M 45.75 66.898438 C 45.664062 66.8125 45.582031 66.726562 45.5 66.640625 L 45.757812 66.390625 C 45.839844 66.476562 45.921875 66.558594 46.003906 66.644531 Z M 45.25 66.375 C 45.167969 66.285156 45.089844 66.191406 45.007812 66.101562 L 45.28125 65.867188 C 45.359375 65.957031 45.4375 66.042969 45.519531 66.132812 Z M 44.773438 65.820312 C 44.695312 65.726562 44.621094 65.632812 44.546875 65.539062 L 44.828125 65.316406 C 44.902344 65.410156 44.976562 65.503906 45.050781 65.59375 Z M 44.324219 65.25 C 44.253906 65.152344 44.179688 65.054688 44.109375 64.953125 L 44.402344 64.746094 C 44.472656 64.84375 44.542969 64.941406 44.613281 65.035156 Z M 43.902344 64.652344 C 43.835938 64.554688 43.769531 64.453125 43.703125 64.351562 L 44.007812 64.160156 C 44.070312 64.257812 44.136719 64.355469 44.203125 64.453125 Z M 43.511719 64.042969 C 43.449219 63.9375 43.386719 63.832031 43.328125 63.726562 L 43.640625 63.546875 C 43.699219 63.652344 43.757812 63.753906 43.820312 63.855469 Z M 43.148438 63.40625 C 43.09375 63.300781 43.035156 63.195312 42.980469 63.085938 L 43.304688 62.925781 C 43.355469 63.027344 43.410156 63.132812 43.46875 63.238281 Z M 42.820312 62.761719 C 42.769531 62.648438 42.71875 62.539062 42.667969 62.429688 L 42.996094 62.28125 C 43.042969 62.390625 43.09375 62.496094 43.144531 62.605469 Z M 42.523438 62.09375 C 42.476562 61.980469 42.429688 61.871094 42.386719 61.757812 L 42.722656 61.625 C 42.765625 61.738281 42.808594 61.847656 42.855469 61.953125 Z M 42.257812 61.417969 C 42.214844 61.300781 42.175781 61.1875 42.136719 61.070312 L 42.476562 60.957031 C 42.515625 61.070312 42.554688 61.183594 42.597656 61.292969 Z M 42.027344 60.726562 C 41.988281 60.609375 41.957031 60.492188 41.921875 60.375 L 42.269531 60.277344 C 42.300781 60.394531 42.335938 60.507812 42.371094 60.617188 Z M 41.828125 60.027344 C 41.796875 59.90625 41.769531 59.789062 41.742188 59.671875 L 42.09375 59.589844 C 42.117188 59.707031 42.148438 59.820312 42.175781 59.9375 Z M 41.664062 59.3125 C 41.640625 59.195312 41.617188 59.078125 41.59375 58.957031 L 41.949219 58.894531 C 41.96875 59.011719 41.992188 59.125 42.015625 59.242188 Z M 41.535156 58.597656 C 41.515625 58.480469 41.5 58.359375 41.484375 58.238281 L 41.839844 58.191406 C 41.855469 58.308594 41.875 58.425781 41.890625 58.542969 Z M 41.441406 57.875 C 41.429688 57.753906 41.417969 57.632812 41.40625 57.511719 L 41.765625 57.484375 C 41.777344 57.601562 41.789062 57.71875 41.800781 57.835938 Z M 41.382812 57.148438 C 41.375 57.027344 41.371094 56.90625 41.367188 56.785156 L 41.726562 56.773438 C 41.730469 56.894531 41.734375 57.011719 41.742188 57.128906 Z M 41.359375 56.421875 C 41.359375 56.300781 41.359375 56.179688 41.363281 56.058594 L 41.722656 56.0625 C 41.71875 56.183594 41.71875 56.300781 41.71875 56.417969 Z M 41.371094 55.695312 C 41.378906 55.574219 41.382812 55.449219 41.390625 55.328125 L 41.75 55.355469 C 41.742188 55.472656 41.738281 55.589844 41.734375 55.707031 Z M 41.421875 54.96875 C 41.433594 54.847656 41.445312 54.726562 41.457031 54.605469 L 41.816406 54.644531 C 41.800781 54.765625 41.789062 54.882812 41.777344 55 Z M 41.503906 54.242188 C 41.519531 54.121094 41.539062 54.003906 41.558594 53.882812 L 41.914062 53.941406 C 41.894531 54.058594 41.878906 54.175781 41.859375 54.292969 Z M 41.621094 53.523438 C 41.644531 53.40625 41.667969 53.289062 41.695312 53.167969 L 42.046875 53.246094 C 42.023438 53.359375 42 53.476562 41.976562 53.59375 Z M 41.777344 52.8125 C 41.804688 52.695312 41.835938 52.578125 41.867188 52.460938 L 42.214844 52.550781 C 42.183594 52.667969 42.152344 52.78125 42.125 52.898438 Z M 41.964844 52.109375 C 41.996094 51.992188 42.035156 51.878906 42.070312 51.761719 L 42.414062 51.871094 C 42.375 51.984375 42.34375 52.097656 42.308594 52.210938 Z M 42.1875 51.414062 C 42.226562 51.300781 42.265625 51.1875 42.308594 51.070312 L 42.648438 51.199219 C 42.605469 51.308594 42.566406 51.421875 42.527344 51.53125 Z M 42.441406 50.734375 C 42.484375 50.621094 42.53125 50.511719 42.582031 50.398438 L 42.910156 50.542969 C 42.863281 50.648438 42.820312 50.757812 42.773438 50.867188 Z M 42.730469 50.0625 C 42.78125 49.953125 42.832031 49.84375 42.886719 49.734375 L 43.210938 49.890625 C 43.15625 50 43.105469 50.105469 43.054688 50.214844 Z M 43.050781 49.410156 C 43.105469 49.304688 43.164062 49.195312 43.222656 49.09375 L 43.535156 49.265625 C 43.480469 49.367188 43.421875 49.472656 43.371094 49.574219 Z M 43.402344 48.773438 C 43.464844 48.667969 43.527344 48.5625 43.589844 48.460938 L 43.898438 48.648438 C 43.835938 48.75 43.773438 48.851562 43.710938 48.953125 Z M 43.785156 48.152344 C 43.851562 48.050781 43.917969 47.953125 43.984375 47.851562 L 44.28125 48.054688 C 44.214844 48.152344 44.152344 48.25 44.085938 48.347656 Z M 44.199219 47.550781 C 44.269531 47.453125 44.339844 47.355469 44.414062 47.257812 L 44.703125 47.476562 C 44.628906 47.570312 44.558594 47.667969 44.488281 47.761719 Z M 44.636719 46.972656 C 44.714844 46.878906 44.789062 46.785156 44.867188 46.695312 L 45.144531 46.925781 C 45.066406 47.015625 44.992188 47.105469 44.917969 47.199219 Z M 45.109375 46.414062 C 45.1875 46.324219 45.269531 46.234375 45.351562 46.144531 L 45.617188 46.390625 C 45.535156 46.476562 45.457031 46.5625 45.378906 46.652344 Z M 45.601562 45.882812 C 45.652344 45.832031 45.699219 45.78125 45.75 45.730469 L 46.003906 45.984375 C 45.957031 46.035156 45.90625 46.082031 45.859375 46.132812 Z M 45.601562 45.882812"/><path transform="matrix(.08996 0 0 .08987 33.312 33.307)" fill="none" d="M 152.592777 152.571419 L 139.001284 139.010793" stroke="#C8DFF5" stroke-width="4" stroke-miterlimit="10"/><path transform="matrix(.08996 0 0 .08987 33.312 33.307)" fill="none" d="M 148.1636 157.004701 L 156.97853 148.181601" stroke="#C8DFF5" stroke-width="4" stroke-miterlimit="10"/><path transform="matrix(.08996 0 0 .08987 33.312 33.307)" fill="none" d="M 359.417947 359.414434 L 373.00944 373.018524" stroke="#C8DFF5" stroke-width="4" stroke-miterlimit="10"/><path transform="matrix(.08996 0 0 .08987 33.312 33.307)" fill="none" d="M 363.847124 355.024616 L 354.988771 363.847716" stroke="#C8DFF5" stroke-width="4" stroke-miterlimit="10"/><path transform="matrix(.08996 0 0 .08987 33.312 33.307)" fill="none" d="M 152.592777 359.414434 L 139.001284 373.018524" stroke="#C8DFF5" stroke-width="4" stroke-miterlimit="10"/><path transform="matrix(.08996 0 0 .08987 33.312 33.307)" fill="none" d="M 156.97853 363.847716 L 148.1636 355.024616" stroke="#C8DFF5" stroke-width="4" stroke-miterlimit="10"/><path transform="matrix(.08996 0 0 .08987 33.312 33.307)" fill="none" d="M 359.417947 152.571419 L 373.00944 139.010793" stroke="#C8DFF5" stroke-width="4" stroke-miterlimit="10"/><path transform="matrix(.08996 0 0 .08987 33.312 33.307)" fill="none" d="M 354.988771 148.181601 L 363.847124 157.004701" stroke="#C8DFF5" stroke-width="4" stroke-miterlimit="10"/><path transform="matrix(.08996 0 0 .08987 33.312 33.307)" fill="none" d="M 109.733981 256.014659 L 90.540883 256.014659" stroke="#C8DFF5" stroke-width="4" stroke-miterlimit="10"/><path transform="matrix(.08996 0 0 .08987 33.312 33.307)" fill="none" d="M 402.276743 256.014659 L 421.469841 256.014659" stroke="#C8DFF5" stroke-width="4" stroke-miterlimit="10"/><path transform="matrix(.08996 0 0 .08987 33.312 33.307)" fill="none" d="M 255.98365 402.26949 L 255.98365 421.480378" stroke="#C8DFF5" stroke-width="4" stroke-miterlimit="10"/><path transform="matrix(.08996 0 0 .08987 33.312 33.307)" fill="none" d="M 262.236605 402.26949 L 249.774119 402.26949" stroke="#C8DFF5" stroke-width="4" stroke-miterlimit="10"/><path transform="matrix(.08996 0 0 .08987 33.312 33.307)" fill="none" d="M 255.98365 109.759827 L 255.98365 90.505476" stroke="#C8DFF5" stroke-width="4" stroke-miterlimit="10"/><path transform="matrix(.08996 0 0 .08987 33.312 33.307)" fill="none" d="M 249.774119 109.759827 L 262.236605 109.759827" stroke="#C8DFF5" stroke-width="4" stroke-miterlimit="10"/><g clip-path="url(#e)"><path transform="matrix(.08996 0 0 .08987 33.312 33.307)" fill="none" d="M 80.379832 431.607384 C -16.584394 334.640213 -16.584394 177.389104 80.379832 80.37847" stroke="#C8DFF5" stroke-width="4" stroke-miterlimit="10"/></g><g clip-path="url(#f)"><path transform="matrix(.08996 0 0 .08987 33.312 33.307)" fill="none" d="M 431.587469 80.37847 C 528.638541 177.389104 528.638541 334.640213 431.587469 431.607384" stroke="#C8DFF5" stroke-width="4" stroke-miterlimit="10"/></g><path transform="matrix(.08996 0 0 .08987 33.312 33.307)" fill="none" d="M 80.379832 80.421933 L 81.8128 78.987636" stroke="#C8DFF5" stroke-width="4" stroke-miterlimit="10"/><g clip-path="url(#g)"><path fill="#C8DFF5" d="M 40.804688 40.027344 C 40.890625 39.945312 40.980469 39.863281 41.070312 39.78125 L 41.3125 40.042969 C 41.226562 40.125 41.136719 40.207031 41.050781 40.289062 Z M 41.335938 39.535156 C 41.425781 39.453125 41.519531 39.375 41.609375 39.296875 L 41.84375 39.566406 C 41.753906 39.644531 41.667969 39.722656 41.578125 39.804688 Z M 41.882812 39.0625 C 41.976562 38.984375 42.066406 38.910156 42.160156 38.835938 L 42.386719 39.113281 C 42.296875 39.1875 42.203125 39.261719 42.113281 39.339844 Z M 42.441406 38.609375 C 42.535156 38.535156 42.628906 38.460938 42.726562 38.390625 L 42.945312 38.675781 C 42.851562 38.746094 42.757812 38.820312 42.664062 38.894531 Z M 43.015625 38.171875 C 43.113281 38.101562 43.210938 38.03125 43.308594 37.960938 L 43.519531 38.253906 C 43.421875 38.320312 43.324219 38.390625 43.230469 38.460938 Z M 43.605469 37.753906 C 43.703125 37.6875 43.804688 37.617188 43.902344 37.550781 L 44.101562 37.851562 C 44.003906 37.917969 43.90625 37.984375 43.808594 38.050781 Z M 44.203125 37.355469 C 44.304688 37.292969 44.410156 37.226562 44.511719 37.164062 L 44.699219 37.46875 C 44.597656 37.53125 44.5 37.59375 44.398438 37.660156 Z M 44.820312 36.976562 L 45.132812 36.792969 L 45.3125 37.105469 L 45.003906 37.285156 Z M 45.449219 36.617188 L 45.761719 36.445312 L 45.933594 36.761719 L 45.621094 36.929688 Z M 46.082031 36.277344 L 46.402344 36.117188 L 46.566406 36.4375 L 46.246094 36.597656 Z M 46.734375 35.957031 L 47.058594 35.808594 L 47.210938 36.132812 L 46.882812 36.285156 Z M 47.390625 35.660156 L 47.71875 35.523438 L 47.859375 35.851562 L 47.53125 35.992188 Z M 48.054688 35.386719 L 48.390625 35.257812 L 48.519531 35.59375 L 48.1875 35.722656 Z M 48.734375 35.132812 L 49.070312 35.011719 L 49.191406 35.351562 L 48.851562 35.472656 Z M 49.417969 34.898438 L 49.757812 34.792969 L 49.867188 35.136719 L 49.523438 35.242188 Z M 50.105469 34.6875 L 50.453125 34.59375 L 50.546875 34.9375 L 50.203125 35.035156 Z M 50.804688 34.5 L 51.152344 34.417969 L 51.238281 34.765625 L 50.890625 34.851562 Z M 51.507812 34.335938 L 51.855469 34.261719 L 51.929688 34.613281 L 51.582031 34.6875 Z M 52.214844 34.191406 L 52.566406 34.128906 L 52.628906 34.484375 L 52.277344 34.546875 Z M 52.925781 34.074219 L 53.28125 34.019531 L 53.332031 34.378906 L 52.976562 34.429688 Z M 53.640625 33.976562 L 53.996094 33.933594 L 54.039062 34.292969 L 53.683594 34.332031 Z M 54.359375 33.902344 L 54.714844 33.871094 L 54.746094 34.230469 L 54.386719 34.257812 Z M 55.078125 33.847656 L 55.4375 33.832031 L 55.453125 34.191406 L 55.097656 34.207031 Z M 55.800781 33.820312 L 56.160156 33.8125 L 56.164062 34.171875 L 55.808594 34.179688 Z M 56.523438 33.8125 L 56.554688 33.816406 L 56.882812 33.820312 L 56.875 34.179688 L 56.554688 34.175781 L 56.519531 34.171875 Z M 57.246094 33.832031 L 57.601562 33.847656 L 57.585938 34.207031 L 57.226562 34.191406 Z M 57.964844 33.871094 L 58.324219 33.898438 L 58.292969 34.257812 L 57.9375 34.230469 Z M 58.683594 33.933594 L 59.039062 33.976562 L 59 34.332031 L 58.644531 34.292969 Z M 59.402344 34.019531 L 59.753906 34.074219 L 59.703125 34.429688 L 59.351562 34.375 Z M 60.113281 34.128906 L 60.46875 34.191406 L 60.40625 34.546875 L 60.050781 34.484375 Z M 60.824219 34.261719 L 61.175781 34.335938 L 61.101562 34.6875 L 60.75 34.613281 Z M 61.53125 34.417969 L 61.878906 34.5 L 61.792969 34.851562 L 61.445312 34.765625 Z M 62.230469 34.59375 L 62.574219 34.6875 L 62.480469 35.035156 L 62.132812 34.9375 Z M 62.925781 34.792969 L 63.265625 34.898438 L 63.15625 35.242188 L 62.816406 35.136719 Z M 63.609375 35.011719 L 63.949219 35.132812 L 63.832031 35.472656 L 63.492188 35.351562 Z M 64.289062 35.257812 L 64.625 35.386719 L 64.496094 35.722656 L 64.160156 35.59375 Z M 64.960938 35.523438 L 65.292969 35.660156 L 65.152344 35.992188 L 64.820312 35.851562 Z M 65.625 35.808594 L 65.949219 35.957031 L 65.796875 36.285156 L 65.472656 36.132812 Z M 66.277344 36.117188 L 66.597656 36.277344 L 66.4375 36.597656 L 66.117188 36.4375 Z M 66.921875 36.445312 L 67.234375 36.617188 L 67.0625 36.929688 L 66.75 36.761719 Z M 67.550781 36.792969 L 67.859375 36.976562 L 67.679688 37.285156 L 67.367188 37.105469 Z M 68.171875 37.164062 C 68.273438 37.226562 68.375 37.292969 68.476562 37.355469 L 68.285156 37.660156 C 68.183594 37.59375 68.082031 37.53125 67.980469 37.46875 Z M 68.777344 37.554688 C 68.878906 37.621094 68.976562 37.6875 69.078125 37.753906 L 68.871094 38.050781 C 68.777344 37.984375 68.679688 37.917969 68.578125 37.851562 Z M 69.371094 37.960938 C 69.46875 38.03125 69.566406 38.101562 69.664062 38.171875 L 69.449219 38.460938 C 69.355469 38.390625 69.257812 38.320312 69.164062 38.253906 Z M 69.953125 38.390625 C 70.050781 38.460938 70.148438 38.535156 70.242188 38.609375 L 70.019531 38.894531 C 69.925781 38.820312 69.832031 38.746094 69.738281 38.675781 Z M 70.523438 38.835938 C 70.617188 38.910156 70.707031 38.988281 70.800781 39.0625 L 70.566406 39.339844 C 70.476562 39.261719 70.386719 39.1875 70.296875 39.113281 Z M 71.074219 39.296875 C 71.164062 39.375 71.253906 39.457031 71.34375 39.535156 L 71.105469 39.804688 C 71.015625 39.722656 70.925781 39.644531 70.835938 39.570312 Z M 71.613281 39.777344 C 71.699219 39.859375 71.789062 39.945312 71.875 40.027344 L 71.628906 40.289062 C 71.542969 40.207031 71.457031 40.125 71.367188 40.042969 Z M 71.613281 39.777344"/></g><path transform="matrix(.08996 0 0 .08987 33.312 33.307)" fill="none" d="M 430.197924 78.987636 L 431.630893 80.421933" stroke="#C8DFF5" stroke-width="4" stroke-miterlimit="10"/><path transform="matrix(.08996 0 0 .08987 33.312 33.307)" fill="none" d="M 431.630893 431.607384 L 430.197924 432.998217" stroke="#C8DFF5" stroke-width="4" stroke-miterlimit="10"/><g clip-path="url(#h)"><path fill="#C8DFF5" d="M 71.878906 72.601562 C 71.789062 72.6875 71.703125 72.769531 71.613281 72.851562 L 71.367188 72.585938 C 71.457031 72.507812 71.542969 72.425781 71.628906 72.339844 Z M 71.34375 73.09375 C 71.253906 73.175781 71.164062 73.253906 71.074219 73.332031 L 70.835938 73.0625 C 70.925781 72.984375 71.015625 72.90625 71.105469 72.828125 Z M 70.796875 73.566406 C 70.707031 73.644531 70.613281 73.722656 70.519531 73.796875 L 70.292969 73.515625 C 70.386719 73.441406 70.476562 73.367188 70.566406 73.292969 Z M 70.242188 74.019531 C 70.148438 74.09375 70.050781 74.167969 69.953125 74.242188 L 69.738281 73.957031 C 69.832031 73.882812 69.925781 73.8125 70.019531 73.738281 Z M 69.664062 74.457031 C 69.566406 74.53125 69.46875 74.601562 69.371094 74.671875 L 69.164062 74.378906 C 69.257812 74.308594 69.355469 74.238281 69.453125 74.167969 Z M 69.074219 74.875 C 68.976562 74.945312 68.878906 75.011719 68.777344 75.078125 L 68.578125 74.777344 C 68.675781 74.714844 68.773438 74.648438 68.871094 74.582031 Z M 68.476562 75.273438 C 68.375 75.339844 68.273438 75.402344 68.171875 75.46875 L 67.980469 75.160156 C 68.082031 75.097656 68.183594 75.035156 68.28125 74.972656 Z M 67.859375 75.65625 L 67.550781 75.835938 L 67.367188 75.527344 L 67.679688 75.34375 Z M 67.234375 76.015625 L 66.917969 76.183594 L 66.746094 75.871094 L 67.0625 75.699219 Z M 66.597656 76.351562 L 66.277344 76.515625 L 66.117188 76.191406 L 66.4375 76.03125 Z M 65.949219 76.671875 L 65.625 76.824219 L 65.472656 76.496094 L 65.796875 76.347656 Z M 65.289062 76.96875 L 64.960938 77.109375 L 64.820312 76.777344 L 65.152344 76.636719 Z M 64.625 77.246094 L 64.289062 77.375 L 64.160156 77.039062 L 64.496094 76.910156 Z M 63.949219 77.5 L 63.609375 77.617188 L 63.492188 77.277344 L 63.832031 77.160156 Z M 63.265625 77.730469 L 62.921875 77.839844 L 62.816406 77.496094 L 63.15625 77.386719 Z M 62.574219 77.941406 L 62.230469 78.039062 L 62.132812 77.691406 L 62.480469 77.59375 Z M 61.878906 78.128906 L 61.53125 78.214844 L 61.445312 77.867188 L 61.792969 77.78125 Z M 61.175781 78.296875 L 60.824219 78.367188 L 60.75 78.015625 L 61.101562 77.945312 Z M 60.46875 78.4375 L 60.113281 78.5 L 60.050781 78.148438 L 60.40625 78.085938 Z M 59.753906 78.558594 L 59.402344 78.609375 L 59.351562 78.253906 L 59.703125 78.203125 Z M 59.039062 78.65625 L 58.683594 78.695312 L 58.644531 78.339844 L 59 78.296875 Z M 58.324219 78.730469 L 57.964844 78.757812 L 57.9375 78.402344 L 58.292969 78.371094 Z M 57.601562 78.78125 L 57.246094 78.800781 L 57.226562 78.441406 L 57.585938 78.421875 Z M 56.882812 78.8125 L 56.523438 78.816406 L 56.515625 78.457031 L 56.875 78.453125 Z M 56.160156 78.816406 L 55.800781 78.8125 L 55.808594 78.453125 L 56.164062 78.457031 Z M 55.4375 78.800781 L 55.078125 78.78125 L 55.097656 78.421875 L 55.453125 78.441406 Z M 54.714844 78.757812 L 54.359375 78.730469 L 54.386719 78.371094 L 54.746094 78.402344 Z M 53.996094 78.695312 L 53.640625 78.65625 L 53.683594 78.296875 L 54.039062 78.339844 Z M 53.28125 78.609375 L 52.925781 78.558594 L 52.976562 78.203125 L 53.332031 78.253906 Z M 52.566406 78.5 L 52.214844 78.4375 L 52.277344 78.085938 L 52.628906 78.148438 Z M 51.855469 78.367188 L 51.507812 78.296875 L 51.582031 77.945312 L 51.929688 78.015625 Z M 51.152344 78.214844 L 50.804688 78.128906 L 50.890625 77.78125 L 51.238281 77.867188 Z M 50.453125 78.039062 L 50.105469 77.941406 L 50.203125 77.59375 L 50.546875 77.691406 Z M 49.757812 77.839844 L 49.417969 77.730469 L 49.523438 77.390625 L 49.867188 77.496094 Z M 49.070312 77.617188 L 48.734375 77.5 L 48.851562 77.160156 L 49.191406 77.277344 Z M 48.390625 77.375 L 48.054688 77.246094 L 48.1875 76.910156 L 48.519531 77.039062 Z M 47.71875 77.109375 L 47.390625 76.96875 L 47.53125 76.636719 L 47.859375 76.777344 Z M 47.058594 76.824219 L 46.734375 76.671875 L 46.882812 76.347656 L 47.210938 76.496094 Z M 46.40625 76.515625 L 46.082031 76.351562 L 46.246094 76.03125 L 46.566406 76.191406 Z M 45.761719 76.183594 L 45.449219 76.015625 L 45.621094 75.699219 L 45.933594 75.871094 Z M 45.132812 75.835938 L 44.820312 75.65625 L 45.003906 75.347656 L 45.3125 75.527344 Z M 44.511719 75.46875 C 44.410156 75.402344 44.304688 75.339844 44.203125 75.273438 L 44.398438 74.972656 C 44.5 75.035156 44.597656 75.097656 44.699219 75.160156 Z M 43.902344 75.078125 C 43.804688 75.011719 43.703125 74.945312 43.605469 74.875 L 43.808594 74.582031 C 43.90625 74.648438 44.003906 74.714844 44.101562 74.777344 Z M 43.308594 74.671875 C 43.210938 74.601562 43.113281 74.53125 43.019531 74.460938 L 43.230469 74.167969 C 43.328125 74.238281 43.421875 74.308594 43.519531 74.378906 Z M 42.726562 74.242188 C 42.632812 74.167969 42.535156 74.09375 42.441406 74.019531 L 42.664062 73.738281 C 42.757812 73.8125 42.851562 73.882812 42.945312 73.957031 Z M 42.160156 73.796875 C 42.066406 73.71875 41.976562 73.644531 41.882812 73.566406 L 42.113281 73.292969 C 42.203125 73.367188 42.296875 73.441406 42.386719 73.515625 Z M 41.609375 73.335938 C 41.519531 73.253906 41.429688 73.175781 41.339844 73.09375 L 41.578125 72.828125 C 41.667969 72.90625 41.753906 72.984375 41.84375 73.0625 Z M 41.070312 72.851562 C 40.980469 72.769531 40.894531 72.6875 40.804688 72.601562 L 41.054688 72.34375 C 41.140625 72.425781 41.226562 72.507812 41.3125 72.589844 Z M 41.070312 72.851562"/></g><path transform="matrix(.08996 0 0 .08987 33.312 33.307)" fill="none" d="M 81.8128 432.998217 L 80.379832 431.607384" stroke="#C8DFF5" stroke-width="4" stroke-miterlimit="10"/><path transform="matrix(.08996 0 0 .08987 33.312 33.307)" fill="none" d="M 99.876893 412.092252 L 79.381096 432.650509" stroke="#C8DFF5" stroke-width="4" stroke-miterlimit="10"/><path transform="matrix(.08996 0 0 .08987 33.312 33.307)" fill="none" d="M 106.520657 418.785638 L 93.233128 405.442329" stroke="#C8DFF5" stroke-width="4" stroke-miterlimit="10"/><path transform="matrix(.08996 0 0 .08987 33.312 33.307)" fill="none" d="M 412.133832 99.893602 L 432.629629 79.378808" stroke="#C8DFF5" stroke-width="4" stroke-miterlimit="10"/><path transform="matrix(.08996 0 0 .08987 33.312 33.307)" fill="none" d="M 405.446644 93.200216 L 418.777596 106.543524" stroke="#C8DFF5" stroke-width="4" stroke-miterlimit="10"/><path transform="matrix(.08996 0 0 .08987 33.312 33.307)" fill="none" d="M 412.133832 412.092252 L 432.629629 432.650509" stroke="#C8DFF5" stroke-width="4" stroke-miterlimit="10"/><path transform="matrix(.08996 0 0 .08987 33.312 33.307)" fill="none" d="M 418.777596 405.442329 L 405.446644 418.785638" stroke="#C8DFF5" stroke-width="4" stroke-miterlimit="10"/><path transform="matrix(.08996 0 0 .08987 33.312 33.307)" fill="none" d="M 99.876893 99.893602 L 79.381096 79.378808" stroke="#C8DFF5" stroke-width="4" stroke-miterlimit="10"/><path transform="matrix(.08996 0 0 .08987 33.312 33.307)" fill="none" d="M 93.233128 106.543524 L 106.520657 93.200216" stroke="#C8DFF5" stroke-width="4" stroke-miterlimit="10"/><g clip-path="url(#i)"><path transform="matrix(.08996 0 0 .08987 33.312 33.307)" fill="none" d="M 255.98365 476.766008 L 255.98365 505.799657" stroke="#C8DFF5" stroke-width="4" stroke-miterlimit="10"/></g><g clip-path="url(#j)"><path transform="matrix(.08996 0 0 .08987 33.312 33.307)" fill="none" d="M 255.98365 35.219846 L 255.98365 6.229661" stroke="#C8DFF5" stroke-width="4" stroke-miterlimit="10"/></g><path transform="matrix(.08996 0 0 .08987 33.312 33.307)" fill="none" d="M 476.791123 256.014659 L 505.797886 256.014659" stroke="#C8DFF5" stroke-width="4" stroke-miterlimit="10"/><path transform="matrix(.08996 0 0 .08987 33.312 33.307)" fill="none" d="M 476.791123 246.583069 L 476.791123 265.446248" stroke="#C8DFF5" stroke-width="4" stroke-miterlimit="10"/><path transform="matrix(.08996 0 0 .08987 33.312 33.307)" fill="none" d="M 35.219601 256.014659 L 6.212838 256.014659" stroke="#C8DFF5" stroke-width="4" stroke-miterlimit="10"/><path transform="matrix(.08996 0 0 .08987 33.312 33.307)" fill="none" d="M 35.219601 265.446248 L 35.219601 246.583069" stroke="#C8DFF5" stroke-width="4" stroke-miterlimit="10"/><path fill="#5BA1E1" d="M 38.210938 67.738281 L 74.472656 67.738281 L 74.472656 74.75 L 38.210938 74.75 Z M 38.210938 67.738281"/><path fill="#6AB0E5" d="M 38.210938 69.164062 L 74.472656 69.164062 L 74.472656 74.75 L 38.210938 74.75 Z M 38.210938 69.164062"/><path fill="#C8DFF5" d="M 74.472656 67.738281 L 38.210938 67.738281 L 44.730469 60.980469 L 67.953125 60.980469 Z M 74.472656 67.738281"/><path fill="#6AB0E5" d="M 44.730469 60.980469 L 67.953125 60.980469 L 67.953125 67.738281 L 44.730469 67.738281 Z M 44.730469 60.980469"/><path fill="#288DE8" d="M 49.148438 71.816406 L 49.148438 70.582031 L 63.535156 70.582031 L 63.535156 71.816406"/><path fill="#C8DFF5" d="M 44.730469 52.277344 L 67.953125 52.277344 L 67.953125 60.980469 L 44.730469 60.980469 Z M 44.730469 52.277344"/><path fill="#6AB0E5" d="M 44.730469 53.804688 L 67.953125 53.804688 L 67.953125 60.980469 L 44.730469 60.980469 Z M 44.730469 53.804688"/><path fill="#288DE8" d="M 47.824219 55.371094 L 54.394531 55.371094 L 54.394531 57.882812 L 47.824219 57.882812 Z M 47.824219 55.371094"/><path fill="#5BA1E1" d="M 67.953125 48.082031 C 67.953125 48.296875 67.914062 48.5 67.832031 48.699219 C 67.75 48.894531 67.632812 49.070312 67.480469 49.21875 C 67.328125 49.371094 67.15625 49.488281 66.957031 49.570312 C 66.761719 49.652344 66.554688 49.691406 66.339844 49.691406 L 59.4375 49.691406 C 59.222656 49.691406 59.019531 49.652344 58.820312 49.570312 C 58.625 49.488281 58.449219 49.371094 58.296875 49.21875 C 58.144531 49.070312 58.03125 48.894531 57.949219 48.699219 C 57.867188 48.5 57.824219 48.296875 57.824219 48.082031 L 57.824219 46.71875 C 57.824219 46.503906 57.867188 46.300781 57.949219 46.101562 C 58.03125 45.90625 58.148438 45.730469 58.296875 45.578125 C 58.449219 45.429688 58.625 45.3125 58.820312 45.230469 C 59.019531 45.148438 59.222656 45.109375 59.4375 45.109375 L 66.339844 45.109375 C 66.554688 45.109375 66.761719 45.148438 66.957031 45.230469 C 67.15625 45.3125 67.328125 45.429688 67.480469 45.578125 C 67.632812 45.730469 67.75 45.90625 67.832031 46.101562 C 67.914062 46.300781 67.953125 46.503906 67.953125 46.71875 Z M 67.953125 48.082031"/><path fill="#288DE8" d="M 66.339844 46.402344 L 59.4375 46.402344 C 59.222656 46.402344 59.019531 46.445312 58.820312 46.527344 C 58.625 46.609375 58.449219 46.726562 58.296875 46.875 C 58.148438 47.027344 58.03125 47.199219 57.949219 47.398438 C 57.867188 47.59375 57.824219 47.800781 57.824219 48.015625 L 57.824219 48.082031 C 57.824219 48.296875 57.867188 48.5 57.949219 48.699219 C 58.03125 48.894531 58.144531 49.070312 58.296875 49.21875 C 58.449219 49.371094 58.625 49.488281 58.820312 49.570312 C 59.019531 49.652344 59.222656 49.691406 59.4375 49.691406 L 66.339844 49.691406 C 66.554688 49.691406 66.761719 49.652344 66.957031 49.570312 C 67.15625 49.488281 67.328125 49.371094 67.480469 49.21875 C 67.632812 49.070312 67.75 48.894531 67.832031 48.699219 C 67.914062 48.5 67.953125 48.296875 67.953125 48.082031 L 67.953125 48.015625 C 67.953125 47.800781 67.914062 47.59375 67.832031 47.398438 C 67.75 47.199219 67.632812 47.027344 67.480469 46.875 C 67.328125 46.722656 67.15625 46.609375 66.957031 46.527344 C 66.761719 46.445312 66.554688 46.402344 66.339844 46.402344 Z M 66.339844 46.402344"/><path fill="#FFF" d="M 56.8125 38.992188 L 55.695312 37.878906 L 54.585938 38.992188 L 53.472656 37.878906 L 52.359375 38.992188 L 51.246094 37.878906 L 50.128906 38.992188 L 49.019531 37.878906 L 47.902344 38.992188 L 46.890625 37.980469 L 46.890625 52.277344 L 57.824219 52.277344 L 57.824219 37.980469 Z M 56.8125 38.992188"/><path fill="#DEF4FC" d="M 55.695312 40.53125 L 54.585938 41.644531 L 53.472656 40.53125 L 52.359375 41.644531 L 51.246094 40.53125 L 50.128906 41.644531 L 49.019531 40.53125 L 47.902344 41.644531 L 46.890625 40.632812 L 46.890625 52.277344 L 57.824219 52.277344 L 57.824219 40.632812 L 56.8125 41.644531 Z M 55.695312 40.53125"/><path stroke-linecap="round" transform="matrix(.08996 0 0 .08987 33.312 33.307)" fill="none" stroke-linejoin="round" d="M 54.456122 383.102067 L 457.554602 383.102067 L 457.554602 461.119132 L 54.456122 461.119132 Z M 54.456122 383.102067" stroke="#2481D7" stroke-width="8"/><path stroke-linecap="round" transform="matrix(.08996 0 0 .08987 33.312 33.307)" fill="none" stroke-linejoin="round" d="M 457.554602 383.102067 L 54.456122 383.102067 L 126.929608 307.910132 L 385.081117 307.910132 Z M 457.554602 383.102067" stroke="#2481D7" stroke-width="8"/><path stroke-linecap="round" transform="matrix(.08996 0 0 .08987 33.312 33.307)" fill="none" stroke-linejoin="round" d="M 176.041358 428.478009 L 176.041358 414.743528 L 335.969366 414.743528 L 335.969366 428.478009" stroke="#2481D7" stroke-width="8"/><path stroke-linecap="round" transform="matrix(.08996 0 0 .08987 33.312 33.307)" fill="none" stroke-linejoin="round" d="M 126.929608 211.073352 L 385.081117 211.073352 L 385.081117 307.910132 L 126.929608 307.910132 Z M 126.929608 211.073352" stroke="#2481D7" stroke-width="8"/><path stroke-linecap="round" transform="matrix(.08996 0 0 .08987 33.312 33.307)" fill="none" stroke-linejoin="round" d="M 161.32086 245.496481 L 234.358848 245.496481 L 234.358848 273.443541 L 161.32086 273.443541 Z M 161.32086 245.496481" stroke="#2481D7" stroke-width="8"/><path stroke-linecap="round" transform="matrix(.08996 0 0 .08987 33.312 33.307)" fill="none" stroke-linejoin="round" d="M 328.804522 184.995225 L 328.804522 211.073352" stroke="#2481D7" stroke-width="8"/><path stroke-linecap="round" transform="matrix(.08996 0 0 .08987 33.312 33.307)" fill="none" stroke-linejoin="round" d="M 385.081117 164.393504 C 385.081117 166.783999 384.646884 169.044103 383.734995 171.260744 C 382.823105 173.433922 381.520406 175.389781 379.826898 177.041396 C 378.133389 178.736474 376.222764 180.04038 374.008176 180.953115 C 371.837011 181.865849 369.535576 182.300485 367.147295 182.300485 L 290.418326 182.300485 C 288.030045 182.300485 285.772033 181.865849 283.557445 180.953115 C 281.38628 180.04038 279.432232 178.736474 277.738723 177.041396 C 276.045214 175.389781 274.785939 173.433922 273.874049 171.260744 C 272.96216 169.044103 272.484504 166.783999 272.484504 164.393504 L 272.484504 149.224726 C 272.484504 146.834231 272.96216 144.574127 273.874049 142.357486 C 274.785939 140.184309 276.088638 138.228449 277.738723 136.533371 C 279.432232 134.881756 281.38628 133.57785 283.557445 132.665115 C 285.772033 131.752381 288.030045 131.317746 290.418326 131.317746 L 367.147295 131.317746 C 369.535576 131.317746 371.837011 131.752381 374.008176 132.665115 C 376.222764 133.57785 378.133389 134.881756 379.826898 136.533371 C 381.520406 138.228449 382.823105 140.184309 383.734995 142.357486 C 384.646884 144.574127 385.081117 146.834231 385.081117 149.224726 Z M 385.081117 164.393504" stroke="#2481D7" stroke-width="8"/><path stroke-linecap="round" transform="matrix(.08996 0 0 .08987 33.312 33.307)" fill="none" stroke-linejoin="round" d="M 261.23787 63.253833 L 248.818806 50.866722 L 236.486589 63.253833 L 224.110949 50.866722 L 211.735309 63.253833 L 199.359669 50.866722 L 186.940606 63.253833 L 174.608389 50.866722 L 162.189326 63.253833 L 150.942692 51.996774 L 150.942692 211.073352 L 272.484504 211.073352 L 272.484504 51.996774 Z M 261.23787 63.253833" stroke="#2481D7" stroke-width="8"/><path stroke-linecap="round" transform="matrix(.08996 0 0 .08987 33.312 33.307)" fill="none" stroke-linejoin="round" d="M 144.516043 328.251072 L 152.50593 328.251072" stroke="#2481D7" stroke-width="8"/><path stroke-linecap="round" transform="matrix(.08996 0 0 .08987 33.312 33.307)" fill="none" stroke-linejoin="round" d="M 175.216315 328.251072 L 183.249626 328.251072" stroke="#2481D7" stroke-width="8"/><path stroke-linecap="round" transform="matrix(.08996 0 0 .08987 33.312 33.307)" fill="none" stroke-linejoin="round" d="M 205.960011 328.251072 L 213.949898 328.251072" stroke="#2481D7" stroke-width="8"/><path stroke-linecap="round" transform="matrix(.08996 0 0 .08987 33.312 33.307)" fill="none" stroke-linejoin="round" d="M 236.660283 328.251072 L 244.65017 328.251072" stroke="#2481D7" stroke-width="8"/><path stroke-linecap="round" transform="matrix(.08996 0 0 .08987 33.312 33.307)" fill="none" stroke-linejoin="round" d="M 267.360555 328.251072 L 275.350442 328.251072" stroke="#2481D7" stroke-width="8"/><path stroke-linecap="round" transform="matrix(.08996 0 0 .08987 33.312 33.307)" fill="none" stroke-linejoin="round" d="M 298.060827 328.251072 L 306.050714 328.251072" stroke="#2481D7" stroke-width="8"/><path stroke-linecap="round" transform="matrix(.08996 0 0 .08987 33.312 33.307)" fill="none" stroke-linejoin="round" d="M 328.761099 328.251072 L 336.750986 328.251072" stroke="#2481D7" stroke-width="8"/><path stroke-linecap="round" transform="matrix(.08996 0 0 .08987 33.312 33.307)" fill="none" stroke-linejoin="round" d="M 359.461371 328.251072 L 367.494681 328.251072" stroke="#2481D7" stroke-width="8"/><path stroke-linecap="round" transform="matrix(.08996 0 0 .08987 33.312 33.307)" fill="none" stroke-linejoin="round" d="M 159.887891 345.5061 L 167.877778 345.5061" stroke="#2481D7" stroke-width="8"/><path stroke-linecap="round" transform="matrix(.08996 0 0 .08987 33.312 33.307)" fill="none" stroke-linejoin="round" d="M 190.588163 345.5061 L 198.57805 345.5061" stroke="#2481D7" stroke-width="8"/><path stroke-linecap="round" transform="matrix(.08996 0 0 .08987 33.312 33.307)" fill="none" stroke-linejoin="round" d="M 221.288435 345.5061 L 229.278322 345.5061" stroke="#2481D7" stroke-width="8"/><path stroke-linecap="round" transform="matrix(.08996 0 0 .08987 33.312 33.307)" fill="none" stroke-linejoin="round" d="M 251.988707 345.5061 L 259.978594 345.5061" stroke="#2481D7" stroke-width="8"/><path stroke-linecap="round" transform="matrix(.08996 0 0 .08987 33.312 33.307)" fill="none" stroke-linejoin="round" d="M 282.688979 345.5061 L 290.722289 345.5061" stroke="#2481D7" stroke-width="8"/><path stroke-linecap="round" transform="matrix(.08996 0 0 .08987 33.312 33.307)" fill="none" stroke-linejoin="round" d="M 313.432674 345.5061 L 321.422561 345.5061" stroke="#2481D7" stroke-width="8"/><path stroke-linecap="round" transform="matrix(.08996 0 0 .08987 33.312 33.307)" fill="none" stroke-linejoin="round" d="M 344.132946 345.5061 L 352.122833 345.5061" stroke="#2481D7" stroke-width="8"/><path stroke-linecap="round" transform="matrix(.08996 0 0 .08987 33.312 33.307)" fill="none" stroke-linejoin="round" d="M 175.216315 362.761127 L 183.249626 362.761127" stroke="#2481D7" stroke-width="8"/><path stroke-linecap="round" transform="matrix(.08996 0 0 .08987 33.312 33.307)" fill="none" stroke-linejoin="round" d="M 205.960011 362.761127 L 213.949898 362.761127" stroke="#2481D7" stroke-width="8"/><path stroke-linecap="round" transform="matrix(.08996 0 0 .08987 33.312 33.307)" fill="none" stroke-linejoin="round" d="M 236.660283 362.761127 L 244.65017 362.761127" stroke="#2481D7" stroke-width="8"/><path stroke-linecap="round" transform="matrix(.08996 0 0 .08987 33.312 33.307)" fill="none" stroke-linejoin="round" d="M 267.360555 362.761127 L 275.350442 362.761127" stroke="#2481D7" stroke-width="8"/><path stroke-linecap="round" transform="matrix(.08996 0 0 .08987 33.312 33.307)" fill="none" stroke-linejoin="round" d="M 298.060827 362.761127 L 306.050714 362.761127" stroke="#2481D7" stroke-width="8"/><path stroke-linecap="round" transform="matrix(.08996 0 0 .08987 33.312 33.307)" fill="none" stroke-linejoin="round" d="M 328.761099 362.761127 L 336.750986 362.761127" stroke="#2481D7" stroke-width="8"/><path fill="#E9F6FF" d="M 65.339844 55.558594 L 63.957031 55.558594 L 63.957031 54.179688 L 61.820312 54.179688 L 61.820312 55.558594 L 60.4375 55.558594 L 60.4375 57.691406 L 61.820312 57.691406 L 61.820312 59.074219 L 63.957031 59.074219 L 63.957031 57.691406 L 65.339844 57.691406 Z M 65.339844 55.558594"/><path fill="#FFF" d="M 64.015625 55.558594 L 63.957031 55.558594 L 63.957031 54.179688 L 61.820312 54.179688 L 61.820312 55.558594 L 60.4375 55.558594 L 60.4375 57.691406 L 61.820312 57.691406 L 61.820312 57.753906 Z M 64.015625 55.558594"/><path stroke-linecap="round" transform="matrix(.08996 0 0 .08987 33.312 33.307)" fill="none" stroke-linejoin="round" d="M 356.03093 247.582731 L 340.659082 247.582731 L 340.659082 232.240099 L 316.906538 232.240099 L 316.906538 247.582731 L 301.534691 247.582731 L 301.534691 271.313827 L 316.906538 271.313827 L 316.906538 286.699922 L 340.659082 286.699922 L 340.659082 271.313827 L 356.03093 271.313827 Z M 356.03093 247.582731" stroke="#2481D7" stroke-width="6"/><path fill="#E9F6FF" d="M 43.113281 40.375 L 41.726562 40.375 L 41.726562 38.992188 L 39.59375 38.992188 L 39.59375 40.375 L 38.210938 40.375 L 38.210938 42.507812 L 39.59375 42.507812 L 39.59375 43.890625 L 41.726562 43.890625 L 41.726562 42.507812 L 43.113281 42.507812 Z M 43.113281 40.375"/><path fill="#FFF" d="M 41.785156 40.375 L 41.726562 40.375 L 41.726562 38.992188 L 39.59375 38.992188 L 39.59375 40.375 L 38.210938 40.375 L 38.210938 42.507812 L 39.59375 42.507812 L 39.59375 42.566406 Z M 41.785156 40.375"/><path stroke-linecap="round" transform="matrix(.08996 0 0 .08987 33.312 33.307)" fill="none" stroke-linejoin="round" d="M 108.952362 78.639928 L 93.537091 78.639928 L 93.537091 63.253833 L 69.82797 63.253833 L 69.82797 78.639928 L 54.456122 78.639928 L 54.456122 102.371024 L 69.82797 102.371024 L 69.82797 117.757119 L 93.537091 117.757119 L 93.537091 102.371024 L 108.952362 102.371024 Z M 108.952362 78.639928" stroke="#2481D7" stroke-width="6"/><path fill="#E9F6FF" d="M 74.472656 40.375 L 73.089844 40.375 L 73.089844 38.992188 L 70.953125 38.992188 L 70.953125 40.375 L 69.570312 40.375 L 69.570312 42.507812 L 70.953125 42.507812 L 70.953125 43.890625 L 73.089844 43.890625 L 73.089844 42.507812 L 74.472656 42.507812 Z M 74.472656 40.375"/><path fill="#FFF" d="M 73.148438 40.375 L 73.089844 40.375 L 73.089844 38.992188 L 70.953125 38.992188 L 70.953125 40.375 L 69.570312 40.375 L 69.570312 42.507812 L 70.953125 42.507812 L 70.953125 42.566406 Z M 73.148438 40.375"/><path stroke-linecap="round" transform="matrix(.08996 0 0 .08987 33.312 33.307)" fill="none" stroke-linejoin="round" d="M 457.554602 78.639928 L 442.182754 78.639928 L 442.182754 63.253833 L 418.43021 63.253833 L 418.43021 78.639928 L 403.058362 78.639928 L 403.058362 102.371024 L 418.43021 102.371024 L 418.43021 117.757119 L 442.182754 117.757119 L 442.182754 102.371024 L 457.554602 102.371024 Z M 457.554602 78.639928" stroke="#2481D7" stroke-width="6"/><path transform="matrix(.08996 0 0 .08987 33.312 33.307)" fill="none" d="M 179.080989 110.976806 L 244.38963 110.976806" stroke="#C8DFF5" stroke-width="4" stroke-miterlimit="10"/><path transform="matrix(.08996 0 0 .08987 33.312 33.307)" fill="none" d="M 179.080989 128.318761 L 228.105893 128.318761" stroke="#C8DFF5" stroke-width="4" stroke-miterlimit="10"/><path transform="matrix(.08996 0 0 .08987 33.312 33.307)" fill="none" d="M 179.080989 145.704179 L 244.38963 145.704179" stroke="#C8DFF5" stroke-width="4" stroke-miterlimit="10"/><path transform="matrix(.08996 0 0 .08987 33.312 33.307)" fill="none" d="M 179.080989 163.089598 L 228.105893 163.089598" stroke="#C8DFF5" stroke-width="4" stroke-miterlimit="10"/><path transform="matrix(.08996 0 0 .08987 33.312 33.307)" fill="none" d="M 179.080989 180.475016 L 244.38963 180.475016" stroke="#C8DFF5" stroke-width="4" stroke-miterlimit="10"/><g clip-path="url(#k)"><path transform="matrix(.08996 0 0 .08987 33.312 33.307)" fill="none" d="M 49.636136 301.520991 C 49.636136 303.302997 49.02821 304.824221 47.768934 306.084663 C 46.509659 307.345106 44.989843 307.997059 43.209488 307.997059 C 41.429133 307.997059 39.909317 307.345106 38.650042 306.084663 C 37.347343 304.824221 36.739417 303.302997 36.739417 301.520991 C 36.739417 299.738986 37.390766 298.217762 38.650042 296.957319 C 39.909317 295.696876 41.429133 295.088386 43.209488 295.088386 C 44.989843 295.088386 46.509659 295.696876 47.768934 296.957319 C 49.02821 298.217762 49.636136 299.738986 49.636136 301.520991 Z M 49.636136 301.520991" stroke="#C8DFF5" stroke-width="4" stroke-miterlimit="10"/></g><path transform="matrix(.08996 0 0 .08987 33.312 33.307)" fill="none" d="M 74.30057 326.164822 C 74.30057 327.946827 73.64922 329.468051 72.389945 330.728494 C 71.130669 331.988937 69.610854 332.597426 67.830498 332.597426 C 66.050143 332.597426 64.530328 331.988937 63.271052 330.728494 C 62.011776 329.468051 61.40385 327.946827 61.40385 326.164822 C 61.40385 324.382816 62.011776 322.861592 63.271052 321.601149 C 64.530328 320.340707 66.050143 319.732217 67.830498 319.732217 C 69.610854 319.732217 71.130669 320.38417 72.389945 321.601149 C 73.64922 322.861592 74.257146 324.382816 74.30057 326.164822 Z M 74.30057 326.164822" stroke="#C8DFF5" stroke-width="4" stroke-miterlimit="10"/><g clip-path="url(#l)"><path transform="matrix(.08996 0 0 .08987 33.312 33.307)" fill="none" d="M 39.952741 329.381124 L 71.043822 298.304689" stroke="#C8DFF5" stroke-width="4" stroke-miterlimit="10"/></g><path transform="matrix(.08996 0 0 .08987 33.312 33.307)" fill="none" d="M 450.606874 301.520991 C 450.606874 303.302997 449.955525 304.824221 448.696249 306.084663 C 447.436973 307.345106 445.917158 307.953596 444.180226 307.953596 C 442.399871 307.953596 440.880055 307.345106 439.62078 306.084663 C 438.361504 304.824221 437.710154 303.302997 437.710154 301.520991 C 437.710154 299.738986 438.361504 298.217762 439.62078 296.957319 C 440.880055 295.696876 442.399871 295.088386 444.180226 295.088386 C 445.917158 295.088386 447.436973 295.696876 448.696249 296.957319 C 449.955525 298.217762 450.606874 299.738986 450.606874 301.520991 Z M 450.606874 301.520991" stroke="#C8DFF5" stroke-width="4" stroke-miterlimit="10"/><g clip-path="url(#m)"><path transform="matrix(.08996 0 0 .08987 33.312 33.307)" fill="none" d="M 475.271308 326.164822 C 475.271308 327.946827 474.619958 329.468051 473.360682 330.728494 C 472.101407 331.988937 470.581591 332.64089 468.801236 332.64089 C 467.020881 332.64089 465.501065 331.988937 464.24179 330.728494 C 462.982514 329.468051 462.331165 327.946827 462.331165 326.164822 C 462.331165 324.382816 462.982514 322.861592 464.24179 321.601149 C 465.501065 320.340707 467.020881 319.732217 468.801236 319.732217 C 470.581591 319.732217 472.101407 320.38417 473.360682 321.601149 C 474.619958 322.861592 475.227884 324.382816 475.271308 326.164822 Z M 475.271308 326.164822" stroke="#C8DFF5" stroke-width="4" stroke-miterlimit="10"/></g><path transform="matrix(.08996 0 0 .08987 33.312 33.307)" fill="none" d="M 440.923479 329.381124 L 472.01456 298.304689" stroke="#C8DFF5" stroke-width="4" stroke-miterlimit="10"/><path fill="#E9F6FF" d="M 44.351562 54.804688 C 44.042969 54.804688 43.777344 54.695312 43.5625 54.476562 L 41.703125 52.621094 C 41.601562 52.515625 41.523438 52.394531 41.472656 52.257812 C 41.417969 52.125 41.390625 51.984375 41.394531 51.835938 C 41.394531 51.691406 41.425781 51.550781 41.480469 51.417969 C 41.539062 51.285156 41.617188 51.164062 41.71875 51.0625 C 41.824219 50.960938 41.941406 50.878906 42.078125 50.824219 C 42.210938 50.765625 42.351562 50.738281 42.496094 50.734375 C 42.640625 50.734375 42.78125 50.761719 42.917969 50.8125 C 43.054688 50.867188 43.175781 50.941406 43.28125 51.042969 L 44.351562 52.113281 L 47.851562 48.613281 C 47.957031 48.503906 48.078125 48.421875 48.214844 48.359375 C 48.351562 48.300781 48.496094 48.269531 48.648438 48.265625 C 48.796875 48.265625 48.941406 48.292969 49.082031 48.347656 C 49.222656 48.40625 49.34375 48.488281 49.449219 48.59375 C 49.558594 48.699219 49.640625 48.824219 49.695312 48.960938 C 49.753906 49.101562 49.78125 49.246094 49.777344 49.394531 C 49.777344 49.546875 49.746094 49.691406 49.683594 49.828125 C 49.625 49.964844 49.539062 50.085938 49.433594 50.191406 L 45.140625 54.476562 C 44.921875 54.695312 44.660156 54.804688 44.351562 54.804688 Z M 44.351562 54.804688"/><path fill="#FFF" d="M 47.851562 48.613281 L 44.351562 52.113281 L 43.28125 51.042969 C 43.175781 50.9375 43.054688 50.859375 42.917969 50.800781 C 42.78125 50.746094 42.636719 50.71875 42.492188 50.71875 C 42.34375 50.71875 42.199219 50.746094 42.0625 50.800781 C 41.925781 50.859375 41.804688 50.9375 41.703125 51.042969 C 41.691406 51.054688 41.683594 51.0625 41.671875 51.074219 C 41.683594 51.085938 41.691406 51.09375 41.703125 51.105469 L 43.5625 52.960938 C 43.664062 53.066406 43.785156 53.148438 43.921875 53.203125 C 44.058594 53.261719 44.203125 53.289062 44.351562 53.289062 C 44.5 53.289062 44.640625 53.261719 44.777344 53.203125 C 44.914062 53.148438 45.035156 53.066406 45.140625 52.960938 L 49.433594 48.675781 C 49.441406 48.664062 49.449219 48.65625 49.460938 48.644531 C 49.449219 48.632812 49.441406 48.625 49.433594 48.613281 C 49.328125 48.511719 49.207031 48.429688 49.070312 48.371094 C 48.933594 48.316406 48.789062 48.289062 48.640625 48.289062 C 48.496094 48.285156 48.351562 48.316406 48.214844 48.371094 C 48.078125 48.429688 47.957031 48.507812 47.851562 48.613281 Z M 47.851562 48.613281"/><path stroke-linecap="round" transform="matrix(.08996 0 0 .08987 33.312 33.307)" fill="none" stroke-linejoin="round" d="M 122.717548 239.194266 C 119.287107 239.194266 116.334323 237.977287 113.946041 235.543329 L 93.276551 214.898144 C 92.147545 213.724629 91.279079 212.377259 90.714577 210.856034 C 90.10665 209.378274 89.802687 207.813586 89.846111 206.161972 C 89.846111 204.55382 90.193497 202.989133 90.801423 201.511372 C 91.452773 200.033612 92.321239 198.686242 93.450244 197.556189 C 94.622673 196.426137 95.925372 195.513403 97.445188 194.904913 C 98.92158 194.25296 100.484819 193.948715 102.091481 193.905252 C 103.698143 193.905252 105.261382 194.209496 106.781197 194.774523 C 108.301012 195.383012 109.647135 196.20882 110.819564 197.338872 L 122.717548 209.247883 L 161.624823 170.304546 C 162.797252 169.087567 164.143374 168.174832 165.66319 167.479416 C 167.183005 166.827463 168.789667 166.479754 170.483176 166.436291 C 172.133261 166.436291 173.739923 166.740535 175.303162 167.349025 C 176.866401 168.000978 178.212523 168.913713 179.384952 170.087228 C 180.600804 171.260744 181.512694 172.651578 182.12062 174.172802 C 182.771969 175.737489 183.075932 177.345641 183.032509 178.997255 C 183.032509 180.692334 182.685123 182.300485 181.99035 183.821709 C 181.339 185.342933 180.383688 186.690303 179.211259 187.863819 L 131.489054 235.543329 C 129.057349 237.977287 126.147988 239.194266 122.717548 239.194266 Z M 122.717548 239.194266" stroke="#2481D7" stroke-width="6"/></svg>