<svg xmlns="http://www.w3.org/2000/svg" width="112.5" viewBox="0 0 112.5 112.5" height="112.5" version="1.0"><defs><clipPath id="a"><path d="M 0 0 L 112.003906 0 L 112.003906 112.003906 L 0 112.003906 Z M 0 0"/></clipPath><clipPath id="b"><path d="M 23.363281 23.363281 L 89.363281 23.363281 L 89.363281 89.363281 L 23.363281 89.363281 Z M 23.363281 23.363281"/></clipPath></defs><g clip-path="url(#a)"><path fill="#FFF" d="M 0 0 L 112.5 0 L 112.5 112.5 L 0 112.5 Z M 0 0"/><path d="M 0 0 L 112.5 0 L 112.5 112.5 L 0 112.5 Z M 0 0"/></g><g clip-path="url(#b)"><path fill="#FFF" d="M 67.914062 60.65625 L 78.476562 60.65625 C 79.019531 60.65625 79.464844 61.097656 79.464844 61.644531 L 79.464844 65.605469 C 79.464844 66.152344 79.019531 66.59375 78.476562 66.59375 L 67.914062 66.59375 C 67.367188 66.59375 66.925781 66.152344 66.925781 65.605469 L 66.925781 61.644531 C 66.925781 61.097656 67.367188 60.65625 67.914062 60.65625 Z M 75.792969 64.839844 C 75.625 65.015625 75.625 65.273438 75.792969 65.449219 C 75.875 65.535156 75.980469 65.589844 76.089844 65.589844 C 76.199219 65.589844 76.316406 65.535156 76.402344 65.449219 L 78.023438 63.753906 C 78.109375 63.664062 78.144531 63.570312 78.144531 63.449219 C 78.144531 63.328125 78.109375 63.230469 78.023438 63.144531 L 76.402344 61.449219 C 76.230469 61.269531 75.964844 61.269531 75.792969 61.449219 C 75.625 61.625 75.625 61.878906 75.792969 62.054688 L 76.699219 63.003906 L 73.285156 63.003906 C 73.042969 63.003906 72.863281 63.199219 72.863281 63.449219 C 72.863281 63.695312 73.042969 63.878906 73.285156 63.878906 L 76.703125 63.878906 Z M 34.363281 23.363281 L 78.363281 23.363281 C 84.441406 23.363281 89.363281 28.289062 89.363281 34.363281 L 89.363281 78.363281 C 89.363281 84.441406 84.441406 89.363281 78.363281 89.363281 L 34.363281 89.363281 C 28.289062 89.363281 23.363281 84.441406 23.363281 78.363281 L 23.363281 34.363281 C 23.363281 28.289062 28.289062 23.363281 34.363281 23.363281 Z M 68.738281 29.066406 C 67.371094 29.066406 66.265625 30.171875 66.265625 31.539062 C 66.265625 32.90625 67.371094 34.015625 68.738281 34.015625 C 70.105469 34.015625 71.214844 32.90625 71.214844 31.539062 C 71.214844 30.171875 70.105469 29.066406 68.738281 29.066406 Z M 76.804688 29.066406 C 75.441406 29.066406 74.332031 30.171875 74.332031 31.539062 C 74.332031 32.90625 75.441406 34.015625 76.804688 34.015625 C 78.171875 34.015625 79.28125 32.90625 79.28125 31.539062 C 79.28125 30.171875 78.171875 29.066406 76.804688 29.066406 Z M 28.644531 79.433594 C 28.644531 81.613281 30.414062 83.382812 32.59375 83.382812 L 79.988281 83.382812 C 82.167969 83.382812 83.9375 81.613281 83.9375 79.433594 L 83.9375 38.214844 L 28.644531 38.214844 Z M 48.398438 44.15625 L 53.289062 44.15625 L 62.304688 53.46875 L 56.328125 59.433594 L 53.917969 56.917969 L 53.917969 68.441406 L 38.023438 68.441406 L 38.023438 56.917969 L 35.613281 59.433594 L 29.632812 53.46875 L 38.648438 44.15625 L 43.542969 44.15625 L 43.542969 44.40625 C 43.542969 45.742188 44.632812 45.824219 45.96875 45.824219 C 47.308594 45.824219 48.398438 45.742188 48.398438 44.40625 Z M 67.253906 45.144531 L 78.144531 45.144531 C 78.691406 45.144531 79.132812 45.585938 79.132812 46.132812 C 79.132812 46.679688 78.691406 47.125 78.144531 47.125 L 67.253906 47.125 C 66.707031 47.125 66.265625 46.679688 66.265625 46.132812 C 66.265625 45.585938 66.707031 45.144531 67.253906 45.144531 Z M 67.253906 48.445312 L 78.144531 48.445312 C 78.691406 48.445312 79.132812 48.886719 79.132812 49.433594 C 79.132812 49.980469 78.691406 50.425781 78.144531 50.425781 L 67.253906 50.425781 C 66.707031 50.425781 66.265625 49.980469 66.265625 49.433594 C 66.265625 48.886719 66.707031 48.445312 67.253906 48.445312 Z M 67.253906 51.746094 L 78.144531 51.746094 C 78.691406 51.746094 79.132812 52.1875 79.132812 52.734375 C 79.132812 53.28125 78.691406 53.722656 78.144531 53.722656 L 67.253906 53.722656 C 66.707031 53.722656 66.265625 53.28125 66.265625 52.734375 C 66.265625 52.1875 66.707031 51.746094 67.253906 51.746094 Z M 67.253906 55.042969 L 73.523438 55.042969 C 74.070312 55.042969 74.515625 55.488281 74.515625 56.035156 C 74.515625 56.582031 74.070312 57.023438 73.523438 57.023438 L 67.253906 57.023438 C 66.707031 57.023438 66.265625 56.582031 66.265625 56.035156 C 66.265625 55.488281 66.707031 55.042969 67.253906 55.042969 Z M 35.90625 73.523438 L 46.792969 73.523438 C 47.339844 73.523438 47.785156 73.96875 47.785156 74.515625 C 47.785156 75.0625 47.339844 75.503906 46.792969 75.503906 L 35.90625 75.503906 C 35.359375 75.503906 34.914062 75.0625 34.914062 74.515625 C 34.914062 73.96875 35.359375 73.523438 35.90625 73.523438 Z M 35.90625 76.824219 L 46.792969 76.824219 C 47.339844 76.824219 47.785156 77.269531 47.785156 77.816406 C 47.785156 78.359375 47.339844 78.804688 46.792969 78.804688 L 35.90625 78.804688 C 35.359375 78.804688 34.914062 78.359375 34.914062 77.816406 C 34.914062 77.269531 35.359375 76.824219 35.90625 76.824219 Z M 52.40625 73.523438 L 63.292969 73.523438 C 63.839844 73.523438 64.285156 73.96875 64.285156 74.515625 C 64.285156 75.0625 63.839844 75.503906 63.292969 75.503906 L 52.40625 75.503906 C 51.859375 75.503906 51.414062 75.0625 51.414062 74.515625 C 51.414062 73.96875 51.859375 73.523438 52.40625 73.523438 Z M 52.40625 76.824219 L 63.292969 76.824219 C 63.839844 76.824219 64.285156 77.269531 64.285156 77.816406 C 64.285156 78.359375 63.839844 78.804688 63.292969 78.804688 L 52.40625 78.804688 C 51.859375 78.804688 51.414062 78.359375 51.414062 77.816406 C 51.414062 77.269531 51.859375 76.824219 52.40625 76.824219 Z M 68.246094 73.523438 L 79.132812 73.523438 C 79.679688 73.523438 80.125 73.96875 80.125 74.515625 C 80.125 75.0625 79.679688 75.503906 79.132812 75.503906 L 68.246094 75.503906 C 67.699219 75.503906 67.253906 75.0625 67.253906 74.515625 C 67.253906 73.96875 67.699219 73.523438 68.246094 73.523438 Z M 68.246094 76.824219 L 79.132812 76.824219 C 79.679688 76.824219 80.125 77.269531 80.125 77.816406 C 80.125 78.359375 79.679688 78.804688 79.132812 78.804688 L 68.246094 78.804688 C 67.699219 78.804688 67.253906 78.359375 67.253906 77.816406 C 67.253906 77.269531 67.699219 76.824219 68.246094 76.824219 Z M 68.246094 76.824219" fill-rule="evenodd"/></g></svg>